<svg width="28" height="28" viewBox="0 0 28 28" fill="none" xmlns="http://www.w3.org/2000/svg">
<path d="M13.9952 11.9241H13.9952C13.3878 11.9245 12.8956 12.4172 12.8961 13.0246L12.9007 20.1756H12.9004L12.901 20.184L12.91 20.3163L12.9097 20.3163L12.9108 20.3247C12.984 20.8616 13.4444 21.275 14.0013 21.2747C14.6087 21.2743 15.1009 20.7816 15.1004 20.1741L15.0957 13.0232H15.096L15.0955 13.0148L15.0865 12.8825L15.0868 12.8825L15.0856 12.874C15.0124 12.3372 14.5521 11.9238 13.9952 11.9241ZM27.125 14.0001C27.125 6.75127 21.2488 0.875 14.0001 0.875C6.75127 0.875 0.875 6.75127 0.875 14.0001C0.875 21.2488 6.75127 27.125 14.0001 27.125C21.2488 27.125 27.125 21.2488 27.125 14.0001ZM3.0747 14.0001C3.0747 7.96614 7.96613 3.0747 14.0001 3.0747C20.0338 3.0747 24.9253 7.96614 24.9253 14.0001C24.9253 20.034 20.0338 24.9253 14.0001 24.9253C7.96613 24.9253 3.0747 20.034 3.0747 14.0001ZM15.4237 8.80072C15.4237 8.01479 14.7866 7.37766 14.0006 7.37766C13.2147 7.37766 12.5775 8.01479 12.5775 8.80072C12.5775 9.58667 13.2147 10.2238 14.0006 10.2238C14.7866 10.2238 15.4237 9.58666 15.4237 8.80072Z" fill="#62CEE2" stroke="#62CEE2" stroke-width="0.25"/>
</svg>
