<svg width="22" height="19" viewBox="0 0 22 19" fill="none" xmlns="http://www.w3.org/2000/svg">
<g clip-path="url(#clip0_1_2517)">
<path d="M20.9204 17.3729C20.9676 17.3734 21.0144 17.3643 21.0579 17.3461C21.1014 17.3279 21.1406 17.3011 21.1732 17.2672C21.2058 17.2334 21.231 17.1933 21.2473 17.1494C21.2635 17.1055 21.2705 17.0588 21.2678 17.0122C21.2678 16.7563 21.1119 16.6341 20.7921 16.6341H20.2753V17.9736H20.4696V17.3897H20.7085L20.714 17.3968L21.0846 17.9736H21.2925L20.8937 17.3766L20.9204 17.3729ZM20.6956 17.2387H20.4702V16.7859H20.7559C20.9035 16.7859 21.0717 16.8098 21.0717 17.0011C21.0717 17.2211 20.9015 17.2387 20.6944 17.2387" fill="#0A033C"/>
<path d="M15.8502 15.6939H13.0939V11.4199C13.0939 10.4008 13.0756 9.08876 11.6604 9.08876C10.2248 9.08876 10.0051 10.1992 10.0051 11.3457V15.6936H7.24881V6.90457H9.89488V8.10569H9.93192C10.1967 7.65738 10.5794 7.28858 11.0391 7.03856C11.4989 6.78855 12.0185 6.66669 12.5427 6.68595C15.3363 6.68595 15.8514 8.5054 15.8514 10.8724L15.8502 15.6939ZM4.13878 5.70317C3.82242 5.70322 3.51314 5.61039 3.25007 5.43641C2.987 5.26243 2.78195 5.01512 2.66084 4.72574C2.53972 4.43637 2.50798 4.11793 2.56964 3.8107C2.6313 3.50346 2.7836 3.22124 3.00726 2.9997C3.23091 2.77817 3.5159 2.62728 3.82616 2.56611C4.13643 2.50495 4.45804 2.53625 4.75033 2.65607C5.04263 2.77589 5.29248 2.97885 5.46828 3.23926C5.64409 3.49968 5.73796 3.80587 5.73802 4.11911C5.73805 4.3271 5.69671 4.53305 5.61636 4.72522C5.53601 4.91738 5.41824 5.092 5.26973 5.23909C5.12123 5.38618 4.94491 5.50287 4.75086 5.5825C4.55681 5.66213 4.34883 5.70313 4.13878 5.70317ZM5.51693 15.6939H2.75775V6.90457H5.51693V15.6939ZM17.2244 0.00119386H1.3727C1.01292 -0.00282636 0.666217 0.134751 0.408822 0.383695C0.151426 0.632638 0.00439102 0.97258 0 1.32882V17.0895C0.00424073 17.4459 0.15119 17.7861 0.408576 18.0353C0.665963 18.2845 1.01274 18.4223 1.3727 18.4185H17.2244C17.5851 18.423 17.9328 18.2856 18.1912 18.0364C18.4496 17.7872 18.5975 17.4466 18.6025 17.0895V1.32768C18.5974 0.970736 18.4494 0.630408 18.191 0.38147C17.9325 0.132533 17.5849 -0.00465146 17.2244 5.62473e-05" fill="#0A033C"/>
<path d="M20.7195 16.0373C20.3842 16.0405 20.0638 16.175 19.8283 16.4115C19.5929 16.648 19.4617 16.9672 19.4633 17.2992C19.4649 17.6313 19.5992 17.9492 19.837 18.1834C20.0747 18.4177 20.3964 18.5492 20.7317 18.5492C21.0671 18.5492 21.3888 18.4177 21.6265 18.1834C21.8642 17.9492 21.9986 17.6313 22.0002 17.2992C22.0018 16.9672 21.8706 16.648 21.6352 16.4115C21.3997 16.175 21.0793 16.0405 20.7439 16.0373H20.7195ZM20.7195 18.4054C20.4996 18.409 20.2835 18.348 20.0986 18.23C19.9136 18.112 19.7682 17.9424 19.6806 17.7425C19.5931 17.5427 19.5673 17.3217 19.6067 17.1073C19.646 16.893 19.7486 16.6951 19.9016 16.5385C20.0545 16.3819 20.2509 16.2738 20.4659 16.2278C20.6809 16.1817 20.9049 16.1998 21.1095 16.2798C21.3141 16.3598 21.4902 16.4981 21.6155 16.6772C21.7407 16.8562 21.8095 17.0681 21.8132 17.2859C21.8132 17.2921 21.8132 17.2981 21.8132 17.3043C21.8193 17.59 21.7106 17.8665 21.511 18.0728C21.3113 18.2792 21.0371 18.3986 20.7485 18.4048H20.7198" fill="#0A033C"/>
</g>
<defs>
<clipPath id="clip0_1_2517">
<rect width="22" height="18.5714" fill="white"/>
</clipPath>
</defs>
</svg>
