<svg xmlns="http://www.w3.org/2000/svg" width="278" height="212" fill="none"><g clip-path="url(#a)"><path fill="#F47B3A" d="M81.465 100.14c1.195 5.919 2.128 12.283 2.977 18.689.519 3.941 1.002 7.889 1.486 11.754 1.056 8.425 2.134 16.425 3.612 22.95 1.706 7.534 3.965 13.083 7.377 15.054 11.528 6.649-8.04 12.735-8.04 12.735-.062.014-11.376 3.112-23.782.933-5.395-.947-10.99-2.897-15.963-6.531-3.654-2.674-6.97-6.26-9.615-11.03-3.295-5.946-4.58-11.203-5.015-16.098-.87-9.971 1.838-18.396-1.47-27.88-1.258-3.614-3.385-7.374-6.915-11.433-3.191-3.67-7.522-7.583-13.394-11.844-.642-.467-1.305-.94-1.982-1.414-16.073-11.231-9.318-28.82 5.098-36.256 7.888-4.067 17.952-4.157 27.753-1.393 8.248 2.326 16.309 6.67 22.726 12.367 5.546 4.915 9.863 10.84 12.018 17.344 1.216 3.663 2.225 7.736 3.102 12.06l.027-.007Z"/><path fill="#993021" d="M66.345 70.736c-11.818 7.387-34.571 23.193-40.207 38.54-3.192-3.67-7.523-7.583-13.394-11.844 2.141-8.725 9.408-29.865 30.87-39.056 8.246 2.326 16.307 6.67 22.724 12.367l.007-.007ZM81.465 100.14c1.195 5.919 2.128 12.283 2.977 18.689-15.258 4.512-43.723 14.762-49.926 29.76-.87-9.964 1.837-18.396-1.471-27.88 6.956-8.753 18.905-19.308 36.747-20.75 4.704-.376 8.544-.271 11.666.181h.007ZM85.927 130.583c1.057 8.425 2.135 16.425 3.613 22.95-9.311 7.993-19.79 18.528-24.438 28.722-5.395-.947-10.99-2.897-15.963-6.531 1.554-9.449 7.487-31.668 29.377-42.12 2.721-1.302 5.18-2.29 7.411-3.015v-.006Z"/><path fill="#6C184E" d="M100.357 174.053c-1.547 4.177-11.473 7.262-11.473 7.262-.062.014-11.377 3.112-23.782.933-5.395-.954-10.99-2.897-15.963-6.531-3.654-2.674-6.97-6.26-9.615-11.03-3.295-5.946-4.58-11.203-5.015-16.098-.87-9.971 1.837-18.396-1.464-27.88-1.257-3.614-3.385-7.381-6.914-11.433-3.185-3.67-7.523-7.583-13.394-11.844-.642-.467-1.298-.933-1.982-1.414-16.074-11.231-9.325-28.82 5.097-36.25a28.073 28.073 0 0 1 5.547-2.13c-8.62 8.662-10.382 21.739 2.487 30.728.677.473 1.34.947 1.982 1.413 5.871 4.262 10.202 8.175 13.393 11.844 3.523 4.06 5.658 7.827 6.908 11.434 3.308 9.483.6 17.915 1.471 27.88.428 4.895 1.72 10.159 5.015 16.098 2.638 4.777 5.96 8.356 9.615 11.029 4.966 3.635 10.568 5.585 15.956 6.532 9.594 1.692 18.54.223 22.124-.543h.007Z" opacity=".3"/><path fill="#6C184E" d="M74.434 184.504c-1.568 0-3.212-.063-4.898-.202-14.277-1.198-25.094-7.729-31.276-18.897-6.017-10.87-5.567-19.775-5.167-27.63.636-12.631 1.188-23.542-23.153-40.552C3.095 92.439-.421 85.978.04 79.022c.54-8.147 6.348-16.036 15.155-20.576 9.443-4.867 22.29-4.603 35.248.73 14.195 5.843 25.42 16.74 29.308 28.438 3.668 11.057 5.485 25.589 7.24 39.647 2.244 17.958 4.558 36.528 10.657 40.044 3.136 1.804 4.594 3.872 4.345 6.142-.573 5.257-10.658 8.648-12.675 9.275-.014 0-.028.006-.048.013-.311.084-6.528 1.762-14.837 1.762v.007ZM30.614 57.965c-5.243 0-10.072 1.03-14.092 3.099C8.745 65.074 3.42 72.198 2.95 79.216c-.393 5.968 2.59 11.357 8.642 15.584 25.681 17.943 25.06 30.177 24.403 43.122-.394 7.826-.801 15.917 4.8 26.048 5.755 10.396 15.473 16.245 28.887 17.394 9.912.842 18.312-1.33 18.795-1.456 4.255-1.329 10.34-4.31 10.61-6.782.145-1.302-1.754-2.604-2.894-3.265-7.363-4.248-9.56-21.85-12.109-42.231-1.734-13.912-3.536-28.304-7.108-39.076-3.619-10.911-14.215-21.119-27.643-26.648-6.361-2.618-12.799-3.934-18.719-3.934v-.007Z"/><path fill="#fff" d="M76.222 137.81a6.023 6.023 0 0 1-5.74-4.247c-1.16-3.726-1.36-7.325-1.595-11.496-.332-5.975-.746-13.404-4.02-25.631-2.984-11.134-9.519-16.579-13.822-19.05a6.072 6.072 0 0 1-2.852-6.776c.98-3.844 5.325-5.73 8.744-3.774 6.417 3.67 15.507 11.343 19.548 26.439 3.606 13.445 4.075 21.926 4.42 28.116.201 3.579.346 6.177 1.023 8.426.96 3.175-.677 6.635-3.799 7.687a5.917 5.917 0 0 1-1.913.313l.007-.007Z" opacity=".3"/><path fill="#F47B3A" d="M149.751 208.972c-3.149 1.316-10.195 1.114-16.163.62a9.746 9.746 0 0 1-5.588-2.34 10.015 10.015 0 0 1-3.46-8.23c.359-5.828.566-12.854-.353-17.916l.187.265-.104-.627-.083-.487s-8.489.94-17.178-.154l3.308.885.436.111c-.919 5.062-.712 12.088-.353 17.916a10.007 10.007 0 0 1-3.391 8.168 9.71 9.71 0 0 1-5.657 2.395c-5.968.494-13.02.696-16.163-.62-6.196-2.583-6.017-6.127-4.532-9.839.808-2.019 3.095-3.446 6.058-4.087a192.379 192.379 0 0 1-3.088-11.684 144.106 144.106 0 0 1-1.188-5.716c-.704-3.844-1.195-7.66-1.215-10.911-.035-5.613.11-15.82.269-25.074.076-4.255.152-8.3.221-11.608.09-4.818.166-8.056.166-8.056l.919-.264 46.078-13.362 4.103-1.191 3.461-1.003s.953 2.033 2.231 4.819c.794 1.74 1.713 3.767 2.597 5.779 1.444 3.266 2.798 6.469 3.392 8.265.138.411.324.989.545 1.713 2.301 7.464 8.496 30.623 5.478 53.079-.912 6.775-1.989 11.628-3.074 15.096 3.267.557 5.816 2.047 6.68 4.205 1.485 3.712 1.664 7.256-4.532 9.839l-.007.014Z"/><path fill="#6C184E" d="M110.4 199.022c.014.216.021.425.021.634 0 .146 0 .292-.014.438v.119a5.435 5.435 0 0 1-.028.334c0 .069-.014.139-.021.209a2.3 2.3 0 0 1-.041.327c-.021.16-.048.313-.076.466v.021c-.028.147-.055.293-.097.432a6.577 6.577 0 0 1-.089.355l-.042.146c-.034.105-.069.216-.104.314-.103.32-.221.633-.359.933-.048.104-.096.216-.152.313a.903.903 0 0 1-.076.153 3.902 3.902 0 0 1-.138.251c-.062.118-.124.23-.2.348a2.77 2.77 0 0 1-.118.188 1.877 1.877 0 0 1-.145.223c-.096.146-.2.285-.304.425a9.136 9.136 0 0 1-1.043 1.19c-.117.119-.248.23-.373.349a9.705 9.705 0 0 1-5.657 2.395c-5.968.494-13.02.696-16.163-.62-6.334-2.639-6.002-6.281-4.434-10.082h.007c.815 1.128 2.217 2.172 4.427 3.091 3.15 1.316 10.195 1.114 16.163.62h.069c3.482-.306 6.148-3.321 6.127-6.845 0-.738-.048-1.525-.131-2.353-1.16-11.35-7.059-13.028-7.059-13.028l9.96.634.435.111c-.704 3.885-.746 8.934-.566 13.703 0 .077.007.147.007.223a83.673 83.673 0 0 0 .096 1.922c.035.703.076 1.399.118 2.075v-.014ZM149.752 208.972c-3.15 1.316-10.196 1.114-16.164.62a9.746 9.746 0 0 1-5.968-2.688c-.013-.007-.02-.021-.034-.035a9.89 9.89 0 0 1-1.499-1.824c-.028-.035-.048-.077-.076-.111a8.58 8.58 0 0 1-.242-.418l-.186-.355c-.007-.014-.014-.021-.014-.028a7.725 7.725 0 0 1-.18-.39c-.048-.112-.096-.23-.145-.341a9.819 9.819 0 0 1-.442-1.4c-.034-.153-.069-.299-.097-.453-.027-.153-.055-.306-.076-.466a16.538 16.538 0 0 0-.041-.306v-.049a1.278 1.278 0 0 1-.021-.23c-.013-.132-.02-.265-.027-.397a9.15 9.15 0 0 1-.014-.438c0-.209 0-.425.021-.634.041-.689.082-1.393.117-2.11.035-.62.062-1.246.09-1.88 0-.076 0-.146.007-.216.179-4.776.145-9.818-.567-13.71l.187.265-.104-.627 11.908-3.426s-7.259 4.728-8.426 16.071c-.097.94-.139 1.817-.132 2.632.028 3.384 2.556 6.274 5.906 6.573h.062c5.968.487 13.014.689 16.163-.62 2.211-.926 3.606-1.963 4.428-3.091h.007c1.575 3.801 1.899 7.436-4.435 10.082h-.006Z" opacity=".3"/><path fill="#6C184E" d="M110.4 192.038a10.31 10.31 0 0 1-.214 2.778c-.097-2.59-.131-5.257-.028-7.777.056 1.712.145 3.398.242 4.999ZM124.754 194.809a9.774 9.774 0 0 1-.214-2.778c.096-1.601.186-3.286.241-4.999.104 2.52.076 5.187-.027 7.777ZM83.62 183.362a143.786 143.786 0 0 1-1.188-5.717c-.704-3.843-1.195-7.659-1.215-10.911-.035-5.612.11-15.82.269-25.073 2.259 1.713 6.61 5.069 6.61 5.069s-.055 13.48 3.24 22.671c1.92 5.362-.974 11.67-7.716 13.961Z" opacity=".3"/><path fill="#F47B3A" d="m178.396 114.825-.014.007a88.096 88.096 0 0 1-7.253 3.997c-7.598 3.732-15.818 6.343-25.861 7.993l-.069-.076-6.824-7.68-9.505-10.702-6.52-7.339s1.726.445 4.786.821c5.858.724 16.585 1.219 29.329-2.082a82.58 82.58 0 0 0 14.581-5.292 51.956 51.956 0 0 1 4.124-1.747c21.558-8.022 17.869 13.132 3.219 22.093l.007.007Z"/><path fill="#6C184E" d="m178.396 114.825-.014.007a88.096 88.096 0 0 1-7.253 3.997c-7.598 3.732-15.817 6.343-25.861 7.993l-.069-.076-2.086-5.25.069.076c10.044-1.65 18.263-4.261 25.861-7.993a89.255 89.255 0 0 0 7.253-3.997s.014 0 .014-.007c7.225-4.428 11.791-11.823 11.957-17.206 5.187 4.13.297 16.231-9.878 22.456h.007Z" opacity=".3"/><path fill="#6C184E" d="M145.268 128.292a1.463 1.463 0 0 1-1.436-1.233 1.47 1.47 0 0 1 1.208-1.692c12.593-2.068 22.65-5.709 32.603-11.802 8.427-5.153 12.924-14.692 10.693-18.877-1.796-3.377-8.027-2.96-16.661 1.121-26.255 12.415-48.731 6.88-49.677 6.643a1.475 1.475 0 0 1-1.057-1.79c.2-.786.988-1.267 1.775-1.065.283.07 22.49 5.473 47.716-6.455 14.181-6.705 18.912-2.785 20.473.154 3.274 6.155-2.327 17.017-11.749 22.783-10.292 6.294-20.667 10.054-33.653 12.192a1.394 1.394 0 0 1-.235.021Z"/><path fill="#3F4661" d="M260.787 155.336c4.814 4.951 4.994 16.544-4.725 22.539-6.272 3.865-11.722 3.287-15.956-1.706-6.859-8.084-2.562-13.793 3.495-17.978 6.058-4.192 12.634-7.534 17.186-2.848v-.007Z"/><path fill="#252159" d="M256.062 177.875c-6.272 3.865-11.722 3.287-15.956-1.713-4.648-5.473-4.172-9.859-1.499-13.424 2.971 4.916 5.685 11.433 16.032 8.16 6.79-2.144 8.42-7.931 8.338-12.143 2.341 5.696.98 14.246-6.908 19.113l-.007.007Z" opacity=".35"/><path fill="#252159" d="M248.34 181.893c-3.495 0-6.645-1.595-9.339-4.77-2.929-3.453-4.2-6.851-3.778-10.096.469-3.572 2.942-6.866 7.563-10.055 3.875-2.68 12.945-8.947 19.051-2.667 2.728 2.807 4.075 7.381 3.516 11.935-.657 5.327-3.682 9.901-8.517 12.889-2.991 1.845-5.837 2.764-8.489 2.764h-.007Zm7.121-27.351c-2.749 0-6.306 1.595-11.031 4.86-3.895 2.695-5.961 5.313-6.32 8.015-.311 2.381.732 4.999 3.101 7.798 3.786 4.464 8.393 4.923 14.085 1.414 4.061-2.507 6.603-6.323 7.142-10.737.456-3.691-.58-7.332-2.701-9.512-1.181-1.211-2.576-1.831-4.289-1.831l.013-.007Z"/><path fill="#fff" d="M244.106 176.678s3.439-41.361-1.182-49.236c-4.621-7.868-25.923-7.979-25.923-7.979l-43.447 1.176s-8.337 16.614-5.927 44.264c0 0 12.282 11.656 36.126 12.318 23.844.661 40.36-.536 40.36-.536l-.007-.007Z"/><path fill="#3F4661" d="M172.96 196.049s-7.032-27.497-5.485-40.1c0 0 4.559 19.482 37.521 20.053 32.962.571 40.456-13.814 40.456-13.814s-3.398 31.66-6.327 36.862c-2.928 5.201-14.899 5.549-14.899 5.549s-9.028 3.266-10.492-13.919c-1.465-17.191-.967-14.065-.967-14.065h-15.604l-4.642 25.7-19.575-6.259.014-.007Z"/><path fill="#fff" d="M175.218 195.749s-4.89-20.84-5.215-34.543c-1.996-3.001-2.521-5.25-2.521-5.25-1.547 12.603 5.485 40.1 5.485 40.1l19.575 6.259.173-.954-17.497-5.605v-.007Z" opacity=".4"/><path fill="#3F4661" d="m245.832 112.855-.607 2.151-5.996 21.314c-1.153-3.934-4.345-6.503-10.188-7.98-36.25-9.142-56.413-4.407-56.413-4.407l1.368-4.686V102.09a62.141 62.141 0 0 0 7.267 3.892c28.071 12.736 60.494 3.154 60.494 3.154l1.962 1.79 2.113 1.936v-.007Z"/><path fill="#3F4661" d="m185.442 93.135-4.179 12.84-.739 2.263-.684 2.103-1.458 4.484-1.236 3.802c-.953.056-2.01.111-3.15.146-.905.028-1.858.049-2.866.049-7.101 0-16.53-.843-25.882-4.637-.297-.119-.594-.244-.891-.369a50.912 50.912 0 0 1-5.685-2.834 50.778 50.778 0 0 1-5.685-3.816 50.049 50.049 0 0 1-5.836-5.327c-.864-.919-1.7-1.88-2.515-2.896-13.939-17.31-15.638-39.69 9.995-21.739a89.187 89.187 0 0 0 26.131 12.575 85.94 85.94 0 0 0 14.429 2.939c6.334.724 10.264.41 10.264.41l-.013.007Z"/><path fill="#252159" d="M174.252 118.46c-.954.056.884.285-.256.32-.905.028-1.858.049-2.866.049-7.101 0-16.53-.843-25.882-4.637-.339-.418-.539-.669-.539-.669s22.028 3.837 32.534-3.934l-2.991 8.871Z" opacity=".35"/><path fill="#252159" d="M171.15 120.298c-20.438 0-36.871-7.026-47.66-20.422-8.033-9.971-13.4-23.487-8.476-28.834 2.39-2.597 7.875-3.844 20.439 4.957 24.867 17.415 49.63 15.681 49.878 15.667a1.46 1.46 0 0 1 1.568 1.351 1.464 1.464 0 0 1-1.34 1.58c-1.05.084-26.006 1.867-51.77-16.181-8.213-5.752-14.437-7.764-16.633-5.376-2.894 3.147.166 14.497 8.606 24.977 10.721 13.313 27.429 19.976 48.338 19.287a1.473 1.473 0 0 1 1.506 1.421 1.465 1.465 0 0 1-1.409 1.517 89.033 89.033 0 0 1-3.047.049v.007Z"/><path fill="#3F4661" d="M196.866 24.585c-.29.146-.594.292-.925.452-2.169 1.073-5.298 2.068-8.469 4.018-.152.097-.31.195-.462.285-2.66 1.665-5.098 3.461-8.165 6.51-.863.857-2.058 1.15-3.177 1.15-1.568 0-3.109-.724-4.069-2.138a27.07 27.07 0 0 1-1.74-2.96c-3.046-6.001-4.241-13.591-1.969-19.551a20.44 20.44 0 0 1 .87-1.957c.187-.362.38-.71.588-1.044 3.578-5.933 10.015-8.62 16.819-6.991.794.188 1.589.438 2.39.752 6.997 2.708 11.376 10.027 11.072 17.296-.076 1.796-1.153 3.39-2.763 4.17v.008Z"/><path fill="#252159" d="M187.017 29.34c-2.66 1.665-5.098 3.461-8.165 6.51a4.973 4.973 0 0 1-3.177 1.15c-2.307-1.442-4.255-3.008-5.809-5.097-1.154-1.553-2.093-3.391-2.798-5.682-1.81-5.87.187-14.511 2.321-17.853 0 .174-.318 1.12-.622 2.026-.276.829-.545 1.622-.559 1.776-.083 1.149.822 3.857 1.326 4.985 2.839 6.35 6.983 8.69 17.483 12.178v.007Z" opacity=".35"/><path fill="#fff" d="M172.725 6.021c7.094-1.768 10.403-.85 16.046 1.65 5.657 2.507 9.283 8.718 9.829 10.222.221-.292-.166-3.398-.891-5.041-2.943-6.643-10.099-11.224-17.559-10.5-.849.083-1.678.216-2.465.404l-4.953 3.265h-.007Z" opacity=".5"/><path fill="#252159" d="M175.371 38.692c-.097 0-.187-.007-.284-.028-1.243-.244-3.591-1.358-4.683-2.966-4.137-6.086-6.935-15.827-3.875-23.87 3.62-9.504 13.11-13.745 22.56-10.082 7.411 2.869 12.35 10.57 12.011 18.73-.041 1.003-.096 1.296-.386 2.48-.194.786-.988 1.274-1.762 1.079a1.475 1.475 0 0 1-1.07-1.783c.255-1.051.269-1.156.304-1.9.29-6.915-3.882-13.44-10.14-15.863-7.999-3.098-15.722.356-18.788 8.39-2.287 6.01-.829 14.707 3.557 21.154.566.836 2.183 1.616 2.839 1.741a1.469 1.469 0 0 1 1.153 1.727 1.464 1.464 0 0 1-1.43 1.19h-.006Z"/><path fill="#fff" d="M262.12 98.072c-16.819 16.51-47.723 13.975-52.786 14.024-5.305.055-34.847-3.21-46.942-20.416-5.878-8.355-5.264-15.5-1.099-25.512.18-.425.346-.794.519-1.135 1.091-2.221 2.099-3.168 4.344-8.85.484-1.219.919-2.528 1.34-3.886 2.079-6.747 4.055-14.483 9.387-19.67 5.008-4.874 11.577-8.885 18.968-11.635-1.969-2.674-4.656-7.151-1.782-8.565 3.536-1.74 13.221 3.37 16.163 5.014.511.292.822.466.857.487-.014-.028-.304-.25-.415-.585-.428-1.323-.96-4.54 1.63-5.877 3.254-1.678 24.784 3.97 39.317 16.572h-.021c20.771 17.206 27.982 52.891 10.52 70.041v-.007Z"/><path fill="#252159" d="M254.591 34.932s18.484 31.236 3.184 57.995c-14.491 25.331-76.222 17.303-95.494-3.26 0 0 4.062 12.277 25.212 17.868 27.85 7.367 66.545 5.417 77.818-13.397 11.266-18.814 1.561-52.007 1.561-52.007l-12.281-7.2Z" opacity=".35"/><g opacity=".35"><path fill="#010101" d="M251.98 31.986c11.294 10.285 2.438-4.707 2.438-4.707s-16.929-8.314-20.459-9.351c-3.537-1.038 6.313 3.398 18.021 14.058Z"/><path fill="#252159" d="M257.174 35.83c-.704 0-2.113-.724-5.346-3.67-7.121-6.482-13.587-10.68-16.695-12.7-2.031-1.316-2.238-1.455-2.107-1.748.111-.237.373-.188.995 0 3.516 1.03 19.803 9.024 20.501 9.365l.062.028.035.056c.732 1.232 4.31 7.45 3.046 8.495a.712.712 0 0 1-.484.167l-.007.007ZM234.049 18.2c.352.236.822.543 1.326.87 3.115 2.026 9.601 6.239 16.75 12.742 4.179 3.802 5.07 3.635 5.243 3.489.635-.53-1.078-4.394-3.115-7.848-1.106-.543-16.53-8.09-20.211-9.26l.007.007Z"/></g><path fill="#3F4661" d="M210.08 67.63c.062 15.277 20.978 27.177 34.571 19.517 6.521-3.676 9.581-9.602 9.505-16.857-.069-7.033-3.792-12.123-10.147-15.124-9.67-4.581-19.306-4.651-28.382 1.574-4.082 2.799-5.561 6.03-5.547 10.883v.007ZM164.533 79.794c-2.694-1.587-4.704-3.648-6.072-6.085.546-2.027 1.306-4.157 2.252-6.434.159-.341.325-.717.504-1.114 0-.007.007-.021.014-.028 1.092-2.221 2.1-3.168 4.345-8.843.484-1.219 1.533-4.547 1.955-5.912.207-.661.4-1.295.587-1.887 7.384-2.778 14.692-2.228 21.627 2.765 3.536 2.541 4.821 5.48 4.794 9.873-.076 13.857-18.229 24.628-30.006 17.658v.007Z"/><path fill="#252159" d="M255.13 29.967c-.297 0-.594-.09-.857-.278-11.576-8.44-37.61-18.564-42.204-16.42-.732.342-.697 2.166-.518 3.065l.608 3.035-2.721-1.434c-4.642-2.458-12.268-5.382-14.692-4.192-.608.3-.663.606-.684.738-.207 1.219 1.492 3.607 2.701 4.833a1.489 1.489 0 0 1 0 2.082 1.46 1.46 0 0 1-2.066 0c-.677-.683-4.034-4.255-3.515-7.395.145-.884.663-2.103 2.286-2.897 3.675-1.81 11.155 1.24 15.106 3.113.173-1.456.788-2.925 2.266-3.614 3.999-1.866 14.83 1.86 20.936 4.247 9.339 3.656 18.843 8.544 24.21 12.457a1.47 1.47 0 0 1 .325 2.054 1.456 1.456 0 0 1-1.181.613v-.007Z"/><path fill="#252159" d="M216.504 113.614c-2.038 0-3.765-.042-5.091-.077-.877-.021-1.568-.042-2.017-.035-2.265.014-11.114-.626-21.364-3.802-8.552-2.646-20.135-7.784-26.78-17.233-3.06-4.352-4.517-8.48-4.586-12.979v-.515c0-.258.006-.516.02-.773.007-.188.021-.37.035-.557.007-.14.021-.293.034-.46 0-.07.007-.14.021-.216.166-1.796.463-3.516.843-4.964.594-2.855 2.631-7.103 2.887-7.632l.035-.076c.352-.718.69-1.302 1.056-1.922.809-1.386 1.72-2.96 3.24-6.81.449-1.142 1.485-4.4 1.913-5.8l.138-.446c.159-.508.304-.989.456-1.455.145-.467.29-.912.429-1.344v-.014l.117-.348c1.437-4.352 2.763-7.339 6.424-12.54.47-.669.967-1.323 1.485-1.95l.069-.084c4.635-5.64 11.079-9.866 19.161-12.56l.249-.084a1.453 1.453 0 0 1 1.837.94 1.47 1.47 0 0 1-.933 1.852l-.227.076c-7.592 2.535-13.615 6.476-17.897 11.72l-.069.083c-.449.55-.885 1.12-1.292 1.706-3.433 4.888-4.642 7.568-6.003 11.67v.125l-.117.223c-.145.452-.297.919-.449 1.413-.145.46-.297.94-.449 1.435l-.138.445c-.373 1.219-1.465 4.686-1.989 6.016-1.603 4.06-2.618 5.807-3.433 7.214-.339.585-.636 1.086-.933 1.692l-.041.084c-.021.041-2.142 4.38-2.674 6.997l-.02.084c-.353 1.316-.622 2.904-.774 4.582l-.014.111a9.249 9.249 0 0 0-.034.439c-.014.18-.021.327-.028.48-.014.23-.021.439-.021.655v.474c.063 3.864 1.347 7.457 4.048 11.293 11.584 16.482 40.083 19.796 45.609 19.796h.304c.484 0 1.14.014 1.941.035 8.621.223 34.855.891 49.664-13.648 5.664-5.563 9.138-16.154 9.277-28.332v-.056c.062-5.257-.525-10.514-1.7-15.207-3.488-13.933-11.348-23.716-23.374-29.078a1.477 1.477 0 0 1-.746-1.942 1.456 1.456 0 0 1 1.927-.752c12.889 5.744 21.309 16.189 25.025 31.048 1.237 4.944 1.852 10.48 1.789 15.994v.055c-.158 12.93-3.957 24.28-10.16 30.366-13.359 13.111-35.027 14.56-46.687 14.56l.007.028Z"/><path fill="#3F4661" d="M245.639 28.616c.263.188.539.39.836.599 1.968 1.413 4.89 2.91 7.702 5.355.138.118.276.236.407.362 2.355 2.075 4.469 4.247 7.004 7.77.712.99 1.844 1.477 2.95 1.658a4.84 4.84 0 0 0 4.358-1.442 27.219 27.219 0 0 0 2.197-2.632c3.971-5.417 6.382-12.714 5.111-18.967a19.174 19.174 0 0 0-.953-3.203c-2.57-6.44-8.489-10.152-15.466-9.658-.815.056-1.637.174-2.479.348-7.343 1.518-12.848 8.022-13.725 15.243a4.89 4.89 0 0 0 2.051 4.567h.007Z"/><path fill="#252159" d="M254.591 34.932c2.355 2.075 4.469 4.247 7.004 7.77a4.96 4.96 0 0 0 2.949 1.658c2.515-1.045 4.684-2.27 6.555-4.074 1.396-1.337 2.618-3 3.682-5.145 2.735-5.494 2.162-14.351.601-17.993-.028.167.131 1.156.283 2.103.138.863.276 1.692.263 1.845-.104 1.15-1.437 3.677-2.114 4.7-3.827 5.794-8.296 7.43-19.216 9.136h-.007Z" opacity=".35"/><path fill="#fff" d="M272.467 14.28c-6.714-2.911-10.126-2.55-16.094-1.01-5.982 1.546-10.575 7.074-11.349 8.467-.166-.32.712-3.328 1.692-4.826 3.979-6.064 11.784-9.414 19.023-7.478a20.17 20.17 0 0 1 2.37.8l4.358 4.04v.006Z" opacity=".5"/><path fill="#252159" d="M243.083 26.305a4.622 4.622 0 0 1-.532-1.26 5.468 5.468 0 0 1-.124-.718 5.554 5.554 0 0 1-.048-.662c-.007-.438 0-.884.041-1.322.062-.44.152-.87.228-1.302.38-1.727 1.154-3.35 2.1-4.812.953-1.47 2.031-2.848 3.288-4.066a18.49 18.49 0 0 1 4.234-3.071 18.082 18.082 0 0 1 4.932-1.762 20.892 20.892 0 0 1 5.194-.334c1.748.16 3.482.55 5.126 1.212 1.643.661 3.156 1.643 4.496 2.799.325.306.67.585.967.912l.884.996c.284.34.525.71.795 1.065.276.348.49.738.711 1.114.477.745.815 1.56 1.181 2.36l.442 1.24c.159.41.263.835.367 1.26.096.425.227.843.297 1.274l.207 1.31.103 1.316c.035.438.007.87.014 1.309a25.049 25.049 0 0 1-.656 5.138 30.536 30.536 0 0 1-4.041 9.338c-.449.724-.96 1.406-1.464 2.089-.263.334-.525.675-.774 1.016-.262.341-.532.669-.808 1.003l-.207.243c-.09.098-.214.21-.318.307-.11.09-.221.181-.331.265l-.339.215a5.107 5.107 0 0 1-1.368.571 4.574 4.574 0 0 1-1.409.14c-.476-.035-.96-.119-1.45-.383a.556.556 0 0 1-.111-.899l.09-.083a13.845 13.845 0 0 1 1.803-1.414c.283-.188.546-.376.773-.543l.298-.243a1.83 1.83 0 0 1 .117-.112l.193-.209.802-.807c.255-.286.504-.571.746-.87.455-.614.918-1.233 1.326-1.888a27.616 27.616 0 0 0 3.647-8.418c.345-1.49.546-3.001.573-4.498-.007-.376.014-.752-.014-1.121l-.083-1.114-.172-1.093c-.055-.363-.173-.725-.256-1.087-.09-.362-.172-.73-.311-1.072l-.373-1.052c-.317-.668-.594-1.357-.994-1.977-.187-.32-.359-.64-.594-.926-.221-.293-.422-.599-.656-.884l-.733-.815c-.241-.272-.532-.494-.794-.745-1.098-.947-2.328-1.755-3.675-2.29a15.512 15.512 0 0 0-4.241-1.004c-1.464-.083-2.949 0-4.414.286a15.254 15.254 0 0 0-4.13 1.476c-2.597 1.379-4.856 3.503-6.307 6.107-.718 1.302-1.257 2.68-1.768 4.073-.117.355-.214.71-.352 1.058-.111.356-.214.718-.359 1.073l-.201.55-.2.501c-.124.334-.228.76-.401 1.17a.539.539 0 0 1-.967.076v-.006Z"/><path fill="#fff" d="M234.104 75.756c-.249-2.082-.712-4.171-1.665-5.8-.939-1.65-2.376-2.681-4.213-3.036-.905-.195-1.81-.244-2.674-.07-.207.063-.428.105-.635.174l-.608.258c-.193.111-.394.209-.587.32-.18.132-.373.258-.56.404-1.45 1.17-2.472 3.022-3.066 5.034a.43.43 0 0 1-.532.3.423.423 0 0 1-.304-.411c-.007-2.27.767-4.658 2.493-6.462.221-.216.463-.418.698-.626.249-.195.518-.37.774-.55.276-.16.566-.293.856-.432.297-.119.601-.216.905-.314 1.236-.348 2.542-.327 3.737-.09 1.195.216 2.431.703 3.447 1.51 1.029.788 1.796 1.874 2.286 2.995.49 1.135.732 2.312.801 3.474.062 1.17-.007 2.298-.311 3.433a.43.43 0 0 1-.518.307.43.43 0 0 1-.31-.363v-.034l-.014-.021ZM184.35 69.169c-.248-1.922-.691-3.85-1.575-5.34-.87-1.512-2.175-2.452-3.868-2.78-.829-.18-1.664-.222-2.445-.062a5.2 5.2 0 0 0-2.197 1.038c-1.333 1.072-2.293 2.764-2.859 4.623a.41.41 0 0 1-.518.286.424.424 0 0 1-.297-.397c-.021-2.11.691-4.338 2.3-6.023.207-.202.428-.397.649-.592.235-.181.484-.341.725-.515.256-.147.532-.272.795-.411.276-.112.559-.202.849-.3 1.161-.32 2.377-.306 3.489-.083 1.112.195 2.272.654 3.218 1.413.961.738 1.672 1.748 2.128 2.8.463 1.05.67 2.158.732 3.237.048 1.087-.021 2.138-.311 3.19a.415.415 0 0 1-.511.292.424.424 0 0 1-.304-.348v-.035.007Z"/><path fill="#252159" d="M185.159 173.398c1.768.369 3.508.662 5.242.912.857.146 1.734.237 2.59.39l1.299.16c.435.049.857.14 1.299.174.87.084 1.733.209 2.604.307l2.624.25c1.755.084 3.523.188 5.292.077 3.536-.07 7.045-.668 10.568-1.058.877-.119 1.754-.258 2.638-.362a48.369 48.369 0 0 1 2.66-.293c1.775-.202 3.578-.292 5.477-.063h.007a.257.257 0 0 1 .221.286.24.24 0 0 1-.117.188c-1.617.996-3.337 1.671-5.077 2.242-.877.258-1.775.439-2.666.634s-1.789.383-2.687.543c-3.62.55-7.281.794-10.949.842-3.66.042-7.363.146-11.037-.452-.919-.147-1.824-.369-2.729-.571a45.135 45.135 0 0 1-1.34-.404 15.715 15.715 0 0 1-1.326-.467c-.435-.181-.87-.355-1.292-.55a27.052 27.052 0 0 1-1.25-.661c-.815-.488-1.602-1.003-2.293-1.706a.253.253 0 0 1 .228-.425h.027l-.013.007ZM171.737 193.493a1.47 1.47 0 0 1-1.402-1.058c-2.141-7.367-5.498-23.138-3.896-45.991 1.099-15.625 9.104-36.082 9.45-36.945a1.449 1.449 0 0 1 1.892-.822 1.475 1.475 0 0 1 .815 1.908c-.083.209-8.185 20.903-9.249 36.068-1.568 22.393 1.7 37.781 3.786 44.953a1.471 1.471 0 0 1-1.403 1.887h.007ZM240.383 194.726a1.47 1.47 0 0 1-1.403-1.887c2.825-9.7 4.469-19.155 5.029-28.897a1.468 1.468 0 0 1 1.54-1.385 1.472 1.472 0 0 1 1.375 1.552c-.574 9.971-2.252 19.636-5.139 29.551a1.463 1.463 0 0 1-1.402 1.059v.007Z"/><path fill="#3F4661" d="M185.656 195.325c-8.586-4.248-19.044-2.521-21.082 2.569-1.657 4.136-1.858 8.077 5.05 10.96 3.508 1.462 11.355 1.239 18.007.689 5.982-.487 10.451-5.731 10.078-11.767-.401-6.49-.636-14.309.387-19.949"/><path fill="#252159" d="M197.709 197.776c.373 6.036-4.096 11.28-10.078 11.767-6.645.543-14.498.773-18.007-.689-3.917-1.637-5.547-3.614-5.92-5.773.428.223.898.439 1.402.648 3.509 1.469 11.356 1.239 18.008.689 5.982-.487 10.008-5.716 10.078-11.767.048-3.934-1.016-13.042-7.177-19.051l12.081 4.22c-1.022 5.64-.788 13.459-.387 19.949v.007Z" opacity=".3"/><path fill="#3F4661" d="M225.504 195.325c8.586-4.248 19.044-2.521 21.081 2.569 1.658 4.136 1.858 8.077-5.049 10.96-3.509 1.462-11.356 1.239-18.007.689-5.982-.487-10.451-5.731-10.078-11.767.4-6.49.635-14.309-.387-19.949"/><path fill="#fff" d="M225.822 195.325s14.498-1.414 18.138 3.175c0 0 2.957 4.818-1.139 9.407l2.638-1.351 1.458-4.157.456-4.589-3.274-2.771-6.604-2.04-3.778.223-7.895 2.103ZM185.462 195.325s-14.498-1.414-18.139 3.175c0 0-2.956 4.818 1.14 9.407l-2.639-1.351-1.457-4.157-.456-4.589 3.274-2.771 6.604-2.04 3.778.223 7.895 2.103Z" opacity=".4"/><path fill="#252159" d="M178.666 211.437c-4.435 0-7.654-.411-9.602-1.219-8.447-3.523-7.377-9.031-5.843-12.867 1.091-2.73 4.096-4.742 8.24-5.529a1.466 1.466 0 0 1 1.706 1.177 1.47 1.47 0 0 1-1.167 1.72c-3.101.585-5.374 1.984-6.078 3.739-1.582 3.948-1.396 6.691 4.248 9.052 2.59 1.079 8.744 1.288 17.33.585 5.139-.425 9.063-5 8.738-10.215-.359-5.772-.705-14.163.407-20.304a1.461 1.461 0 0 1 1.7-1.184 1.47 1.47 0 0 1 1.174 1.713c-.794 4.38-.912 10.786-.366 19.594.421 6.796-4.697 12.777-11.418 13.327-3.447.286-6.472.425-9.083.425l.014-.014Z"/><path fill="#252159" d="M185.573 195.506a45.932 45.932 0 0 0-3.33-.676 33.23 33.23 0 0 0-3.274-.362c-1.084-.07-2.162-.056-3.225-.042l-3.178.084h-.014a1.38 1.38 0 0 1-1.409-1.351 1.374 1.374 0 0 1 1.016-1.372c1.188-.327 2.424-.397 3.633-.348 1.216.049 2.411.272 3.578.578 1.16.307 2.293.731 3.364 1.246 1.07.523 2.093 1.135 3.011 1.881a.207.207 0 0 1 .028.285.203.203 0 0 1-.2.07v.007ZM232.494 211.437c-2.611 0-5.636-.139-9.083-.425-6.714-.55-11.839-6.531-11.418-13.327.546-8.808.428-15.221-.366-19.594a1.47 1.47 0 0 1 1.174-1.713 1.464 1.464 0 0 1 1.7 1.184c1.112 6.148.766 14.532.407 20.304-.325 5.208 3.599 9.79 8.738 10.215 8.586.703 14.74.494 17.33-.585 5.644-2.354 5.83-5.104 4.248-9.052-.594-1.49-2.341-2.743-4.786-3.44a1.473 1.473 0 0 1-1.009-1.817 1.463 1.463 0 0 1 1.803-1.017c3.371.961 5.754 2.792 6.707 5.167 1.54 3.836 2.604 9.344-5.844 12.868-1.947.814-5.166 1.218-9.601 1.218v.014Z"/><path fill="#252159" d="M225.414 195.15a16.948 16.948 0 0 1 3.413-2.005 19.922 19.922 0 0 1 3.806-1.246c1.312-.286 2.666-.467 4.026-.439 1.361.028 2.743.202 4.048.676a1.387 1.387 0 0 1 .829 1.768c-.221.62-.829.982-1.45.905h-.042c-1.167-.146-2.321-.292-3.509-.369-1.181-.076-2.383-.132-3.592-.083-2.424.083-4.876.487-7.363 1.142a.199.199 0 0 1-.173-.349h.007Z"/><path fill="#3F4661" d="M261.92 149.842c0 13.063-5.623 18.271-13.552 18.271-5.803 0-11.315-4.644-9.215-13.773 2.176-9.428 1.25-15.499.083-18.013l3.647-20.652.836-4.749.152-.877s1.519 1.518 3.681 4.205c5.278 6.566 14.368 20.116 14.368 35.588Z"/><path fill="#fff" d="M241.881 154.793c.788-3.419 1.168-6.399 1.278-8.927.138-3.265-.78-6.51-2.804-9.066a11.276 11.276 0 0 0-1.016-1.121l-.11.641c1.174 2.514 2.1 8.585-.083 18.013-2.058 8.927 3.171 13.557 8.835 13.759-4.456-1.385-7.82-5.849-6.1-13.299Z" opacity=".4"/><path fill="#252159" d="M261.919 149.842c0 13.063-5.622 18.271-13.552 18.271-5.802 0-11.307-4.644-9.214-13.759 1.292 4.429 5.187 6.671 9.214 6.671 7.163 0 12.447-4.248 13.401-14.706.096 1.163.151 2.333.151 3.523Z" opacity=".35"/><path fill="#252159" d="M244.748 169.025a10.986 10.986 0 0 1-4.227-2.506c-1.202-1.163-2.093-2.646-2.618-4.206-.532-1.567-.705-3.196-.642-4.777a9.49 9.49 0 0 1 .082-1.176c.056-.383.076-.78.159-1.163l.221-1.142.221-1.031c.297-1.371.539-2.75.698-4.129.159-1.385.193-2.771.256-4.143.103-2.75.193-5.452-.104-8.223v-.035a.5.5 0 0 1 .877-.383c.518.613.884 1.309 1.181 2.019.311.718.518 1.449.698 2.194.352 1.49.47 3.001.449 4.505-.028 1.497-.207 2.987-.435 4.449-.228 1.462-.463 2.925-.774 4.359l-.228 1.072-.186.975c-.076.327-.083.648-.131.975a7.433 7.433 0 0 0-.069.975c-.049 1.288.096 2.562.49 3.718.394 1.156 1.022 2.2 1.879 3.036a8.226 8.226 0 0 0 3.08 1.824h.021a1.484 1.484 0 0 1 .94 1.859 1.457 1.457 0 0 1-1.838.947v.007Z"/><path fill="#252159" d="M248.361 169.575c-.954 0-1.9-.111-2.812-.327a1.469 1.469 0 0 1-1.077-1.776 1.471 1.471 0 0 1 1.761-1.093 9.094 9.094 0 0 0 2.134.251c3.717 0 6.618-1.246 8.628-3.697 2.3-2.82 3.467-7.228 3.467-13.098 0-20.917-17.434-38.575-17.614-38.749a1.475 1.475 0 0 1-.006-2.082 1.453 1.453 0 0 1 2.065-.014c.753.752 18.477 18.675 18.477 40.838 0 6.573-1.388 11.608-4.137 14.971-2.584 3.168-6.245 4.769-10.88 4.769l-.006.007Z"/><path fill="#fff" d="M143.77 154.96c0 13.397-11.004 20.388-24.584 20.388s-23.664-7.005-24.583-20.388c-1.195-17.519 11.003-28.144 24.583-28.144 13.58 0 24.584 10.618 24.584 28.144Z"/><path fill="#6C184E" d="M93.311 211.437c-4.006 0-6.914-.369-8.682-1.107-7.702-3.217-6.728-8.244-5.326-11.747.884-2.2 3.088-3.885 6.21-4.755a1.456 1.456 0 0 1 1.796 1.03 1.47 1.47 0 0 1-1.023 1.81c-2.196.606-3.75 1.706-4.275 3.022-1.416 3.538-1.244 5.849 3.737 7.931 2.3.961 7.805 1.142 15.493.516 4.538-.37 7.992-4.415 7.708-9.011-.324-5.187-.635-12.728.366-18.271.146-.8.905-1.329 1.7-1.183a1.47 1.47 0 0 1 1.174 1.713c-.712 3.92-.815 9.664-.325 17.553.38 6.184-4.275 11.622-10.388 12.123-3.088.251-5.816.383-8.158.383l-.007-.007Z"/><path fill="#6C184E" d="M99.493 196.996c-2.224-.53-4.386-.85-6.52-.906-1.064-.034-2.12.021-3.157.084-1.036.063-2.058.181-3.08.272h-.042a1.37 1.37 0 0 1-1.485-1.254 1.392 1.392 0 0 1 .905-1.427c1.167-.418 2.403-.571 3.612-.578 1.216-.014 2.418.174 3.585.446 1.167.271 2.293.668 3.371 1.162 1.07.509 2.086 1.107 2.998 1.846a.207.207 0 0 1 .027.285.204.204 0 0 1-.2.07h-.014ZM141.628 211.437c-2.348 0-5.07-.125-8.157-.383-6.113-.501-10.769-5.939-10.389-12.123.491-7.896.38-13.64-.325-17.553a1.47 1.47 0 0 1 1.175-1.713 1.463 1.463 0 0 1 1.699 1.183c1.002 5.536.691 13.077.366 18.271-.283 4.596 3.177 8.634 7.709 9.01 7.688.634 13.186.446 15.486-.515 4.98-2.075 5.153-4.386 3.737-7.931-.594-1.483-2.439-2.653-5.056-3.21a1.469 1.469 0 0 1-1.126-1.74 1.458 1.458 0 0 1 1.727-1.135c3.584.759 6.195 2.576 7.162 4.985 1.403 3.503 2.377 8.537-5.325 11.747-1.768.738-4.676 1.107-8.683 1.107Z"/><path fill="#6C184E" d="M135.273 196.647c.836-.703 1.776-1.281 2.763-1.775a16.747 16.747 0 0 1 3.116-1.163c1.077-.285 2.189-.494 3.315-.522 1.126-.035 2.273.049 3.371.383a1.388 1.388 0 0 1-.422 2.715h-.041c-.967-.02-1.927-.09-2.894-.111-.967-.021-1.955-.056-2.95-.007a29.72 29.72 0 0 0-3.011.279c-1.016.139-2.031.341-3.081.564a.206.206 0 0 1-.242-.154.222.222 0 0 1 .069-.202l.007-.007Z"/><path fill="#6C184E" d="M147.852 195.325a1.47 1.47 0 0 1-1.402-1.887c1.872-6.434 4.8-20.228 3.391-40.309-.58-8.238-3.433-18.209-5.719-25.123a1.472 1.472 0 0 1 .919-1.859 1.455 1.455 0 0 1 1.844.926c2.341 7.075 5.263 17.303 5.864 25.847 1.444 20.541-1.575 34.717-3.502 41.346a1.462 1.462 0 0 1-1.402 1.059h.007Z"/><path fill="#6C184E" d="M143.093 120.18c.435.452.808.933 1.167 1.42.352.488.677.989.981 1.504.304.516.608 1.024.829 1.567.228.543.414 1.1.483 1.692a1.405 1.405 0 0 1-1.236 1.553 1.373 1.373 0 0 1-1.312-.62l-.035-.056c-.325-.494-.532-1.03-.698-1.58-.165-.55-.255-1.128-.345-1.706a20.57 20.57 0 0 1-.193-1.776 13.706 13.706 0 0 1-.007-1.859v-.014a.206.206 0 0 1 .228-.195c.055 0 .103.028.138.063v.007ZM136.02 177.527c-.546.648-1.188 1.121-1.858 1.546-.67.439-1.375.773-2.093 1.086-.719.286-1.458.564-2.204.752l-1.119.293c-.373.09-.753.146-1.133.215-.752.14-1.512.251-2.279.307-.76.062-1.52.139-2.279.153-.76.028-1.52.056-2.28.097-.76.007-1.513.035-2.272.056l-1.133.035h-1.133l-2.266.035c-1.505-.028-3.018-.077-4.517-.202-.746-.084-1.499-.167-2.245-.272-.746-.104-1.492-.188-2.231-.369-1.471-.362-2.929-.828-4.324-1.622a.263.263 0 0 1-.097-.362.271.271 0 0 1 .152-.126h.007c1.554-.452 3.053-.571 4.538-.584.739 0 1.479 0 2.218.027.739.014 1.471.056 2.203.105 1.464.063 2.929.139 4.393.257l2.197.084c.732.028 1.464.056 2.196.028 2.936.049 5.823-.432 8.676-.794 2.859-.39 5.671-.696 8.62-1.17h.042c.138-.028.262.063.29.202a.257.257 0 0 1-.056.202l-.013.021ZM86.225 196.432a1.469 1.469 0 0 1-1.403-1.059c-2.597-8.919-4.103-17.609-4.62-26.571a1.466 1.466 0 0 1 1.374-1.552 1.46 1.46 0 0 1 1.54 1.385c.505 8.732 1.976 17.213 4.504 25.91a1.47 1.47 0 0 1-1.402 1.887h.007Z"/><path fill="#F47B3A" d="M82.432 177.638c-1.36.641-2.88.968-4.414.968-7.97 0-13.621-5.229-13.621-18.354s6.507-24.879 11.729-32.19c3.495-4.902 6.41-7.806 6.41-7.806l.262 1.477 1.589 8.982 2.818 15.952c-1.181 2.528-2.107 8.634.076 18.104 1.561 6.754-1.036 11.064-4.842 12.867h-.007Z"/><path fill="#6C184E" d="M82.432 177.639c-1.36.64-2.88.967-4.414.967-7.97 0-13.621-5.229-13.621-18.354 0-.404.007-.801.02-1.198 1.527 9.4 6.839 13.272 13.864 13.265 1.61 0 3.205-.341 4.635-1.017 2.01-.954 3.702-2.569 4.669-4.853.801 5.793-1.672 9.539-5.153 11.19Z" opacity=".3"/><path fill="#6C184E" d="M82.874 120.605c-1.001 2.116-2.272 3.941-3.57 5.737-1.279 1.817-2.619 3.586-3.869 5.417-1.257 1.832-2.376 3.753-3.405 5.717a61.506 61.506 0 0 0-2.77 6.03c-1.61 4.115-2.742 8.411-3.198 12.77-.214 2.179-.235 4.373-.117 6.552.13 2.173.497 4.31 1.153 6.302.656 1.984 1.672 3.802 3.074 5.18 1.43 1.344 3.246 2.214 5.229 2.597.504.056 1.001.154 1.512.181.511.007 1.043.077 1.52.028.49 0 .967-.097 1.45-.167.463-.125.94-.23 1.382-.418a7.471 7.471 0 0 0 4.103-3.732c.124-.202.193-.438.283-.661.076-.23.194-.439.235-.683.11-.473.249-.94.283-1.448.028-.251.07-.494.083-.745v-.759c.041-.501-.055-1.024-.083-1.532-.014-.257-.062-.515-.11-.773l-.145-.773c-.042-.243-.104-.529-.166-.821l-.187-.85a57.078 57.078 0 0 1-.608-3.446c-.09-.578-.145-1.163-.22-1.741-.056-.585-.111-1.17-.153-1.755-.069-1.177-.18-2.353-.172-3.544.014-1.191.138-2.395.463-3.579.338-1.163.877-2.353 1.878-3.238a.523.523 0 0 1 .746.049c.083.09.125.202.132.32v.049c.076 1.184.076 2.221.041 3.293-.041 1.059-.09 2.124-.152 3.197-.062 1.072-.097 2.165-.028 3.258a47.326 47.326 0 0 0 .92 6.532l.172.814c.055.265.117.536.173.85l.165.905c.063.299.11.599.132.912.041.62.145 1.226.11 1.859l-.014.94c-.014.313-.069.634-.103.947-.049.634-.221 1.26-.38 1.887-.07.313-.214.613-.318.919-.117.307-.221.613-.387.898-1.14 2.375-3.246 4.283-5.67 5.181-.602.258-1.223.397-1.852.557-.635.097-1.264.216-1.906.223-.65.055-1.237-.014-1.852-.028-.607-.035-1.222-.146-1.837-.223-2.438-.453-4.856-1.587-6.714-3.356-1.837-1.797-3.06-4.06-3.826-6.371-.76-2.319-1.154-4.693-1.299-7.047-.131-2.346-.11-4.707.124-7.046.484-4.673 1.693-9.233 3.392-13.557a67.693 67.693 0 0 1 2.9-6.323c1.072-2.054 2.26-4.038 3.461-6.009 1.202-1.97 2.508-3.885 4.007-5.64 1.485-1.768 3.122-3.419 5.27-4.547a.501.501 0 0 1 .684.216.5.5 0 0 1 .007.453l-.014.028.041.014Z"/><path fill="#fff" d="M78.792 42.306s-14.72-7.221-32.078-3.99c0 0-1.485 16.042 11.363 36.103"/><path fill="#6C184E" d="m58.07 74.419 2.97-4.596C49.526 54.588 47.806 41.386 47.557 38.17l-.843.146s-1.485 16.05 11.363 36.103h-.007Z" opacity=".3"/><path fill="#993021" d="M50.651 43.385s2.673 14.747 8.987 21.787c0 0 10.692-13.982 8.537-15.91-5.546-4.972-17.524-5.877-17.524-5.877Z"/><path fill="#993021" d="M59.638 65.172s1.686-2.2 3.585-4.985c2.88-4.22 6.258-9.77 4.96-10.925-2.77-2.48-7.143-3.949-10.817-4.798-3.696-.85-6.7-1.08-6.7-1.08s2.673 14.748 8.986 21.788h-.014Z"/><path fill="#6C184E" d="M57.352 44.464c.835 3.586 2.728 10.43 5.864 15.73 2.88-4.22 6.258-9.77 4.96-10.925-2.77-2.48-7.143-3.948-10.818-4.798l-.006-.007Z" opacity=".3"/><path fill="#6C184E" d="M51.26 42.347c.842-.083 1.553-.07 2.32-.035.753.035 1.499.119 2.238.223 1.485.21 2.943.55 4.38.968a39.6 39.6 0 0 1 4.213 1.532c.69.286 1.354.627 2.037.94.67.334 1.327.696 1.99 1.044a1.844 1.844 0 0 1 .773 2.486 1.815 1.815 0 0 1-2.631.683l-.076-.05c-.574-.382-1.14-.779-1.72-1.155-.594-.355-1.168-.738-1.775-1.065a36.776 36.776 0 0 0-3.71-1.838 28.75 28.75 0 0 0-3.91-1.33c-.662-.168-1.34-.32-2.01-.425-.338-.063-.676-.098-1.008-.14-.324-.034-.69-.055-.96-.062h-.069a.886.886 0 0 1-.076-1.769l-.007-.007Z"/><path fill="#fff" d="M105.012 36.52s10.382-12.757 27.491-17.137c0 0 8.773 11.253 5.409 34.885"/><path fill="#6C184E" d="m132.697 51.455 5.222 2.813c3.364-23.633-5.409-34.885-5.409-34.885-.324.084-.642.167-.967.258 1.23 2.562 5.602 13.501 1.154 31.814Z" opacity=".3"/><path fill="#6C184E" d="M58.07 75.888c-.476 0-.946-.237-1.23-.675C43.87 54.964 45.189 38.852 45.25 38.176a1.467 1.467 0 0 1 1.188-1.309c17.628-3.28 32.368 3.81 32.983 4.116a1.474 1.474 0 0 1 .677 1.963 1.454 1.454 0 0 1-1.948.683c-.18-.091-13.89-6.643-30.026-4.067-.035 3.906.677 17.665 11.176 34.056a1.48 1.48 0 0 1-.435 2.033c-.242.16-.519.237-.788.237h-.007Z"/><path fill="#993021" d="M130.701 25.72s3.633 8.724 2.625 19.907c0 0-15.562-6.908-14.409-9.567 2.984-6.852 11.784-10.34 11.784-10.34Z"/><path fill="#993021" d="M128.601 43.378a116.868 116.868 0 0 0 4.717 2.249c1.016-11.19-2.617-19.907-2.617-19.907s-2.066.821-4.539 2.444c-2.631 1.726-5.712 4.365-7.252 7.896-.732 1.678 5.215 5.055 9.691 7.318Z"/><path fill="#6C184E" d="M128.601 43.378c.041-7.263-1.679-13.014-2.439-15.214-2.631 1.726-5.712 4.365-7.252 7.896-.732 1.678 5.215 5.055 9.691 7.318Z" opacity=".3"/><path fill="#6C184E" d="M130.728 26.618c-.248.118-.566.292-.849.46-.29.174-.58.355-.864.55-.566.375-1.119.8-1.65 1.232-1.071.87-2.059 1.838-2.998 2.855a35.338 35.338 0 0 0-2.611 3.23c-.415.55-.781 1.15-1.168 1.72-.366.585-.718 1.184-1.077 1.776l-.048.077a1.822 1.822 0 0 1-2.515.605 1.86 1.86 0 0 1-.601-2.534c.035-.056.076-.111.111-.16.456-.6.905-1.198 1.374-1.783.491-.57.954-1.163 1.465-1.713a39.197 39.197 0 0 1 3.191-3.168 32.619 32.619 0 0 1 3.578-2.722 24.554 24.554 0 0 1 1.941-1.142c.677-.355 1.326-.669 2.12-.947a.879.879 0 0 1 1.119.543.893.893 0 0 1-.449 1.093l-.069.035v-.007Z"/><path fill="#6C184E" d="M137.919 55.737c-.069 0-.138 0-.207-.014a1.471 1.471 0 0 1-1.236-1.664c2.735-19.239-2.819-30.101-4.594-32.984-15.873 4.436-25.64 16.259-25.737 16.377a1.45 1.45 0 0 1-2.051.202 1.476 1.476 0 0 1-.2-2.068c.435-.536 10.886-13.18 28.264-17.63a1.451 1.451 0 0 1 1.506.515c.373.48 9.118 12.025 5.706 35.999a1.462 1.462 0 0 1-1.444 1.26l-.007.007Z"/><path fill="#6C184E" d="M156.465 99.764c-.076.07-.152.133-.234.202-4.407 3.725-9.491 11.259-10.61 12.457-.187.202-.601.696-1.271 1.4a42.299 42.299 0 0 1-3.088 2.945 46.994 46.994 0 0 1-2.887 2.298 54.438 54.438 0 0 1-4.006 2.687c-5.125 3.134-12.185 6.337-21.551 8.405-12.509 2.764-22.117 1.935-28.445.55a44.089 44.089 0 0 1-2.666-.662 40.308 40.308 0 0 1-5.588-1.991c3.495-4.902 6.41-7.806 6.41-7.806l.263 1.477 46.079-13.362-6.521-7.339s1.727.445 4.787.821a48.57 48.57 0 0 1-2.514-2.896c-13.939-17.31-15.639-39.69 9.994-21.739a89.203 89.203 0 0 0 22.456 11.412c-.829.488-1.83.906-2.991 1.226h.014c.159.063 1.506.564 4.967 1.915 3.329 1.295 1.637 4.359-2.598 8Z" opacity=".3"/><path fill="#F47B3A" d="M57.904 103.559s-.967.975-3.73 3.837c-2.535 2.625.422 4.728 5.968 6.259 5.547 1.532 13.29 6.232 14.803 6.852 1.512.62 14.623 7.269 37.154 2.298 9.367-2.068 16.426-5.278 21.551-8.405 7.205-4.393 10.596-8.634 11.252-9.33 1.119-1.198 6.203-8.732 10.61-12.457 4.407-3.725 6.217-6.88 2.832-8.195-3.461-1.344-4.801-1.852-4.966-1.915h-.014c6.327-1.727 7.847-6.531 3.412-7.687-4.434-1.156-9.256-7.214-10.9-10.417-1.637-3.203-6.762-11.663-6.762-11.663-19.023-24.865-45.879-16.802-45.879-16.802s-27.74 3.983-34.716 34.593c0 0-1.147 9.845-1.305 13.445-.166 3.6-2.031 11.134-5.582 14.052-3.55 2.917-.18 6.642 6.286 5.549l-.014-.014Z"/><path fill="#fff" d="M135.287 114.038c6.915-4.331 10.154-8.536 10.776-9.226 1.07-1.183 7.805-11.642 4.42-16.6-3.046-4.47-7.984-6.197-12.357-6.774-4.393-.578-7.84 3.718-6.341 7.924l3.868 10.855-.373 13.814.007.007ZM92.034 123.585c-8.075-1.024-12.765-3.475-13.615-3.844-1.464-.627-11.915-7.29-10.893-13.216.919-5.34 4.69-8.989 8.42-11.356 3.751-2.375 8.662.076 9.049 4.526l.98 11.496 6.066 12.394h-.007Z"/><path fill="#fff" d="M88.317 109.526c2.12 9.756 13.608 15.591 25.627 12.854 15.596-3.551 20.072-12.714 17.952-22.47-2.121-9.755-13.594-15.513-25.626-12.853-12.033 2.653-20.073 12.714-17.953 22.469Z"/><path fill="#993021" d="M133.042 86.472s4.47 1.483 6.404 6.469c5.671 14.608-4.145 21.759-6.058 22.587-15.328 6.601-15.258 6.755-10.631 3.955 6.362-3.85 8.8-9.546 9.36-13.898 1.25-9.748-4.151-9.247-6.341-15.283-2.19-6.037 7.273-3.816 7.273-3.816l-.007-.014ZM82.28 96.63c-1.81 2.765-3.398 5.404-3.764 9.756-1.326 15.848 13.587 17.846 15.866 17.749 18.187-.794 18.18-.627 12.337-1.114-8.034-.676-14.14-4.171-15.68-8.217-3.385-8.877.428-10.416 0-16.843-.435-6.427-7.653-3.001-8.752-1.33h-.007Z"/><g fill="#6C184E" opacity=".3"><path d="M54.651 93.77c.352-.029.719-.078 1.098-.14 0 0-.663.661-2.452 2.514.498-.718.954-1.519 1.354-2.368v-.007ZM54.175 107.396a384.997 384.997 0 0 1 3.619-3.726c.062.021.124.035.186.056 2.964.822 6.556 2.542 9.484 4.06 2.556 1.33 4.614 2.506 5.319 2.792.552.223 2.645 1.253 6.175 2.228 2.273.627 5.14 1.225 8.572 1.581.94.097 1.92.174 2.943.229.165.007.331.021.504.021 4.358.195 9.456-.035 15.251-1.037a79.43 79.43 0 0 0 3.71-.731 96.285 96.285 0 0 0 1.685-.39c.055-.007.11-.021.166-.028a28.078 28.078 0 0 0 2.224-.585c2.058-.564 2.811-.063 17.213-6.267.207-.09.511-.25.877-.494.021-.014.049-.028.069-.049a13.603 13.603 0 0 0 1.879-1.532c.546-.355 1.057-.71 1.554-1.065a45.685 45.685 0 0 0 5.291-4.345c1.741-1.671 2.708-2.89 3.019-3.23.456-.51 1.955-2.723 3.253-5.474.691-.87 1.43-1.775 2.183-2.653 1.312-1.518 2.687-2.966 3.992-4.073.056-.042.104-.09.152-.132.428.16 1.838.696 4.835 1.859 3.385 1.323 1.575 4.47-2.832 8.202-2.072 1.748-4.289 4.338-6.175 6.72-1.298 2.75-2.797 4.971-3.26 5.479-.601.662-3.578 4.526-9.864 8.635-1.209 1.169-2.307 1.859-2.825 2.081-14.395 6.198-15.21 6.713-11.418 4.429a74.25 74.25 0 0 1-5.899 1.866c-.69.216-1.402.397-2.12.557l-.29.063a80.827 80.827 0 0 1-3.896.842c.808.098.525.153-1.375.251-20.259 3.516-32.015-2.444-33.438-3.029-1.513-.613-9.249-5.32-14.803-6.852-5.546-1.531-8.502-3.634-5.967-6.259h.007Z"/><path d="M131.723 99.172c-1.229-3.467-4.158-4.546-5.754-8.37 2.798 2.152 4.842 5.007 5.754 8.37Z"/></g><path fill="#993021" d="M153.668 82.405c-.104.028-.207.063-.311.09h.014s.062.021.131.049l.166-.145v.006ZM57.904 103.559c-.11.021-.22.035-.324.049.076.02.145.041.22.062l.111-.111h-.007ZM51.494 98.114c.035-.035.076-.07.118-.104.607-.502 1.167-1.135 1.678-1.867-.373.383-.801.83-1.278 1.323-.214.216-.38.432-.518.648Z"/><path fill="#fff" d="M59.327 70.332s-.331 2.952-.656 6.218C67.685 46.992 95.114 43.07 95.114 43.07s26.538-7.993 46.977 15.061c-1.651-2.827-3.171-5.368-3.171-5.368-18.864-24.9-45.374-16.913-45.374-16.913s-27.394 3.906-34.219 34.474v.007Z" opacity=".3"/><path fill="#6C184E" d="M95.998 126.098c-7.854 0-15.127-1.371-21.281-4.087-.138-.063-.242-.111-.318-.139-.484-.195-1.306-.641-2.556-1.316-3.06-1.65-8.185-4.408-12.08-5.48-4.794-1.323-7.288-2.904-7.847-4.979-.235-.877-.221-2.235 1.215-3.725.435-.452.83-.863 1.181-1.225-2.59-.293-4.552-1.442-5.298-3.21-.718-1.713-.09-3.607 1.686-5.07 2.984-2.457 4.876-9.232 5.05-12.978.165-3.607 1.27-13.147 1.318-13.55 0-.056.014-.105.028-.16 3.723-16.308 13.276-25.15 20.64-29.698 7.542-4.658 14.235-5.849 15.188-6.002.933-.264 7.509-1.998 16.288-.947 8.572 1.03 20.922 5.041 31.055 18.285a.815.815 0 0 1 .09.132c.207.348 5.167 8.544 6.811 11.754 1.706 3.335 6.237 8.697 9.967 9.671 2.217.578 3.571 2.034 3.633 3.9.056 1.921-1.25 3.788-3.481 5.145.47.181.995.383 1.582.613 1.92.745 2.5 1.978 2.645 2.876.353 2.124-1.257 4.61-5.063 7.826-3.094 2.618-6.603 7.284-8.703 10.069-.856 1.142-1.423 1.894-1.782 2.27-.055.055-.131.146-.235.257-7.46 8.453-19.292 14.811-33.321 17.902-5.623 1.24-11.148 1.859-16.405 1.859l-.007.007ZM57.2 102.194c.642 0 1.243.369 1.533.968a1.738 1.738 0 0 1-.318 1.971c-.545.557-1.554 1.587-3.19 3.293-.139.139-.567.62-.491.898.041.147.538 1.463 5.802 2.911 4.213 1.163 9.518 4.018 12.689 5.724 1.043.557 1.94 1.044 2.272 1.183.09.035.228.098.394.174 9.725 4.29 22.47 5.014 35.897 2.054 13.428-2.966 24.708-8.996 31.767-16.982.125-.14.221-.251.29-.321.249-.264.864-1.086 1.582-2.033 2.176-2.883 5.809-7.715 9.152-10.542 4.179-3.537 4.09-4.944 4.062-5.09-.048-.285-.642-.543-.822-.612a334.234 334.234 0 0 0-4.269-1.644 1.736 1.736 0 0 1-1.105-1.657 1.712 1.712 0 0 1 1.174-1.595c3.129-1.03 4.262-2.701 4.234-3.516-.02-.69-1.015-1.023-1.443-1.135-5.277-1.378-10.334-8.244-11.826-11.168-1.519-2.967-6.175-10.689-6.665-11.503-18.201-23.71-44-16.308-44.262-16.231a1.93 1.93 0 0 1-.215.049c-.069.007-6.817 1.037-14.29 5.681-9.934 6.177-16.392 15.493-19.196 27.706-.11.947-1.14 9.922-1.292 13.258-.152 3.286-1.9 11.656-6.12 15.124-.345.278-1.112 1.002-.843 1.643.318.752 2.038 1.789 5.305 1.406.062-.007.131-.014.194-.014Z"/><path fill="#6C184E" d="M103.914 95.224c.38 1.762 5.692 2.626 7.115 2.632 1.941.014 5.76-3.627 5.373-5.389-.379-1.762-2.272-2.84-6.941-1.81-4.539 1.002-5.934 2.806-5.554 4.567h.007Z"/><path fill="#fff" d="M108.349 93.275c.062.271 1.478.327 1.865.243.4-.09 1.651-.73 1.588-1.01-.062-.27-.545-.403-1.837-.118-1.257.279-1.678.606-1.616.878v.007Z" opacity=".7"/><path fill="#fff" d="M118.178 73.047c.47 2.159 3.074-.285 6.762-1.1 3.689-.815 6.617-1.782 6.148-3.941-.47-2.159-3.841-3.245-7.529-2.43-4.911 1.086-5.851 5.313-5.381 7.471ZM88.856 79.516c.47 2.158-2.908 1.037-6.603 1.852-3.689.815-6.749 1.17-7.218-.989-.47-2.158 2.14-4.568 5.836-5.382 4.911-1.086 7.516 2.36 7.985 4.519Z"/><path fill="#6C184E" d="M79.745 92.202a1.608 1.608 0 0 1-1.478-2.207c1.796-4.505 4.38-5.8 6.23-6.1 2.777-.445 5.167 1.094 6.362 2.549a1.62 1.62 0 0 1-.207 2.263 1.588 1.588 0 0 1-2.245-.209c-.69-.836-2.058-1.643-3.42-1.427-1.878.3-3.087 2.402-3.77 4.122a1.597 1.597 0 0 1-1.479 1.01h.007ZM122.184 82.273c-.138 0-.283-.02-.428-.055a1.607 1.607 0 0 1-1.112-1.978c.566-2.054 2.279-4.428 4.835-5.104 1.692-.453 4.365-.327 7.494 2.827a1.614 1.614 0 0 1 0 2.27 1.584 1.584 0 0 1-2.252 0c-1.139-1.142-2.825-2.416-4.434-1.991-1.264.334-2.252 1.692-2.577 2.854a1.593 1.593 0 0 1-1.533 1.177h.007Z"/><path fill="#fff" d="M119.87 98.441s1.906 3.05.028 4.735c-2.432 2.173-5.554.446-7.101-1.003 0 0-2.065 5.223-6.382 4.109-2.888-.745-2.459-4.714-2.459-4.714"/><path fill="#6C184E" d="M106.905 106.115c-.449 0-.912-.056-1.402-.182-2.888-.752-3.316-4.059-3.136-5.702a.916.916 0 0 1 1.008-.815.92.92 0 0 1 .808 1.017c-.013.125-.297 3.189 1.783 3.725 3.467.898 5.235-3.377 5.304-3.558a.915.915 0 0 1 1.472-.334c.352.327 3.481 3.126 5.871.988 1.278-1.142-.18-3.53-.194-3.558a.921.921 0 0 1 .291-1.267.91.91 0 0 1 1.257.285c.863 1.38 1.803 4.171-.138 5.912-2.232 1.998-5.153 1.372-7.398-.244-.995 1.727-2.881 3.739-5.512 3.739l-.014-.006Z"/><path fill="#6C184E" d="M105.731 105.042c4.31 1.121 6.382-4.108 6.382-4.108 1.541 1.448 4.67 3.175 7.101 1.003 1.23-1.1.145-3.42-.276-4.457-.055.592-.125 1.727-.373 2.291-.981 2.18-4.856-.71-6.396-2.158 0 0-2.777 7.109-6.825 5.25-1.126-.516-1.402-1.957-1.74-2.799.013 1.149-.042 4.414 2.134 4.978h-.007Z" opacity=".3"/><path fill="#6C184E" d="M112.072 95.016a17.778 17.778 0 0 1 1.064 2.743c.131.48.255.975.317 1.504.062.53.097 1.086 0 1.699v.049a1.12 1.12 0 0 1-1.271.926 1.111 1.111 0 0 1-.856-1.504c.117-.293.179-.683.214-1.087a7.893 7.893 0 0 0-.021-1.28 12.612 12.612 0 0 0-.179-1.33c-.076-.44-.18-.899-.29-1.317v-.02a.55.55 0 0 1 .386-.683.545.545 0 0 1 .636.293v.007Z"/><path fill="#fff" d="M189.123 81.236s-1.761 3.258.283 4.867c2.639 2.068 5.733.083 7.225-1.504 0 0 2.473 5.229 6.825 3.788 2.915-.961 2.217-5.014 2.217-5.014"/><path fill="#252159" d="M201.971 88.86c-2.984 0-4.87-2.945-5.395-3.885-1.575 1.553-4.669 3.377-7.315 1.302-2.175-1.706-.421-5.014-.345-5.153a.227.227 0 0 1 .311-.09c.11.062.152.202.09.313-.014.028-1.644 3.106.228 4.575 3.094 2.43 6.541-1.072 6.921-1.483l.228-.244.145.3c.096.208 2.438 5.027 6.548 3.669 2.694-.891 2.065-4.714 2.065-4.756a.227.227 0 1 1 .449-.077c.007.042.698 4.255-2.369 5.272a4.904 4.904 0 0 1-1.554.257h-.007Z"/><path fill="#252159" d="M203.56 87.941c-4.352 1.441-6.825-3.788-6.825-3.788-1.492 1.588-4.586 3.58-7.225 1.504-1.34-1.051-.373-3.502-.014-4.595.097.605.242 1.768.539 2.325 1.147 2.173 4.939-1.058 6.431-2.646 0 0 3.315 7.117 7.356 4.937 1.126-.606 1.312-2.103 1.603-2.994.062 1.177.331 4.533-1.865 5.257Z" opacity=".3"/><path fill="#252159" d="M197.44 78.409a17 17 0 0 0-.214 1.371c-.056.46-.09.927-.097 1.38 0 .452 0 .897.055 1.315.056.418.145.808.283 1.114a1.116 1.116 0 0 1-.538 1.476 1.1 1.1 0 0 1-1.465-.543 1.199 1.199 0 0 1-.076-.216l-.013-.048c-.139-.627-.146-1.191-.118-1.741.028-.543.124-1.058.228-1.56.104-.501.242-.989.394-1.469.152-.48.311-.94.511-1.42a.546.546 0 0 1 .718-.3c.249.105.38.37.332.627v.02-.006Z"/><path fill="#252159" d="M189.385 80.88c-.124 1.122-.179 2.243.125 2.995.145.369.338.605.601.787.034.02.062.048.089.07.035.027.09.048.132.076l.269.153c.194.063.359.167.553.202.718.223 1.54.132 2.403-.181a6.73 6.73 0 0 0 2.349-1.623l1.112-1.197.746 1.497c.09.18.249.438.387.654.145.223.311.439.476.648.339.41.712.773 1.099 1.086.801.585 1.637.933 2.5.87h.325c.11-.027.221-.055.331-.076.111-.028.235-.042.332-.07.09-.035.18-.062.269-.09.339-.147.608-.376.878-.71.531-.683.884-1.797 1.229-3.002v-.013a.203.203 0 0 1 .256-.14.196.196 0 0 1 .117.09c.352.593.525 1.24.601 1.936a4.457 4.457 0 0 1-.338 2.159c-.304.731-.919 1.4-1.651 1.81-.187.09-.373.181-.56.265-.186.077-.359.111-.545.16-.18.049-.36.098-.546.14l-.573.055c-.38.056-.774-.02-1.161-.049-.193-.02-.38-.083-.566-.125-.187-.056-.373-.097-.546-.181-.718-.265-1.326-.696-1.879-1.142a10.443 10.443 0 0 1-1.409-1.525c-.2-.271-.394-.55-.573-.835-.18-.3-.339-.557-.518-.92l1.858.3c-.884.912-1.879 1.678-3.06 2.256a6.668 6.668 0 0 1-1.962.564c-.704.084-1.464 0-2.148-.258-.352-.111-.663-.3-.974-.473l-.421-.314c-.069-.055-.138-.104-.208-.167-.069-.07-.145-.139-.214-.215a3.4 3.4 0 0 1-.939-2.131 3.515 3.515 0 0 1 .076-1.052c.062-.334.166-.64.304-.926a4.846 4.846 0 0 1 1.043-1.525.203.203 0 0 1 .283 0 .197.197 0 0 1 .055.16v.021l-.007-.013Z"/><path fill="#6C184E" d="M79.635 169.373c.628 1.323 1.208 2.619 1.871 3.767.332.571.698 1.101 1.037 1.525.172.209.345.397.504.543.159.147.297.244.435.349l.249.181a1.14 1.14 0 0 1 .262 1.58 1.13 1.13 0 0 1-1.057.467c-.552-.07-1.05-.321-1.436-.62a4.32 4.32 0 0 1-.947-1.017c-.497-.724-.753-1.49-.96-2.235-.2-.752-.304-1.504-.359-2.249-.041-.752-.041-1.497.07-2.242a.172.172 0 0 1 .192-.146.18.18 0 0 1 .132.09l.007.007ZM72.12 170.279c.483 1.525.974 3.001 1.63 4.282a9.13 9.13 0 0 0 1.091 1.678c.387.48.788.787 1.23 1.086l.131.091a1.15 1.15 0 0 1-.891 2.075c-1.03-.244-1.9-.961-2.431-1.741-.567-.787-.857-1.65-1.064-2.493a11.634 11.634 0 0 1-.283-2.513c0-.829.069-1.651.262-2.458a.17.17 0 0 1 .325-.014v.007Z"/><path fill="#252159" d="M247.553 158.824c.103.752.11 1.498.069 2.243a12.28 12.28 0 0 1-.359 2.249c-.201.745-.463 1.518-.961 2.235a4.313 4.313 0 0 1-.946 1.016c-.387.3-.891.55-1.437.62a1.128 1.128 0 0 1-1.257-.982 1.142 1.142 0 0 1 .463-1.065l.256-.181c.138-.098.276-.202.435-.348a5.07 5.07 0 0 0 .504-.543c.345-.425.711-.954 1.043-1.525.663-1.149 1.243-2.444 1.872-3.767a.167.167 0 0 1 .228-.084.192.192 0 0 1 .097.132h-.007ZM255.068 159.695c.193.808.255 1.629.262 2.458 0 .828-.09 1.671-.283 2.513-.207.836-.497 1.706-1.064 2.493-.539.78-1.409 1.497-2.431 1.741a1.14 1.14 0 0 1-1.368-.856c-.11-.481.09-.954.47-1.212l.138-.091c.442-.299.843-.605 1.229-1.086a9.075 9.075 0 0 0 1.092-1.678c.649-1.281 1.146-2.757 1.63-4.282a.165.165 0 0 1 .207-.119c.055.021.097.07.111.126l.007-.007Z"/><path fill="#252159" d="M247.552 114.254c-.773.272-1.547.516-2.328.752-.78.237-1.568.46-2.348.662-14.063 3.697-28.092 2.653-31.359 2.68-3.641.035-18.685-1.483-31.678-8a51.2 51.2 0 0 1-5.843-3.405c-3.64-2.465-6.907-5.438-9.415-9.01-1.968-2.792-3.205-5.459-3.833-8.14 5.228 9.06 20.514 16.182 20.514 16.182 28.072 12.736 60.495 3.154 60.495 3.154l1.962 1.79.152-.877s1.519 1.518 3.681 4.205v.007Z" opacity=".35"/><path fill="#252159" d="M213.492 197.776c-.373 6.036 4.096 11.28 10.078 11.767 6.645.543 14.499.773 18.007-.689 3.917-1.637 5.547-3.614 5.92-5.773-.428.223-.898.439-1.402.648-3.509 1.469-11.356 1.239-18.008.689-5.981-.487-10.45-5.73-10.077-11.767.145-2.375 2.555-13.209 9.946-18.605l-14.844 3.774c1.023 5.64.788 13.459.387 19.949l-.007.007Z" opacity=".3"/><path fill="#252159" d="M193.758 73.89c-.884.111-1.582.661-1.851 1.371-.249.669.234 1.853.753 2.549 2.742 3.69 8.385 3.802 11.321.306 1.381-1.65.511-3.502-1.976-3.788-2.562-.292-5.16-.285-8.247-.438Z"/><path fill="#fff" d="M194.463 75.004c-.291.02-.532.153-.643.341-.096.174.035.494.187.675.822 1.003 2.673 1.094 3.723.202.49-.417.248-.919-.567-1.016-.835-.105-1.692-.133-2.707-.202h.007Z" opacity=".5"/></g><defs><clipPath id="a"><path fill="#fff" d="M0 .437h278v211H0z"/></clipPath></defs></svg>