<svg xmlns="http://www.w3.org/2000/svg" width="194" height="213" fill="none"><g clip-path="url(#a)"><path fill="#60547B" d="m104.078 177.203 10.544-.322 1.043 10.169c-2.03-30.678 28.795-21.875 19.505 0-5.088 14.562-19.108 17.24-31.091 9.238v-19.084l-.001-.001ZM58.512 177.204v19.086c-11.787 7.865-25.534 5.411-30.823-8.519-.092-.238-.18-.48-.267-.723-9.176-21.597 20.765-30.452 19.56-1.135v.005c-.014.368-.033.746-.057 1.129l.13-1.266.913-8.902 10.544.325Z"/><g opacity=".3"><path fill="#760153" d="m86.671 195.029.015-.005v.005l-.015.015v-.015Z"/><path fill="#000072" d="m86.483 195.521-.015-.623.152-.067.27-.091v.369l-.06.064-.347.348Z"/></g><path fill="#000072" d="M58.512 184.759v11.531c-11.787 7.865-25.534 5.411-30.823-8.519 7.09 5.479 13.874 8.136 19.294-1.853v-.004l.073-.131c.058-.112.12-.228.179-.345l11.277-.679ZM104.078 184.759v11.531c11.787 7.865 25.535 5.411 30.824-8.519-7.09 5.479-13.874 8.136-19.294-1.853v-.004l-.073-.131c-.058-.112-.121-.228-.179-.345l-11.278-.679Z" opacity=".3"/><path fill="#fff" d="m113.987 157.973-13.058 11.178-4.222 3.612-24.52 3.734-10.516-6.964-15.74-10.425 4.89-12.612 3.145-8.098.98-2.53 53.024 2.114.17.557 2.562 8.515 3.285 10.919Z"/><path fill="#000072" d="m72.14 176.71-26.46-17.522 9.128-23.529.146.005 53.168 2.12.212.695 5.886 19.563-17.425 14.913-.057.009-24.598 3.746Zm-25.961-17.681 26.055 17.255 24.384-3.713 17.135-14.665-5.937-19.727-52.733-2.102-8.905 22.952h.001Z"/><path fill="#0399FF" d="M86.687 202.704c-3.589 3.096-7.178 3.096-10.768 0v-33.576c3.59 2.611 7.18 2.611 10.768 0v33.576Z"/><path fill="#0399FF" d="m58.512 196.541 17.408 6.163v-33.576l-17.408-6.162v33.575Z"/><path fill="#fff" d="m104.078 162.966-3.769-5.278s-11.004-4.237-16.538 8.259c-1.537-.473-3.415-.471-4.95.005-5.533-12.503-16.54-8.264-16.54-8.264l-3.769 5.278 17.51 5.423a2.81 2.81 0 0 0-.102.74h2.169l3.207 1.195 2.927-1.195h2.465c0-.338-.061-.649-.164-.939l.545-.223 17.009-5.001Z"/><path fill="#000072" d="m81.298 170.542-3.247-1.21h-2.335v-.204c0-.202.021-.4.063-.602l-17.595-5.45 3.968-5.556.056-.022c.112-.044 11.157-4.126 16.728 8.208 1.472-.417 3.248-.419 4.723-.005 5.572-12.331 16.614-8.246 16.725-8.203l.057.022 3.97 5.559-17.284 5.082-.35.144c.078.271.115.542.115.823v.203h-2.628l-2.964 1.21-.002.001Zm-5.167-1.617 2.028.013 3.132 1.167 2.931-1.18h2.254a2.57 2.57 0 0 0-.144-.667l-.065-.183.725-.297 16.754-4.927-3.566-4.993c-.94-.343-10.978-3.672-16.223 8.171l-.073.166-.174-.053c-1.49-.458-3.34-.457-4.83.005l-.173.054-.073-.165c-5.192-11.731-15.377-8.472-16.226-8.177l-3.568 4.997 17.428 5.397-.051.189a2.686 2.686 0 0 0-.086.484v-.001Z"/><path fill="#000072" d="m104.078 162.966-3.769-5.278s-11.004-4.237-16.538 8.259c-1.537-.473-3.415-.471-4.95.005-5.533-12.503-16.54-8.264-16.54-8.264l-3.769 5.278 17.51 5.423a2.81 2.81 0 0 0-.102.74h2.169l3.207 1.195 2.927-1.195h2.465c0-.338-.061-.649-.164-.939l.545-.223 17.009-5.001Z" opacity=".2"/><path fill="#0399FF" d="m104.078 196.541-17.408 6.163v-33.576l17.408-6.162v33.575Z"/><path fill="#fff" d="M86.686 169.126v3.879c-.005.005-.01.005-.015.01-3.58 2.604-7.167 2.599-10.753-.01v-3.879c3.586 2.609 7.172 2.613 10.753.01.005-.005.01-.005.015-.01Z" opacity=".55"/><path fill="#fff" d="M75.919 169.126v3.879l-17.407-6.162v-3.879l17.407 6.162ZM104.078 162.963v3.88l-17.392 6.158v.004c-.005.005-.01.005-.015.01v-3.889l17.407-6.163Z" opacity=".55"/><g opacity=".55"><path fill="#fff" d="M86.687 173.001v.005c-.005.004-.01.004-.016.01v-.01l.016-.005Z"/><path fill="#000072" d="M86.468 173.506v-.636l.407-.15.015.369-.422.417Z"/></g><path fill="#000072" d="M81.304 206.737c-2.185 0-4.37-.916-6.494-2.748a1.696 1.696 0 0 1-.588-1.285v-33.576a1.7 1.7 0 0 1 2.698-1.372c2.991 2.176 5.778 2.176 8.769 0a1.7 1.7 0 0 1 2.698 1.372v33.576c0 .493-.215.962-.589 1.285-2.123 1.832-4.309 2.748-6.493 2.748h-.001Zm-3.686-4.841c2.526 1.914 4.844 1.914 7.37 0v-29.868c-2.441 1-4.929 1-7.37 0v29.868Z"/><path fill="#000072" d="M75.92 204.401a1.68 1.68 0 0 1-.567-.098l-17.408-6.162a1.697 1.697 0 0 1-1.132-1.6v-33.575a1.703 1.703 0 0 1 2.266-1.6l17.408 6.163c.678.239 1.131.88 1.131 1.599v33.576a1.697 1.697 0 0 1-1.698 1.697Zm-15.71-9.06 14.011 4.961v-29.975l-14.01-4.961v29.975Z"/><path fill="#60547B" d="M61.671 169.533c.034 3.37-1.858 6.338-5.105 7.613l-8.598-.266c-.66-.233-1.34-.519-2.039-.859-1.902-6.201-6.008-8.864-10.03-8.81-5.638-8.99-2.723-19.26 1.81-26.514 1.412-2.255 2.98-4.224 4.494-5.765l11.762 3.467 6.042 1.78-6.07 7.07c-.04.053-.073.111-.113.164-3.343 5.091-1.849 10.174 4.494 15.259 1.77 1.421 3.008 3.511 3.29 5.829.039.349.063.689.063 1.033v-.001Z"/><path fill="#fff" d="M25.876 181.767c1.451-12.927 19.4-15.647 21.123 3.671.787-26.256-23.812-21.127-21.123-3.671Z" opacity=".55"/><path fill="#000072" d="M52.921 179.499c-2.416 0-5.047-.649-7.73-1.947a1.696 1.696 0 1 1 1.478-3.055c4.218 2.039 8.124 2.144 10.72.288 1.888-1.351 2.836-3.622 2.534-6.075-.223-1.811-1.197-3.53-2.671-4.716-8.948-7.181-7.506-13.586-4.72-17.694a1.697 1.697 0 1 1 2.812 1.903c-1.868 2.755-3.481 7.113 4.036 13.146 2.157 1.735 3.584 4.267 3.914 6.946.457 3.706-1.012 7.164-3.928 9.249-1.82 1.303-4.025 1.954-6.446 1.954l.001.001Z"/><path fill="#000072" d="M45.012 202.414a19.62 19.62 0 0 1-6.23-.99c-5.927-1.982-10.523-6.868-12.946-13.762-3.131-7.415-2.293-14.458 2.247-18.848 3.419-3.307 8.269-4.221 12.356-2.329 2.786 1.29 9.16 5.886 8.18 20.676a1.688 1.688 0 0 1-1.806 1.581 1.696 1.696 0 0 1-1.582-1.804c.59-8.938-1.676-15.27-6.22-17.373-2.803-1.297-6.164-.636-8.566 1.688-3.501 3.386-4.047 9.044-1.461 15.134.014.034.028.068.04.103 2.094 5.994 5.84 10.044 10.835 11.714 5.388 1.801 11.843.589 17.709-3.327a1.698 1.698 0 1 1 1.887 2.821c-4.65 3.106-9.676 4.716-14.444 4.716Z"/><path fill="#000072" d="M35.906 168.906a1.695 1.695 0 0 1-1.44-.795c-3.54-5.64-4.303-12.383-2.21-19.501 1.57-5.338 4.836-10.895 8.733-14.867a1.699 1.699 0 0 1 2.425 2.377c-6.134 6.249-12.813 19.444-6.071 30.187a1.697 1.697 0 0 1-1.438 2.599ZM86.688 170.825a1.697 1.697 0 0 1-1.699-1.697c0-.19 0-.695-.84-1.186-.71-.414-1.747-.652-2.845-.652-1.811 0-3.686.687-3.686 1.838 0 .938-.76 1.697-1.698 1.697a1.697 1.697 0 0 1-1.698-1.697c0-3.08 2.912-5.232 7.082-5.232s7.082 2.152 7.082 5.232c0 .938-.76 1.697-1.698 1.697Z"/><path fill="#000072" d="M78.822 167.65a1.698 1.698 0 0 1-1.554-1.011c-4.245-9.591-11.96-8.08-13.929-7.511l-3.444 4.824a1.698 1.698 0 1 1-2.766-1.972l3.769-5.277c.193-.27.462-.479.772-.598.125-.048 12.588-4.66 18.704 9.161a1.696 1.696 0 0 1-1.552 2.384Z"/><path fill="#A36997" d="M114.623 176.88c-3.397 1.216-6.328 1.158-8.599.266l8.599-.266Z"/><path fill="#000072" d="M109.683 178.01c-1.335 0-2.589-.224-3.734-.674l-.922-.362 10.877-.338-1.214.435c-1.745.626-3.432.939-5.008.939h.001Zm-2.466-.697c1.78.442 3.788.378 5.92-.184l-5.92.184Z"/><path fill="#fff" d="M136.711 181.767c-1.45-12.927-19.4-15.647-21.123 3.671-.786-26.256 23.812-21.127 21.123-3.671Z" opacity=".55"/><path fill="#000072" d="M86.67 204.401a1.7 1.7 0 0 1-1.698-1.697v-33.576c0-.719.453-1.36 1.13-1.599l17.409-6.163a1.697 1.697 0 0 1 2.266 1.6v33.575c0 .719-.453 1.36-1.131 1.6l-17.408 6.162a1.683 1.683 0 0 1-.567.098Zm1.699-34.074v29.975l14.011-4.961v-29.975l-14.011 4.961Z"/><path fill="#60547B" d="M126.69 167.211c-4.023-.054-8.128 2.609-10.03 8.81a19.45 19.45 0 0 1-2.038.859c-3.397 1.216-6.328 1.158-8.599.266-3.367-1.318-5.279-4.465-5.095-7.995.01-.219.029-.432.054-.651.281-2.317 1.519-4.407 3.29-5.828 6.269-5.029 7.803-10.052 4.605-15.085-.073-.112-.146-.228-.223-.339l-6.071-7.07 5.557-1.639 12.248-3.607c1.581 1.609 3.222 3.685 4.678 6.066 4.431 7.234 7.192 17.344 1.625 26.213h-.001Z"/><path fill="#000072" d="M83.768 167.65a1.696 1.696 0 0 1-1.552-2.384c6.116-13.822 18.58-9.208 18.704-9.161a1.7 1.7 0 0 1 .772.598l3.768 5.277a1.696 1.696 0 0 1-.396 2.368 1.7 1.7 0 0 1-2.369-.396l-3.445-4.824c-1.958-.567-9.681-2.087-13.93 7.512a1.697 1.697 0 0 1-1.553 1.01h.001ZM117.579 202.414c-4.769 0-9.794-1.61-14.444-4.716a1.696 1.696 0 1 1 1.887-2.821c5.865 3.916 12.32 5.13 17.708 3.327 4.995-1.67 8.741-5.72 10.836-11.714a1.29 1.29 0 0 1 .04-.103c2.586-6.091 2.04-11.749-1.462-15.135-2.4-2.322-5.763-2.984-8.566-1.687-4.543 2.103-6.81 8.436-6.219 17.373a1.697 1.697 0 0 1-1.583 1.804 1.695 1.695 0 0 1-1.806-1.581c-.978-14.791 5.395-19.386 8.18-20.676 4.09-1.892 8.939-.979 12.357 2.329 4.539 4.39 5.378 11.433 2.247 18.848-2.423 6.894-7.019 11.78-12.947 13.762a19.62 19.62 0 0 1-6.229.99h.001Z"/><path fill="#000072" d="M109.669 179.499c-2.421 0-4.625-.652-6.446-1.954-2.915-2.086-4.384-5.543-3.928-9.249.33-2.68 1.757-5.212 3.913-6.946 7.518-6.033 5.905-10.392 4.037-13.146a1.698 1.698 0 0 1 2.812-1.903c2.787 4.108 4.229 10.513-4.721 17.695-1.473 1.184-2.446 2.903-2.67 4.715-.302 2.453.646 4.723 2.535 6.075 2.594 1.856 6.502 1.751 10.719-.288a1.698 1.698 0 1 1 1.479 3.055c-2.683 1.297-5.316 1.946-7.731 1.946h.001ZM126.684 168.906a1.698 1.698 0 0 1-1.437-2.599c6.742-10.743.063-23.938-6.072-30.187a1.7 1.7 0 0 1 2.425-2.377c3.898 3.972 7.163 9.528 8.733 14.867 2.093 7.118 1.33 13.862-2.21 19.501a1.694 1.694 0 0 1-1.439.795Z"/><path fill="#60547B" d="M53.936 20.283 32.8 44.315 18.032 61.097C8.652 56.519 2.198 46.903 2.198 35.775c0-3.569.665-6.987 1.878-10.13C8.148 15.09 18.396 7.598 30.397 7.598c9.84 0 18.498 5.048 23.54 12.685ZM144.557 61.095c9.381-4.576 15.835-14.19 15.835-25.32 0-15.557-12.621-28.175-28.196-28.175-9.843 0-18.502 5.044-23.545 12.683"/><path fill="#fff" d="M160.04 31.34c-4.053-10.576-14.312-18.085-26.328-18.085-8.887 0-16.811 4.115-21.97 10.538l-3.09-3.51C113.694 12.644 122.353 7.6 132.196 7.6c14.066 0 25.724 10.29 27.845 23.74h-.001Z" opacity=".55"/><path fill="#000072" d="M32.799 37.26v7.055L18.032 61.097C8.652 56.519 2.198 46.903 2.198 35.775c0-3.569.665-6.987 1.878-10.13C10.705 41.632 22.046 44.46 32.8 37.258v.001ZM125.065 140.997c-4.377 2.478-9.195 4.5-14.363 6.056-.602.189-1.213.364-1.825.534-8.351 2.318-17.556 3.482-27.222 3.482s-19.319-1.222-27.83-3.657a73.283 73.283 0 0 1-3.004-.916c-4.702-1.542-9.098-3.477-13.111-5.8 1.412-2.255 2.98-4.224 4.493-5.765l11.763 3.467.98-2.531 53.024 2.114.17.557 12.248-3.607c1.582 1.61 3.222 3.686 4.678 6.066h-.001ZM129.792 37.26v7.055l14.766 16.782c9.38-4.578 15.834-14.193 15.834-25.321 0-3.57-.665-6.987-1.878-10.13-6.629 15.987-17.969 18.814-28.722 11.613Z" opacity=".3"/><path fill="#fff" d="M2.375 31.34c4.052-10.576 14.312-18.085 26.328-18.085 8.887 0 16.81 4.115 21.97 10.538l3.09-3.51C48.721 12.644 40.062 7.6 30.22 7.6 16.153 7.6 4.495 17.89 2.375 31.34Z" opacity=".55"/><path fill="#fff" d="M150.255 88.574c0 35.618-30.874 53.664-68.96 53.664s-68.96-18.046-68.96-53.664c0-35.617 30.874-75.318 68.96-75.318s68.96 39.701 68.96 75.319Z"/><path fill="#000072" d="M81.295 142.441c-19.67 0-36.574-4.673-48.882-13.513-13.269-9.531-20.282-23.485-20.282-40.354s7.569-36.542 20.248-51.15C46.02 21.708 63.393 13.053 81.295 13.053c17.902 0 35.274 8.655 48.917 24.373 12.678 14.607 20.247 33.728 20.247 51.15 0 17.42-7.013 30.822-20.282 40.353-12.308 8.84-29.211 13.513-48.882 13.513Zm0-128.982c-38.722 0-68.757 40.379-68.757 75.115 0 32.476 26.989 53.461 68.757 53.461 41.769 0 68.758-20.985 68.758-53.46 0-34.737-30.035-75.116-68.758-75.116Z"/><path fill="#000072" d="M150.255 88.576c0 35.615-30.872 53.663-68.96 53.663-38.088 0-68.96-18.048-68.96-53.663 0-3.433.287-6.9.84-10.372 5.173 29.123 33.701 43.864 68.12 43.864 34.421 0 62.948-14.741 68.122-43.864.553 3.472.839 6.939.839 10.372h-.001Z" opacity=".3"/><path fill="#000072" d="M81.295 143.935c-19.986 0-37.19-4.769-49.754-13.794-13.676-9.824-20.905-24.197-20.905-41.567s7.706-37.257 20.613-52.128c6.61-7.615 14.153-13.65 22.42-17.937 8.894-4.612 18.188-6.95 27.625-6.95 9.437 0 18.732 2.338 27.625 6.95 8.268 4.287 15.811 10.323 22.421 17.937 12.907 14.87 20.613 34.358 20.613 52.128 0 17.77-7.229 31.743-20.905 41.567-12.564 9.024-29.769 13.794-49.754 13.794h.001Zm0-128.982c-37.88 0-67.262 39.576-67.262 73.622 0 31.568 26.402 51.967 67.262 51.967 40.861 0 67.262-20.399 67.262-51.967 0-34.046-29.382-73.622-67.262-73.622Z"/><path fill="#000072" d="M93.221 88.466c0 3.65-5.34 6.61-11.927 6.61s-11.928-2.96-11.928-6.61c0-3.65 5.34-5.092 11.928-5.092 6.587 0 11.927 1.442 11.927 5.092Z"/><path fill="#000072" d="M71.238 106.203c-1.635 0-3.287-.337-4.844-1.048-3.712-1.691-6.171-5.174-6.925-9.807a1.698 1.698 0 0 1 3.354-.544c.565 3.478 2.333 6.058 4.98 7.263 3.847 1.755 8.508.324 10.608-3.26.787-1.332 1.185-2.895 1.185-4.648 0-.65-.059-1.346-.174-2.066a1.697 1.697 0 0 1 3.354-.537c.144.897.217 1.773.217 2.602 0 2.369-.556 4.511-1.653 6.369-2.113 3.605-6.053 5.675-10.102 5.675v.001Z"/><path fill="#000072" d="M96.707 104.495s-.267 8.003-3.82 10.668c-5.926-7.45-17.266-7.45-23.192 0l-3.097-6.514v-4.154l.501-.884c4.476 2.041 10.175.494 12.777-3.946.957.006 1.913.006 2.843.006 2.648 4.512 8.497 6.033 13 3.829.585.585.988.994.988.994v.001Z"/><path fill="#FF2C4B" d="M92.29 115.858c-5.849 6.527-16.148 6.527-21.996 0 1.874-4.199 6.096-7.131 10.995-7.131a12.05 12.05 0 0 1 11 7.131Z"/><path fill="#000072" d="M91.404 106.183c-4.054 0-8.042-2.063-10.15-5.653-1.098-1.844-1.658-3.992-1.658-6.371 0-.83.073-1.705.217-2.602a1.699 1.699 0 0 1 3.354.536c-.115.72-.174 1.415-.174 2.066 0 1.76.4 3.323 1.186 4.645 2.128 3.627 6.967 5.046 10.792 3.173 1.8-.879 4.091-2.838 4.796-7.173a1.699 1.699 0 0 1 3.353.544c-.731 4.5-3.095 7.936-6.655 9.678a11.502 11.502 0 0 1-5.061 1.158v-.001Z"/><path fill="#000072" d="M81.292 122.451c-4.684 0-9.154-1.99-12.263-5.46-3.172-3.516-4.85-8.379-4.85-14.056a1.698 1.698 0 0 1 3.395 0c0 4.825 1.377 8.901 3.981 11.788a13.08 13.08 0 0 0 9.737 4.335c3.72 0 7.267-1.579 9.733-4.331 2.607-2.89 3.984-6.966 3.984-11.791a1.698 1.698 0 0 1 3.397 0c0 5.678-1.679 10.54-4.855 14.06a16.473 16.473 0 0 1-12.26 5.456v-.001Z"/><path fill="#000072" d="M92.89 116.86c-.5 0-.996-.22-1.331-.641a13.052 13.052 0 0 0-10.267-4.947 13.05 13.05 0 0 0-10.267 4.946 1.698 1.698 0 0 1-2.659-2.112 16.431 16.431 0 0 1 12.925-6.229c5.066 0 9.778 2.271 12.927 6.229a1.695 1.695 0 0 1-1.328 2.752v.002Z"/><path fill="#60547B" d="M58.308 91.984a29.398 29.398 0 0 0-.406 3.322c-.266 4.085-3.543 7.296-7.26 6.87a17.279 17.279 0 0 1-1.092-.161c-10.42-1.872-17.16-12.861-15.058-24.548 2.101-11.68 12.25-19.635 22.67-17.764 4.413.793 8.165 3.22 10.866 6.643 2.452 3.107 1.858 7.883-1.267 10.391-4.08 3.276-7.28 8.721-8.453 15.246ZM104.283 90.13c.201 1.118.335 2.228.406 3.321.265 4.085 3.542 7.297 7.259 6.87.363-.041.727-.095 1.092-.161 10.421-1.871 17.161-12.86 15.058-24.547-2.101-11.68-12.249-19.636-22.67-17.764-4.412.792-8.165 3.22-10.866 6.642-2.452 3.108-1.857 7.883 1.267 10.392 4.08 3.275 7.28 8.72 8.454 15.246Z"/><path fill="#fff" d="M67.902 22.946C64.882-.28 88.874-4.96 82.822 13.418c2.91-5.439 12.052-4.697 4.684 5.417 7.362-8.306 12.637-.195 6.457 4.223"/><path fill="#000072" d="m94.083 23.223-.237-.33c2.267-1.622 2.822-3.651 2.585-5.01-.2-1.15-.954-2.014-2.015-2.315-1.9-.538-4.364.702-6.758 3.403l-.317-.256c3.199-4.39 2.95-6.497 2.517-7.361-.345-.688-1.047-1.075-1.975-1.087h-.045c-1.5 0-3.639 1.01-4.836 3.248l-.373-.16c1.537-4.667 1.23-8.328-.84-10.044-1.579-1.309-4.061-1.294-6.477.037-4.199 2.313-8.606 8.826-7.209 19.574l-.403.052c-1.424-10.95 3.105-17.608 7.415-19.983 2.567-1.413 5.223-1.41 6.933.007 2.005 1.661 2.48 4.968 1.355 9.184 1.306-1.592 3.101-2.322 4.435-2.322h.049c1.088.014 1.917.48 2.333 1.312.674 1.347.18 3.46-1.391 6.052 2.026-1.776 4.04-2.515 5.697-2.046 1.215.345 2.077 1.33 2.305 2.636.258 1.48-.329 3.68-2.75 5.41h.002Z"/><path fill="#000072" d="M93.966 24.755a1.697 1.697 0 0 1-.99-3.078c1.704-1.218 2.14-2.627 1.982-3.539-.059-.339-.261-.938-.95-1.133-1.008-.286-2.912.34-5.23 2.955a1.7 1.7 0 0 1-2.337.197 1.696 1.696 0 0 1-.308-2.321c2.479-3.404 2.667-5.256 2.387-5.814-.085-.17-.306-.258-.658-.263-1.09-.016-2.677.842-3.542 2.459a1.7 1.7 0 0 1-2.167.76 1.696 1.696 0 0 1-.945-2.091c1.315-3.993 1.176-7.144-.374-8.428-1.095-.908-2.934-.833-4.801.196-3.787 2.085-7.748 8.07-6.448 18.073a1.697 1.697 0 0 1-3.368.436c-1.52-11.695 3.455-18.882 8.177-21.482 3.117-1.717 6.417-1.653 8.609.165 1.166.967 2.716 3.014 2.487 6.985a6.339 6.339 0 0 1 2.418-.466c1.65.022 2.981.802 3.65 2.137.465.928.578 2.016.343 3.258 1.295-.343 2.333-.22 3.034-.021 1.782.505 3.042 1.931 3.37 3.817.428 2.46-.856 5.098-3.352 6.882-.3.214-.645.317-.987.317v-.001ZM18.032 62.793a1.69 1.69 0 0 1-.744-.172C6.933 57.568.5 47.28.5 35.774.5 19.303 13.91 5.903 30.394 5.903c10.073 0 19.405 5.026 24.962 13.446a1.699 1.699 0 0 1-2.835 1.868c-4.928-7.464-13.199-11.92-22.127-11.92-14.611 0-26.498 11.877-26.498 26.477 0 10.2 5.702 19.318 14.882 23.796a1.697 1.697 0 0 1-.746 3.222v.001ZM144.558 62.793a1.696 1.696 0 0 1-.745-3.222c9.179-4.478 14.881-13.596 14.881-23.796 0-14.6-11.887-26.478-26.497-26.478-8.929 0-17.2 4.457-22.127 11.92a1.7 1.7 0 0 1-2.836-1.867c5.558-8.42 14.89-13.447 24.963-13.447 16.483 0 29.893 13.4 29.893 29.872 0 11.507-6.433 21.794-16.788 26.846-.24.118-.494.173-.744.173v-.001ZM107.873 71.724c-4.115 0-7.449 4.072-7.449 9.096s3.334 9.102 7.449 9.102 7.453-4.073 7.453-9.102c0-5.028-3.333-9.096-7.453-9.096Zm2.766 10.236c-1.067 0-1.936-1.208-1.936-2.7 0-1.494.868-2.697 1.936-2.697s1.927 1.207 1.927 2.696-.869 2.7-1.927 2.7Z"/><path fill="#fff" d="M112.566 79.258c0 1.493-.869 2.701-1.927 2.701-1.057 0-1.936-1.208-1.936-2.7 0-1.494.868-2.697 1.936-2.697s1.927 1.208 1.927 2.696Z"/><path fill="#000072" d="M110.639 82.055c-1.12 0-2.032-1.255-2.032-2.797 0-1.542.912-2.791 2.032-2.791s2.022 1.252 2.022 2.791c0 1.54-.907 2.797-2.022 2.797Zm0-5.397c-1.015 0-1.84 1.166-1.84 2.6 0 1.434.825 2.605 1.84 2.605 1.014 0 1.831-1.168 1.831-2.605 0-1.436-.822-2.6-1.831-2.6ZM54.713 71.724c-4.115 0-7.448 4.072-7.448 9.096s3.333 9.102 7.448 9.102 7.454-4.073 7.454-9.102c0-5.028-3.334-9.096-7.454-9.096Zm2.766 10.236c-1.067 0-1.936-1.208-1.936-2.7 0-1.494.869-2.697 1.936-2.697 1.068 0 1.927 1.207 1.927 2.696s-.868 2.7-1.927 2.7Z"/><path fill="#fff" d="M59.405 79.258c0 1.493-.868 2.701-1.926 2.701-1.058 0-1.937-1.208-1.937-2.7 0-1.494.87-2.697 1.937-2.697 1.067 0 1.926 1.208 1.926 2.696Z"/><path fill="#000072" d="M57.479 82.055c-1.12 0-2.032-1.255-2.032-2.797 0-1.542.911-2.791 2.032-2.791 1.12 0 2.022 1.252 2.022 2.791 0 1.54-.907 2.797-2.022 2.797Zm0-5.397c-1.015 0-1.84 1.166-1.84 2.6 0 1.434.825 2.605 1.84 2.605 1.014 0 1.83-1.168 1.83-2.605 0-1.436-.821-2.6-1.83-2.6Z"/><path fill="#000072" d="M33.117 152.445c5.752 16.028 18.497 12.675 19.516 3.171 7.556 7.351 11.536 14.071 7.102 19.308-4.04 2.989-8.314 2.775-12.717.783-2.711-4.738-6.226-7.867-10.674-9.132l-3.548-5.576.322-8.554ZM129.645 152.445c-5.752 16.028-18.496 12.675-19.516 3.171-7.556 7.351-11.536 14.071-7.102 19.308 4.04 2.989 8.314 2.775 12.717.783 2.711-4.738 6.226-7.867 10.674-9.132l3.548-5.576-.321-8.554ZM86.686 195.024v7.681c-3.586 3.094-7.177 3.094-10.768 0v-7.675c3.586 3.093 7.172 3.098 10.753.014v-.014l.015-.005v-.001Z" opacity=".3"/><path fill="#000072" d="M75.919 195.029v7.676l-17.407-6.163v-7.676l17.407 6.163ZM104.078 188.866v7.676L86.686 202.7l-.015.005v-7.676l.015-.005 17.392-6.158Z" opacity=".3"/><path fill="url(#b)" d="m31.764 159.581-19.41-68.779 132.076 2.014-13.415 69.232-99.251-2.467Z" opacity=".2"/><path fill="#C0BECC" d="M123.113 203.041H37.219c-1.149 0-2.08.93-2.08 2.078v3.794c0 1.148.931 2.078 2.08 2.078h85.894c1.149 0 2.08-.93 2.08-2.078v-3.794a2.079 2.079 0 0 0-2.08-2.078Z"/><path fill="#000072" d="M124.831 203.952v1.018a2.085 2.085 0 0 1-2.08 2.078H36.857a2.081 2.081 0 0 1-1.718-.911v2.777c0 1.143.936 2.078 2.08 2.078h85.894c1.144 0 2.08-.935 2.08-2.078v-3.795a2.06 2.06 0 0 0-.362-1.167Z" opacity=".3"/><path fill="#C0BECC" d="m131.262 153.975-4.409 43.703a5.59 5.59 0 0 1-1.772 3.549l-1.967 1.814H37.219l-1.967-1.814a5.59 5.59 0 0 1-1.772-3.549l-4.409-43.703c-.084-.85-.025-1.713.24-2.523.624-1.912 2.079-2.959 4.06-3.455.09-.021.177-.043.268-.061a9.827 9.827 0 0 1 2.004-.187h89.047c.763 0 1.53.065 2.271.249 1.982.496 3.437 1.543 4.062 3.455.011.029.018.061.025.09.242.785.293 1.616.214 2.432Z"/><path fill="#fff" d="m36.437 200.75-4.409-43.703c-.083-.849-.025-1.713.24-2.523.624-1.912 2.079-2.959 4.06-3.455.091-.021.178-.043.268-.061a9.827 9.827 0 0 1 2.004-.187h89.047c.764 0 1.53.065 2.272.249.389.097.751.223 1.096.365-.629-1.9-2.079-2.944-4.054-3.437-.741-.184-1.508-.249-2.271-.249H35.642c-.673 0-1.346.05-2.004.187-.09.019-.177.04-.267.061-1.982.496-3.436 1.543-4.062 3.455-.264.81-.322 1.673-.239 2.523l4.409 43.703a5.589 5.589 0 0 0 1.772 3.549l1.917 1.767a5.592 5.592 0 0 1-.732-2.244Z" opacity=".7"/><path fill="#000072" d="M123.113 212.437H37.218a3.53 3.53 0 0 1-3.526-3.524v-3.795a3.53 3.53 0 0 1 3.526-3.524h85.895a3.53 3.53 0 0 1 3.527 3.524v3.795a3.53 3.53 0 0 1-3.527 3.524Zm-85.895-7.951a.641.641 0 0 0-.633.633v3.795c0 .343.29.632.633.632h85.895a.64.64 0 0 0 .633-.632v-3.795a.641.641 0 0 0-.633-.633H37.218Z"/><path fill="#000072" d="M123.113 204.486H37.218c-.364 0-.714-.137-.981-.382l-1.968-1.815a7.032 7.032 0 0 1-2.23-4.465l-4.407-43.706c-.112-1.111-.01-2.159.302-3.114.745-2.271 2.456-3.754 5.088-4.409.795-.197 1.651-.293 2.618-.293h89.051c.967 0 1.824.096 2.618.293 2.632.654 4.344 2.137 5.087 4.409.313.954.415 2.002.303 3.114l-4.408 43.706a7.037 7.037 0 0 1-2.23 4.465l-1.967 1.815a1.451 1.451 0 0 1-.982.382h.001Zm-85.33-2.89h84.765l1.551-1.431a4.137 4.137 0 0 0 1.314-2.631l4.407-43.706c.072-.707.013-1.355-.174-1.924-.425-1.298-1.389-2.093-3.036-2.502-.562-.14-1.19-.208-1.919-.208h-89.05c-.729 0-1.357.068-1.92.208-1.646.409-2.61 1.204-3.036 2.502-.186.57-.245 1.217-.173 1.924l4.407 43.706a4.142 4.142 0 0 0 1.314 2.631l1.552 1.431h-.001Z"/><path fill="#000072" d="m131.262 153.975-4.409 43.703a5.59 5.59 0 0 1-1.772 3.549l-1.967 1.814H37.219l-1.967-1.814a5.59 5.59 0 0 1-1.772-3.549l-4.409-43.703c-.084-.85-.025-1.713.24-2.523.624-1.912 2.079-2.959 4.06-3.455.09-.021.177-.043.268-.061l1.66.228c-2.547.447-3.107 3.816-3.013 6.399.268 7.427.974 14.842 2.116 22.187.688 4.419 1.628 9.024 4.484 12.464 4.112 4.955 11.063 6.263 17.425 7.253 13.063 2.034 26.904 3.982 39.117-1.066 6.489-2.685 12.058-7.192 17.085-12.088 8.94-8.699 16.741-19.61 18.535-31.77.242.784.293 1.615.214 2.432Z" opacity=".3"/><g filter="url(#c)"><path fill="#ED3E37" d="M132.267 147.157c-.043-2.606-.069-5.102-.128-7.596-.103-4.324.484-3.114-2.763-5.945-6.272-5.47-12.536-10.949-18.885-16.329-2.173-1.841-1.757-3.83-.353-5.428 6.83-7.772 13.582-15.612 20.364-23.427 1.634-1.883 3.267-1.991 5.165-.346 5.547 4.805 11.099 9.603 16.624 14.43.36.314.653.842.735 1.312 1.641 9.357 9.746 16.364 19.262 16.642.43.012.943.186 1.264.462 5.672 4.875 11.321 9.776 16.97 14.676 1.582 1.371 1.72 3.164.354 4.741a27994.567 27994.567 0 0 1-20.839 24.02c-1.417 1.633-3.125 1.745-4.79.305a7829.388 7829.388 0 0 1-20.711-17.957c-.781-.68-1.558-.958-2.604-.808-3.171.455-6.354.826-9.666 1.246l.001.002Zm-1.057-26.603c.019.507.013 1.041.063 1.57.103 1.082.835 1.776 1.787 1.73.982-.047 1.661-.863 1.604-1.979-.029-.55-.123-1.098-.182-1.601 6.022-1.87 8.116-7.207 7.218-11.518-1.018-4.883-5.344-8.167-10.281-7.846-4.855.316-8.729 4.139-9.143 8.972-.378 4.4 2.417 9.734 8.934 10.671v.001Zm33.345 26.767c.492-.152.78-.246 1.07-.33 4.75-1.362 9.498-2.727 14.25-4.08.73-.207 1.274-.593 1.452-1.356.18-.774-.168-1.338-.746-1.834-2.494-2.141-4.968-4.304-7.46-6.448-.797-.685-1.871-.632-2.488.081-.624.72-.516 1.754.284 2.463.946.838 1.908 1.659 2.864 2.486l2.414 2.092c-.449.14-.735.237-1.025.32-4.722 1.353-9.444 2.708-14.169 4.051-.763.217-1.443.502-1.637 1.375-.198.895.272 1.487.902 2.029 2.49 2.144 4.969 4.302 7.457 6.449.232.2.485.387.756.526.75.383 1.432.192 2.001-.365.514-.502.576-1.394.151-2.023-.216-.319-.505-.6-.798-.856-1.707-1.493-3.425-2.975-5.279-4.58h.001Zm-9.7-19.693-.006-.005c1.307-1.507 2.619-3.01 3.919-4.522.512-.595.591-1.263.206-1.952-.369-.661-.985-.989-1.695-.8-.477.127-.973.449-1.304.823-2.366 2.671-4.673 5.394-7.049 8.057-.405.452-1.012.84-1.595.995-1.617.43-3.628-.504-4.498-1.955-.988-1.648-.835-3.055.51-4.608 2.19-2.527 4.385-5.05 6.572-7.578.957-1.107.999-2.073.14-2.792-.816-.682-1.805-.488-2.698.541a10514.79 10514.79 0 0 0-6.961 8.023c-1.266 1.461-1.789 3.147-1.533 5.069.332 2.492 1.554 4.406 3.703 5.724 3.058 1.876 6.712 1.349 9.083-1.329 1.08-1.22 2.138-2.46 3.206-3.691Zm3.195 5.494c-1.731 1.996-3.467 3.988-5.192 5.988-.786.912-.782 1.958-.012 2.606.77.649 1.793.488 2.585-.423 3.41-3.925 6.817-7.854 10.222-11.783.845-.974.857-1.977.047-2.666-.792-.674-1.741-.527-2.566.42-1.7 1.949-3.39 3.905-5.085 5.858h.001Z"/><path fill="#FFD766" d="M161.914 112.983c-6.993-6.057-7.726-16.64-1.638-23.636 6.048-6.95 16.64-7.706 23.597-1.683 6.979 6.041 7.712 16.656 1.634 23.643-6.052 6.957-16.628 7.709-23.593 1.676Zm11.898-11.146c.29.111.521.205.756.289 3.398 1.218 7.168-.407 8.574-3.693 1.439-3.366-.023-7.283-3.307-8.867-2.645-1.275-5.9-.663-7.897 1.484-.918.987-.77 2.25.331 2.837.708.377 1.461.174 2.253-.608 1.3-1.282 3.374-1.297 4.72-.035 1.301 1.22 1.414 3.285.254 4.651-1.195 1.408-3.072 1.637-4.609.565-1.233-.86-1.926-.778-2.906.349-1.034 1.187-2.069 2.374-3.095 3.569-.763.889-.737 1.847.049 2.522.782.671 1.732.55 2.507-.333.796-.906 1.581-1.821 2.37-2.729v-.001Zm-9.528 5.846c-.626.712-.56 1.794.148 2.4.703.604 1.796.509 2.404-.207.598-.707.527-1.702-.167-2.324-.727-.652-1.745-.596-2.384.131h-.001Z"/><path fill="#fff" d="M131.21 120.554c-6.517-.937-9.311-6.271-8.934-10.671.414-4.833 4.288-8.657 9.143-8.972 4.937-.322 9.263 2.962 10.281 7.846.898 4.31-1.196 9.647-7.218 11.517.059.503.154 1.051.182 1.602.056 1.116-.622 1.931-1.604 1.979-.952.045-1.684-.648-1.786-1.731-.051-.528-.045-1.062-.064-1.569v-.001Zm2.975-3.875c3.056-.927 4.836-4.225 4.159-7.37-.695-3.23-3.784-5.39-7.1-4.963-3.289.422-5.708 3.318-5.597 6.618.118 3.496 3.199 5.933 5.389 5.936-.093-.65-.237-1.282-.264-1.92-.044-1.062.587-1.762 1.564-1.831.974-.07 1.695.533 1.809 1.59.066.611.029 1.233.04 1.94ZM164.555 147.321c1.852 1.606 3.571 3.087 5.279 4.58.292.257.581.537.797.856.426.63.363 1.521-.151 2.023-.569.557-1.251.748-2.001.365a3.922 3.922 0 0 1-.756-.526c-2.488-2.147-4.967-4.305-7.457-6.449-.63-.542-1.1-1.134-.902-2.029.194-.873.873-1.158 1.637-1.375 4.725-1.343 9.446-2.698 14.169-4.051.29-.083.576-.18 1.025-.32l-2.414-2.092c-.956-.827-1.918-1.648-2.864-2.486-.799-.709-.908-1.743-.284-2.463.617-.713 1.691-.766 2.488-.081 2.492 2.144 4.966 4.307 7.46 6.448.578.497.926 1.06.746 1.834-.178.763-.722 1.149-1.452 1.356-4.752 1.354-9.5 2.718-14.25 4.08-.29.084-.579.178-1.07.33ZM154.855 127.628c-1.068 1.232-2.126 2.471-3.206 3.692-2.371 2.678-6.025 3.205-9.082 1.329-2.15-1.318-3.372-3.232-3.704-5.724-.256-1.923.267-3.608 1.533-5.069a7694.94 7694.94 0 0 1 6.961-8.023c.894-1.029 1.883-1.224 2.699-.541.858.718.816 1.685-.141 2.792-2.187 2.529-4.382 5.051-6.571 7.578-1.345 1.552-1.499 2.959-.511 4.608.87 1.45 2.881 2.384 4.498 1.955.584-.155 1.191-.543 1.595-.995 2.376-2.662 4.683-5.386 7.049-8.057.331-.374.827-.696 1.304-.823.71-.188 1.326.14 1.695.8.385.689.306 1.356-.206 1.951-1.301 1.513-2.612 3.016-3.919 4.523l.006.005v-.001ZM158.05 133.122c1.695-1.953 3.386-3.909 5.085-5.858.826-.947 1.774-1.094 2.567-.42.81.689.797 1.693-.047 2.667a14122.55 14122.55 0 0 1-10.222 11.782c-.792.911-1.816 1.072-2.585.423-.77-.648-.775-1.694.011-2.606 1.726-2 3.461-3.992 5.193-5.988h-.002ZM173.812 101.837c-.788.908-1.574 1.823-2.37 2.729-.775.883-1.726 1.004-2.506.333-.787-.675-.813-1.633-.05-2.522 1.026-1.194 2.061-2.381 3.095-3.569.981-1.127 1.673-1.208 2.906-.348 1.538 1.072 3.415.842 4.61-.565 1.159-1.366 1.046-3.43-.255-4.651-1.345-1.262-3.42-1.247-4.719.035-.793.782-1.546.984-2.253.607-1.102-.588-1.249-1.85-.332-2.836 1.998-2.148 5.253-2.76 7.897-1.484 3.285 1.583 4.746 5.501 3.307 8.866-1.406 3.287-5.176 4.911-8.574 3.693-.235-.084-.466-.177-.756-.289v.001ZM164.285 107.683c.639-.727 1.657-.783 2.384-.131.694.622.766 1.617.167 2.324-.607.717-1.701.811-2.404.207-.708-.606-.774-1.689-.148-2.4h.001Z"/><path fill="#ED3E37" d="M134.185 116.679c-.011-.708.026-1.33-.04-1.94-.114-1.057-.835-1.66-1.81-1.59-.976.069-1.607.769-1.563 1.831.027.638.17 1.27.264 1.92-2.19-.003-5.271-2.439-5.389-5.936-.111-3.3 2.308-6.196 5.597-6.618 3.316-.427 6.405 1.733 7.1 4.963.677 3.145-1.103 6.443-4.159 7.37Z"/></g><path fill="#6ECAD3" d="M75.995 66.977h10.611c1.839-6.765 7.694-7.915 13.666-8.326 6.388-.44 12.842-.635 19.171.765 1.948.431 3.872 1.15 5.67 2.02 2.588 1.25 4.263 3.459 4.908 6.227 1.651 7.097 1.1 14.087-1.945 20.709-3.157 6.863-8.9 9.678-16.282 9.638-15.71-.086-23.506-11.271-25.172-23.544-.433-3.194-.547-3.448-3.773-3.796-.85-.092-1.717-.08-2.574-.044-3.563.15-3.822.513-4.368 4.013-1.316 8.429-4.745 15.65-12.41 20.149-5.56 3.262-11.67 3.963-17.88 2.701-6.172-1.254-10.035-5.388-12.062-11.21-1.942-5.578-2.381-11.332-1.407-17.166.802-4.802 3.79-7.72 8.331-9.01 2.412-.686 4.935-1.29 7.42-1.347 5.693-.13 11.432-.29 17.08.283 6.494.66 8.132 2.244 11.015 7.937Zm31.454-4.907c-3.899.427-7.838.64-11.687 1.343-3.788.692-5.538 3.171-5.528 7.024.003 1.205.142 2.414.285 3.613 1.555 13 10.576 20.746 23.229 19.923 4.953-.321 8.596-2.72 10.74-7.196 2.453-5.12 2.683-10.595 2.241-16.129-.271-3.387-2.19-5.53-5.341-6.635-4.512-1.582-9.209-1.606-13.94-1.942h.001Zm-52.254.095-.02.28c-1.514 0-3.05-.162-4.538.032-3.185.416-6.407.79-9.502 1.605-3.143.827-4.97 3.118-5.314 6.45-.46 4.46-.206 8.877 1.033 13.184 1.357 4.717 3.988 8.574 9.004 9.724 6.952 1.593 13.498.398 18.943-4.507 5.144-4.634 7.066-10.796 7.492-17.473.321-5.022-1.679-7.535-6.72-8.342-3.423-.547-6.917-.652-10.378-.955v.002Z"/></g><defs><linearGradient id="b" x1="78.39" x2="77.843" y1="92.317" y2="218.957" gradientUnits="userSpaceOnUse"><stop stop-color="#fff"/><stop offset=".93" stop-color="#CDEEFF"/></linearGradient><clipPath id="a"><path fill="#fff" d="M.5.437h193v212H.5z"/></clipPath><filter id="c" width="102.839" height="102.082" x="105.973" y="80.597" color-interpolation-filters="sRGB" filterUnits="userSpaceOnUse"><feFlood flood-opacity="0" result="BackgroundImageFix"/><feColorMatrix in="SourceAlpha" result="hardAlpha" values="0 0 0 0 0 0 0 0 0 0 0 0 0 0 0 0 0 0 127 0"/><feOffset dx="7" dy="7"/><feGaussianBlur stdDeviation="5"/><feColorMatrix values="0 0 0 0 0.137255 0 0 0 0 0.121569 0 0 0 0 0.12549 0 0 0 0.2 0"/><feBlend in2="BackgroundImageFix" result="effect1_dropShadow_49_1110"/><feBlend in="SourceGraphic" in2="effect1_dropShadow_49_1110" result="shape"/></filter></defs></svg>