<svg xmlns="http://www.w3.org/2000/svg" width="168" height="188" fill="none"><g clip-path="url(#a)"><path fill="#60547B" d="M137.828 122.021c-2.176-.743-4.355-1.16-6.534-1.179-3.041-.022-6.081.732-9.133 2.482l-1.179-6.717 6.127-2.958 4.211-2.034 6.508 10.406Z"/><path fill="#fff" d="M122.161 123.324c-5.284 1.92-6.629 10.921-6.629 10.921-21.17-6.285-28.531 8.602-28.531 8.602-9.662-18.895-45.698-3.807-45.698-3.807l1.915-11.523 2.085-5.659 3.773-10.243 71.906 3.913.725 4.799.454 2.997Z"/><path fill="#000072" d="m87.004 143.267-.171-.333c-4.94-9.662-17.015-10.168-26.278-8.888-10.076 1.39-19.09 5.131-19.179 5.169l-.315.132 1.97-11.861 5.916-16.068.14.007 72.059 3.922 1.225 8.102-.146.053c-5.116 1.86-6.493 10.682-6.506 10.771l-.032.215-.208-.062c-10.856-3.223-17.972-.74-22.031 1.91-4.399 2.873-6.26 6.558-6.277 6.595l-.167.336Zm-19.408-10.116c9.467 0 16.105 3.156 19.41 9.296.557-.968 2.496-3.98 6.22-6.417 4.1-2.684 11.265-5.203 22.155-2.028.242-1.402 1.751-8.913 6.571-10.802l-1.133-7.492-71.614-3.897-5.81 15.771-1.85 11.156c1.684-.672 9.895-3.817 18.958-5.068 2.514-.347 4.881-.519 7.093-.519Z"/><path fill="#60547B" d="M45.62 113.09c-6.705.284-13.663-1.989-13.663-1.989l-.98 2.013 9.798 24.899 3.874-14.644 3.215-9.02-2.244-1.259Z"/><path fill="#000072" d="m32.52 115.843 5.504 6.447c.761.891 2.108.966 2.962.165l5.84-5.473-6.051 19.948-8.255-21.086v-.001Z" opacity=".3"/><path fill="#fff" d="m47.864 114.35-.677 1.894-1.567-.879c-6.704.284-13.665-1.989-13.665-1.989l-.484.996-.494-1.257.978-2.012s6.96 2.273 13.665 1.989l2.244 1.258Z" opacity=".55"/><path fill="#fff" d="M163.912 186.11H95.405c0-1.617-.25-3.038-.684-4.254-1.333-3.727-4.415-5.591-7.497-5.591s-6.168 1.864-7.501 5.591c-.435 1.216-.684 2.637-.684 4.254H10.094c-1.938 0-3.271-1.943-2.584-3.757l.19-.497 3.089-8.117c10.254 1.466 20.426.924 30.514-1.754 2.213-.587 4.381-1.337 6.527-2.137 20.006-7.477 34.476-4.549 39.39 6.414 4.918-10.963 19.387-13.891 39.394-6.414 2.145.8 4.313 1.55 6.527 2.137 10.088 2.678 20.259 3.22 30.51 1.754l2.678 8.117.204.614c.593 1.792-.736 3.64-2.621 3.64Z"/><path fill="#000072" d="M163.912 186.299H95.216v-.189c0-1.531-.226-2.941-.672-4.19-1.192-3.332-3.946-5.416-7.204-5.465l-.12.268-.12-.268c-3.257.052-6.01 2.135-7.2 5.465-.446 1.249-.673 2.659-.673 4.19v.189H10.094a2.911 2.911 0 0 1-2.431-1.279 2.97 2.97 0 0 1-.33-2.735l3.333-8.755.15.021c10.287 1.47 20.528.882 30.439-1.75 1.899-.503 3.906-1.16 6.509-2.13 9.723-3.633 18.524-4.919 25.452-3.718 6.649 1.154 11.481 4.558 14.004 9.858 2.525-5.3 7.358-8.704 14.007-9.858 6.929-1.201 15.731.085 25.454 3.718 2.603.97 4.61 1.627 6.509 2.13 9.911 2.632 20.152 3.22 30.436 1.75l.156-.022 2.931 8.881a2.935 2.935 0 0 1-.408 2.662 2.917 2.917 0 0 1-2.393 1.228v-.001Zm-68.32-.379h68.32c.837 0 1.598-.39 2.087-1.069.489-.68.619-1.526.355-2.322l-.204-.613-2.629-7.969c-10.281 1.45-20.518.851-30.429-1.78-1.911-.507-3.929-1.168-6.544-2.142-9.66-3.611-18.394-4.89-25.257-3.7-6.566 1.139-11.325 4.51-13.78 9.755 3.347.116 6.162 2.282 7.388 5.711.442 1.239.676 2.627.694 4.128v.001Zm-84.68-11.974-3.225 8.473c-.305.806-.2 1.676.287 2.385a2.538 2.538 0 0 0 2.12 1.115H78.85c.018-1.501.252-2.889.693-4.128 1.226-3.426 4.039-5.591 7.385-5.711-2.454-5.245-7.21-8.617-13.777-9.755-6.863-1.191-15.596.089-25.257 3.7-2.615.974-4.633 1.635-6.544 2.142-9.913 2.632-20.154 3.229-30.44 1.779Z"/><path fill="#000072" d="M85.524 176.459c-2.466.56-4.714 2.359-5.801 5.397-.435 1.216-.684 2.637-.684 4.254H10.094a2.744 2.744 0 0 1-2.327-1.276l3.022-7.94c10.254 1.466 20.426.924 30.514-1.754 2.213-.587 4.381-1.337 6.527-2.136 18.069-6.754 31.617-5.019 37.694 3.455ZM166.257 184.796a2.733 2.733 0 0 1-2.345 1.314H95.404c0-1.617-.249-3.038-.683-4.254-1.088-3.041-3.34-4.841-5.806-5.401 6.085-8.47 19.633-10.201 37.699-3.451 2.145.799 4.313 1.549 6.526 2.136 10.089 2.678 20.26 3.22 30.511 1.754l2.606 7.902Z" opacity=".3"/><path fill="#298FFF" d="M7.7 181.856h72.023c-.435 1.216-.684 2.637-.684 4.254H10.094c-1.938 0-3.271-1.943-2.584-3.757l.19-.497Z"/><path fill="#000072" d="M79.204 186.276h-69.11a2.89 2.89 0 0 1-2.412-1.269 2.95 2.95 0 0 1-.327-2.714l.23-.603h72.372l-.079.221c-.447 1.252-.675 2.665-.675 4.198v.166l.001.001Zm-71.391-4.254-.148.389a2.58 2.58 0 0 0 .29 2.407 2.564 2.564 0 0 0 2.14 1.126h68.78c.016-1.419.222-2.737.616-3.922H7.813Z"/><path fill="#fff" d="M13.59 186.11h-3.119c-1.937 0-3.27-1.943-2.583-3.757l.189-.497h3.12l-.19.497c-.687 1.814.646 3.757 2.584 3.757Z" opacity=".55"/><path fill="#298FFF" d="M163.912 186.11H95.405c0-1.617-.25-3.038-.684-4.254h71.608l.204.614c.593 1.792-.736 3.64-2.621 3.64Z"/><path fill="#000072" d="M163.912 186.276H95.239v-.166c0-1.534-.226-2.946-.674-4.198l-.078-.221h71.961l.242.726a2.913 2.913 0 0 1-.404 2.641 2.893 2.893 0 0 1-2.374 1.217v.001Zm-68.343-.332h68.343c.844 0 1.612-.394 2.106-1.08a2.583 2.583 0 0 0 .359-2.342l-.167-.5H94.954c.393 1.185.6 2.504.615 3.922Z"/><path fill="#000072" d="M163.912 186.11h-10.198c1.885 0 3.214-1.848 2.621-3.64l-.204-.614h10.198l.204.614c.593 1.792-.737 3.64-2.621 3.64Z" opacity=".3"/><path fill="#fff" d="M163.651 173.739a77.705 77.705 0 0 1-14.624.712 75.488 75.488 0 0 1-15.886-2.466c-2.214-.587-4.382-1.337-6.527-2.137-20.007-7.477-34.477-4.549-39.394 6.413-4.914-10.962-19.384-13.89-39.39-6.413-2.146.8-4.314 1.55-6.527 2.137-10.088 2.678-20.26 3.22-30.514 1.754l21.166-32.831a76.53 76.53 0 0 0 9.348-1.868c2.213-.587 4.381-1.337 6.527-2.14 20.006-7.478 34.476-4.546 39.39 6.417 4.918-10.963 19.387-13.895 39.394-6.417 2.145.803 4.313 1.553 6.527 2.14a76.558 76.558 0 0 0 9.48 1.887l.555.867s0 .004.004.008l.026.041 20.32 31.699.125.197Z"/><path fill="#000072" d="m87.22 176.723-.172-.384c-2.418-5.393-7.223-8.855-13.896-10.013-6.863-1.191-15.596.089-25.257 3.7-2.615.974-4.633 1.635-6.544 2.141-9.962 2.644-20.254 3.236-30.59 1.759l-.292-.042.16-.248 21.214-32.905.086-.011a76.768 76.768 0 0 0 9.325-1.863c1.914-.508 3.921-1.166 6.51-2.135 9.721-3.634 18.523-4.919 25.452-3.715 6.649 1.153 11.481 4.559 14.004 9.86 2.525-5.301 7.358-8.707 14.007-9.86 6.93-1.202 15.732.082 25.454 3.715 2.587.969 4.595 1.627 6.509 2.135a76.787 76.787 0 0 0 9.457 1.882l.087.012 21.235 33.134-.29.042a78.129 78.129 0 0 1-14.661.714 76.04 76.04 0 0 1-15.926-2.472c-1.911-.507-3.929-1.168-6.544-2.142-9.66-3.611-18.394-4.889-25.257-3.699-6.673 1.157-11.48 4.62-13.899 10.012l-.172.384v-.001Zm-19.377-11.207c1.893 0 3.688.144 5.374.437 6.648 1.153 11.48 4.557 14.004 9.858 2.524-5.301 7.358-8.705 14.006-9.858 6.93-1.202 15.732.084 25.454 3.717 2.603.97 4.611 1.628 6.51 2.131a75.67 75.67 0 0 0 15.846 2.46 77.728 77.728 0 0 0 14.3-.669l-20.303-31.672-.041-.067-.482-.751a76.923 76.923 0 0 1-9.416-1.879c-1.927-.511-3.945-1.173-6.545-2.147-9.659-3.61-18.393-4.888-25.258-3.697-6.673 1.159-11.479 4.622-13.898 10.015l-.172.384-.173-.384c-2.417-5.393-7.222-8.856-13.895-10.015-6.864-1.191-15.598.087-25.257 3.697-2.6.974-4.618 1.635-6.545 2.147a76.846 76.846 0 0 1-9.284 1.86l-20.959 32.509c10.19 1.419 20.33.816 30.147-1.791 1.9-.503 3.906-1.16 6.51-2.13 7.356-2.749 14.188-4.155 20.078-4.155h-.001Z"/><path fill="#000072" d="M87.221 177.588c-.52 0-.992-.306-1.205-.782-2.258-5.033-6.773-8.271-13.057-9.361-6.667-1.156-15.196.104-24.667 3.644-2.629.982-4.68 1.654-6.652 2.178-10.108 2.682-20.55 3.282-31.037 1.782a1.327 1.327 0 0 1-.923-2.032l21.167-32.829c.21-.325.551-.542.933-.594a75.349 75.349 0 0 0 9.184-1.837c1.884-.5 3.86-1.148 6.405-2.1 9.909-3.703 18.915-5.007 26.04-3.771 6.22 1.079 10.945 4.041 13.812 8.623 2.868-4.582 7.594-7.544 13.813-8.623 7.127-1.237 16.131.068 26.041 3.771 2.545.952 4.52 1.599 6.405 2.1 3.075.816 6.21 1.44 9.317 1.855.384.052.727.27.937.598l21.03 32.81a1.327 1.327 0 0 1-.925 2.029c-10.486 1.5-20.929.9-31.036-1.782-1.972-.524-4.023-1.196-6.652-2.178-9.471-3.54-18.001-4.799-24.666-3.644-6.285 1.09-10.8 4.328-13.058 9.361a1.322 1.322 0 0 1-1.206.782Zm-19.373-13.209c1.957 0 3.815.15 5.56.453 6.22 1.079 10.946 4.041 13.813 8.623 2.868-4.582 7.594-7.544 13.813-8.623 7.127-1.236 16.131.068 26.041 3.772 2.545.952 4.52 1.599 6.405 2.1 9.103 2.416 18.488 3.083 27.931 1.987l-19.572-30.533a77.955 77.955 0 0 1-9.036-1.837c-1.972-.523-4.023-1.195-6.652-2.178-9.471-3.539-18.001-4.8-24.666-3.643-6.285 1.09-10.8 4.327-13.058 9.36a1.323 1.323 0 0 1-1.206.782c-.52 0-.992-.306-1.205-.782-2.258-5.033-6.773-8.27-13.057-9.36-6.667-1.157-15.196.103-24.667 3.643-2.629.983-4.68 1.655-6.652 2.178a78.315 78.315 0 0 1-8.902 1.818l-19.7 30.553c9.441 1.096 18.824.428 27.925-1.988 1.885-.5 3.86-1.148 6.405-2.1 7.48-2.796 14.448-4.225 20.479-4.225Z"/><path fill="#000072" d="M22.204 166.758c2.083-.159 4.155-.332 6.213-.592a99.913 99.913 0 0 0 6.137-.954c2.027-.402 4.047-.832 6.042-1.364a62.357 62.357 0 0 0 5.901-1.818c1.936-.681 3.924-1.437 5.934-2.034 2.017-.591 4.054-1.128 6.125-1.503a46.424 46.424 0 0 1 6.258-.761c2.1-.084 4.207-.027 6.274.285a48.338 48.338 0 0 0-6.206.456c-2.049.28-4.074.692-6.078 1.176-2 .504-3.988 1.056-5.944 1.716-.98.321-1.958.654-2.927 1.01l-2.935 1.084c-1.98.688-4.014 1.31-6.061 1.779-2.05.461-4.114.867-6.197 1.138-4.16.559-8.372.718-12.536.383v-.001ZM42.064 156.286a113.537 113.537 0 0 0 4.707-1.867c1.549-.646 3.11-1.334 4.71-1.911 1.596-.595 3.227-1.092 4.87-1.554a55.916 55.916 0 0 1 5.01-1.088 45.089 45.089 0 0 1 5.113-.522 38.837 38.837 0 0 1 2.577 0c.43.021.857.027 1.29.069l.646.059.163.015.174.025.323.053c1.707.291 3.368.773 4.957 1.448.788.353 1.553.759 2.269 1.24.703.501 1.352 1.079 1.865 1.758a10.095 10.095 0 0 0-2.079-1.397 16.473 16.473 0 0 0-2.313-.905c-1.582-.487-3.224-.796-4.858-.974a35.916 35.916 0 0 0-4.939.04c-1.655.11-3.307.304-4.947.584-3.29.515-6.533 1.339-9.754 2.266-1.609.473-3.2.998-4.831 1.489-1.631.47-3.279.898-4.954 1.17l.001.002ZM152.265 167.516c-4.164.335-8.376.175-12.536-.384-2.083-.269-4.147-.676-6.197-1.138-2.047-.469-4.081-1.091-6.061-1.778l-2.935-1.085a87.857 87.857 0 0 0-2.926-1.009c-1.956-.66-3.944-1.213-5.945-1.716-2.004-.485-4.029-.896-6.078-1.176a48.31 48.31 0 0 0-6.205-.456c2.067-.312 4.174-.369 6.273-.285a46.42 46.42 0 0 1 6.259.76c2.071.375 4.108.913 6.125 1.504 2.011.597 3.998 1.353 5.934 2.034a62.018 62.018 0 0 0 5.901 1.818c1.995.532 4.015.961 6.043 1.364 2.032.377 4.077.703 6.136.953 2.058.26 4.13.434 6.213.593l-.001.001ZM147.28 159.752c-4.645.03-9.306-.521-13.862-1.544-2.287-.481-4.537-1.189-6.74-1.948-1.11-.383-2.172-.792-3.266-1.15a54.784 54.784 0 0 0-1.637-.531 45.218 45.218 0 0 0-1.649-.493 64.044 64.044 0 0 0-6.673-1.614 49.415 49.415 0 0 0-6.798-.813c-1.135-.065-2.295-.042-3.402.001-1.124.098-2.257.29-3.367.542a18.56 18.56 0 0 0-3.262 1.029c-1.047.451-2.056 1.027-2.896 1.836.716-.925 1.686-1.638 2.71-2.213 1.03-.577 2.133-1.009 3.253-1.37a25.196 25.196 0 0 1 3.445-.81c.318-.051.595-.062.895-.09.295-.025.59-.049.883-.058l.882-.04.882-.01c.589-.011 1.176.015 1.764.027.586.037 1.175.061 1.759.123 1.172.093 2.335.256 3.496.431 2.316.381 4.599.931 6.85 1.574 2.239.661 4.465 1.456 6.615 2.283a69.39 69.39 0 0 0 6.538 2.151c4.437 1.222 8.974 2.09 13.579 2.687h.001ZM111.372 144.313c-1.578.114-3.12.146-4.651.232-.766.041-1.526.086-2.284.145-.373.034-.772.056-1.106.1-.364.05-.739.106-1.108.176-1.483.263-2.959.588-4.389 1.042-1.441.443-2.812 1.028-4.104 1.947a6.824 6.824 0 0 1 1.605-1.783c.154-.136.324-.241.49-.357.167-.112.332-.235.505-.337.347-.203.698-.411 1.063-.576 1.453-.702 3.001-1.152 4.572-1.428.395-.065.788-.123 1.195-.166.438-.034.815-.044 1.217-.049.792-.006 1.584.026 2.37.1 1.572.157 3.127.443 4.626.956l-.001-.002ZM144.08 152.376c-1.587.15-3.17.097-4.742-.044a36.1 36.1 0 0 1-4.67-.763c-1.534-.356-3.059-.8-4.536-1.378-1.472-.583-2.902-1.257-4.256-2.102 1.575.25 3.094.62 4.608.964l4.523 1.039 4.526 1.068c1.51.376 3.026.739 4.548 1.216h-.001Z" opacity=".6"/><path fill="#000072" d="M87.221 177.588c-.73 0-1.322-.594-1.322-1.326v-32.946c0-.732.593-1.326 1.322-1.326.73 0 1.322.594 1.322 1.326v32.946c0 .732-.592 1.326-1.322 1.326Z"/><path fill="#000072" d="M95.404 187.437a1.322 1.322 0 0 1-1.32-1.337c-.005-5.848-3.56-8.512-6.862-8.512-3.303 0-6.845 2.654-6.861 8.48.007.217-.04.435-.14.635-.235.47-.722.742-1.228.733h-68.9c-1.343 0-2.6-.663-3.363-1.771a4.11 4.11 0 0 1-.456-3.784l3.28-8.616a1.321 1.321 0 1 1 2.47.946l-3.279 8.614c-.17.45-.112.937.161 1.335a1.42 1.42 0 0 0 1.188.624H77.77c.54-6.472 5.022-9.848 9.452-9.848s8.911 3.376 9.45 9.848h67.24a1.42 1.42 0 0 0 1.167-.599c.274-.379.346-.853.199-1.297l-2.882-8.733a1.322 1.322 0 1 1 2.51-.833l2.882 8.731a4.061 4.061 0 0 1-.565 3.685 4.035 4.035 0 0 1-3.311 1.698H95.469l-.064.002-.001-.001Z"/><path fill="#000072" d="M121.708 120.327c-10.905 6.171-25.02 8.8-40.422 8.66-13.442-.121-25.865-2.334-35.983-7.129l3.773-10.243 71.906 3.913.726 4.799Z" opacity=".3"/><path fill="#60547B" d="M113.697 17.782c25.149-24.137 65.783 9.994 31.313 39.122l-31.313-39.122Z"/><path fill="#fff" d="M157.88 37.326c.153-18.968-24.289-31.949-42.426-17.346l-1.758-2.198c19.528-18.74 48.388-2.356 44.184 19.544Z" opacity=".55"/><path fill="#000072" d="M157.247 23.835s-13.339 25.517-41.344-5.59l-1.591 5.216 10.72 10.665 6.586 8.424 9.726 11.446 2.939.875s19.048-5.892 12.964-31.037v.001Z" opacity=".3"/><path fill="#000072" d="M145.011 58.23a1.328 1.328 0 0 1-.852-2.34c9.808-8.288 14.219-17.812 12.421-26.817-1.569-7.856-7.705-14.366-16.015-16.989-9.096-2.87-18.557-.444-25.954 6.656a1.319 1.319 0 0 1-1.869-.04 1.328 1.328 0 0 1 .041-1.875c8.116-7.79 18.531-10.44 28.576-7.27 9.23 2.914 16.055 10.193 17.813 18.998 1.996 9.996-2.73 20.426-13.31 29.365-.247.21-.55.313-.85.313l-.001-.001Z"/><path fill="#60547B" d="M56.107 17.179C28.825-11.003-6.82 31.135 26.774 55.736l29.333-38.557Z"/><path fill="#fff" d="m55.718 17.634-1.584 2.082c-18.386-17.046-39.84-3.559-41.348 14.41-1.332-20.18 23.025-37.053 42.932-16.492Z" opacity=".55"/><path fill="#000072" d="M13.91 23.835s13.339 25.517 41.344-5.59l1.59 5.216-10.718 10.665-6.587 8.424-9.726 11.446-2.939.875S7.826 48.98 13.91 23.834v.001Z" opacity=".3"/><path fill="#fff" d="M148.551 73.907c-.321 35.57-28.233 48.972-62.513 48.661-34.28-.31-61.946-14.22-61.625-49.79.075-8.06 1.571-15.766 4.241-22.853a65.013 65.013 0 0 1 8.842-16.118C48.978 18.518 66.95 8.753 87.062 8.934c19.667.178 37.113 9.83 48.353 24.744a64.92 64.92 0 0 1 8.672 15.592c2.954 7.606 4.544 15.928 4.464 24.637Z"/><path fill="#000072" d="M87.18 122.763c-.38 0-.76-.002-1.144-.005-18.21-.166-33.39-4.214-43.896-11.708-12.04-8.589-18.068-21.467-17.916-38.274.073-7.912 1.504-15.623 4.253-22.919a65.15 65.15 0 0 1 8.868-16.165c12.04-16.03 30.153-25.137 49.719-24.947 19.065.173 36.744 9.219 48.502 24.819a65.113 65.113 0 0 1 8.697 15.637c3.049 7.85 4.555 16.164 4.477 24.708-.151 16.806-6.411 29.571-18.603 37.94-10.415 7.148-25.25 10.913-42.957 10.913v.001ZM86.502 9.122c-19.223 0-37.003 9.016-48.856 24.8a64.772 64.772 0 0 0-8.816 16.07c-2.733 7.254-4.156 14.921-4.23 22.788-.15 16.676 5.824 29.448 17.758 37.961 10.442 7.45 25.547 11.473 43.681 11.638 18.136.152 33.309-3.585 43.883-10.842 12.085-8.295 18.289-20.956 18.44-37.632.078-8.495-1.42-16.76-4.452-24.566a64.718 64.718 0 0 0-8.646-15.547C123.578 18.286 106.008 9.295 87.061 9.124a67.966 67.966 0 0 0-.557-.002Z"/><path fill="#000072" d="M24.453 72.896c1.117 33.523 28.212 46.718 61.584 47.02 33.743.305 61.311-12.683 62.467-47.018a67.266 67.266 0 0 0-.725-7.914c-4.735 28.665-30.615 39.689-61.742 39.408-30.715-.28-56.122-11.472-60.844-39.39a67.563 67.563 0 0 0-.761 8.479c.005-.196.013-.39.02-.585Z" opacity=".3"/><g opacity=".3"><path fill="#760153" d="M144.087 49.27a6.804 6.804 0 0 1-.426.624c-37.944 6.217-75.008 6.781-111.044.724-1.322-.22-2.644-.455-3.962-.693a65.011 65.011 0 0 1 8.842-16.118c32.81 5.629 66.037 6.11 97.918-.13a64.917 64.917 0 0 1 8.672 15.593Z"/><path fill="#000072" d="M84.5 55.036c-17.793 0-35.132-1.41-51.915-4.23a287.333 287.333 0 0 1-3.964-.695l-.223-.04.08-.213a65.154 65.154 0 0 1 8.868-16.165l.07-.092.113.019c34.366 5.896 67.287 5.853 97.85-.128l.116-.023.071.094a65.11 65.11 0 0 1 8.697 15.637l.034.087-.048.08c-.123.205-.27.421-.439.643l-.046.06-.074.012c-20.156 3.301-39.939 4.954-59.192 4.954h.001Zm-55.588-5.257c1.06.192 2.399.43 3.736.653 34.879 5.863 72.196 5.622 110.908-.712.12-.16.228-.318.321-.469a64.665 64.665 0 0 0-8.542-15.364c-30.541 5.96-63.43 6.002-97.757.127a64.783 64.783 0 0 0-8.666 15.765Z"/></g><path fill="#000072" d="M87.178 123.9c-.383 0-.766-.001-1.152-.005-18.445-.168-33.847-4.289-44.542-11.918-12.36-8.817-18.548-22.01-18.393-39.21.158-17.549 6.895-33.99 18.97-46.295C54.013 14.294 69.777 7.608 86.506 7.608c.19 0 .379 0 .57.002 34.954.317 63.124 30.063 62.798 66.308-.156 17.201-6.58 30.278-19.097 38.87-10.605 7.279-25.661 11.113-43.597 11.113v-.001Zm-.672-113.641c-16.016 0-31.11 6.404-42.56 18.072-11.591 11.812-18.058 27.602-18.21 44.46-.147 16.283 5.667 28.74 17.281 37.025 10.252 7.313 25.132 11.265 43.033 11.428 17.905.164 32.851-3.518 43.232-10.645 11.762-8.073 17.8-20.422 17.947-36.704.314-34.783-26.681-63.329-60.177-63.633a66.274 66.274 0 0 0-.547-.003Z"/><path fill="#000072" d="M26.772 57.062c-.27 0-.543-.083-.778-.255-10.551-7.727-15.601-18.243-13.855-28.852 1.573-9.558 8.407-17.562 17.41-20.39 9.305-2.923 19.33.244 27.506 8.69a1.33 1.33 0 0 1-.027 1.875 1.32 1.32 0 0 1-1.87-.027c-7.566-7.815-16.379-10.66-24.818-8.007-8.06 2.532-14.18 9.712-15.593 18.291-1.577 9.586 3.09 19.163 12.805 26.279a1.328 1.328 0 0 1-.78 2.396Z"/><path fill="#fff" d="M79.996 13.724c3.075-19.058 21.44-12.301 13.016-.745l-13.016.745Z"/><path fill="#000072" d="M79.995 13.913c-.01 0-.02 0-.03-.002a.19.19 0 0 1-.157-.217c1.067-6.61 4.23-11.086 8.461-11.974 2.523-.528 4.97.406 6.242 2.382 1.55 2.411 1.06 5.687-1.347 8.99a.187.187 0 0 1-.264.04.19.19 0 0 1-.04-.264c2.308-3.168 2.795-6.288 1.334-8.56-1.185-1.844-3.48-2.715-5.847-2.217-4.072.854-7.125 5.214-8.166 11.664a.189.189 0 0 1-.186.16v-.002Z"/><path fill="#fff" d="M94.63 10.075c8.91-8.187 16.399 4.04 3.4 6.616l-3.4-6.616Z"/><path fill="#000072" d="M98.03 16.88a.19.19 0 0 1-.036-.374c3.922-.777 6.466-2.61 6.802-4.906.213-1.445-.541-2.854-1.92-3.587-2.27-1.208-5.305-.384-8.119 2.202a.189.189 0 0 1-.267-.012.19.19 0 0 1 .012-.269c2.938-2.698 6.134-3.541 8.55-2.257 1.523.81 2.354 2.372 2.118 3.978-.361 2.46-3.017 4.412-7.103 5.221a.21.21 0 0 1-.037.004Z"/><path fill="#F9123E" d="M161.337 48.78s-6.916 5.308-19.18-4.211l-.495-1.982-.721-2.897 1.458-.584v-2.409s6.757-9.235 18.466-3.5c-1.885 3.867-7.894 6.212-13.896 7.167.366-.015 5.008-.155 9.084 2.186 2.164 1.246 4.169 3.193 5.284 6.23Z"/><path fill="#fff" d="M142.399 38.686v-1.989s6.757-9.235 18.466-3.5c-.367.75-.884 1.44-1.53 2.076-9.303-3.955-15.274 1.564-16.936 3.413Z" opacity=".55"/><path fill="#000072" d="M103.309 25.178c-1.917 0-3.942-1.073-5.68-3.073a1.34 1.34 0 0 1 .13-1.888 1.33 1.33 0 0 1 1.882.13c1.525 1.756 3.207 2.505 4.501 2.002a1.87 1.87 0 0 0 1.212-1.802c-.034-1.49-1.587-2.896-4.153-3.76a1.34 1.34 0 0 1-.84-1.694c.235-.7.989-1.08 1.689-.842 3.678 1.238 5.91 3.569 5.97 6.234a4.521 4.521 0 0 1-2.915 4.358 4.937 4.937 0 0 1-1.797.335h.001ZM79.996 15.05a1.325 1.325 0 0 1-1.307-1.538C79.833 6.419 83.328 1.595 88.037.607c2.985-.625 5.899.504 7.426 2.879.86 1.338 2.448 5.017-1.385 10.275-.43.591-1.258.721-1.847.288a1.328 1.328 0 0 1-.287-1.852c2.017-2.768 2.49-5.419 1.298-7.274-.93-1.445-2.76-2.118-4.663-1.72-3.595.754-6.316 4.765-7.279 10.732a1.324 1.324 0 0 1-1.303 1.115h-.001Z"/><path fill="#000072" d="M98.03 18.017a1.326 1.326 0 0 1-.255-2.627c3.43-.679 5.636-2.158 5.9-3.956.144-.978-.366-1.904-1.331-2.417-1.41-.75-3.943-.61-6.822 2.036a1.32 1.32 0 0 1-1.868-.082 1.33 1.33 0 0 1 .082-1.874c3.307-3.038 6.988-3.944 9.847-2.423 1.951 1.039 3.015 3.059 2.708 5.147-.209 1.42-1.407 4.863-8.005 6.17a1.366 1.366 0 0 1-.257.026Z"/><path fill="#000072" d="M103.309 25.166c-1.913 0-3.935-1.071-5.67-3.07a1.328 1.328 0 0 1 .128-1.87 1.318 1.318 0 0 1 1.865.129c1.528 1.76 3.217 2.51 4.515 2.003a1.886 1.886 0 0 0 1.22-1.813c-.034-1.495-1.59-2.904-4.161-3.77a1.326 1.326 0 0 1 .842-2.514c3.672 1.237 5.901 3.564 5.962 6.224a4.51 4.51 0 0 1-2.908 4.346 4.945 4.945 0 0 1-1.793.335Z"/><path fill="#60547B" d="M75.25 53.814C68.952 58.9 65.28 66.642 63.59 76.385c-.473 2.73-2.61 4.858-5.322 5.382-13.653 2.639-24.039-12.24-17.199-28.732 9.002-21.343 31.488-18.768 36.164-6.738 1.034 2.66.234 5.726-1.983 7.517ZM96.166 53.814c6.297 5.086 9.968 12.828 11.658 22.571.474 2.73 2.61 4.858 5.323 5.382 13.653 2.639 24.039-12.24 17.199-28.732-9.002-21.343-31.488-18.768-36.164-6.738-1.034 2.66-.234 5.726 1.984 7.517Z"/><path fill="#000072" d="M93.85 78.009c-.033 3.678-3.722 8.631-8.216 8.59-4.494-.04-8.092-5.06-8.06-8.738.034-3.678 3.686-4.63 8.18-4.589 4.494.041 8.13 1.058 8.096 4.737Z"/><path fill="#000072" d="M70.76 83.651c.547.954 1.007 1.833 1.58 2.585a9.627 9.627 0 0 0 1.832 1.94c.675.534 1.434.975 2.281 1.224.845.25 1.76.264 2.636.126 1.768-.27 3.376-1.313 4.3-2.805.959-1.483 1.183-3.389.87-5.281a1.322 1.322 0 1 1 2.608-.434v.006l.002.009c.187 1.161.234 2.392.046 3.611-.186 1.216-.603 2.44-1.288 3.5a8.75 8.75 0 0 1-2.636 2.677c-1.05.694-2.25 1.13-3.478 1.334-1.23.199-2.5.153-3.724-.138-1.22-.29-2.422-.815-3.402-1.643-.49-.41-.915-.89-1.274-1.407a6.884 6.884 0 0 1-.858-1.647 7.08 7.08 0 0 1-.408-1.757 6.382 6.382 0 0 1 .042-1.759.463.463 0 0 1 .858-.163l.012.022Z"/><path fill="#000072" d="M97.483 90.905s-.204 7.132-2.916 9.507c-4.527-6.64-13.187-6.64-17.714 0l-2.365-5.806v-3.702l.383-.788c3.418 1.82 7.77.44 9.758-3.517.73.006 1.46.006 2.17.006 2.023 4.02 6.49 5.377 9.928 3.413.447.52.756.886.756.886Z"/><path fill="#F9123E" d="M94.11 99.653c-4.467 5.003-12.332 5.003-16.799 0 1.431-3.22 4.656-5.466 8.397-5.466 3.742 0 6.971 2.247 8.402 5.466Z"/><path fill="#000072" d="M101.535 83.792c.185 1.155.053 2.365-.367 3.516a7.305 7.305 0 0 1-2.133 3.051c-.976.828-2.176 1.365-3.4 1.645a9.704 9.704 0 0 1-3.724.14c-2.462-.372-4.773-1.86-6.11-4.012-.686-1.057-1.106-2.285-1.29-3.5-.188-1.22-.141-2.45.046-3.611l.002-.01a1.322 1.322 0 1 1 2.61.423v.006c-.315 1.892-.092 3.797.869 5.279.928 1.49 2.529 2.541 4.299 2.808.877.14 1.787.113 2.634-.128.85-.238 1.607-.691 2.28-1.225 1.377-1.06 2.375-2.604 3.415-4.523l.004-.006a.464.464 0 0 1 .866.148h-.001ZM142.396 42.152a1.324 1.324 0 0 1-1.32-1.27 1.325 1.325 0 0 1 1.265-1.381c6.398-.273 13.723-2.304 16.572-5.724-9.739-3.897-15.212 3.38-15.45 3.706a1.32 1.32 0 0 1-1.848.284 1.328 1.328 0 0 1-.284-1.853c.074-.101 7.555-10.062 20.113-3.909a1.326 1.326 0 0 1 .607 1.774c-2.592 5.316-11.71 8.035-19.598 8.371l-.058.001h.001Z"/><path fill="#000072" d="M155.793 51.594c-3.506 0-8.385-1.272-14.445-5.976a1.329 1.329 0 0 1-.236-1.86 1.319 1.319 0 0 1 1.855-.236c8.911 6.916 14.605 5.605 16.69 4.685-3.348-6.886-12.246-6.533-12.643-6.517a1.324 1.324 0 0 1-1.385-1.257 1.323 1.323 0 0 1 1.25-1.391c.119-.009 12.099-.52 15.699 9.28a1.33 1.33 0 0 1-.437 1.512c-.168.128-2.377 1.76-6.347 1.76h-.001ZM85.71 104.731a12.593 12.593 0 0 1-9.384-4.193c-2.427-2.7-3.712-6.433-3.712-10.792 0-.732.593-1.326 1.322-1.326.73 0 1.322.594 1.322 1.326 0 3.692 1.05 6.811 3.034 9.019a9.948 9.948 0 0 0 7.417 3.314 9.946 9.946 0 0 0 7.414-3.31c1.988-2.212 3.037-5.33 3.037-9.023 0-.732.592-1.326 1.322-1.326.73 0 1.322.594 1.322 1.326 0 4.358-1.284 8.092-3.714 10.795a12.59 12.59 0 0 1-9.382 4.19h.002Z"/><path fill="#F9123E" d="M142.712 45.819c-36.961 6.216-73.07 6.78-108.173.723a288.46 288.46 0 0 1-4.03-.723s0-9.05 3.294-10.944c-.657-4.14 1.809-6.86 4.57-5.307 32.324 5.792 65.078 6.333 96.491 0 0 0 2.723.356 4.151 4.44h.004c.018.01.113.075.26.177 1.39 1.004 7.618 5.96 3.433 11.634Z"/><path fill="#fff" d="M138.29 32.394c-.216.136-.446.288-.676.44-.805-.531-1.428-.615-1.428-.615-31.413 6.334-64.168 5.792-96.491 0-2.761-1.553-5.227 1.167-4.57 5.308-2.202 1.265-2.931 5.735-3.173 8.557-.48-.087-.963-.175-1.443-.265 0 0 0-9.05 3.294-10.944-.657-4.14 1.809-6.86 4.57-5.307 32.324 5.792 65.078 6.333 96.491 0 0 0 1.96.258 3.426 2.826Z" opacity=".55"/><path fill="#000072" d="M85.091 52.095c-18.093 0-35.716-1.53-52.753-4.592a3.717 3.717 0 0 1-3.045-3.972c.369-4.637 1.413-7.745 3.108-9.265-.19-2.497.62-4.659 2.195-5.76 1.241-.868 2.765-.938 4.214-.207 33.66 6.008 65.889 5.998 95.794-.031l.214-.043.218.028c.14.019 3.349.49 5.073 4.898 1.183.855 4.561 3.59 5.235 7.374.377 2.115-.151 4.161-1.568 6.082l-.317.43-.527.09c-19.692 3.311-39.021 4.968-57.84 4.968Zm-48.27-21.643c-.257 0-.495.076-.714.229-.73.511-1.324 1.942-1 3.986l.144.904-.793.455c-1.24.71-2.208 3.667-2.53 7.716a1.074 1.074 0 0 0 .877 1.15c34.292 6.164 71.007 6.067 109.137-.289.757-1.186 1.018-2.372.797-3.611-.49-2.752-3.218-4.976-4.141-5.659h-.519l-.314-.887c-.929-2.658-2.419-3.355-2.928-3.52-30.21 6.05-62.742 6.032-96.698-.053l-.22-.04-.194-.109c-.323-.181-.625-.272-.905-.272h.001Z"/><path fill="#000072" d="M34.897 34.127c.068.128.187.321.297.485.11.171.233.34.354.51a16.174 16.174 0 0 0 2.587 2.793c.317.289.665.537 1.004.803.356.237.703.5 1.079.709.732.462 1.527.813 2.34 1.144l.02.009a.38.38 0 0 1-.22.722c-.9-.192-1.81-.416-2.674-.767-.445-.154-.86-.365-1.292-.555-.414-.218-.84-.425-1.24-.674a18.046 18.046 0 0 1-2.33-1.629c-.367-.303-.726-.62-1.075-.954-.173-.169-.346-.337-.514-.517a8.912 8.912 0 0 1-.519-.585l-.023-.029a1.336 1.336 0 0 1 .195-1.875 1.327 1.327 0 0 1 2.012.41h-.001ZM140.009 34.655c-.101.228-.16.315-.24.449-.076.128-.155.23-.233.347a7.77 7.77 0 0 1-.496.614c-.34.39-.711.727-1.088 1.047-.762.63-1.587 1.13-2.43 1.555-.839.435-1.719.743-2.591 1.029-.441.13-.886.24-1.325.36l-1.333.272a.379.379 0 0 1-.214-.725l.021-.008 1.218-.484c.394-.187.79-.363 1.175-.557.758-.41 1.503-.83 2.168-1.343.669-.503 1.289-1.053 1.802-1.663.25-.307.49-.619.68-.943.102-.159.184-.322.262-.48.032-.079.076-.16.098-.232.025-.062.064-.175.046-.153a1.32 1.32 0 0 1 1.697-.786 1.327 1.327 0 0 1 .784 1.703l-.001-.002Z"/><path fill="#000072" d="M161.336 48.78s-6.568 5.039-18.25-3.51a6.819 6.819 0 0 0 .918-2.213c.204.064.408.144.619.231 6.908 2.86 10.319.394 11.429-.739 2.165 1.247 4.17 3.194 5.284 6.232Z" opacity=".3"/><path fill="#000072" d="M142.712 45.819c-36.961 6.216-73.07 6.78-108.173.723-3.732-.739 1.53-9.186 1.53-9.186l2.062 1.595c28.66 10.466 89.685 4.053 89.685 4.053 11.803-1.42 6.655-4.318 6.655-4.318l4.808-4.5c1.39 1.003 7.618 5.958 3.433 11.633Z" opacity=".3"/><path fill="#FBBF01" d="M11.895 72.393a3.397 3.397 0 0 1 4.386 1.975l27.568 72.688c.032.085.06.172.082.261l.005.014c.079.282.113.574.109.863l-.067 3.786-.05 2.726c-.013.742-.923 1.09-1.43.545l-1.913-2.082-2.485-2.708a3.086 3.086 0 0 1-.49-.717l-.005-.014a2.193 2.193 0 0 1-.112-.249L9.926 76.791a3.413 3.413 0 0 1 1.969-4.398Z"/><path fill="#9DA5B2" d="m18.116 77.775 1.5 3.873-2.29-.25h-1.588l-2.427 1.536-2.006 1.366-.683-1.366-.92-3.259s1.596-.654 1.6-.666a421.41 421.41 0 0 1 2.716-1.822l1.985-.245 2.112.833Z"/><path fill="#fff" d="M11.643 72.361a3.44 3.44 0 0 1 .825-.201 3.42 3.42 0 0 0-1.212 3.996l27.568 72.689a2.1 2.1 0 0 0 .11.249l.006.015c.129.263.296.503.49.716l2.486 2.708 1.767 1.92-.006.22c-.013.743-.924 1.091-1.43.546l-1.913-2.083-2.486-2.707a3.086 3.086 0 0 1-.49-.717l-.005-.015a2.175 2.175 0 0 1-.111-.249L9.674 76.76a3.413 3.413 0 0 1 1.969-4.399Z" opacity=".55"/><path fill="#ED4327" d="M11.895 72.393a3.397 3.397 0 0 1 4.386 1.975l1.836 4.84c-1.433-3.778-8.054-1.906-6.621 1.872l-1.57-4.289a3.413 3.413 0 0 1 1.97-4.398Z"/><path fill="#FFE5A4" d="m43.93 147.317.005.014c.079.282.113.574.11.863l-.068 3.786-.05 2.726c-.013.742-.923 1.09-1.43.545l-1.913-2.082-2.485-2.708a3.086 3.086 0 0 1-.49-.717l-.005-.014c-.973-3.503 4.731-5.68 6.326-2.413Z"/><path fill="#000072" d="M11.895 72.393a3.397 3.397 0 0 1 4.386 1.975l27.568 72.688c.032.085.06.172.082.261l.005.014c.079.282.113.574.109.863l-.067 3.786-.05 2.726c-.013.742-.923 1.09-1.43.545l-.93-1.015.023-1.346.067-3.787a3.06 3.06 0 0 0-.109-.862l-.005-.014a2.438 2.438 0 0 0-.082-.261L13.893 75.277a3.4 3.4 0 0 0-3.104-2.196c.31-.292.684-.529 1.104-.689l.001.001Z" opacity=".3"/><path fill="#000072" d="M13.102 72.169c1.37 0 2.662.837 3.178 2.198l27.568 72.689c.137.361.204.749.197 1.136l-.067 3.787-.05 2.725a.823.823 0 0 1-1.429.546l-1.913-2.083-2.486-2.707a3.066 3.066 0 0 1-.607-.981L9.926 76.791a3.413 3.413 0 0 1 1.968-4.399 3.386 3.386 0 0 1 1.208-.223Zm0-2.273c-.689 0-1.366.125-2.013.372-2.92 1.114-4.392 4.403-3.281 7.332l27.567 72.689a5.317 5.317 0 0 0 1.058 1.712l2.485 2.707 1.913 2.084c.601.647 1.403.998 2.267.998a3.076 3.076 0 0 0 3.096-3.043l.05-2.726.066-3.787a5.301 5.301 0 0 0-.345-1.987L18.398 73.559a5.697 5.697 0 0 0-5.296-3.663Z"/><path fill="#000072" d="M43.843 151.926s.048.018.134.054l-.047 2.607c-.014.787-.978 1.155-1.51.577l-1.836-1.995c.665-1.348 1.727-1.819 3.26-1.243ZM37.03 151.649a.947.947 0 0 1-.886-.613c-.515-1.359-.406-2.767.308-3.965.614-1.031 1.637-1.861 2.88-2.335 2.42-.923 5.45-.333 6.556 2.583a.95.95 0 0 1-.55 1.226.946.946 0 0 1-1.222-.551c-.314-.828-.87-1.372-1.655-1.621-.727-.23-1.622-.179-2.455.139-1.151.439-2.887 1.744-2.09 3.848a.95.95 0 0 1-.885 1.288l-.001.001ZM10.762 83.647a.944.944 0 0 1-.882-.61c-1.152-3.039.854-5.624 3.432-6.607 1.299-.497 2.665-.57 3.848-.21 1.379.419 2.43 1.42 2.96 2.819a.944.944 0 1 1-1.765.674c-.327-.863-.914-1.429-1.744-1.68-.773-.237-1.731-.174-2.629.167-1.647.63-3.082 2.2-2.338 4.163a.949.949 0 0 1-.882 1.284Z"/><path fill="#000072" d="M12.367 87.879a.944.944 0 0 1-.882-.611c-.607-1.602-.353-3.207.714-4.522 1.35-1.662 3.824-2.575 6.014-2.22 1.811.294 3.16 1.38 3.796 3.058a.944.944 0 1 1-1.765.674c-.495-1.307-1.542-1.733-2.333-1.861-1.531-.249-3.32.401-4.249 1.545-.642.79-.781 1.683-.412 2.653a.949.949 0 0 1-.883 1.284Z"/><path fill="#60547B" d="m24.986 117.21 6.21 16.413-.612 1.356c-7.172-1.075-13.155-3.333-17.805-6.314C.995 121.126-2.2 108.963 5.603 99.663c5.231-6.235 14.266-7.871 21.083-3.44 1.232.8 2.297 1.728 3.158 2.762h.003c4.102 4.902 3.71 12.092-4.86 18.225Z"/><path fill="#fff" d="M27.755 99.08c-6.818-4.432-15.852-2.796-21.083 3.44-4.027 4.799-5.122 10.36-3.623 15.656-2.874-6.103-2.205-12.842 2.554-18.513 5.23-6.235 14.265-7.871 21.083-3.44 2.9 1.88 4.88 4.501 5.492 7.452-.982-1.777-2.5-3.349-4.423-4.595Z" opacity=".55"/><path fill="#000072" d="m32.61 136.623-2.224-.333c-7.346-1.103-13.943-3.524-19.08-7.003-4.87-3.298-8.358-7.464-10.085-12.046-2.417-6.415-1.221-12.96 3.369-18.43 5.732-6.834 15.54-8.425 22.816-3.704 4.26 2.765 6.547 6.85 6.273 11.207-.274 4.335-3.044 8.466-7.941 11.977l6.873 18.332ZM18.21 95.05c-4.3 0-8.6 1.894-11.597 5.467-3.946 4.703-4.982 10.31-2.919 15.786 3.092 8.204 12.507 14.591 24.84 16.979l-5.063-13.503a42.44 42.44 0 0 1-3.473 1.872 1.319 1.319 0 0 1-1.764-.621 1.327 1.327 0 0 1 .619-1.769 37.782 37.782 0 0 0 4.563-2.577c4.722-3.15 7.389-6.796 7.625-10.538.213-3.371-1.636-6.583-5.07-8.813a14.206 14.206 0 0 0-7.76-2.284l-.002.001Z"/><path fill="#000072" d="M44.426 114.441c-6.436 0-12.603-1.989-12.879-2.079a1.327 1.327 0 0 1-.847-1.671 1.321 1.321 0 0 1 1.666-.851c.068.022 6.823 2.2 13.198 1.925a1.325 1.325 0 0 1 .111 2.65 30.66 30.66 0 0 1-1.25.026ZM139.519 124.105c-.421 0-.835-.202-1.091-.577l-8.199-12.009a1.33 1.33 0 0 1 .344-1.844 1.32 1.32 0 0 1 1.838.345l8.198 12.01a1.328 1.328 0 0 1-1.089 2.075h-.001Z"/><path fill="#000072" d="M41.523 138.279a1.326 1.326 0 0 1-1.31-1.51c1.4-9.957 6.215-22.378 6.42-22.902a1.32 1.32 0 0 1 1.712-.752 1.326 1.326 0 0 1 .75 1.717c-.05.126-4.908 12.661-6.263 22.307a1.324 1.324 0 0 1-1.308 1.14ZM122.161 124.648a1.325 1.325 0 0 1-1.301-1.096l-1.179-6.715a1.323 1.323 0 1 1 2.604-.46l1.179 6.715a1.326 1.326 0 0 1-1.304 1.556h.001Z"/><path fill="#000072" d="m163.527 173.542-12.895.966-1.53.113-.075-.17-10.372-23.312c-8.06-.757-17.673-8.292-17.673-8.292l21.272-.481c-.226-.818 1.13-.208.952-.523l20.321 31.699Z" opacity=".3"/><path fill="#60547B" d="M147.106 134.244c0 7.408-7.068 10.434-15.787 10.434-8.719 0-15.787-3.026-15.787-10.434 0-7.408 7.068-13.413 15.787-13.413 8.719 0 15.787 6.005 15.787 13.413Z"/><path fill="#000072" d="M147.108 134.245c0 7.405-7.071 10.432-15.788 10.432-7.577 0-13.907-2.284-15.437-7.747 2.822 1.531 6.61 2.224 10.772 2.224 8.721 0 15.788-3.027 15.788-10.436 0-1.69-.366-3.307-1.042-4.796 3.486 2.462 5.707 6.171 5.707 10.323Z" opacity=".3"/><path fill="#fff" d="M145.352 128.089c-2.886-3.227-7.449-5.311-12.585-5.311-8.718 0-15.788 6.008-15.788 13.414 0 1.689.366 3.151 1.038 4.401-1.571-1.591-2.485-3.689-2.485-6.348 0-7.41 7.067-13.414 15.788-13.414 6.107 0 11.403 2.947 14.032 7.258Z" opacity=".55"/><path fill="#000072" d="M131.32 146.003c-10.713 0-17.109-4.397-17.109-11.76 0-8.127 7.675-14.739 17.109-14.739 9.434 0 17.108 6.612 17.108 14.739 0 7.363-6.396 11.76-17.108 11.76Zm0-23.847c-7.976 0-14.465 5.422-14.465 12.087 0 8.221 10.116 9.108 14.465 9.108s14.464-.887 14.464-9.108c0-6.665-6.489-12.087-14.464-12.087ZM79.984 182.323H7.954a1.134 1.134 0 0 1-1.132-1.136c0-.628.507-1.137 1.133-1.137h72.03c.626 0 1.133.509 1.133 1.137s-.507 1.136-1.134 1.136ZM166.111 182.323H94.642a1.134 1.134 0 0 1-1.133-1.136c0-.628.507-1.137 1.133-1.137h71.469c.627 0 1.134.509 1.134 1.137s-.507 1.136-1.134 1.136Z"/><path fill="#000072" d="m24.986 117.21 6.21 16.413-.612 1.356c-7.172-1.075-13.155-3.333-17.805-6.314 6.046-3.398 3.998-6.988 1.386-9.32-1.509-1.347-1.207-3.795.55-4.792 13.887-7.874 15.129-15.568 15.129-15.568h.003c4.102 4.902 3.71 12.092-4.86 18.225ZM137.828 122.021c-2.176-.743-4.355-1.16-6.534-1.179a59.936 59.936 0 0 1-1.889-.878l-2.296-6.315 4.211-2.034 6.508 10.406ZM73.937 132.754 71.92 165.95s12.943 2.326 14.926 9.713l.375-33.903s-5.232-7.405-13.284-9.006h-.001Z" opacity=".3"/><path fill="#fff" d="M68.165 69.428c.825-6.362-2.048-11.98-6.416-12.55-4.369-.57-8.579 4.125-9.404 10.486-.825 6.362 2.048 11.981 6.416 12.55 4.369.57 8.579-4.125 9.404-10.486Z"/><path fill="#000072" d="M59.48 80.169c-.248 0-.494-.016-.742-.048-4.471-.584-7.427-6.316-6.588-12.777.404-3.117 1.62-5.94 3.423-7.951 1.822-2.032 4.029-2.991 6.206-2.71 2.18.285 4.065 1.78 5.308 4.212 1.23 2.406 1.684 5.448 1.28 8.565-.792 6.103-4.69 10.709-8.888 10.709Zm1.548-23.13c-1.815 0-3.622.913-5.157 2.623-1.748 1.95-2.93 4.697-3.323 7.733-.81 6.242 1.99 11.77 6.241 12.325.232.03.464.046.695.046 3.996 0 7.718-4.457 8.484-10.358.394-3.036-.047-5.995-1.24-8.329-1.18-2.31-2.957-3.729-5.001-3.995a5.293 5.293 0 0 0-.7-.046Z"/><path fill="#fff" d="M68.165 69.428c.825-6.362-2.048-11.98-6.416-12.55-4.369-.57-8.579 4.125-9.404 10.486-.825 6.362 2.048 11.981 6.416 12.55 4.369.57 8.579-4.125 9.404-10.486Z"/><path fill="#000072" d="M59.48 80.169c-.248 0-.494-.016-.742-.048-4.471-.584-7.427-6.316-6.588-12.777.404-3.117 1.62-5.94 3.423-7.951 1.822-2.032 4.029-2.991 6.206-2.71 2.18.285 4.065 1.78 5.308 4.212 1.23 2.406 1.684 5.448 1.28 8.565-.792 6.103-4.69 10.709-8.888 10.709Zm1.548-23.13c-1.815 0-3.622.913-5.157 2.623-1.748 1.95-2.93 4.697-3.323 7.733-.81 6.242 1.99 11.77 6.241 12.325.232.03.464.046.695.046 3.996 0 7.718-4.457 8.484-10.358.394-3.036-.047-5.995-1.24-8.329-1.18-2.31-2.957-3.729-5.001-3.995a5.293 5.293 0 0 0-.7-.046Z"/><path fill="#000072" d="M68.14 69.61c.672-5.179-1.667-9.752-5.223-10.216-3.555-.464-6.982 3.358-7.654 8.536-.671 5.178 1.667 9.752 5.223 10.216 3.556.464 6.983-3.358 7.654-8.536Z"/><path fill="#000072" d="M61.032 56.837c.24 0 .48.015.721.046 4.369.57 7.24 6.19 6.415 12.551-.78 6.01-4.582 10.533-8.683 10.533-.24 0-.48-.015-.721-.047-4.369-.57-7.24-6.189-6.415-12.55.78-6.01 4.582-10.533 8.684-10.534m0-2.42h-.001c-5.38 0-10.14 5.435-11.076 12.64-.462 3.56.073 7.062 1.505 9.864 1.562 3.055 4.11 5.024 6.992 5.4.341.044.689.067 1.032.067 5.38 0 10.14-5.434 11.076-12.64.462-3.56-.073-7.062-1.506-9.864-1.56-3.056-4.109-5.024-6.99-5.4a7.971 7.971 0 0 0-1.032-.067Z"/><path fill="#fff" d="M60.937 66.124a2.933 2.933 0 0 0-1.811-3.727 2.92 2.92 0 0 0-3.715 1.817 2.933 2.933 0 0 0 1.81 3.726 2.92 2.92 0 0 0 3.716-1.816ZM113.284 79.93c4.369-.57 7.241-6.189 6.416-12.55-.825-6.362-5.035-11.057-9.403-10.487-4.369.57-7.241 6.188-6.416 12.55.825 6.362 5.035 11.057 9.403 10.487Z"/><path fill="#000072" d="M112.573 80.168c-4.197 0-8.095-4.605-8.888-10.708-.404-3.117.05-6.159 1.281-8.565 1.242-2.431 3.128-3.928 5.308-4.212 2.182-.282 4.384.678 6.206 2.71 1.803 2.01 3.019 4.834 3.423 7.95.838 6.462-2.117 12.194-6.589 12.778a5.797 5.797 0 0 1-.741.047Zm-1.548-23.13a5.43 5.43 0 0 0-.7.045c-2.045.267-3.821 1.686-5.002 3.996-1.193 2.334-1.633 5.292-1.239 8.33.81 6.24 4.922 10.867 9.178 10.311 4.251-.555 7.051-6.084 6.241-12.325-.393-3.036-1.574-5.783-3.323-7.733-1.533-1.71-3.341-2.624-5.156-2.624h.001Z"/><path fill="#fff" d="M113.284 79.93c4.369-.57 7.241-6.189 6.416-12.55-.825-6.362-5.035-11.057-9.403-10.487-4.369.57-7.241 6.188-6.416 12.55.825 6.362 5.035 11.057 9.403 10.487Z"/><path fill="#000072" d="M112.573 80.168c-4.197 0-8.095-4.605-8.888-10.708-.404-3.117.05-6.159 1.281-8.565 1.242-2.431 3.128-3.928 5.308-4.212 2.182-.282 4.384.678 6.206 2.71 1.803 2.01 3.019 4.834 3.423 7.95.838 6.462-2.117 12.194-6.589 12.778a5.797 5.797 0 0 1-.741.047Zm-1.548-23.13a5.43 5.43 0 0 0-.7.045c-2.045.267-3.821 1.686-5.002 3.996-1.193 2.334-1.633 5.292-1.239 8.33.81 6.24 4.922 10.867 9.178 10.311 4.251-.555 7.051-6.084 6.241-12.325-.393-3.036-1.574-5.783-3.323-7.733-1.533-1.71-3.341-2.624-5.156-2.624h.001Z"/><path fill="#000072" d="M111.559 78.16c3.555-.464 5.894-5.037 5.222-10.216-.671-5.178-4.098-9-7.654-8.536-3.556.464-5.894 5.038-5.223 10.216.672 5.178 4.099 9 7.655 8.536Z"/><path fill="#000072" d="M111.021 56.837c4.101 0 7.903 4.522 8.683 10.532.825 6.362-2.046 11.981-6.415 12.551a5.643 5.643 0 0 1-.721.047c-4.101 0-7.903-4.523-8.683-10.533-.825-6.362 2.047-11.98 6.415-12.55.241-.032.481-.047.722-.047m0-2.421c-.344 0-.692.023-1.033.067-2.881.376-5.43 2.344-6.991 5.4-1.433 2.802-1.967 6.305-1.506 9.863.935 7.207 5.697 12.64 11.076 12.64.344 0 .691-.022 1.032-.067 2.882-.375 5.43-2.344 6.992-5.4 1.432-2.801 1.967-6.305 1.505-9.862-.935-7.207-5.697-12.641-11.076-12.641h.001Z"/><path fill="#fff" d="M114.369 68.058a2.93 2.93 0 0 0 2.391-3.382 2.923 2.923 0 0 0-3.371-2.398 2.93 2.93 0 0 0-2.391 3.381 2.923 2.923 0 0 0 3.371 2.398Z"/></g><defs><clipPath id="a"><path fill="#fff" d="M0 .437h168v187H0z"/></clipPath></defs></svg>