<svg width="711" height="355" fill="none" xmlns="http://www.w3.org/2000/svg"><path d="M226.759 216.758c-84.75-9.224-135.12-1.052-140.002 30.138.939 40.775 27.584 58.523 71.165 61.099 30.626-4.973 52.78-16.403 63.601-36.473 7.483-13.881 9.544-31.895 5.236-54.764ZM89.285 88.698c-24.117 57.078 2.608 89.37 72.462 100.634 72.889 11.989 105.495-13.712 96.965-77.903-32.623-52.785-128.033-51.354-169.427-22.73Z" fill="#fff"/><path d="M106.951 53.25c13.088-11.157 25.998-21.113 37.542-21.942 29.949-9.249 59.349-3.988 88.168 16.627 8.123 8.701 14.14 17.57 18.265 26.59-40.167-32.366-92.169-37.224-143.975-21.275Z" fill="#fff"/><path d="M224.828 41.51c21.202-34.155 85.348 14.246 30.63 40.463-6.756-16.952-18.401-29-30.63-40.463ZM93.116 65c-12.129-7.789-17.354-16.72-17.884-25.23-1.331-21.47 28.87-41.033 49.949-30.859 13.7 6.614 19.358 21.364 20.275 24.368-8.965 2.845-19.2 7.11-29.635 15.223-8.226 6.396-16.388 11.19-22.709 16.498h.004ZM233.076 144.484c-5.392-6.05-14.146-9.419-21.519-16.027a18.102 18.102 0 0 1-5.155-8.015c-6.954-21.916 7.835-32.066 19.687-31.032 15.407 2.437 23.213 11.374 29.42 28.033 9.715 24.564-4.778 32.078-15.481 30.808-2.703-.321-5.142-1.738-6.952-3.769v.002ZM130.957 127.978c-17.385 7.195-25.338-10.14-17.987-27.549 2.085-4.94 5.514-9.174 9.677-12.554 20.346-16.517 45.554-14.325 52.089 7.007 4.627 23.163-14.118 35.066-37.945 32.328-1.979-.228-3.994.007-5.834.768Z" fill="#5F5F82"/><path d="M148.784 88.308c-9.508 8.162-9.508 16.325 0 24.487 7.305 1.995 12.456-2.567 16.433-10.7l-16.433-13.787ZM230.051 100.275l-15.324 5.785c-.5 10.108 1.996 15.031 5.918 17.481 12.621-2.207 14.454-10.725 9.408-23.266h-.002ZM192.808 117.914c-18.192-2.23-17.567 3.602-3.305 15.28 12.952-2.46 13.44-9.653 3.305-15.28Z" fill="#000072"/><path d="m196.239 151.639-11.47-8.634c-17.769-6.858-31.381-11.474-34.903-1.387-4.078 8.867 1.035 15.961 13.474 21.643 15.178 4.65 26.3 1.091 32.899-11.622ZM125.086 39.738c-12.241-19.776-34.373-4.815-16.488 11.31l16.488-11.31ZM247.454 65c22.137-13.957-3.295-23.742-11.683-15.428L247.454 65Z" fill="#fff"/><path d="M148.489 209.337c24.635 10.047 21.18 41.569-8.562 49.633-33.783 1.154-57.732-9.245-71.61-31.476-10.927-32.717 27.87-60.669 27.87-60.669 40.283 22.704 86.697 25.597 136.12 18.764l17.593 11.632 13.531-8.39c1.391-10.182 5.78-14.955 12.697-15.162 11.575-13.737 22.884-14.724 33.809 2.632 11.962 11.602 10.947 24.735-3.334 39.434-25.595 25.287-51.432 32.962-77.519 22.41l-1.983-18.632c-12.752 6.901-34.314 7.865-63.713 3.547M86.757 259.057c-11.373 19.343-17.624 42.064-15.324 70.418-11.988 8.825-11.853 16.278 3.115 22.049l51.315-3.137 4.524-5.849c4.737-29.516 15.559-34.367 27.537-34.541-36.046-.53-63.42-12.164-71.165-48.94h-.002ZM164.812 307.359c12.204 3.735 20.557 14.338 23.533 34.537l4.718 6.836 55.225 1.296c10.692-9.939 10.395-18.082-2.64-24.148-1.46-23.051-10.306-40.371-24.655-53.419-13.666 19.78-32.562 31.14-56.181 34.898Z" fill="#5F5F82"/><path d="M258.712 111.427c-49.174-52.56-106.503-54.874-169.426-22.73-3.216-10.478 1.716-20.746 11.318-30.892 51.08-19.942 100.427-18.616 147.289 13.213 11.298 12.503 14.515 26.022 10.819 40.409ZM79.414 112.014l-11.19 13.305c-7.927 5.639-16.563 8.267-25.99 7.539l-7.299-22.833c17.611 4.706 34.242-14.773 51.97-28.939l2.38 7.61-9.87 23.318Z" fill="#EB1C24"/><path d="M75.39 90.85c-10.705-8.51-27.024-4.315-44.306 2.056-10.236-1.372-19.55-4.466-27.729-9.677l7.29-20.962c16.492 8.14 33.694 7.383 51.465-.47 9.762 1.098 19.021 3.734 27.515 8.718l-2.722 10.573c-5.156 2.794-9.173 5.984-11.515 9.763h.002Z" fill="#EB1C24"/><path d="M150.205 140.764c2.554-1.251 6.296-2.541 10.25-1.564 4.287 1.059 5.658 4.001 10.473 6.343 2.479 1.205 6.274 2.448 11.744 2.22.562.74 1.44 1.763 2.697 2.775a15.856 15.856 0 0 0 5.713 2.934c.971.266 2.353.543 4.044.554l2.078-2.921-12.435-8.096c-19.957-7.474-31.045-10.78-34.564-2.241v-.004ZM201.278 130.595c-3.998 5.183-8.798 8.947-15.592 9.18-1.288-.645-5.244-2.829-7.584-7.659-2.621-5.409-1.415-10.425-1.066-11.706 3.203 7.17 9.324 11.983 15.966 12.243 3.552.138 6.45-1.057 8.274-2.058h.002Z" fill="#000072" opacity=".2"/><path d="M206.157 150.491c-6.625 12.911-16.745 15.497-27.457 16.332 8.686-3.218 15.523-7.991 19.484-15.186l7.973-1.148v.002Z" fill="#000072" opacity=".2"/><path d="M81.061 133.194a75.952 75.952 0 0 1 1.068-22 75.916 75.916 0 0 1 7.63-21.306l8.092-4.995c10.783-6.044 41.489-21.375 81.896-16.524 29.7 3.566 50.856 16.38 61.16 23.66-11.587-6.813-44.803-24.24-87.832-18.551-22.758 3.008-40.16 11.412-50.939 17.838-4.773 11.596-10.81 32.417-1.905 51.374 12.126 25.813 44.422 32.133 72.88 37.703 24.391 4.773 40.638 2.078 46.849.828a108.565 108.565 0 0 0 28.387-9.991c-6.575 5.728-17.709 15.625-34.287 18.8-14.97 2.866-33.586 2.238-56.14-2.175-49.174-6.621-75.134-24.674-76.86-54.66l.001-.001Z" fill="#000072" opacity=".2"/><path d="M166.643 102.255c-12.847 27.393-45.225 9.172-22.216-17.6l3.871 3.066c-1.22.871-5.469 4.118-6.35 9.6-1.193 7.405 4.129 16.59 11.128 16.589 5.32-.002 10.916-5.314 11.936-12.948l1.633 1.295-.002-.002Z" fill="#000072" opacity=".2"/><path d="M110.326 55.238c-5.603 3.803-10.39 7.887-12.15 13.007-.706 2.054 1.197 4.06 3.273 3.418C172.366 53.577 228.3 55.946 258.714 111.43c-38.629-50.557-110.223-56.465-169.427-22.73-4.625-21.25 6.262-29.043 21.041-33.461h-.002Z" fill="#000072" opacity=".2"/><path d="M94.713 10.81c-13.696 16.979-11.597 33.153 5.888 48.542l-7.485 5.65c-29.525-24.505-18.344-40.287 1.596-54.191h.001ZM255.19 81.325c1.526-1.99 6.868-9.46 6.071-19.859-.492-6.405-3.098-11.089-4.642-13.438-.247 12.86-4.853 16.281-10.481 17.492l9.052 15.805ZM38.628 121.579c26.933 6.204 33.597-30.582 47.62-40.13l1.96 9.868-7.062 20.934c-12.083 13.75-24.82 22.442-38.911 20.607l-3.605-11.279h-.002Z" fill="#000072" opacity=".2"/><path d="M8.751 70.384c12.965 9.871 30.437 9.677 50.304 4.141 10.426-.808 19.579 1.3 27.193 6.924l-11.647 8.806c-13.51-5.278-28.16-3.498-43.517 2.65-12.253-.15-21.012-3.87-27.729-9.678l5.396-12.843ZM71.806 194.927c4.815-6.016 10.42-10.782 17.409-13.344 5.747-2.107 11.254-.38 12.545.681 9.666 7.945 48.775 15.69 120.346 17.745a25.903 25.903 0 0 0 8.57-3.091 25.888 25.888 0 0 0 7.946-7.153l-6.313-4.176c-46.051 11.687-90.978 3.88-134.997-19.72-11.79 8.588-19.225 18.631-25.504 29.06l-.002-.002Z" fill="#000072" opacity=".2"/><path d="M95.116 206.589c5.884-3.061 10.118-7.969 12.992-14.401v15.432M67.982 204.498c3.862 9.868 7.856 22.149 18.788 27.302 23.976 8.907 52.276 8.406 78.036 1.084-.778 13.617-8.888 22.432-24.879 26.086-17.799 1.799-37.373-2.488-59.33-14.936-13.639-12.697-16.791-25.929-12.615-39.536ZM223.34 203.644c19.79 26.196 47.995 21.085 80.498 0 6.374-4.303 9.231-12.5 9.419-23.653l4.923 14.936c-11.896 21.193-25.588 39.744-47.419 46.328-15.968 2.873-29.863 1.843-41.673-3.112-.519-11.262-2.152-22.714-5.746-34.499h-.002Z" fill="#000072" opacity=".2"/><path d="M272.964 191.773c7.368 12.074 18.675 16.072 33.007 13.865-6.45-1.37-12.013-4.268-15.1-11.415-6.476 5.701-12.249 2.368-17.907-2.449v-.001ZM153.314 254.994c-14.813 8.906-31.164 14.767-53.953 7.885 12.534 19.269 31.919 26.618 53.953 29.356 44.815 2.469 60.925-20.728 75.314-45.463-5.846 26.682-11.466 53.444-70.706 61.225-33.155-.222-57.132-13.029-69.362-41.943l-1.803-19.157c22.903 15.677 45.835 14.823 66.557 8.099v-.002Z" fill="#000072" opacity=".2"/><path d="M222.712 274.073c-5.303 13.15-10.323 26.549-20.374 35.514-2.314 2.065-3.032 5.363-1.953 8.269 1.835 4.942 3.01 9.649 3.233 14.014.123 2.425 1.677 4.564 4.009 5.249 11.966 3.513 24.027 4.441 36.139 3.929 5.44-.701 8.725-3.684 9.998-8.801 3.35 6.155 3.417 12.166-5.474 17.779l-54.272-.652c-7.806-22.311-15.405-38.384-25.47-40.91 22.35-4.825 39.056-18.372 54.164-34.393v.002ZM145.156 311.244c-20.085-1.135-43.132-4.726-50.239 17.612-5.77-.645-11.622-.537-18.091 5.375-6.249 6.318-6.289 11.988 0 17.35-13.926-1.555-20.15-10.397-5.396-22.108-2.021-26.576 3.527-50.337 14.157-72.208 6.715 31.233 29.224 46.553 59.567 53.977l.002.002Z" fill="#000072" opacity=".2"/><path d="M115.488 52.59c57.216-7.722 109.778-5.196 144.124 41.153l-11.721-22.725c-38.598-27.44-83.029-32.444-132.403-18.428ZM229.817 45.392c8.95-12.11 27.707-17.074 47.185 10.46-1.987-11.798-9.333-20.606-22.591-26.12-10.972-1.58-21.249-.89-28.389 10.008l3.795 5.651ZM97.787 9.334c18.247-2.774 33.219 1.236 37.316 27.785l10.357-3.838C132.425-.35 115.137 4.212 97.787 9.334ZM16.209 67.433c16.315 3.179 32.125 4.039 47.207 1.572 8.7.895 16.555 2.818 22.83 6.678l3.378-5.17-26.207-8.718c-13.678 6.259-29.718 7.494-47.209 5.638ZM263.431 191.773c6.251-12.807 13.966-18.681 26.035-3.92-2.185-8.637-7.837-12.787-15.85-13.884-7.252 2.936-10.686 8.84-10.187 17.804h.002Z" fill="#fff" opacity=".6"/><path d="M279.219 175.409c9.286-8.855 20.359-9.941 35.172 5.246l-19.484-17.151c-9.954.463-15.498 4.198-15.69 11.905h.002ZM95.593 210.935c8.929.888 17.943 2.815 27.111 6.639 14.051-9.22 21.571-8.163 25.612-1.629l-7.973-11.446-18.387 9.782c-10.432-5.733-18.736-5.49-26.361-3.344l-.002-.002ZM237.578 323.608c2.374-13.88-4.855-31.208-14.867-49.533 14.625 16.293 24.059 33.106 22.88 50.978l-7.221-.968" fill="#fff" opacity=".6"/><path d="M257.141 114.181a6.73 6.73 0 0 1-.887-.059 2.852 2.852 0 0 1-2.108-1.404c-14.16-24.52-38.707-34.71-56.806-38.942-35.637-8.33-78.425-1.382-106.47 17.295a2.859 2.859 0 0 1-2.893.161c-3.974-2.046-3.953-6.035-3.93-9.893v-.27c-.063-4.73 1.438-9.527 4.587-14.615 5.14-8.301 13.411-14.414 23.293-17.212 47.867-13.552 97.476-8.504 129.472 13.173 9.787 6.631 16.935 16.134 20.122 26.754 1.928 6.42 2.431 12.959 1.498 19.436a2.904 2.904 0 0 1-.095.425c-1.259 4.13-3.69 5.149-5.779 5.149l-.004.002Zm-91.037-49.576c11.101 0 22.116 1.177 32.535 3.614 26.318 6.153 46.578 19.582 58.81 38.928.704-5.501.243-10.851-1.404-16.336-2.811-9.366-9.153-17.772-17.856-23.67-30.632-20.757-78.416-25.511-124.706-12.406-8.507 2.408-15.607 7.637-19.993 14.723-2.56 4.136-3.78 7.925-3.73 11.588v.327c-.011 1.697.011 2.803.131 3.53 20.842-13.116 48.792-20.298 76.211-20.298h.002Z" fill="#000072"/><path d="M195.377 193.712c-13.907 0-27.28-1.958-37.715-3.486-29.431-4.308-61.947-11.226-75.3-38.917-12.258-25.426-1.027-53.153 4.37-63.893a2.857 2.857 0 0 1 5.106 2.562c-5.018 9.986-15.487 35.711-4.328 58.854 12.136 25.173 41.72 31.462 70.982 35.746 18.368 2.689 46.131 6.754 68.697-1.426 14.617-5.296 25.137-17.539 28.142-32.747 3.698-18.707-.927-36.399-1.464-38.355a2.852 2.852 0 0 1 1.994-3.509 2.855 2.855 0 0 1 3.512 1.992c.94 3.409 5.432 21.4 1.563 40.979-3.398 17.186-15.284 31.02-31.801 37.008-10.738 3.892-22.427 5.192-33.758 5.192ZM108.596 53.898a2.854 2.854 0 0 1-1.827-5.05 111.278 111.278 0 0 1 16.926-11.602 2.856 2.856 0 0 1 3.885 1.106 2.852 2.852 0 0 1-1.108 3.882 105.476 105.476 0 0 0-16.055 11.003 2.85 2.85 0 0 1-1.823.659l.002.002ZM251.412 78.537a2.852 2.852 0 0 1-2.651-1.793 78.033 78.033 0 0 0-5.024-10.307 73.775 73.775 0 0 0-10.038-13.448 72.392 72.392 0 0 0-10.528-9.157c-21.322-15.195-50.731-18.757-78.67-9.528a2.854 2.854 0 1 1-1.793-5.42c29.664-9.797 60.984-5.948 83.779 10.3a78.057 78.057 0 0 1 11.366 9.886 79.543 79.543 0 0 1 10.819 14.49 83.815 83.815 0 0 1 5.392 11.06 2.852 2.852 0 0 1-2.652 3.916v.001Z" fill="#000072"/><path d="M93.114 67.855a2.846 2.846 0 0 1-1.635-.517C74.562 55.513 68.92 41.928 74.708 26.962 78.99 15.89 88.695 7.319 100.666 4.037c11.818-3.24 21.709-2.613 29.4 1.862 7.755 4.513 13.242 12.923 16.304 24.995a2.854 2.854 0 0 1-2.067 3.467 2.854 2.854 0 0 1-3.47-2.065c-2.672-10.53-7.261-17.752-13.643-21.466-6.315-3.676-14.733-4.109-25.012-1.29-10.232 2.804-18.51 10.085-22.14 19.477-4.785 12.37.028 23.374 14.717 33.641a2.853 2.853 0 0 1-1.64 5.193v.004ZM255.458 84.827a2.855 2.855 0 0 1-.921-5.557c13.115-4.471 20.201-12.169 19.951-21.677-.281-10.68-9.93-22.036-21.508-25.316-5.892-1.668-17.074-2.488-25.759 10.794a2.86 2.86 0 0 1-3.955.829 2.853 2.853 0 0 1-.828-3.951c7.803-11.934 19.501-16.73 32.097-13.164 14.042 3.976 25.315 17.443 25.662 30.656.186 7.073-2.661 20.019-23.816 27.23a2.848 2.848 0 0 1-.923.154v.002Z" fill="#000072"/><path d="M246.201 67.855a2.86 2.86 0 0 1-2.743-2.058 2.856 2.856 0 0 1 1.945-3.537c5.254-1.526 8.18-4.124 8.243-7.319.055-2.839-2.216-5.752-5.288-6.777-3.633-1.212-7.278.404-10.269 4.551a2.859 2.859 0 0 1-3.989.646 2.853 2.853 0 0 1-.646-3.984c4.445-6.159 10.69-8.635 16.712-6.627 5.431 1.812 9.296 6.986 9.191 12.303-.055 2.752-1.367 9.495-12.359 12.688a2.84 2.84 0 0 1-.797.114ZM108.596 53.901a2.852 2.852 0 0 1-1.491-.42c-10.487-6.425-9.729-13.677-8.916-16.497 1.72-5.974 8.184-10.438 15.077-10.438h.167c6.975.074 12.361 4.731 14.412 12.457a2.852 2.852 0 0 1-2.028 3.49 2.858 2.858 0 0 1-3.493-2.026c-1.392-5.252-4.572-8.167-8.95-8.214-4.364-.057-8.68 2.784-9.694 6.306-.967 3.356 1.311 6.925 6.412 10.051a2.854 2.854 0 0 1-1.496 5.287v.005ZM44.907 135.805c-.961 0-1.918-.034-2.872-.099a2.85 2.85 0 0 1-2.32-1.503c-3.421-6.403-5.904-14.148-7.594-23.679a2.85 2.85 0 0 1 1.02-2.72 2.862 2.862 0 0 1 2.875-.419c11.083 4.539 21.092-4.794 31.694-14.67 5.706-5.315 11.604-10.81 17.847-14.143a2.854 2.854 0 1 1 2.691 5.035c-5.584 2.981-11.206 8.22-16.642 13.283-10.161 9.466-20.629 19.217-32.967 17.158 1.368 6.217 3.144 11.507 5.381 16.041 5.645.142 11.292-.999 17.244-3.494 2.937-1.232 5.455-3.352 7.087-5.971 3.418-5.477 7.88-9.686 11.384-12.742a2.858 2.858 0 0 1 4.03.275 2.852 2.852 0 0 1-.275 4.027c-3.206 2.794-7.274 6.624-10.292 11.462-2.255 3.611-5.706 6.528-9.725 8.213-6.258 2.625-12.492 3.95-18.568 3.95l.002-.004Z" fill="#000072"/><path d="M29.28 95.804c-9.497 0-18.796-3.465-27.672-10.319a2.852 2.852 0 0 1-.951-3.195l7.775-22.357a2.858 2.858 0 0 1 4.492-1.283c10.17 8.21 24.75 8.745 43.34 1.592a20.987 20.987 0 0 1 12.835-.721c8.158 2.1 15.529 4.961 21.909 8.497a2.854 2.854 0 1 1-2.771 4.99c-5.957-3.303-12.876-5.981-20.564-7.962-3.14-.809-6.373-.627-9.357.522-18.82 7.24-34.184 7.183-45.745-.156L6.738 82.187c7.94 5.703 15.873 8.273 24.201 7.865a8.747 8.747 0 0 0 2.78-.602c12.19-4.811 29.883-10.239 42.736-1.848a2.853 2.853 0 0 1 .828 3.95 2.86 2.86 0 0 1-3.954.83c-8.093-5.283-20.013-4.528-37.512 2.378-1.472.581-3.018.915-4.595.993-.647.032-1.297.05-1.943.05v.001ZM129.249 262.967c-13.048 0-27.791-4.466-43.464-13.354-18.663-9.578-22.522-24.002-22.475-34.421.091-19.529 14.482-41.419 33.474-50.919a2.854 2.854 0 1 1 2.558 5.103c-16.92 8.464-30.237 28.601-30.319 45.843-.059 12.66 6.657 22.808 19.423 29.342.038.019.074.038.108.059 26.528 15.059 49.848 16.705 65.67 4.631 5.297-4.043 8.169-10.558 7.68-17.426-1.219-17.183-8.811-19.467-14.414-19.69a2.856 2.856 0 0 1-2.74-2.965c.062-1.575 1.42-2.79 2.966-2.738 12.054.478 18.745 8.887 19.886 24.988.625 8.793-3.082 17.153-9.912 22.367-8.031 6.128-17.656 9.178-28.441 9.18Z" fill="#000072"/><path d="M149.745 220.225h-.023a2.855 2.855 0 0 1-2.834-2.877 10.686 10.686 0 0 0-.881-4.378c-.283-.651-1.763-2.971-4.733-5.022-1.011-.699-2.272-.795-3.292-.253a53.717 53.717 0 0 0-13.323 9.998 2.857 2.857 0 0 1-3.617.399c-8.245-5.405-16.592-7.438-25.538-6.217a2.858 2.858 0 0 1-3.218-2.441 2.855 2.855 0 0 1 2.445-3.215c9.504-1.298 18.737.676 27.475 5.87a59.384 59.384 0 0 1 13.094-9.43c2.914-1.549 6.449-1.319 9.222.596 3.439 2.374 5.854 5.446 6.722 7.435a16.367 16.367 0 0 1 1.358 6.703 2.856 2.856 0 0 1-2.855 2.832h-.002Z" fill="#000072"/><path d="M149.709 220.426c-4.735 0-8.893-.582-12.612-1.761a2.853 2.853 0 1 1 1.727-5.441c4.292 1.361 9.39 1.786 15.574 1.302a2.851 2.851 0 0 1 3.072 2.623 2.857 2.857 0 0 1-2.625 3.068 65.32 65.32 0 0 1-5.138.211l.002-.002ZM103.908 211.704a2.852 2.852 0 0 1-2.114-4.771c3.484-3.834 5.231-8.877 5.343-15.415.027-1.575 1.322-2.847 2.904-2.805a2.855 2.855 0 0 1 2.807 2.904c-.134 7.872-2.431 14.317-6.824 19.153a2.85 2.85 0 0 1-2.116.936v-.002ZM153.817 310.889c-14.11 0-28.203-3.173-40.313-9.696-21.178-11.41-31.822-31.242-29.2-54.411a2.856 2.856 0 0 1 5.674.641c-2.377 21.038 6.939 38.35 26.236 48.746 27.153 14.629 64.971 11.236 87.966-7.897 22.116-18.399 27.77-48.729 15.918-85.403a2.853 2.853 0 0 1 1.841-3.592 2.857 2.857 0 0 1 3.595 1.839c12.617 39.042 6.33 71.552-17.7 91.544-14.41 11.989-34.232 18.231-54.019 18.231l.002-.002Z" fill="#000072"/><path d="M71.43 332.329a2.857 2.857 0 0 1-2.85-2.674c-1.753-27.589 3.518-53.161 15.668-76.001a2.856 2.856 0 0 1 5.045 2.68c-11.647 21.893-16.697 46.442-15.01 72.96a2.854 2.854 0 0 1-2.856 3.035h.002Z" fill="#000072"/><path d="M73.004 354.437c-2.152 0-4.209-.579-5.979-1.689-6.697-4.2-8.82-11.374-5.282-17.853 4.767-8.732 18.513-13.949 34.583-6.419a2.855 2.855 0 0 1 1.375 3.796 2.858 2.858 0 0 1-3.798 1.372c-14.487-6.785-24.337-1.156-27.146 3.984-2.09 3.83-.856 7.675 3.303 10.284.927.581 2.036.862 3.218.811l48.927-2.116c1.796-.215 4.298-1.094 5.783-5.88 3.594-22.702 12.048-34.676 25.125-35.585a2.853 2.853 0 1 1 .397 5.694c-10.103.702-16.8 11.121-19.909 30.971a2.88 2.88 0 0 1-.086.376c-2.281 7.629-7.118 9.707-10.777 10.106a3.672 3.672 0 0 1-.188.015l-49.027 2.12a12.98 12.98 0 0 1-.52.011l.001.002ZM246.917 328.909a2.859 2.859 0 0 1-2.836-2.535c-2.258-20.144-10.101-37.045-24.682-53.189a2.854 2.854 0 0 1 .205-4.032 2.857 2.857 0 0 1 4.035.207c15.209 16.84 23.755 35.281 26.119 56.378a2.855 2.855 0 0 1-2.841 3.171Z" fill="#000072"/><path d="M197.152 352.883c-.059 0-.117 0-.176-.006-3.683-.226-8.638-2.154-11.334-10.06a2.748 2.748 0 0 1-.095-.353c-4.267-20.987-11.561-31.727-21.682-31.924a2.855 2.855 0 0 1 .055-5.709h.057c13.122.256 22.25 12.471 27.132 36.31 1.783 5.088 4.326 5.898 6.129 6.029l48.97-.406c1.148-.009 2.217-.361 3.092-1.015 5.064-3.788 4.576-8.636 2.432-11.909-3.387-5.168-13.356-10.059-26.954-2.34a2.854 2.854 0 1 1-2.82-4.965c15.225-8.641 28.908-4.441 34.554 4.175 4.412 6.732 2.889 14.61-3.785 19.605-1.858 1.389-4.093 2.133-6.467 2.154l-49.077.408h-.023l-.008.006ZM284.265 198.981c-4.706 0-9.363-2.984-12.608-8.129a2.853 2.853 0 0 1 .895-3.936 2.857 2.857 0 0 1 3.939.894c2.697 4.279 6.01 5.621 8.196 5.445.828-.065 2.321-.412 2.999-1.993.99-2.306-.241-5.921-3.292-9.67l-.068-.087c-3.098-4.128-7.307-5.877-10.99-4.566-3.851 1.372-7.808 6.728-7.358 17.64a2.853 2.853 0 0 1-2.735 2.971 2.854 2.854 0 0 1-2.97-2.733c-.494-11.9 3.675-20.592 11.147-23.253 6.019-2.142 12.859.397 17.444 6.474 4.453 5.492 5.937 11.129 4.075 15.475-1.34 3.124-4.256 5.156-7.8 5.435-.291.023-.581.034-.87.034l-.004-.001Z" fill="#000072"/><path d="M254.007 246.882c-8.575 0-17.269-2.053-26.121-6.149a2.853 2.853 0 1 1 2.4-5.179c26.709 12.353 51.034 4.616 76.557-24.349.023-.025.043-.05.066-.073 11.943-12.641 11.066-24.728-2.839-39.192-4.124-4.342-8.946-6.367-13.58-5.711-4.456.63-8.352 3.76-10.973 8.816a2.855 2.855 0 0 1-5.073-2.625c3.495-6.741 8.91-10.947 15.246-11.842 6.429-.911 13.176 1.797 18.513 7.422 16.04 16.684 16.991 32.066 2.896 47.015-18.779 21.298-37.637 31.869-57.09 31.869l-.002-.002Z" fill="#000072"/><path d="M245.51 209.443a2.853 2.853 0 0 1-2.447-4.323c4.3-7.157 10.414-13.56 18.69-19.574a2.856 2.856 0 0 1 3.36 4.617c-7.645 5.557-13.256 11.41-17.153 17.897a2.855 2.855 0 0 1-2.452 1.385l.002-.002Z" fill="#000072"/><path d="M249.902 203.217a2.851 2.851 0 0 1-2.262-1.111c-6.271-8.113-12.222-12.842-18.19-14.459a2.854 2.854 0 1 1 1.495-5.51c7.216 1.955 14.156 7.345 21.216 16.479a2.85 2.85 0 0 1-.515 4.003c-.52.4-1.134.596-1.744.596v.002ZM302.024 206.599c-4.135 0-7.765-1.435-10.224-4.157-2.747-3.042-3.563-7.232-2.131-10.939 1.778-4.595 6.545-7.601 13.084-8.248a2.863 2.863 0 0 1 3.125 2.558 2.855 2.855 0 0 1-2.561 3.122c-4.315.427-7.348 2.114-8.319 4.627-.661 1.71-.271 3.6 1.043 5.056 2.029 2.247 5.607 2.877 9.814 1.731a2.857 2.857 0 0 1 3.508 2.002 2.853 2.853 0 0 1-2.004 3.505c-1.831.5-3.626.744-5.333.744l-.002-.001ZM287.281 183.509a2.853 2.853 0 0 1-2.602-4.029c2.188-4.843 5.261-8.153 9.392-10.115a2.853 2.853 0 1 1 2.452 5.154c-2.898 1.378-5.008 3.699-6.638 7.309a2.854 2.854 0 0 1-2.606 1.679l.002.002ZM190.539 136.046c-.98 0-1.957-.23-2.823-.672-4.387-2.237-7.954-5.652-10.902-10.438-1.755-2.849-1.101-6.489 1.52-8.464 5.078-3.83 11.781-3.561 19.914.799a9.038 9.038 0 0 1 4.479 5.744c.478 1.9.562 3.821.245 5.711a6.426 6.426 0 0 1-3.212 4.578c-2.387 1.332-5.111 2.207-8.323 2.678a6.293 6.293 0 0 1-.9.064h.002Zm-3.96-16.553c-1.852 0-3.448.512-4.804 1.535-.249.188-.29.598-.095.917 2.382 3.868 5.206 6.599 8.633 8.345.081.042.193.057.296.042 2.515-.369 4.596-1.027 6.368-2.016a.749.749 0 0 0 .361-.537 8.173 8.173 0 0 0-.15-3.371 3.32 3.32 0 0 0-1.641-2.11c-3.493-1.873-6.465-2.807-8.968-2.807v.002Z" fill="#000072"/><path d="M200.431 154.491c-4.859 0-10.872-3.247-17.939-9.694a2.855 2.855 0 0 1-.124-4.096c2.551-2.624 3.789-5.198 3.791-7.866a2.855 2.855 0 0 1 5.711.002c0 3.327-1.158 6.536-3.449 9.573 8.124 6.856 11.974 6.636 13.303 6.173 2.162-.748 3.106-3.871 3.518-6.359a2.858 2.858 0 0 1 3.286-2.35 2.854 2.854 0 0 1 2.351 3.281c-.969 5.844-3.419 9.484-7.284 10.822a9.611 9.611 0 0 1-3.164.514Z" fill="#000072"/><path d="M175.665 168.74c-9.081 0-18.41-3.953-25.656-11.15-3.835-3.809-5.451-9.291-4.219-14.306a14.466 14.466 0 0 1 2.802-5.687c3.801-4.694 9.246-5.358 10.822-5.449 3.674-.213 6.162 1.023 9.049 2.452.676.336 1.398.693 2.19 1.057 4.328 1.997 9.107 3.412 14.205 4.209a2.858 2.858 0 0 1 2.38 3.263 2.858 2.858 0 0 1-3.265 2.378c-5.618-.879-10.906-2.45-15.715-4.667-.844-.389-1.613-.771-2.335-1.127-2.509-1.243-4.028-1.997-6.178-1.868-.701.04-4.325.393-6.712 3.34a8.773 8.773 0 0 0-1.697 3.458c-.757 3.082.276 6.491 2.698 8.897 7.897 7.844 18.585 11.171 27.891 8.679 6.371-1.704 10.933-6.029 12.519-11.867a2.854 2.854 0 0 1 3.504-2.006 2.855 2.855 0 0 1 2.008 3.502c-2.133 7.851-8.166 13.641-16.555 15.884a29.867 29.867 0 0 1-7.742 1.004l.006.004Z" fill="#000072"/><path d="M173.629 157.672c-.152 0-.304-.011-.458-.036-9.607-1.543-17.93-6.445-25.449-14.987a2.854 2.854 0 0 1 .258-4.028 2.859 2.859 0 0 1 4.033.258c6.607 7.506 13.825 11.798 22.066 13.12a2.855 2.855 0 0 1-.45 5.673ZM152.611 116.422a12.72 12.72 0 0 1-1.977-.155 13.007 13.007 0 0 1-9.214-6.313c-3.09-5.281-4.847-13.123 3.086-21.506l-1.914-1.607a2.854 2.854 0 0 1-.352-4.022 2.859 2.859 0 0 1 4.025-.351l4.312 3.617.079.067 16.397 13.757a2.851 2.851 0 0 1 .732 3.433c-2.166 4.451-4.456 7.715-7.005 9.979a12.255 12.255 0 0 1-8.171 3.099l.002.002Zm-3.725-24.3c-6.216 6.347-4.678 11.287-2.534 14.95a7.315 7.315 0 0 0 5.178 3.556c2.017.319 3.956-.237 5.455-1.567 1.59-1.414 3.149-3.51 4.65-6.244l-12.747-10.695h-.002ZM220.085 125.435a2.62 2.62 0 0 1-.374-.025c-2.534-.332-4.545-1.455-5.976-3.342-2.41-3.175-2.993-8.39-1.836-16.414a2.848 2.848 0 0 1 1.817-2.262l18.407-6.948a2.855 2.855 0 1 1 2.019 5.338l-16.807 6.345c-.768 6.564.07 9.331.951 10.493.333.438.88.962 2.166 1.131a2.856 2.856 0 0 1-.367 5.686v-.002Z" fill="#000072"/><path d="M221.302 125.433c-.776 0-1.578-.04-2.398-.121a2.853 2.853 0 1 1 .56-5.68c4.338.425 7.635-.619 9.288-2.942 2.214-3.114 1.741-8.66-1.296-15.215a2.857 2.857 0 0 1 5.185-2.399c3.979 8.59 4.253 16.018.768 20.918-2.524 3.549-6.77 5.437-12.107 5.437v.002Z" fill="#000072"/><path d="M161.6 103.434c.573-2.286-.539-4.534-2.484-5.021-1.944-.487-3.985.973-4.558 3.259-.573 2.287.538 4.535 2.483 5.022 1.944.486 3.985-.973 4.559-3.26Z" fill="#fff"/><path d="M147.822 109.975c1.326-.318 1.954-2.433 1.405-4.726-.55-2.292-2.069-3.893-3.395-3.576-1.325.317-1.953 2.433-1.404 4.725.55 2.292 2.069 3.894 3.394 3.577Z" fill="#fff" opacity=".35"/><path d="M230.908 110.134c.024-2.357-1.581-4.285-3.586-4.306-2.004-.02-3.649 1.874-3.673 4.231-.024 2.357 1.581 4.285 3.585 4.305 2.005.021 3.65-1.873 3.674-4.23Z" fill="#fff"/><path d="M219.04 119.696c1.215-.617 1.333-2.82.264-4.922-1.069-2.101-2.92-3.305-4.135-2.688-1.215.617-1.333 2.821-.264 4.922 1.069 2.102 2.92 3.305 4.135 2.688Z" fill="#fff" opacity=".35"/><path d="m344.93 167.058 34.021 65.654 24.293-11.249-33.077-66.106" fill="#63C94C"/><path d="M428.23 70.02c-6.348-17.99-9.117-34.876-5.457-49.78 17.622-7.74 36.539-6.454 57.229 7.19-21.383 9.83-40.105 22.477-51.772 42.59Z" fill="#F68122"/><path d="M431.728 67.38c15.677-26.08 38.241-45.071 85.899-38.243C531.325 13.88 548.716 6.06 568.114 2.285c12.25 15.58 14.835 36.774 11.154 61.607-62.6-21.58-107.682-13.472-147.542 3.489h.002Z" fill="#F68122"/><path d="M445.971 181.914c-12.097-5.377-22.298-2.908-31.426 4.008-.462-9.65 1.063-17.504 6.685-21.65l-16.938-12.868c20.393-4.986 12.319-32.884 20.839-55.055 12.135-15.85 36.944-20.38 61.093-25.5 39.876-3.46 74.26 3.924 102.959 22.528 4.045 19.406 11.709 35.367 27.069 43.996-2.978 6.555-8.342 10.323-16.047 11.359l8.1 15.541-27.886-1.059c-40.752 26.145-85.094 34.701-134.448 18.702v-.002Z" fill="#F87A3A"/><path d="M456.095 184.818c-4.078 58.053 9.052 96.978 43.483 112.223l94.287-13.68c6.813-19.179 7.35-38.281 1.455-57.303 16.281-10.958 19.527-25.659 10.923-43.761-5.835-9.8-15.647-15.391-28.612-17.644-37.318 23.55-77.686 31.03-121.538 20.167l.002-.002Z" fill="#F87A3A"/><path d="M585.971 298.024c8.154-11.736 12.692-25.387 13.417-41.058l7.056-8.908 2.258-35.632c3.408-9.173 3.098-18.867 0-28.952 15.657-68.812 46.323-74.555 80.32-66.313 18.06 10.977 26.862 28.238 11.403 61.965l-27.664 32.206c-5.289 25.248-10.74 49.434-17.675 63.821-18.42 31.026-42.235 34.71-69.115 22.875v-.004Z" fill="#F87A3A"/><path d="M460.457 251.612s-8.051-40.063 21.071-46.914c29.121-6.854 48.992 35.924 43.676 66.521 0 0-16.519 6.312-24.621 25.835 0 0-26.627-10.153-40.126-45.442ZM444.465 180.73c-14.764-11.957-19.778-31.901 1.928-41.948l9.7-8.091a25.33 25.33 0 0 1 4.742-5.659c4.099-3.642 8.443-5.098 10.92-5.715 17.475-7.604 38.218 7.18 38.518 9.203.887.285 2.205.647 3.835.865 1.59.215 3.174.253 6.188.006 3.907-.319 6.828-.835 7.027-.871 7.653-1.378 9.772-2.166 12.308-2.538 7.303-1.07 13.387 1.989 20.122 5.377 3.736 1.879 9.259 5.196 14.801 10.873 1.901 2.12 4.541 5.447 6.416 10.132 1.392 3.485 2.146 6.933 2.574 9.909-15.522 9.155-36.15 18.533-61.317 23.467-14.531 2.851-34.161 6.491-58.423 1.072a119.617 119.617 0 0 1-19.337-6.082h-.002Z" fill="#fff"/><path d="m469.267 146.362 7.048-4.929c6.708 2.955 15.521-2.092 24.427-1.805 10.728 9.163 5.596 17.94-4.493 24.644-13.393-.372-26.181-7.358-26.982-17.91Z" fill="#650000"/><path d="M582.82 180.466c8.133-2.169 15.97-1.815 23.426 1.829 10.152 27.669.76 46.519-39.027 51.648-20.872 14.196-37.706 13.206-49.48-6.82-8.129-27.961 2.257-31.81 15.208-32.319 3.843-10.637 11.617-7.502 20.899.917l28.974-15.255ZM526.206 271.219c46.726-9.77 66.084-3.585 66.561 14.538-9.831 19.361-23.751 33.751-41.736 43.2l-13.924 19.205c-36.388 7.272-60.853 7.469-60.171-7.258 3.267-7.01 10-10.823 17.01-14.382-1.664-27.513 12.297-43.603 32.26-55.303ZM378.951 168.232c-2.809 4.813-2.809 10.27 0 16.365 5.421 4.106 9.529 3.813 12.049-1.791-.571-6.756-3.842-12.027-12.049-14.574ZM354.017 186.311c-6.023 16.561-.357 29.402 14.336 39.373 17.89 2.723 20.338-9.738 16.811-28.075-9.107-13.67-19.544-17.02-31.147-11.296v-.002Z" fill="#982D1F"/><path d="m411.853 160.774-23.189 12.453c4.048 6.315 2.679 11.215-2.123 15.217l14.122 28.548 55.434-9.801 2.909-22.108c-18.983-6.769-35.977-9.588-45.927 1.564l6.942-22.375-8.164-3.498h-.004ZM602.501 255.471c10.422 13.448 19.347 29.729 16.34 48.537 12.477-2.133 23.143-10.134 32.41-22.675-5.331-22.689-21.77-34.148-44.389-39.358l-4.361 13.496ZM608.306 225.578c23.291-11.849 43.082-4.018 59.189 12.231l3.039-20.451c-15.773-27.056-36.606-37.629-61.831-33.884l2.442 14.031-2.839 28.075v-.002ZM619.604 147.282c27.117-3.204 55.488 18.821 61.888 51.695l17.106-17.42c2.792-35.721-16.124-58.957-42.663-65.525-16.294 4.991-28.403 15.409-36.331 31.25ZM510.271 128.52c4.139 1.653 10.407 1.027 17.05 0 16.724 9.165 22.901 34.575-.556 57.205l-30.612 5.001c26.654-9.089 32.004-40.157 14.118-62.204v-.002Z" fill="#982D1F"/><path d="M456.091 130.691c-7.67 23.049 2.912 45.266 31.134 59.336l-30.027-5.354c-15.886-10.555-22.649-32.937-9.612-47.302l8.505-6.68Z" fill="#982D1F"/><path d="M487.225 163.9c-1.252-12.612 3.62-19.176 17.857-16.491 1.083 5.314.044 10.359-5.743 14.798l-12.116 1.691.002.002Z" fill="#FC4C93"/><path d="m504.421 103.466 14.184-9.31c8.527 6.841 8.456 14.102 1.708 21.688-2.973 7.261-18.927-6.64-15.892-12.378ZM444.56 100.398c-4.665 10.275-4.461 17.705 2.418 21.223 7.386 1.568 11.721-3.513 13.479-14.203l-15.897-7.022v.002Z" fill="#650000"/><path d="M456.22 110.106c.417-2.189-.429-4.189-1.889-4.467-1.46-.278-2.982 1.272-3.399 3.461-.417 2.189.428 4.188 1.889 4.466 1.46.278 2.982-1.271 3.399-3.46Z" fill="#fff"/><path d="M447.677 114.189c-.707-1.727-1.964-2.848-2.809-2.503-.845.345-.957 2.025-.253 3.754.707 1.727 1.964 2.849 2.809 2.503.846-.345.958-2.025.253-3.754ZM522.125 110.356c.37-1.83-.057-3.46-.951-3.641-.895-.18-1.921 1.156-2.291 2.986-.37 1.829.057 3.46.952 3.64.894.18 1.92-1.156 2.29-2.985Z" fill="#fff" opacity=".35"/><path d="M510.715 110.842c1.477-.163 2.476-2.091 2.231-4.306-.245-2.215-1.641-3.878-3.119-3.715-1.477.163-2.476 2.091-2.231 4.306.245 2.215 1.642 3.878 3.119 3.715ZM466.558 94.43c1.329-2.88-1.55-7.037-6.429-9.285-4.879-2.248-9.912-1.735-11.241 1.146-1.329 2.88 1.549 7.037 6.429 9.285 4.879 2.248 9.912 1.735 11.241-1.146ZM508.038 89.847c4.496-2.94 6.543-7.76 4.574-10.767-1.97-3.006-7.211-3.06-11.706-.119-4.495 2.94-6.543 7.761-4.573 10.767 1.969 3.007 7.21 3.06 11.705.12Z" fill="#fff"/><path d="M464.165 129.133c3.425-12.917 14.838-13.351 21.635-3.401-.203 1.774-5.388 5.509-10.457 9.199l-11.178-5.798Z" fill="#650000"/><path d="m582.484 304.968-27.39 21.554 6.29 5.024c-7.274 6.102-8.771 12.102-1.745 17.955h47.92c17.109-9.06 8.57-25.761-6.91-44.531l-9.637-3.915c-4.006-1.271-7.143-.62-8.528 3.915v-.002Z" fill="#982D1F"/><path d="M536.684 36.989c7.551-10.325 16.567-16.675 27.582-17.618 5.28 11.239 4.801 23.46.501 36.325l-28.083-18.707ZM435.875 58.222l21.829-20.689c-6.162-5.925-13.176-9.893-21.828-10.102" fill="#FC4C93"/><path d="M424.621 97.746c-4.032-10.643-2.517-20.514 5.971-29.413 51.072-21.996 100.61-23.427 148.506-2.799 8.944 7.056 11.908 16.494 10.085 27.841-48.486-32.772-140.982-30.386-164.56 4.371h-.002Z" fill="#028BFE"/><path d="m341.44 160.216-25.516-53.354 22.704-10.357 27.535 50.764M336.554 163.9l32.891-16.572 5.303 2.556-2.196 4.158-28.934 13.632c-4.243.949-6.697-.195-7.064-3.776v.002ZM375.333 239.561l1.934-5.986 25.977-12.112 5.92 1.238-1.529 5.629 4.044 11.231-2.686 6.494-14.393 8.334-5.936-2.092-6.296-12.055-7.035-.681Z" fill="#63C94C"/><path d="M594.748 281.042c37.801-4.779 50.319-44.857 62.42-88.701a18.742 18.742 0 0 1 8.385-11.061c19.427-11.708 31.748-27.545 38.067-46.865 5.426 13.951 6.133 28.593-3.197 44.709l-25.658 28.604c-10.353 37.432-13.715 77.298-39.111 89.258-16.784 8.478-33.343 8.677-49.685 1.038M580.368 305.961c13.077 10.442 25.595 20.922 27.937 32.07 1.375 5.255-.676 8.436-4.26 10.69l-44.406.78c-7.514-5.904-5.21-12.216 2.805-18.764l-7.351-4.213c9.37-5.758 17.985-12.389 25.273-20.561l.002-.002Z" fill="#650000" opacity=".2"/><path d="M597.529 264.315c-12.111 21.024-24.103 42.115-55.997 51.813a11.082 11.082 0 0 0-5.726 4.038c-3.223 4.403-5.93 8.829-7.827 13.289-1.353 3.179-4.319 5.384-7.75 5.825-12.531 1.611-24.201 2.482-31.023-.803-2.386-3.654 1.517-7.201 5.515-10.746l-14.351 6.605c-4.443 6.68-3.102 12.516 6.329 17.17 17.268 1.114 34.06-.055 50.404-3.344 6.464-5.153 10.566-11.549 12.279-19.205 30.876-13.575 43.653-36.881 48.143-64.642h.004ZM439.288 179.745c10.976 7.048 35.086 20.189 66.429 18.488a104.034 104.034 0 0 0 25.282-4.571l8.86-5.178 9.974 4.12h6.685l10.921-5.122c1.398-1.262 4.971-4.135 10.333-4.824 8.501-1.091 14.573 4.194 15.521 5.046.342 2.595 1.305 12.302-4.923 21.717-7.688 11.623-20.27 13.633-22.268 13.917-3.268 2.623-8.25 5.88-14.932 7.795-16.606 4.761-30.853-2.441-34.547-4.455 11.588 19.664 27.857 22.399 49.479 5.791 25.429 2.397 41.212-7.867 45.022-33.852-1.299-13.938-8.364-26.346-33.493-33.964-11.504 7.472-35.206 20.688-68.212 24.106-32.073 3.322-57.347-4.222-70.133-9.014h.002Z" fill="#650000" opacity=".2"/><path d="M395.823 204.007c13.202 1.645 37.033-4.906 61.375-11.849l-1.103 15.033c-16.656.803-35.609 4.713-55.434 9.801l-4.84-12.985h.002ZM406.176 150.85c5.104 4.458 9.717 6.344 13.049 7.235 3.616.966 5.882.804 9.806 2.45 4.957 2.078 7.952 5.109 8.693 5.79 5.862 5.405 37.21 17.481 78.454 12.027 47.774-6.318 71.767-31.258 75.78-36.97 2.938-4.183 4.011-8.685 4.011-8.687 1.582-6.642-.072-12.509-1.337-15.813l8.469 11.803 11.144 8.351c-1.275 6.298-6.306 9.95-14.042 11.692l8.101 15.542-24.764-1.999c-40.72 23.805-86.188 38.005-149.782 15.534l-19.215 8.115c-.317-2.516-.545-7.088 1.282-12.303a26.76 26.76 0 0 1 4.346-7.85 27.013 27.013 0 0 1-8.599-6.219 27.015 27.015 0 0 1-5.398-8.698h.002Z" fill="#650000" opacity=".2"/><path d="M477.177 120.353c3.949.519 13.979 2.397 22.137 10.708a35.56 35.56 0 0 1 6.686 9.577c.22 1.463 1.225 9.185-4.052 16.323-5.456 7.379-13.5 8.552-14.892 8.73-15.607-1.74-23.886-12.22-30.219-26.074 7.771-1.319 7.21-7.125 7.36-15.874l12.98-3.388v-.002Z" fill="#650000" opacity=".2"/><path d="M423.768 100.398c48.264-31.992 105.613-24.993 165.415-7.022-24.429-15.603-54.199-24.81-93.028-23.168-27.147 2.333-50.038 7.833-65.563 18.818l-6.826 11.372h.002Z" fill="#000" opacity=".2"/><path d="M422.488 86.93c9.033-9.977 29.272-18.018 58.218-22.654 9.468-1.517 19.109-1.737 28.648-.74 47.694 4.978 73.662 9.607 80.342 17.754l-.513 12.085c-26.821-16.852-57.229-25.884-93.028-23.166-31.899 3.31-61.268 8.819-72.387 30.189l-1.28-13.468Z" fill="#000" opacity=".2"/><path d="M536.684 36.989a33.878 33.878 0 0 1 12.19-6.802c.905-.281 1.787-.51 2.642-.7 4.752-1.054 9.508 1.956 10.603 6.695 1.252 5.407 1.702 11.873 1.978 18.569 4.456-12.587 6.154-24.678.167-35.38a38.35 38.35 0 0 0-14.595 4.982c-7.109 4.186-11.116 9.663-12.985 12.636ZM437.686 56.502l2.838-16.634a4.754 4.754 0 0 1 5.821-3.815l11.355 2.79c-5.119-6.383-11.903-10.717-20.868-12.376a35.967 35.967 0 0 0-2.878 13.304c-.169 7.773 2.247 13.715 3.732 16.731ZM430.592 18.448a41.193 41.193 0 0 0-2.904 8.108c-3.846 15.81 2.832 29.679 5.972 35.281l-3.068 5.546-2.362 2.64c-5.191-15.5-7.613-31.317-6.741-47.51 3.734-3.302 7.02-5.357 9.103-4.065ZM570.611 5.75c2.418 20.317 5.328 41.208 0 52.472l8.658 5.67.943-28.196c-.86-11.787-4.06-21.768-9.601-29.946ZM353.595 208.903c10.133 9.639 25.356 8.089 32.657-2.251.849 11.778-2.556 18.732-11.504 19.404-11.109-.321-18.021-6.225-21.153-17.155v.002Z" fill="#650000" opacity=".2"/><path d="M387.251 189.501c4.086 9.317 9.028 19.228 7.349 24.538.252 6.282-3.261 10.721-7.349 14.881l12.521 22.474c-5.79 3.401-9.985 2.921-12.521-1.6l-4.883-8.477-7.451-2.585 4.034-6.02-3.126-6.034c1.89-1.036 8.488-4.955 11.12-12.95 2.863-8.693-.112-18.723-7.559-25.578 2.621.45 5.244.902 7.865 1.351ZM372.866 162.594l-8.186 3.393a5.689 5.689 0 0 0-3.013 7.584l3.844 8.565-8.022 4.232-12.557-19.31 25.237-11.701 2.699 7.237h-.002ZM321.635 102.557l26.993 52.8-7.325 3.284-25.379-50.665 5.711-5.419ZM461.559 251.612c19.797 26.999 41.468 33.812 64.65 19.607l-26.629 25.822c-16.355-8.149-28.327-24.623-38.021-45.429Z" fill="#650000" opacity=".2"/><path d="M606.708 243.907a118.194 118.194 0 0 0 5.533-13.666c8.881-26.612 2.216-38.546 6.351-57.792 4.836-22.502 22.866-47.687 44.466-51.779 12.459-2.361 32.653 1.059 32.645 1.228v.002c-2.949-2.3-8.788-6.212-17.158-7.865-10.557-2.083-19.054.631-22.606 1.997-7.347 2.594-17.814 7.569-26.98 17.333-25.244 26.885-17.377 65.322-16.382 69.818l-5.867 40.724h-.002ZM425.998 74.329c52.296-21.65 104.569-23.767 156.82-5.354 5.432-2.027-33.213-20.387-77.358-18.005-40.955-2.055-81.759 20.022-79.464 23.359h.002Z" fill="#fff" opacity=".6"/><path d="M437.686 56.502c7.719-5.99 26.513-18.897 53.98-21.846 31.673-3.399 55.449 8.529 63.737 13.188l-22.754-13.097c-2.693-1.55-3.261-5.213-1.132-7.477a84.082 84.082 0 0 1 19.653-15.504 83.861 83.861 0 0 1 19.681-8.096c-10.64.843-21.339 2.222-32.642 9.081-6.526 5.462-13.054 10.924-19.58 16.388-9.362-.345-18.724-.69-28.086-1.038-8.536.926-24.123 3.898-39.084 15.08a76.247 76.247 0 0 0-13.774 13.321h.001ZM440.704 15.65c14.211 4.763 27.49 9.593 28.563 15.27l11.962-2.745c-2.357-6.014-43.518-17.084-40.525-12.526ZM579.7 182.743l-23.32 16.698a5.535 5.535 0 0 1-6.107.22l-7.388-4.525a5.337 5.337 0 0 0-1.71-.374 5.337 5.337 0 0 0-2.152.348 12 12 0 0 0-3.002 2.389 11.998 11.998 0 0 0-2.43 4.075v-9.345l4.6-4.081 13.727 5.886c7.626-.283 17.683-5.741 27.783-11.291h-.001ZM417.352 164.272c-11.962 4.406-23.364 8.88-25.104 14.524l-2.833-5.569 22.438-12.453 5.499 3.498ZM332.275 99.403l28.222 51.832c3.288.285 6.6.528 8.357 3.285 1.744-1.127 3.489-2.254 5.233-3.383-.834-2.862-3.474-3.601-7.406-2.823l-25.639-51.966-8.767 3.055Z" fill="#fff" opacity=".6"/><path d="M494.691 192.762a31.9 31.9 0 0 1-4.169-.268c-21.949-2.879-38.739-6.428-52.845-11.17-3.759-1.264-7.7-1.342-11.398-.226-4.224 1.273-7.782 3.389-10.876 6.468a2.008 2.008 0 0 1-3.42-1.355c-.285-8.495 1.396-15.587 5.001-21.148-4.133-1.103-8.787-5.183-14.291-12.452a2.005 2.005 0 0 1 1.029-3.131c4.198-1.245 7.7-4.149 10.709-8.877a11.532 11.532 0 0 0 1.787-6.325c-.072-7.92 1.098-14.31 1.795-18.128.234-1.281.42-2.291.471-2.891.69-7.876 3.571-15.873 8.564-23.77.095-.148.207-.285.336-.403 9.848-9.066 41.985-21.701 82.885-21.701l1.102.001c40.881.226 69.398 15.857 79.801 25.058.334.294.56.692.642 1.129 3.948 20.927 14.269 38.16 25.096 41.904a2.005 2.005 0 0 1 1.168 2.729c-2.789 6.072-7.168 9.847-13.624 11.668 3.871 4.217 5.472 9.511 4.767 15.781a2.002 2.002 0 0 1-.893 1.452 1.998 1.998 0 0 1-1.686.241c-8.551-2.613-15.537-3.627-21.998-3.188-1.37.093-2.737.497-4.061 1.201-22.517 11.981-52.452 25.917-84.334 27.363-.519.023-1.037.036-1.554.036l-.004.002Zm-63.103-16.456c2.471 0 4.951.408 7.367 1.22 13.852 4.657 30.405 8.151 52.088 10.996a28.78 28.78 0 0 0 5.019.201c31.079-1.41 60.485-15.114 82.631-26.898 1.827-.972 3.738-1.531 5.675-1.662 6.321-.427 13.049.413 20.999 2.64-.013-5.151-2.114-9.249-6.374-12.473a2.004 2.004 0 0 1 .914-3.579c6.503-.972 10.767-3.58 13.561-8.36-11.331-5.432-21.36-22.387-25.466-43.387-10.388-8.878-37.619-23.391-76.654-23.608l-1.096-.003c-39.54 0-70.36 11.854-79.954 20.466-4.56 7.276-7.189 14.591-7.816 21.749-.07.786-.258 1.824-.52 3.261-.673 3.678-1.799 9.833-1.731 17.371a15.55 15.55 0 0 1-2.414 8.514c-2.869 4.511-6.315 7.714-10.269 9.553 6.832 8.453 10.746 9.543 12.858 8.877a2.005 2.005 0 0 1 2.097 3.251c-3.941 4.386-6.074 10.083-6.471 17.333a29.983 29.983 0 0 1 9.09-4.506 22.378 22.378 0 0 1 6.469-.956h-.003Z" fill="#650000"/><path d="M421.946 101.426c-2.951-4.93-3.238-11.708-.85-20.144 2.6-9.189 9.553-16.554 18.602-19.707 44.3-15.43 87.705-16.75 129.016-3.927 8.074 2.508 14.839 7.848 19.048 15.037 5.554 9.49 6.811 16.756 3.841 22.216l-3.524-1.913c2.211-4.067.941-10.216-3.779-18.278-3.702-6.323-9.66-11.022-16.777-13.232-40.471-12.563-83.035-11.258-126.503 3.885-7.814 2.722-13.818 9.082-16.063 17.013-2.074 7.331-1.928 13.05.433 16.995l-3.442 2.057-.002-.002Z" fill="#650000"/><path d="m432.349 70.356-3.514-1.935c18.601-33.729 48.247-47.659 88.12-41.42C532.526 12.078 548.448 3.05 564.288.158a9.788 9.788 0 0 1 10.257 4.79c7.44 13.08 9.58 32.968 6.545 60.801l-3.989-.434c2.941-26.967.963-46.065-6.045-58.386a5.776 5.776 0 0 0-6.048-2.827c-15.293 2.79-30.765 11.698-45.984 26.473a2.019 2.019 0 0 1-1.723.54c-39.066-6.418-66.853 6.421-84.954 39.24h.002Z" fill="#650000"/><path d="M426.813 72.036c-4.283-11.901-9.038-28.067-7.755-47.59.254-3.866 2.799-7.214 6.48-8.531 17.174-6.142 36.19-2.408 58.129 11.412l-2.14 3.391c-20.827-13.12-38.699-16.727-54.639-11.028-2.176.778-3.68 2.748-3.83 5.02-1.233 18.784 3.375 34.434 7.527 45.971l-3.774 1.357.002-.002ZM564.765 57.366c-.384 0-.76-.133-1.066-.384-10.531-8.692-19.853-14.907-27.709-18.473a1.673 1.673 0 0 1-.591-2.593c9.22-11.026 17.332-16.957 24.8-18.134 2.912-.455 5.73.976 7.027 3.566 3.685 7.36 3.41 18.736-.845 34.775a1.666 1.666 0 0 1-1.616 1.24v.003Zm-25.396-20.954c7.212 3.543 15.242 8.914 24.425 16.333 3.366-13.71 3.516-23.763.443-29.901-.642-1.285-2.057-1.993-3.518-1.761-6.182.973-13.358 6.128-21.35 15.327v.002ZM567.215 237.145a2.005 2.005 0 0 1-.226-3.995c30.953-3.56 42.068-19.813 42.15-33.837.08-13.877-11.022-30.043-31.757-32.671a2.006 2.006 0 0 1-1.738-2.241 2.012 2.012 0 0 1 2.243-1.737c20.211 2.562 35.372 18.328 35.265 36.67-.091 15.741-12.146 33.938-45.703 37.796a2.03 2.03 0 0 1-.232.013l-.002.002Z" fill="#650000"/><path d="M542.97 245.237c-9.156 0-19.293-3.499-25.472-12.163-4.883-6.845-6.758-16.521-4.896-25.251 1.365-6.403 4.511-11.334 8.856-13.886 3.028-1.78 6.711-2.431 10.946-1.934a2.004 2.004 0 0 1 1.759 2.224 2.015 2.015 0 0 1-2.226 1.758c-3.345-.393-6.186.079-8.444 1.408-3.315 1.947-5.854 6.054-6.965 11.267-1.636 7.666-.012 16.128 4.237 22.087 6.731 9.437 19.024 11.767 28.22 9.89 9.241-1.886 15.06-7.884 17.706-11.29a2.005 2.005 0 1 1 3.17 2.458c-2.986 3.845-9.565 10.616-20.072 12.761-2.15.438-4.452.671-6.819.671Z" fill="#650000"/><path d="M533.169 204.018c-.966 0-1.817-.7-1.977-1.685-1.244-7.675.26-13.114 4.234-15.314 4.361-2.416 10.689-.357 17.857 5.792 2.073.215 6.004-2.251 10.143-4.86 5.084-3.206 11.411-7.193 18.818-9.406a2.003 2.003 0 1 1 1.15 3.84c-6.88 2.055-12.95 5.879-17.828 8.954-5.846 3.685-10.07 6.346-13.779 5.243a1.99 1.99 0 0 1-.749-.413c-5.789-5.068-10.902-7.178-13.665-5.646-2.316 1.281-3.144 5.456-2.219 11.166a2.004 2.004 0 0 1-1.983 2.325l-.002.004Z" fill="#650000"/><path d="M531.53 203.473c-.735 0-1.466-.043-2.197-.134a1.336 1.336 0 0 1-1.164-1.49 1.346 1.346 0 0 1 1.489-1.164c2.499.306 5.05-.005 7.567-.929a1.338 1.338 0 0 1 .923 2.509c-2.19.804-4.409 1.207-6.616 1.207l-.002.001ZM598.003 225.122c10.595 44.038-3.38 80.213-42.837 103.287-2.114 1.121-4.173 2.714-4.863 5.101-1.19 4.995-4.055 9.446-7.781 12.894-1.993 1.982-4.416 3.722-7.25 4.293-11.335 3.008-23.145 3.344-34.64 3.547-4.623-.163-9.411.625-13.89-.839-8.066-2.571-15.166-9.174-9.481-17.847 3.967-5.623 10.482-8.749 16.927-10.499 1.432-.355 9.071-2.33 8.748.509a1.11 1.11 0 0 1-.712.835c-2.409.92-4.834 1.102-7.206 1.78-4.642 1.245-9.227 3.361-12.749 6.606-6.48 6.091-3.84 11.742 3.882 14.749 2.255.928 4.274 1.406 6.813 1.267 13.837-.095 28-.095 41.332-3.621 2.315-.47 3.96-1.755 5.69-3.45 2.57-2.431 4.752-5.384 5.939-8.692.475-1.219.658-2.515 1.208-3.745 1.132-2.765 3.52-4.748 6.088-6.137 25.618-14.961 43.464-38.956 44.08-69.314.341-9.982-.935-20.012-3.199-29.807-.581-2.465 3.202-3.57 3.907-.911l-.006-.006Z" fill="#650000"/><path d="M493.956 328.798a2.005 2.005 0 0 1-2.002-1.921c-.369-8.749.568-30.828 17.215-46.835 4.644-4.466 10.112-8.052 16.253-10.668a2.01 2.01 0 0 1 2.633 1.059 2.002 2.002 0 0 1-1.06 2.629c-5.691 2.421-10.752 5.741-15.043 9.867-15.472 14.875-16.338 35.571-15.991 43.777a2.005 2.005 0 0 1-1.92 2.088h-.085v.004Z" fill="#650000"/><path d="M499.578 299.06c-.336 0-.676-.083-.99-.261-34.714-19.702-49.225-56.129-43.132-108.273a2.005 2.005 0 1 1 3.983.465c-5.888 50.392 7.951 85.493 41.128 104.323a2.005 2.005 0 0 1-.991 3.748l.002-.002ZM599.548 258.974c-.084 0-.168 0-.253-.006a2.007 2.007 0 0 1-1.913-2.093c.052-1.106 1.015-1.947 2.097-1.911.302.015.716-.038 1.269-.562 3.671-3.465 5.671-18.101 5.947-43.504a2.004 2.004 0 1 1 4.011.043c-.3 27.654-2.522 41.956-7.202 46.376-1.151 1.088-2.515 1.657-3.956 1.657Z" fill="#650000"/><path d="M609.12 306.978c-8.416 0-16.925-2.068-24.769-6.202a2.004 2.004 0 1 1 1.873-3.545c14.296 7.532 30.967 7.656 44.594.328 14.124-7.593 31.955-26.727 36.695-74.764.612-6.202 2.773-12.148 6.255-17.19 4.583-6.626 11.1-13.754 19.926-21.789 3.909-3.557 6.913-7.985 8.689-12.807 7.858-21.355 4.249-39.826-9.652-49.414-13.371-9.218-37.001-9.723-59.692 9.908-13.015 14.426-20.363 32.573-22.466 55.472a2.012 2.012 0 0 1-2.18 1.813 2.004 2.004 0 0 1-1.814-2.179c2.188-23.842 9.896-42.777 23.565-57.884.053-.059.112-.116.173-.169 24.342-21.119 50.03-20.372 64.693-10.262 15.506 10.693 19.67 30.916 11.14 54.096-1.998 5.425-5.37 10.401-9.753 14.388-8.599 7.829-14.92 14.731-19.324 21.104-3.096 4.485-5.02 9.778-5.565 15.306-4.914 49.794-23.805 69.847-38.787 77.901-7.304 3.927-15.407 5.889-23.599 5.889h-.002Z" fill="#650000"/><path d="M598.725 302.069c6.714 6.3 12.287 13.744 16.555 21.876 1.145 2.074 2.216 4.274 2.648 6.646 1.312 5.472 1.172 12.05-3.087 16.278-2.437 2.376-5.597 4.031-9.018 4.128l-4.549-.01-26.955-.081c-2.374-.013-10.084-.027-12.361-.038-6.839-.008-10.076-6.052-7.725-12.118 2.798-7.61 10.688-13.936 19.087-12.822 1.333.268 6.129 1.469 4.896 3.424a1.15 1.15 0 0 1-1.206.463c-5.479-1.216-10.788-.14-15.044 3.53-4.538 3.382-9.495 13.302-.958 14.729 2.823.139 10.361-.013 13.309.019 5.958-.019 21.197-.062 26.955-.081 2.314-.069 6.059.317 8.112-1.031 5.357-2.399 6.745-8.24 5.717-13.558a20.72 20.72 0 0 0-2.843-7.85c-4.243-7.682-9.73-14.697-16.251-20.555-1.941-1.816.716-4.741 2.716-2.951l.002.002Z" fill="#650000"/><path d="m556.17 324.843-2.504 3.131 6.481 5.175 2.504-3.131-6.481-5.175ZM339.654 161.129l-24.866-48.614a7.951 7.951 0 0 1-.397-6.299 7.951 7.951 0 0 1 4.327-4.585l15.43-6.64a7.936 7.936 0 0 1 10.247 3.772l24.085 48.665-3.597 1.778-24.086-48.666a3.922 3.922 0 0 0-5.065-1.866l-15.43 6.641a3.87 3.87 0 0 0-2.139 2.264 3.873 3.873 0 0 0 .196 3.112l24.866 48.612-3.573 1.824.002.002ZM393.291 256.535a7.89 7.89 0 0 1-2.169-.301 7.951 7.951 0 0 1-4.885-4.014l-5.656-11.065 3.573-1.824 5.656 11.065a3.878 3.878 0 0 0 2.412 1.983 3.887 3.887 0 0 0 3.109-.416l12.623-7.621c1.731-1.044 2.382-3.282 1.487-5.094l-4.961-10.028 3.598-1.777 4.961 10.029c1.812 3.664.49 8.189-3.009 10.301l-12.623 7.624a7.982 7.982 0 0 1-4.116 1.14v-.002ZM352.235 185.729l-.421-.816-8.663-16.944 3.573-1.824 9.075 17.745-3.564 1.839ZM376.703 224.784l-3.572 1.823 4.032 7.89 3.572-1.823-4.032-7.89ZM371.889 154.317l-3.596 1.776 7.174 14.504 3.596-1.776-7.174-14.504ZM401.227 218.916l-1.132-3.847c25.941-7.612 43.236-10.816 56.064-10.381l-.135 4.006c-12.378-.408-29.285 2.735-54.797 10.222Z" fill="#650000"/><path d="m388.052 187.011-3.596 1.776 16.692 33.747 3.596-1.776-16.692-33.747ZM341.08 170.236c-2.256 0-4.363-.937-5.574-2.505-.958-1.235-1.29-2.727-.937-4.198.397-1.647 1.628-3.065 3.377-3.89l28.935-13.633c3.126-1.472 7.065-.7 8.966 1.758.958 1.237 1.29 2.727.937 4.198-.397 1.647-1.628 3.065-3.379 3.89l-28.935 13.633a7.883 7.883 0 0 1-3.392.747h.002Zm29.197-20.969c-.555 0-1.136.112-1.685.37l-28.933 13.632c-.634.298-1.078.748-1.187 1.202-.066.277 0 .541.209.808.483.623 1.531 1.008 2.625.942a3.985 3.985 0 0 0 1.459-.359l28.934-13.632c.635-.298 1.079-.748 1.187-1.202.067-.277 0-.541-.209-.808-.436-.564-1.369-.953-2.398-.953h-.002Z" fill="#650000"/><path d="M379.016 243.321c-2.167 0-4.186-.983-5.326-2.612-.879-1.256-1.16-2.752-.79-4.207.399-1.568 1.535-2.919 3.113-3.707l26.336-13.125c2.967-1.481 6.686-.653 8.46 1.88.879 1.257 1.16 2.752.79 4.208-.399 1.568-1.535 2.919-3.113 3.706L382.15 242.59a7.051 7.051 0 0 1-3.134.731Zm26.473-20.372c-.462 0-.931.099-1.349.308l-26.334 13.125c-.534.266-.904.67-1.016 1.107-.08.316-.017.628.19.922.408.586 1.282.934 2.18.896a3.033 3.033 0 0 0 1.2-.306l26.335-13.125c.534-.266.904-.67 1.016-1.107.08-.317.017-.628-.19-.922-.405-.579-1.202-.9-2.032-.9v.002ZM372.324 227.893c-5.51 0-10.653-2.505-14.716-7.229-7.751-9.018-10.131-23.998-5.924-37.275a2.005 2.005 0 0 1 1.778-1.395 2.01 2.01 0 0 1 1.949 1.142c.862 1.818 1.371 1.972 1.377 1.974.013 0 .197-.036.49-.23 7.061-5.91 15.637-4.05 25.489 5.525a17.968 17.968 0 0 1 4.946 8.648c2.429 9.987 2.015 17.227-1.269 22.139-2.342 3.503-6.118 5.68-11.219 6.473-.975.152-1.942.228-2.899.228h-.002Zm-17.812-39.471c-2.247 10.85.086 22.588 6.139 29.631 2.706 3.15 7.329 6.688 13.954 5.653 4.004-.62 6.785-2.171 8.502-4.739 2.589-3.871 2.826-10.252.706-18.963a13.964 13.964 0 0 0-3.844-6.722c-11.02-10.71-16.796-8.138-20.18-5.27-.048.04-.097.078-.149.115-1.623 1.132-3.006 1.094-3.882.86a4.247 4.247 0 0 1-1.242-.562l-.004-.003Z" fill="#650000"/><path d="M385.08 189.98a8.412 8.412 0 0 1-5.05-1.67c-5.214-3.921-7.159-9.533-5.782-16.682.414-2.149 1.763-4.02 3.702-5.134a1.96 1.96 0 0 1 .655-.237c3.379-.594 6.918.634 9.691 3.361 3.599 3.539 5.326 8.963 4.505 14.16-.401 2.545-2.057 4.581-4.541 5.585a8.483 8.483 0 0 1-3.18.617Zm-5.42-19.827a3.548 3.548 0 0 0-1.472 2.23c-1.094 5.674.258 9.717 4.254 12.721 1.199.902 2.891 1.116 4.314.541.672-.273 1.84-.958 2.083-2.496.623-3.938-.665-8.029-3.356-10.677-1.759-1.729-3.823-2.539-5.821-2.321l-.002.002Z" fill="#650000"/><path d="m389.776 174.898-2.221-3.341c7.898-5.24 16.251-9.5 24.826-12.664l1.389 3.76c-8.285 3.055-16.359 7.175-23.996 12.245h.002ZM433.988 60.681c-.172-4.456-.645-8.97-1.105-13.338-.572-5.452-1.111-10.601-1.13-15.72a7.237 7.237 0 0 1 2.159-5.16 6.998 6.998 0 0 1 5.015-1.996c6.004.138 12.929 3.926 21.798 11.918l-2.687 2.976c-8.004-7.212-14.285-10.774-19.204-10.888a2.887 2.887 0 0 0-2.112.852c-.612.6-.96 1.433-.958 2.285.017 4.917.547 9.968 1.108 15.316.465 4.43.946 9.013 1.122 13.6l-4.007.155h.001ZM515.762 118.588a9.29 9.29 0 0 1-2.661-.389c-6.009-1.797-9.379-6.718-10.011-14.626-.04-.486.19-.955.598-1.224l14.158-9.294a.538.538 0 0 1 .055-.036l8.688-5.703a1.336 1.336 0 1 1 1.468 2.234l-7.339 4.818c7.08 7.33 7.863 14.12 2.402 20.719-1.865 2.255-4.577 3.503-7.358 3.503v-.002Zm-9.933-14.448c.68 6.403 3.248 10.064 8.04 11.497 2.59.776 5.417-.11 7.191-2.256 4.638-5.605 3.84-11.038-2.618-17.521l-12.613 8.28ZM449.411 123.394c-2.173 0-4.145-.794-5.611-2.276-4.997-5.048-5.147-12.021-.452-21.29l-4.025-2.142a1.337 1.337 0 1 1 1.258-2.358l20.505 10.913c.509.271.786.835.689 1.403-.818 4.799-2.269 8.69-4.317 11.563-1.69 2.371-4.423 3.925-7.316 4.158a8.671 8.671 0 0 1-.735.031l.004-.002Zm-3.7-22.309c-4.086 8.09-4.084 14.036-.008 18.154 1.066 1.076 2.568 1.596 4.228 1.462 2.084-.169 4.133-1.334 5.35-3.044 1.681-2.358 2.92-5.555 3.687-9.516l-13.257-7.056ZM474.786 135.749a8.134 8.134 0 0 1-3.789-.938c-.906-.476-1.856-1-2.862-1.556-1.087-.6-2.245-1.237-3.493-1.898-1.936-1.023-2.173-3.522-1.411-5.356a12.786 12.786 0 0 1 3.935-5.196c2.912-2.266 6.017-2.659 7.677-2.682 1.438-.229 4.162-.36 6.974 1.099 2.544 1.321 3.995 3.352 4.762 4.823.904 1.729 1.113 4.152-.558 5.384-.747.55-1.468 1.099-2.179 1.638-1.628 1.235-3.168 2.404-4.769 3.433a7.922 7.922 0 0 1-4.287 1.249Zm1.875-15.098c-.593 0-1.1.059-1.478.124a1.436 1.436 0 0 1-.218.019c-1.292.005-3.807.29-6.158 2.118-1.375 1.07-2.42 2.452-3.109 4.112-.327.788-.234 1.744.192 1.97 1.265.668 2.435 1.314 3.534 1.921.992.547 1.926 1.063 2.817 1.532 1.723.907 3.785.833 5.383-.196 1.514-.972 3.012-2.108 4.598-3.314.72-.546 1.453-1.102 2.209-1.658.273-.201.235-1.118-.224-1.999-.591-1.129-1.7-2.687-3.626-3.687a8.48 8.48 0 0 0-3.924-.942h.004Z" fill="#650000"/><path d="M491.316 165.608c-.184 0-.367-.002-.553-.008h-.015c-9.267 0-18.148-6.868-23.721-18.375l2.409-1.163c5.039 10.404 13.219 16.866 21.35 16.866h.012c7.994.224 11.371-4.489 12.697-7.309 2.167-4.61 1.743-10.434-.984-13.547-1.552-1.77-4.253-2.296-6.568-1.279-8.754 3.855-14.756 4.582-18.352 2.223-2.414-1.585-3.623-4.483-3.595-8.613l2.674.019c-.023 3.164.781 5.305 2.388 6.36 2.701 1.772 8.165.932 15.804-2.433 3.428-1.509 7.307-.719 9.658 1.962 3.44 3.927 4.025 10.843 1.391 16.445-2.654 5.646-7.955 8.852-14.601 8.852h.006Z" fill="#650000"/><path d="M457.853 139.165c4.772 6.32 13.729 9.428 17.79.708.759-1.594 3.162-.482 2.423 1.131-3.451 7.075-11.058 8.457-17.168 3.773-1.744-1.293-3.202-2.906-4.353-4.688a.801.801 0 0 1 1.308-.926v.002ZM485.982 164.389c-2.233-5.659-1.008-11.398 3.279-15.352 4.626-4.266 11.652-5.211 17.479-2.355l-1.177 2.399c-4.844-2.374-10.665-1.604-14.489 1.919-3.443 3.175-4.417 7.813-2.605 12.408l-2.489.981h.002Z" fill="#650000"/></svg>