<svg width="444" height="300" viewBox="0 0 444 300" fill="none" xmlns="http://www.w3.org/2000/svg">
<g clip-path="url(#clip0_49_3371)">
<path d="M304.215 219.288C304.264 219.368 304.32 219.453 304.381 219.539C310.549 228.477 361.643 262.986 401.05 233.097C415.185 222.007 423.343 205.795 426.143 189.251C430.838 161.555 420.519 132.931 398.118 125.856C388.216 122.729 375.384 126.475 368.782 139.077C364.652 146.966 364.203 156.398 364.393 168.326C364.757 190.573 356.204 204.364 343.884 208.535C343.638 208.617 343.392 208.697 343.143 208.772C343.019 208.81 342.892 208.848 342.765 208.881C342.722 208.895 342.676 208.908 342.634 208.919C342.1 209.071 341.56 209.206 341.016 209.317C340.968 209.328 340.923 209.338 340.875 209.347C340.779 209.368 340.68 209.387 340.581 209.406C340.526 209.418 340.469 209.429 340.412 209.437C340.21 209.476 340.01 209.511 339.807 209.541C339.638 209.569 339.471 209.593 339.302 209.618C339.28 209.62 339.255 209.624 339.232 209.626C339.086 209.649 338.944 209.668 338.798 209.685C338.779 209.688 338.758 209.69 338.739 209.693C338.65 209.704 338.565 209.713 338.478 209.722C338.471 209.723 338.462 209.722 338.452 209.723C338.301 209.741 338.15 209.756 337.997 209.769C337.852 209.783 337.708 209.796 337.562 209.806C337.536 209.807 337.512 209.808 337.487 209.811C337.333 209.822 337.18 209.834 337.025 209.839C336.878 209.852 336.732 209.855 336.584 209.859C336.436 209.869 336.288 209.872 336.137 209.872C335.991 209.878 335.839 209.882 335.691 209.882C335.54 209.882 335.391 209.882 335.24 209.878C335.107 209.878 334.971 209.878 334.837 209.872C334.818 209.872 334.803 209.872 334.785 209.872C334.496 209.868 334.205 209.854 333.91 209.836C333.814 209.834 333.719 209.829 333.625 209.821C333.586 209.821 333.549 209.816 333.51 209.812C333.495 209.812 333.482 209.81 333.467 209.811C333.321 209.802 333.174 209.791 333.029 209.775C333.008 209.775 332.99 209.771 332.968 209.77C332.831 209.76 332.694 209.747 332.556 209.731C332.537 209.731 332.519 209.731 332.502 209.727C332.266 209.704 332.026 209.679 331.789 209.647C331.756 209.644 331.721 209.64 331.69 209.634C331.674 209.632 331.659 209.632 331.644 209.629C331.487 209.609 331.331 209.586 331.175 209.563C331.066 209.549 330.962 209.532 330.854 209.516C330.731 209.495 330.605 209.476 330.479 209.456L330.431 209.447C330.332 209.432 330.231 209.413 330.129 209.394C330.024 209.377 329.918 209.357 329.807 209.337C329.598 209.297 329.387 209.255 329.174 209.209C329.073 209.188 328.969 209.169 328.866 209.143C328.644 209.096 328.422 209.045 328.197 208.991C328.191 208.992 328.182 208.991 328.173 208.987C327.94 208.931 327.707 208.872 327.474 208.81C327.356 208.782 327.241 208.752 327.127 208.717L327.115 208.715C326.803 208.632 326.493 208.543 326.184 208.445C326.041 208.406 325.9 208.365 325.758 208.317C325.691 208.297 325.624 208.276 325.556 208.254C325.424 208.215 325.291 208.17 325.158 208.125C325.035 208.086 324.911 208.044 324.786 208C324.775 207.995 324.764 207.992 324.752 207.987C324.689 207.966 324.624 207.945 324.561 207.921C324.365 207.857 324.172 207.787 323.976 207.714C323.858 207.67 323.739 207.626 323.621 207.58C323.591 207.571 323.562 207.56 323.534 207.548C323.251 207.443 322.97 207.332 322.688 207.218C322.534 207.155 322.379 207.092 322.224 207.026C322.138 206.991 322.051 206.957 321.964 206.915C321.887 206.882 321.809 206.849 321.732 206.816C321.561 206.743 321.389 206.668 321.218 206.591C320.93 206.464 320.642 206.333 320.357 206.195C320.334 206.185 320.311 206.175 320.289 206.161C320.014 206.032 319.74 205.898 319.465 205.763C319.46 205.759 319.454 205.758 319.448 205.754C318.875 205.465 318.299 205.163 317.722 204.846C317.706 204.837 317.692 204.828 317.675 204.818C317.081 204.491 316.488 204.149 315.894 203.788V203.79L304.219 219.289L304.215 219.288Z" fill="#F87B38"/>
<path d="M304.319 219.307C304.366 219.387 304.422 219.469 304.482 219.554L304.485 219.558C308.179 224.908 327.977 239.428 351.728 243.803C359.611 245.253 367.931 245.591 376.24 244.098C382.487 242.98 388.729 240.831 394.778 237.347C396.928 236.111 399.056 234.703 401.151 233.116C415.286 222.026 423.447 205.815 426.245 189.27C430.942 161.574 420.62 132.95 398.223 125.875C388.319 122.747 375.489 126.494 368.885 139.096C364.757 146.987 364.308 156.417 364.496 168.345C364.62 176.026 363.685 182.7 361.897 188.315C361.841 188.482 361.789 188.645 361.734 188.808C361.722 188.846 361.712 188.88 361.699 188.918C361.68 188.973 361.663 189.029 361.641 189.084C361.495 189.524 361.34 189.956 361.181 190.381C361.176 190.39 361.171 190.401 361.17 190.41C360.997 190.875 360.817 191.335 360.63 191.782C360.625 191.794 360.619 191.805 360.614 191.817C360.576 191.908 360.537 192 360.499 192.093C360.364 192.417 360.222 192.734 360.079 193.048C359.98 193.268 359.877 193.486 359.773 193.703C359.772 193.712 359.767 193.717 359.763 193.723C359.66 193.942 359.556 194.155 359.446 194.369C359.357 194.551 359.265 194.731 359.171 194.908C359.086 195.068 359.001 195.229 358.912 195.389C358.837 195.526 358.762 195.664 358.685 195.798C358.583 195.984 358.478 196.169 358.37 196.349C358.271 196.52 358.169 196.689 358.067 196.855C357.948 197.052 357.825 197.25 357.699 197.443C357.641 197.541 357.58 197.637 357.517 197.728C357.423 197.871 357.329 198.011 357.235 198.151C357.227 198.163 357.222 198.17 357.213 198.182C357.106 198.345 356.998 198.497 356.889 198.656C356.712 198.908 356.531 199.156 356.347 199.396C356.081 199.752 355.81 200.097 355.533 200.433C355.438 200.549 355.342 200.663 355.243 200.777C355.24 200.783 355.236 200.789 355.228 200.793C355.108 200.94 354.983 201.084 354.855 201.224C354.844 201.234 354.835 201.248 354.825 201.258C354.777 201.317 354.726 201.373 354.676 201.426C354.603 201.509 354.529 201.59 354.452 201.672C354.381 201.754 354.306 201.829 354.236 201.903C354.229 201.908 354.225 201.916 354.217 201.921C354.094 202.053 353.971 202.182 353.843 202.309C353.712 202.445 353.58 202.576 353.446 202.705C353.329 202.822 353.205 202.939 353.086 203.053C352.936 203.193 352.788 203.331 352.635 203.467C350.058 205.781 347.148 207.482 343.988 208.553C343.8 208.614 343.614 208.675 343.427 208.734C343.368 208.754 343.309 208.773 343.25 208.791C343.125 208.829 342.998 208.867 342.869 208.899C342.846 208.904 342.827 208.909 342.804 208.918C342.782 208.926 342.761 208.932 342.742 208.937C342.707 208.949 342.667 208.958 342.632 208.966C342.44 209.02 342.245 209.073 342.051 209.122C341.941 209.151 341.831 209.176 341.719 209.202C341.606 209.23 341.495 209.256 341.384 209.278C341.296 209.298 341.21 209.317 341.124 209.335C341.073 209.344 341.027 209.354 340.983 209.365C340.886 209.386 340.784 209.405 340.685 209.423C340.63 209.434 340.573 209.446 340.519 209.454C340.477 209.461 340.436 209.469 340.394 209.476C340.257 209.501 340.12 209.525 339.983 209.545C339.96 209.55 339.935 209.555 339.91 209.557C339.836 209.568 339.762 209.582 339.688 209.592C339.618 209.601 339.548 209.612 339.478 209.621C339.455 209.626 339.431 209.628 339.409 209.633C339.387 209.635 339.358 209.639 339.336 209.64C339.193 209.663 339.051 209.684 338.902 209.699C338.805 209.712 338.706 209.724 338.606 209.733C338.546 209.737 338.489 209.746 338.433 209.751C338.327 209.763 338.219 209.773 338.113 209.782C337.965 209.797 337.819 209.807 337.668 209.82C337.596 209.825 337.525 209.83 337.453 209.833C337.312 209.844 337.168 209.854 337.025 209.862C336.925 209.868 336.828 209.872 336.727 209.872C336.714 209.872 336.702 209.873 336.689 209.874C336.676 209.874 336.661 209.874 336.648 209.876C336.558 209.881 336.464 209.885 336.369 209.886C336.326 209.886 336.285 209.886 336.242 209.886C336.103 209.891 335.966 209.896 335.828 209.895C335.816 209.892 335.8 209.895 335.781 209.895C335.632 209.895 335.488 209.894 335.347 209.891C335.307 209.891 335.269 209.891 335.23 209.891C335.146 209.891 335.064 209.888 334.981 209.885C334.969 209.885 334.956 209.886 334.945 209.885H334.898H334.889C334.6 209.881 334.312 209.867 334.016 209.849C333.921 209.844 333.826 209.841 333.729 209.833C333.69 209.833 333.653 209.827 333.614 209.824C333.604 209.824 333.596 209.824 333.589 209.824C333.51 209.819 333.433 209.813 333.354 209.807C333.308 209.805 333.259 209.802 333.214 209.797C333.165 209.794 333.123 209.789 333.072 209.783C332.918 209.77 332.763 209.756 332.606 209.74C332.372 209.718 332.134 209.693 331.893 209.66C331.844 209.653 331.794 209.647 331.742 209.64C331.591 209.621 331.446 209.601 331.299 209.579L331.284 209.577C330.713 209.495 330.138 209.395 329.561 209.282C329.466 209.264 329.371 209.244 329.276 209.222C329.225 209.213 329.174 209.2 329.121 209.19C329.07 209.181 329.019 209.169 328.97 209.156C328.748 209.109 328.525 209.058 328.301 209.003C328.301 209.003 328.299 209.004 328.295 209.005C328.162 208.974 328.032 208.94 327.901 208.903C327.868 208.896 327.838 208.888 327.807 208.879C327.671 208.847 327.538 208.814 327.403 208.776C327.356 208.764 327.309 208.749 327.263 208.738C327.242 208.734 327.222 208.727 327.2 208.72C327.049 208.683 326.901 208.64 326.751 208.596C326.687 208.579 326.619 208.559 326.552 208.538C326.546 208.538 326.543 208.533 326.538 208.531C326.248 208.45 325.956 208.361 325.659 208.266C325.426 208.192 325.187 208.116 324.944 208.03C324.915 208.019 324.883 208.01 324.854 207.999C324.822 207.99 324.79 207.977 324.758 207.966C324.729 207.957 324.695 207.944 324.666 207.932C324.605 207.912 324.544 207.892 324.483 207.87C324.361 207.829 324.237 207.784 324.113 207.737C324.101 207.734 324.09 207.729 324.079 207.724C323.963 207.681 323.841 207.636 323.727 207.59C323.712 207.588 323.698 207.581 323.687 207.576C323.669 207.57 323.655 207.565 323.637 207.559C323.352 207.453 323.075 207.342 322.795 207.229H322.792C322.64 207.167 322.483 207.103 322.328 207.037C322.242 207.003 322.158 206.968 322.07 206.928C321.916 206.862 321.761 206.799 321.604 206.729C321.595 206.724 321.59 206.723 321.581 206.719C321.492 206.681 321.407 206.644 321.325 206.603C321.304 206.593 321.281 206.586 321.261 206.577C321.256 206.573 321.25 206.572 321.245 206.568C321.227 206.562 321.208 206.551 321.19 206.545C321.091 206.499 320.991 206.455 320.891 206.409C320.806 206.371 320.719 206.331 320.638 206.291C320.579 206.264 320.519 206.237 320.459 206.208C320.439 206.198 320.416 206.188 320.392 206.174C320.113 206.044 319.833 205.909 319.554 205.767C318.978 205.477 318.404 205.175 317.827 204.859C317.811 204.85 317.797 204.841 317.78 204.831C317.338 204.588 316.897 204.336 316.455 204.076C316.448 204.076 316.446 204.071 316.443 204.069C316.296 203.98 316.147 203.89 315.999 203.8V203.803L315.884 203.954L304.324 219.302L304.319 219.307Z" fill="#F87B38"/>
<path d="M426.203 188.862C426.183 188.987 426.161 189.12 426.14 189.254C426.164 189.128 426.185 189.007 426.207 188.883V188.879C426.203 188.871 426.201 188.867 426.203 188.862Z" fill="#EA5A1B"/>
<path d="M304.381 219.539C310.548 228.477 361.643 262.986 401.049 233.097C415.185 222.007 423.342 205.795 426.143 189.251H426.141C424.289 199.482 406.877 235.736 370.405 237.625C356.693 238.336 356.81 212.014 343.885 208.535L343.882 208.531C343.738 208.581 343.593 208.627 343.451 208.674C343.348 208.707 343.247 208.741 343.144 208.772C343.02 208.81 342.893 208.846 342.766 208.881C342.723 208.895 342.677 208.908 342.636 208.919C342.174 209.047 341.711 209.165 341.239 209.265C341.165 209.282 341.09 209.3 341.017 209.316C340.969 209.326 340.924 209.337 340.876 209.345C340.786 209.363 340.697 209.38 340.605 209.394C340.597 209.399 340.588 209.4 340.581 209.405C340.572 209.406 340.561 209.408 340.553 209.405C340.504 209.415 340.46 209.426 340.412 209.434C340.364 209.445 340.313 209.454 340.262 209.459C340.109 209.485 339.959 209.513 339.807 209.537C339.638 209.565 339.471 209.59 339.302 209.614C339.28 209.616 339.255 209.62 339.232 209.623C339.086 209.646 338.944 209.665 338.798 209.681C338.779 209.684 338.758 209.686 338.739 209.689C338.651 209.698 338.565 209.709 338.477 209.718C338.471 209.719 338.462 209.718 338.452 209.719C338.354 209.732 338.257 209.742 338.156 209.751C338.103 209.756 338.05 209.763 337.997 209.765C337.852 209.779 337.707 209.792 337.561 209.802C337.536 209.803 337.512 209.805 337.487 209.807C337.44 209.811 337.395 209.815 337.35 209.816C337.243 209.824 337.134 209.831 337.025 209.836C336.878 209.849 336.732 209.853 336.583 209.857C336.434 209.863 336.285 209.867 336.137 209.869C335.989 209.873 335.84 209.876 335.69 209.88C335.539 209.88 335.391 209.88 335.24 209.876C335.104 209.876 334.972 209.872 334.837 209.869C334.818 209.869 334.802 209.869 334.785 209.869C334.495 209.866 334.205 209.852 333.909 209.834C333.818 209.829 333.723 209.827 333.625 209.819C333.586 209.819 333.549 209.813 333.51 209.81C333.495 209.81 333.482 209.807 333.467 209.808C333.32 209.803 333.177 209.788 333.029 209.773C333.007 209.773 332.99 209.769 332.968 209.768C332.831 209.757 332.692 209.743 332.556 209.728C332.537 209.728 332.519 209.728 332.501 209.724C332.265 209.702 332.026 209.676 331.788 209.644C331.755 209.642 331.721 209.638 331.689 209.632C331.674 209.629 331.659 209.629 331.644 209.626C331.487 209.606 331.331 209.583 331.174 209.56C331.065 209.546 330.961 209.53 330.854 209.513C330.728 209.493 330.605 209.474 330.479 209.454L330.431 209.445C330.332 209.429 330.231 209.41 330.129 209.391L330.001 209.367C329.938 209.358 329.872 209.347 329.807 209.334L329.697 209.314C329.527 209.279 329.352 209.244 329.174 209.207C329.073 209.185 328.969 209.166 328.866 209.141C328.645 209.096 328.421 209.045 328.197 208.988C328.191 208.989 328.182 208.988 328.173 208.984C327.942 208.93 327.709 208.874 327.474 208.807C327.359 208.779 327.245 208.749 327.127 208.715L327.115 208.712C326.803 208.629 326.492 208.54 326.184 208.442C326.043 208.404 325.9 208.359 325.758 208.314C325.691 208.295 325.623 208.273 325.556 208.252C325.424 208.212 325.291 208.168 325.158 208.122C325.035 208.084 324.911 208.042 324.786 207.997C324.775 207.992 324.763 207.99 324.752 207.985C324.689 207.963 324.624 207.943 324.56 207.918C324.366 207.851 324.168 207.784 323.976 207.711C323.856 207.67 323.738 207.623 323.62 207.578C323.591 207.569 323.562 207.557 323.534 207.546C323.396 207.495 323.254 207.442 323.111 207.387C322.97 207.332 322.831 207.276 322.688 207.215C322.533 207.153 322.379 207.089 322.224 207.023C322.135 206.988 322.049 206.951 321.964 206.913C321.886 206.879 321.809 206.846 321.732 206.813C321.654 206.78 321.577 206.747 321.499 206.714C321.406 206.672 321.31 206.633 321.218 206.587C320.93 206.46 320.642 206.329 320.357 206.191C320.334 206.181 320.311 206.171 320.289 206.157C320.014 206.029 319.74 205.894 319.465 205.759C319.46 205.755 319.453 205.754 319.448 205.75C319.197 205.625 318.938 205.491 318.685 205.361C318.588 205.313 318.491 205.26 318.392 205.207C318.171 205.085 317.943 204.965 317.722 204.841C317.705 204.832 317.691 204.823 317.675 204.813C317.081 204.489 316.484 204.146 315.894 203.785L304.386 219.535L304.381 219.539Z" fill="#EA5A1B"/>
<path d="M411.555 216.219C411.646 218.35 411.605 220.55 411.419 222.814C411.658 222.517 411.894 222.218 412.126 221.917C412.356 221.621 412.58 221.326 412.801 221.028C412.883 220.919 412.97 220.807 413.049 220.693C413.37 220.257 413.688 219.818 413.998 219.378C415.409 217.369 416.699 215.291 417.879 213.153C418.102 212.751 418.319 212.347 418.533 211.945C418.575 211.864 418.621 211.781 418.664 211.696C419.14 210.781 419.596 209.86 420.031 208.931C420.26 208.445 420.48 207.958 420.696 207.472C421.112 206.525 421.512 205.571 421.889 204.612C421.939 204.497 421.98 204.382 422.025 204.265C422.374 203.357 422.708 202.441 423.024 201.524C423.283 200.771 423.527 200.016 423.766 199.254C423.77 199.253 423.765 199.25 423.765 199.25C423.997 198.495 424.22 197.73 424.432 196.966C424.712 195.946 424.972 194.921 425.211 193.892C425.435 192.928 425.642 191.964 425.825 190.995C425.849 190.869 425.872 190.739 425.896 190.613C425.912 190.533 425.925 190.456 425.941 190.376V190.372C425.996 190.083 426.045 189.791 426.092 189.501C426.04 189.754 425.981 190.023 425.914 190.304C424.602 195.774 419.927 206.409 411.554 216.221L411.555 216.219Z" fill="#8E381A"/>
<path d="M352.633 203.469C369.502 210.914 374.859 224.998 375.995 237.447C376.003 237.538 376.012 237.626 376.019 237.717C376.052 238.123 376.085 238.528 376.111 238.928C376.131 239.202 376.146 239.47 376.159 239.738C376.171 239.97 376.184 240.204 376.193 240.434C376.203 240.677 376.211 240.92 376.218 241.163C376.223 241.399 376.23 241.634 376.236 241.868C376.239 241.989 376.241 242.11 376.24 242.231C376.242 242.448 376.246 242.662 376.245 242.872C376.249 243.003 376.249 243.135 376.246 243.265C376.246 243.546 376.245 243.824 376.24 244.099C382.487 242.981 388.728 240.832 394.778 237.349C394.881 236.83 394.978 236.301 395.069 235.76C395.113 235.519 395.152 235.274 395.188 235.03C395.195 234.988 395.203 234.95 395.208 234.907C395.245 234.675 395.279 234.44 395.313 234.202C395.433 233.371 395.535 232.521 395.619 231.651C396.758 220.138 394.776 205.788 383.706 196.13C378.413 191.506 369.564 189.362 361.897 188.314H361.894C361.842 188.477 361.786 188.643 361.736 188.806C361.723 188.844 361.713 188.879 361.7 188.917C361.681 188.972 361.665 189.028 361.642 189.082C361.496 189.522 361.341 189.955 361.183 190.379C361.178 190.388 361.172 190.4 361.171 190.409C360.996 190.874 360.816 191.329 360.631 191.781C360.626 191.792 360.621 191.804 360.616 191.815C360.578 191.907 360.538 191.998 360.5 192.091C360.366 192.416 360.224 192.732 360.08 193.046C359.981 193.266 359.879 193.485 359.775 193.701C359.773 193.71 359.768 193.715 359.764 193.722C359.662 193.94 359.555 194.155 359.447 194.368C359.359 194.55 359.266 194.73 359.172 194.907C359.087 195.067 359.001 195.231 358.913 195.388C358.838 195.525 358.764 195.662 358.686 195.797C358.585 195.983 358.479 196.167 358.372 196.348C358.273 196.518 358.17 196.687 358.068 196.854C357.949 197.051 357.826 197.248 357.701 197.442C357.642 197.54 357.581 197.636 357.518 197.726C357.5 197.754 357.482 197.782 357.466 197.809C357.388 197.927 357.312 198.041 357.236 198.15C357.229 198.161 357.224 198.169 357.215 198.181C357.107 198.343 356.999 198.496 356.89 198.655C356.714 198.907 356.532 199.155 356.348 199.395C356.082 199.751 355.812 200.096 355.534 200.432C355.438 200.55 355.344 200.662 355.245 200.776C355.241 200.781 355.237 200.788 355.229 200.791C355.109 200.939 354.985 201.083 354.857 201.223C354.845 201.233 354.836 201.247 354.826 201.257C354.778 201.315 354.727 201.371 354.678 201.425C354.603 201.51 354.527 201.589 354.453 201.67C354.382 201.753 354.307 201.828 354.238 201.902C354.23 201.907 354.226 201.914 354.218 201.92C354.095 202.052 353.97 202.179 353.844 202.307C353.715 202.441 353.582 202.574 353.447 202.704C353.331 202.821 353.206 202.938 353.087 203.051C352.937 203.191 352.789 203.33 352.637 203.466L352.633 203.469Z" fill="#9B4635"/>
<path d="M411.422 222.812C419.047 213.313 423.815 201.955 425.944 190.373C422.125 179.742 409.874 161.801 386.406 162.161C379.478 162.266 371.142 164.955 364.398 168.558C364.469 173.542 364.085 178.098 363.311 182.212C390.395 173.157 413.908 191.883 411.422 222.812Z" fill="#9B4635"/>
<path d="M375.963 237.09C375.975 237.21 375.987 237.327 375.996 237.447C376.004 237.538 376.013 237.626 376.02 237.717C376.056 238.123 376.086 238.528 376.112 238.928C376.132 239.202 376.147 239.47 376.16 239.738C376.175 239.974 376.185 240.204 376.194 240.434C376.204 240.677 376.212 240.92 376.22 241.163C376.229 241.399 376.234 241.636 376.237 241.868C376.24 241.989 376.242 242.11 376.241 242.231C376.248 242.446 376.249 242.66 376.246 242.872C376.249 243.005 376.25 243.135 376.248 243.265C376.248 243.546 376.246 243.824 376.241 244.099C382.489 242.981 388.73 240.832 394.779 237.349C394.882 236.83 394.98 236.301 395.07 235.76C395.114 235.519 395.154 235.274 395.189 235.03C395.197 234.988 395.204 234.95 395.209 234.907C395.246 234.675 395.28 234.44 395.315 234.202C395.431 233.371 395.533 232.52 395.62 231.651C395.675 231.074 395.724 230.486 395.762 229.896C390.026 233.354 383.437 235.952 375.965 237.09H375.963Z" fill="#873A2D"/>
<path d="M411.421 222.813C411.659 222.517 411.895 222.218 412.127 221.917C412.357 221.621 412.581 221.326 412.802 221.028C412.885 220.919 412.971 220.807 413.051 220.693C413.372 220.257 413.689 219.818 414 219.378C415.41 217.369 416.7 215.291 417.88 213.153C418.103 212.751 418.32 212.347 418.535 211.945C418.576 211.864 418.622 211.781 418.665 211.696C419.142 210.785 419.599 209.864 420.033 208.931C420.261 208.445 420.482 207.958 420.697 207.472C421.119 206.527 421.514 205.575 421.89 204.612C421.941 204.497 421.981 204.382 422.027 204.265C422.381 203.358 422.714 202.443 423.025 201.524C423.288 200.77 423.532 200.014 423.767 199.254C423.771 199.253 423.766 199.25 423.766 199.25C424.006 198.492 424.225 197.729 424.433 196.966C424.717 195.945 424.977 194.92 425.212 193.892C425.437 192.928 425.643 191.964 425.826 190.995C425.85 190.869 425.873 190.739 425.897 190.613C425.913 190.533 425.926 190.456 425.943 190.376L425.915 190.304C424.603 195.774 419.929 206.409 411.555 216.221C411.646 218.351 411.605 220.551 411.419 222.815L411.421 222.813Z" fill="#873A2D"/>
<path d="M304.482 219.555L304.485 219.559C308.179 224.909 327.977 239.429 351.728 243.804C356.578 236.079 352.033 218.641 343.427 208.739L343.425 208.735C343.352 208.759 343.277 208.778 343.206 208.8C343.092 208.834 342.982 208.866 342.866 208.9C342.844 208.905 342.825 208.91 342.802 208.919C342.743 208.933 342.685 208.95 342.629 208.968C342.434 209.021 342.242 209.075 342.048 209.123C341.938 209.152 341.825 209.178 341.716 209.203C341.607 209.228 341.494 209.254 341.381 209.279C341.16 209.325 340.936 209.37 340.709 209.414C340.644 209.429 340.581 209.443 340.516 209.456C340.474 209.464 340.433 209.471 340.392 209.479C340.324 209.492 340.255 209.501 340.185 209.512C340.118 209.525 340.05 209.536 339.981 209.549C339.958 209.554 339.932 209.559 339.907 209.56C339.833 209.574 339.76 209.586 339.685 209.596C339.615 209.605 339.545 209.616 339.476 209.625C339.429 209.632 339.381 209.638 339.334 209.646C339.19 209.668 339.046 209.688 338.9 209.704C338.802 209.717 338.703 209.73 338.603 209.738C338.543 209.742 338.486 209.751 338.43 209.756C338.373 209.764 338.318 209.769 338.26 209.774C338.21 209.78 338.16 209.783 338.11 209.787C337.961 209.802 337.815 209.812 337.664 209.825C337.592 209.83 337.521 209.835 337.449 209.838C337.308 209.849 337.164 209.859 337.021 209.867C336.921 209.873 336.822 209.876 336.723 209.877C336.71 209.877 336.698 209.878 336.685 209.88C336.672 209.88 336.657 209.88 336.644 209.881C336.551 209.885 336.458 209.89 336.365 209.891C336.185 209.897 336.003 209.901 335.824 209.901C335.812 209.899 335.796 209.901 335.777 209.901C335.594 209.904 335.41 209.901 335.225 209.897C335.142 209.895 335.059 209.895 334.976 209.891C334.964 209.891 334.951 209.892 334.939 209.891C334.923 209.895 334.909 209.891 334.893 209.891H334.884C334.594 209.885 334.307 209.872 334.011 209.854C333.916 209.849 333.821 209.846 333.724 209.838C333.599 209.833 333.474 209.822 333.35 209.811C333.304 209.808 333.255 209.806 333.211 209.801C333.161 209.798 333.119 209.793 333.068 209.787C332.914 209.774 332.759 209.76 332.602 209.743C332.368 209.722 332.13 209.696 331.889 209.663C331.841 209.657 331.79 209.651 331.738 209.644C331.589 209.626 331.442 209.605 331.295 209.583L331.28 209.581C330.709 209.499 330.134 209.399 329.557 209.286C329.411 209.259 329.263 209.227 329.117 209.194C329.066 209.185 329.016 209.172 328.966 209.16C328.844 209.134 328.722 209.109 328.598 209.08C328.497 209.058 328.394 209.033 328.29 209.01C328.157 208.979 328.027 208.945 327.895 208.908C327.862 208.902 327.833 208.893 327.802 208.884C327.666 208.852 327.533 208.819 327.398 208.781C327.351 208.769 327.304 208.754 327.257 208.743C327.237 208.739 327.217 208.732 327.195 208.725C327.044 208.688 326.895 208.647 326.746 208.601C326.711 208.591 326.679 208.582 326.643 208.573C326.612 208.565 326.583 208.556 326.547 208.543C326.541 208.543 326.538 208.538 326.533 208.537C326.243 208.455 325.951 208.366 325.654 208.271C325.421 208.197 325.182 208.121 324.939 208.035C324.909 208.024 324.878 208.015 324.848 208.004C324.817 207.995 324.785 207.982 324.753 207.971C324.661 207.941 324.571 207.908 324.478 207.877C324.423 207.857 324.371 207.835 324.317 207.815C324.247 207.793 324.177 207.768 324.109 207.743C324.097 207.74 324.086 207.735 324.075 207.73C323.944 207.684 323.815 207.636 323.683 207.583C323.665 207.576 323.651 207.571 323.633 207.565C323.353 207.461 323.074 207.353 322.791 207.236H322.788C322.636 207.173 322.479 207.11 322.324 207.044C322.238 207.009 322.153 206.971 322.067 206.934C321.912 206.868 321.757 206.806 321.6 206.736C321.591 206.731 321.586 206.729 321.577 206.726C321.468 206.681 321.36 206.633 321.257 206.583C321.252 206.579 321.246 206.578 321.241 206.574C321.223 206.568 321.204 206.558 321.186 206.551C321.086 206.508 320.987 206.461 320.887 206.415C320.802 206.377 320.716 206.338 320.634 206.297C320.552 206.26 320.47 206.219 320.387 206.18C320.108 206.05 319.828 205.915 319.549 205.773C319.198 205.6 318.846 205.417 318.492 205.23C318.267 205.108 318.043 204.988 317.822 204.864C317.806 204.855 317.792 204.846 317.775 204.836C317.329 204.595 316.888 204.344 316.45 204.082C316.443 204.082 316.441 204.076 316.438 204.074C316.291 203.987 316.14 203.898 315.994 203.809H315.992L315.88 203.961L304.484 219.555H304.482Z" fill="#873A2D"/>
<g opacity="0.3">
<path d="M390.049 158.88C393.671 172.21 384.155 195.857 373.382 193.958C364.656 192.421 371.517 182.323 370.408 166.132C369.238 149.035 386.427 145.551 390.049 158.88Z" fill="white"/>
</g>
<path d="M365.312 149.845C388.533 138.246 416.307 146.808 426.604 166.173C424.081 147.163 414.22 130.943 398.115 125.855C388.216 122.73 375.382 126.478 368.782 139.08C367.058 142.375 365.975 145.941 365.312 149.847V149.845Z" fill="#9B4635"/>
<path d="M365.154 246.456C360.728 246.456 356.163 246.026 351.459 245.165C327.133 240.711 306.495 225.526 303.043 220.027C302.635 219.378 302.829 218.521 303.476 218.113C304.122 217.705 304.978 217.899 305.386 218.548C308.548 223.584 328.785 238.192 351.958 242.433C370.392 245.808 386.628 242.295 400.215 231.989C422.575 214.448 428.645 184.767 424.734 163.142C421.44 144.929 411.335 131.485 397.703 127.179C388.973 124.421 376.582 127.17 370.01 139.723C366.203 146.994 365.577 155.708 365.781 168.303C366.085 187.035 359.95 201.417 348.948 207.761C339.452 213.236 327.143 212.22 315.176 204.974C314.521 204.578 314.312 203.725 314.707 203.069C315.102 202.413 315.952 202.202 316.607 202.599C327.686 209.307 338.971 210.312 347.568 205.355C357.671 199.53 363.301 186.041 363.013 168.349C362.801 155.305 363.477 146.229 367.559 138.434C374.871 124.471 388.741 121.44 398.535 124.533C413.165 129.154 423.977 143.403 427.459 162.647C431.519 185.094 425.192 215.922 401.904 234.19C391.141 242.354 378.826 246.456 365.157 246.456H365.154Z" fill="#650000"/>
<path d="M345.438 232.155C348.69 227.162 355.8 224.284 361.497 226.681C368.14 229.476 371.535 240.307 372.425 243.967C375.872 258.126 371.457 265.637 361.932 266.51C351.506 267.734 350.055 259.115 349.445 254.922L345.438 232.153V232.155Z" fill="#FFFEFF"/>
<path d="M360.005 263.833C356.238 263.833 354.329 262.078 353.235 259.044C352.771 257.754 354.542 259.115 354.542 259.115C354.92 259.602 371.168 264.327 369.717 244.63C371.413 251.6 371.115 256.963 368.855 260.138C367.372 262.219 364.958 263.426 361.679 263.728L361.609 263.735C361.051 263.802 360.512 263.835 360.005 263.835V263.833Z" fill="#FFE4D2"/>
<path d="M359.93 268.023C349.951 268.023 348.604 258.755 348.075 255.123L350.815 254.722C351.684 260.695 353.61 266.084 361.772 265.132C365.512 264.788 368.267 263.384 369.997 260.955C372.503 257.438 372.878 251.676 371.082 244.296C370.747 242.919 367.614 230.76 360.962 227.96C356.14 225.932 349.697 228.155 346.597 232.914L344.279 231.397C348.075 225.569 356.04 222.88 362.033 225.402C369.773 228.657 373.169 241.164 373.771 243.639C375.793 251.945 375.282 258.314 372.251 262.569C370.031 265.685 366.603 267.477 362.06 267.894C361.31 267.982 360.601 268.024 359.932 268.024L359.93 268.023Z" fill="#650000"/>
<path d="M354.267 256.524C354.647 260.695 357.146 265.862 362.024 265.114V267.89C356.029 267.504 353.75 261.825 354.267 256.524Z" fill="#650000"/>
<path d="M309.31 226.769C310.065 243.044 318.662 256.147 321.683 268.936C323.425 275.944 324.572 298.48 305.303 297.722C290.536 297.198 292.771 279.373 292.639 276.124C290.536 273.402 269.757 247.295 266.562 210.267L309.31 226.769Z" fill="#C97043"/>
<path d="M306.363 143.816L287.204 164.348L285.042 166.663C260.037 156.894 236.4 144.255 218.984 125.329C216.782 122.946 214.681 120.461 212.693 117.869C208.882 112.893 206.969 106.716 207.09 100.443C207.137 97.9177 207.259 95.2177 207.279 92.4084C207.293 90.9903 207.279 89.5392 207.219 88.0602C207.151 86.6154 208.216 85.2788 209.657 85.2038C211.051 85.13 212.404 85.9732 213.731 87.7969C214.856 80.5516 216.31 73.9626 219.132 70.0938C221.005 67.5287 224.514 66.88 227.106 68.7025C231.794 72.018 234.427 80.3227 236.622 90.6253C237.059 92.6513 237.969 94.5488 239.322 96.108C240.224 97.1546 241.134 98.1873 242.056 99.2073C260.845 120.192 281.823 136.119 306.363 143.816Z" fill="#F87B38"/>
<path d="M242.056 99.2073C239.928 108.092 234.292 116.1 226.769 121.271C224.365 119.294 222.062 117.186 219.907 114.917C213.927 108.611 209.152 100.826 207.28 92.4071C207.294 90.9891 207.28 89.538 207.219 88.0589C207.152 86.6142 208.216 85.2775 209.657 85.2025C211.051 85.1287 212.405 85.9719 213.731 87.7956C214.857 80.5503 216.31 73.9613 219.133 70.0925C221.005 67.5274 224.514 66.8788 227.107 68.7012C231.794 72.0167 234.427 80.3214 236.622 90.6241C237.059 92.65 237.969 94.5475 239.322 96.1067C240.224 97.1533 241.134 98.186 242.056 99.206V99.2073Z" fill="#FFFEFF"/>
<path d="M226.769 121.271C224.351 122.939 221.738 124.316 218.984 125.329C218.917 125.262 218.856 125.201 218.809 125.134C218.317 124.601 217.832 124.067 217.354 123.52C216.855 122.959 216.365 122.392 215.879 121.818C215.36 121.204 214.849 120.59 214.336 119.961C213.784 119.272 213.231 118.57 212.693 117.868C208.882 112.892 206.969 106.715 207.09 100.442C207.137 97.9164 207.259 95.2164 207.279 92.4071C209.152 100.826 213.926 108.611 219.906 114.917C222.061 117.186 224.364 119.292 226.769 121.271Z" fill="#FFE4D2"/>
<path d="M217.354 123.52C217.832 124.067 218.317 124.6 218.809 125.134C218.304 124.601 217.826 124.06 217.354 123.52Z" fill="#EA5A1B"/>
<path d="M287.204 164.348L285.042 166.663C260.037 156.894 236.4 144.255 218.984 125.329C221.738 124.317 224.351 122.94 226.769 121.271C232.979 126.389 239.888 130.69 246.77 134.889C257.727 141.574 268.94 148.218 281.338 151.525L283.184 152.336C285.642 153.787 286.463 156.913 286.861 159.742C287.071 161.234 287.205 162.801 287.205 164.348H287.204Z" fill="#EA5A1B"/>
<path d="M285.042 168.051C284.874 168.051 284.704 168.02 284.54 167.957C250.286 154.582 227.108 138.935 211.596 118.714C207.668 113.592 205.576 107.095 205.705 100.418C205.724 99.412 205.756 98.3793 205.788 97.3225C205.877 94.3631 205.969 91.3032 205.831 88.1263C205.732 85.8664 207.417 83.9345 209.583 83.8188C210.702 83.759 211.784 84.1075 212.809 84.8591C213.824 79.0115 215.297 73.0024 218.014 69.2761C220.357 66.0623 224.7 65.3119 227.901 67.5693C233.306 71.3834 235.939 80.7678 237.98 90.3417C238.37 92.1654 239.195 93.8467 240.369 95.2024C261.524 119.64 283.247 135.108 306.777 142.491C307.231 142.633 307.581 143 307.702 143.461C307.824 143.923 307.699 144.415 307.374 144.762L286.055 167.611C285.788 167.897 285.419 168.051 285.044 168.051H285.042ZM209.818 86.5875C209.789 86.5875 209.758 86.5874 209.729 86.59C209.095 86.6243 208.565 87.2856 208.596 88.0055C208.74 91.2854 208.646 94.3974 208.554 97.4064C208.523 98.4531 208.492 99.4756 208.473 100.471C208.357 106.52 210.244 112.398 213.791 117.021C228.851 136.653 251.387 151.92 284.673 165.028L303.863 144.462C280.632 136.678 259.156 121.138 238.277 97.0211C236.798 95.3118 235.759 93.2032 235.272 90.9216C233.441 82.3334 230.945 73.1117 226.307 69.8395C224.354 68.4621 221.692 68.9327 220.249 70.9141C217.457 74.7434 216.079 81.7064 215.099 88.0118C215.012 88.5663 214.601 89.0153 214.057 89.1475C213.513 89.2798 212.944 89.0699 212.612 88.6172C211.633 87.2704 210.693 86.5887 209.818 86.5887V86.5875Z" fill="#650000"/>
<path d="M212.96 84.999C216.058 88.2993 217.576 92.8865 217.92 97.3034C217.97 97.9279 217.042 98.0805 216.894 97.4713C215.912 93.5034 214.063 89.6206 210.992 86.9525C209.563 85.6095 211.624 83.5543 212.959 85.0003L212.96 84.999Z" fill="#650000"/>
<path d="M305.303 297.721C300.097 297.535 297.005 295.202 295.179 292.11C291.82 286.439 292.725 278.226 292.638 276.122C290.881 273.851 276.095 255.26 269.411 227.617C268.091 222.166 267.087 216.363 266.561 210.266L309.31 226.767C310.066 243.042 318.66 256.144 321.682 268.934C323.425 275.943 324.57 298.479 305.303 297.72V297.721Z" fill="#F87B38"/>
<path d="M305.303 297.722C300.097 297.534 297.004 295.203 295.18 292.11C291.819 286.44 292.727 278.227 292.639 276.122C292.424 275.846 292.018 275.325 291.452 274.577C287.398 269.181 275.278 251.893 269.412 227.616C268.094 222.166 267.089 216.362 266.562 210.267L309.31 226.769C309.894 239.324 315.138 249.985 318.891 260.076C320.005 263.068 320.987 266.008 321.68 268.936C323.423 275.944 324.571 298.48 305.302 297.722H305.303Z" fill="#F87B38"/>
<path d="M307.787 274.482C307.438 276.142 296.547 277.08 296.395 275.049C296.286 273.602 297.538 270.916 299.575 270.546C302.465 270.022 308.179 272.617 307.787 274.481V274.482Z" fill="#EA5A1B"/>
<path d="M305.303 297.721C300.097 297.535 297.005 295.202 295.179 292.11C297.64 293.207 301.044 294.143 305.303 293.937C316.105 293.413 319.911 283.263 318.66 273.323C317.092 260.861 310.704 250.701 308.672 249.1C305.163 246.332 284.993 248.876 269.411 227.616C268.091 222.165 267.087 216.362 266.561 210.265L309.31 226.766C310.066 243.041 318.66 256.143 321.682 268.933C323.425 275.942 324.57 298.478 305.303 297.718V297.721Z" fill="#EA5A1B"/>
<path d="M305.303 297.722C300.097 297.534 297.004 295.203 295.18 292.11C297.64 293.209 301.043 294.143 305.303 293.939C316.107 293.415 319.91 283.266 318.659 273.323C318.402 271.276 318.016 269.288 317.535 267.388C318.337 265.325 318.822 262.902 318.893 260.078C318.942 260.209 318.988 260.336 319.037 260.467C319.263 261.08 319.482 261.689 319.698 262.298C319.698 262.302 319.698 262.306 319.702 262.312C319.829 262.681 319.957 263.052 320.08 263.421C320.09 263.453 320.101 263.481 320.112 263.513C320.225 263.852 320.337 264.189 320.444 264.53C320.561 264.899 320.677 265.268 320.786 265.635C320.899 266 321.006 266.369 321.109 266.737C321.2 267.06 321.289 267.385 321.374 267.711C321.402 267.806 321.427 267.906 321.451 268.001C321.532 268.313 321.607 268.622 321.681 268.933C323.424 275.942 324.572 298.478 305.303 297.72V297.722Z" fill="#FFE4D2"/>
<path d="M305.303 297.722C300.097 297.534 297.004 295.203 295.18 292.11C291.819 286.44 292.727 278.227 292.639 276.122C292.424 275.846 292.018 275.325 291.452 274.577C299.111 279.963 318.416 279.142 318.893 260.078C320.006 263.069 320.988 266.009 321.681 268.937C323.424 275.946 324.572 298.482 305.303 297.724V297.722Z" fill="#FFFEFF"/>
<path d="M305.303 297.722C300.097 297.534 297.004 295.203 295.18 292.11C297.64 293.209 301.043 294.143 305.303 293.939C316.107 293.415 319.91 283.266 318.659 273.323C318.402 271.276 318.016 269.288 317.535 267.388C318.337 265.325 318.822 262.902 318.893 260.078C318.942 260.209 318.988 260.336 319.037 260.467C319.263 261.08 319.482 261.689 319.698 262.298C319.698 262.302 319.698 262.306 319.702 262.312C319.829 262.681 319.957 263.052 320.08 263.421C320.09 263.453 320.101 263.481 320.112 263.513C320.225 263.852 320.337 264.189 320.444 264.53C320.561 264.899 320.677 265.268 320.786 265.635C320.899 266 321.006 266.369 321.109 266.737C321.2 267.06 321.289 267.385 321.374 267.711C321.402 267.806 321.427 267.906 321.451 268.001C321.532 268.313 321.607 268.622 321.681 268.933C323.424 275.942 324.572 298.478 305.303 297.72V297.722Z" fill="#FFE4D2"/>
<path d="M306.245 299.129C305.917 299.129 305.586 299.122 305.25 299.108C290.706 298.592 291.11 282.793 291.241 277.602C291.25 277.228 291.259 276.884 291.262 276.606C285.687 269.385 268.097 244.163 265.184 210.386L267.941 210.147C270.816 243.462 288.3 268.276 293.589 275.087L294.004 275.624L294.022 276.068C294.039 276.463 294.025 276.997 294.007 277.673C293.79 286.167 294.883 295.963 305.351 296.335C310.484 296.536 314.435 294.979 317.091 291.705C322.604 284.912 321.25 272.932 320.34 269.27C319.228 264.561 317.348 259.815 315.359 254.788C311.942 246.162 308.411 237.241 307.928 226.832L310.693 226.703C311.155 236.648 314.6 245.349 317.931 253.765C319.959 258.887 321.875 263.725 323.031 268.615C324.095 272.898 325.496 285.746 319.239 293.457C316.183 297.222 311.814 299.128 306.244 299.128L306.245 299.129Z" fill="#650000"/>
<path d="M345.843 227.439C345.843 227.439 339.892 243.364 313.145 243.364C286.398 243.364 279.457 236.463 279.457 236.463C272.414 230.297 268.277 223.274 266.217 215.923C259.526 192.045 274.798 164.742 283.837 152.352C283.837 152.352 301.85 129.069 314.808 128.35C327.768 127.63 346.399 167.233 346.399 167.233C347.354 178.717 348.637 192.731 350.57 206.954C350.688 207.818 350.789 208.68 350.859 209.546C351.294 214.913 350.598 220.419 345.845 227.439H345.843Z" fill="#F87B38"/>
<path d="M345.843 227.439C345.843 227.439 339.892 243.364 313.145 243.364C286.398 243.364 279.457 236.463 279.457 236.463C272.414 230.297 268.277 223.274 266.217 215.923C268.848 219.015 281.715 231.841 311.898 228.959C321.3 228.061 334.523 216.448 342.502 211.546C346.905 201.918 343.495 187.964 347.326 186.852C347.326 186.852 349.152 211.932 350.859 209.548C351.294 214.915 350.598 220.42 345.845 227.44L345.843 227.439Z" fill="#EA5A1B"/>
<path d="M334.371 148.199C333.88 148.363 333.367 148.52 332.827 148.674C315.413 153.618 288.992 149.868 283.298 135.906C287.755 131.398 301.244 135.317 312.039 135.317C320.89 135.317 328.547 141.364 334.37 148.199H334.371Z" fill="#EA5A1B"/>
<path d="M346.398 167.232C347.588 172.258 348.387 177.332 349.153 182.422C349.899 187.491 350.122 192.614 350.786 197.691C352.243 210.002 354.575 217.036 346.988 228.217C345.932 229.698 343.709 228.213 344.697 226.661C351.848 216.245 349.321 209.483 348.037 198.02C347.485 192.91 346.628 187.832 346.383 182.693C346.152 177.54 346.055 172.393 346.398 167.232Z" fill="#650000"/>
<path d="M279.457 236.463C257.867 221.056 260.316 193.254 271.04 171.851C274.496 164.831 278.734 158.209 283.838 152.351C274.309 168.686 265.738 186.68 266.222 205.96C266.417 217.464 271.691 228.113 279.458 236.462L279.457 236.463Z" fill="#650000"/>
<path d="M359.957 247.12C358.448 260.658 347.164 263.279 339.166 261.385C329.495 259.1 325.248 250.181 322.181 242.958L322.177 242.955C313.754 244.806 298.64 244.282 290.538 241.109L311.897 228.957L350.569 206.953C351.451 215.964 354.412 226.214 355.427 235.414C355.427 235.414 357.293 237.003 358.573 239.518C360.23 242.774 359.957 247.12 359.957 247.12Z" fill="#F87B38"/>
<path d="M356.48 246.856C355.299 256.93 348.08 258.438 343.87 258.438C342.551 258.438 341.238 258.286 339.968 257.984C335.661 256.967 332.613 254.303 330.226 250.898C330.226 250.898 335.267 254.309 344.096 253.737C352.851 253.169 356.48 246.856 356.48 246.856Z" fill="#EA5A1B"/>
<path d="M353.9 225.895C348.168 222.024 334.437 237.239 322.181 242.958L322.177 242.955C313.754 244.806 298.64 244.282 290.538 241.109L311.897 228.957C330.496 225.876 339.18 218.763 342.501 211.544L350.569 206.953C351.155 212.942 352.659 219.479 353.9 225.894V225.895Z" fill="#EA5A1B"/>
<path d="M333.552 221.406C325.885 236.203 306.316 239.591 291.977 235.821C282.317 233.463 276.585 228.149 273.288 221.811C280.261 226.179 292.504 230.812 311.897 228.96C312.67 228.886 313.472 228.74 314.294 228.53C322.763 226.892 329.014 224.373 333.552 221.406Z" fill="#E0B299"/>
<path d="M314.294 228.529C313.472 228.739 312.671 228.885 311.897 228.959C312.716 228.823 313.514 228.679 314.294 228.529Z" fill="#B25B36"/>
<path d="M351.948 206.821C352.451 216.334 354.817 225.863 355.428 235.416C354.661 230.655 353.461 226.002 352.285 221.329C351.112 216.654 349.913 211.964 349.192 207.092L351.948 206.821Z" fill="#650000"/>
<path d="M359.958 247.12C359.885 251.811 358.082 256.697 354.236 259.663C348.367 264.22 339.765 264.198 333.394 260.648C326.966 257.076 323.294 250.003 320.698 243.589L322.521 244.532C319.771 245.098 317.037 245.297 314.315 245.394C306.258 245.558 297.804 244.843 290.538 241.112C295.747 242.265 301.009 242.549 306.303 242.648C311.48 242.695 316.805 242.488 321.833 241.381L323.121 241.099C325.083 245.615 327.123 250.241 330.138 253.883C335.389 260.716 345.878 262.883 353.22 258.251C357.007 255.848 359.122 251.459 359.96 247.118L359.958 247.12Z" fill="#650000"/>
<path d="M291.977 235.822C309.049 240.307 333.529 234.652 336.517 211.678C338.178 198.914 332.718 159.89 306.703 156.151C287.919 153.451 272.842 172.322 269.598 194.773C268.247 207.814 268.968 230.204 291.977 235.822Z" fill="#FFFEFF"/>
<path d="M333.552 221.406C325.885 236.203 306.316 239.591 291.977 235.821C282.317 233.463 276.585 228.149 273.288 221.811C280.261 226.179 292.504 230.812 311.897 228.96C312.67 228.886 313.472 228.74 314.294 228.53C322.763 226.892 329.014 224.373 333.552 221.406Z" fill="#FFE4D2"/>
<path d="M297.753 285.844C298.332 289.808 299.975 295.825 304.624 296.298L304.179 299.037C298.563 297.525 297.474 290.804 297.753 285.844Z" fill="#650000"/>
<path d="M306.233 285.465C306.57 288.67 308.809 296.428 313.116 294.927L313.874 297.596C307.407 298.665 305.867 290.27 306.233 285.465Z" fill="#650000"/>
<path d="M268.753 62.3055C257.964 73.5429 248.437 74.8337 248.437 74.8337C248.437 74.8337 248.425 94.7624 252.605 102.424C259.287 114.672 277.601 53.0902 268.753 62.3055Z" fill="#F87B38"/>
<path d="M254.697 105.428C253.755 105.428 252.44 105.012 251.391 103.089C247.091 95.2063 247.051 75.6604 247.051 74.8324C247.051 74.1381 247.564 73.5505 248.25 73.4577C248.338 73.4449 257.482 72.0422 267.755 61.3427C268.966 60.0811 270.086 59.6856 271.083 60.1676C272.448 60.8277 272.795 62.6768 272.278 66.5468C271.063 75.6629 262.512 104.026 255.292 105.372C255.119 105.403 254.917 105.428 254.695 105.428H254.697ZM249.833 75.9618C249.908 80.2388 250.413 95.5115 253.82 101.756C254.435 102.883 254.78 102.7 255.143 102.509C257.713 101.153 261.816 93.1447 265.352 82.5826C268.556 73.01 269.855 65.8207 269.749 63.2695C260.867 72.5191 252.817 75.2318 249.833 75.9618Z" fill="#650000"/>
<path d="M273.394 63.8965L298.671 51.7485L327.88 37.7157C317.776 20.4438 294.852 -1.32773 285.452 1.6444C283.671 2.21034 281.934 4.07095 280.336 6.92353C274.337 17.623 270.3 42.2013 273.394 63.8965Z" fill="#FFFEFF"/>
<path d="M273.394 63.8965L298.671 51.7485C296.5 36.5991 290.34 1.67111 280.336 6.92353C274.337 17.623 270.3 42.2013 273.394 63.8965Z" fill="#FFE4D2"/>
<g opacity="0.5">
<path d="M279.664 8.19785C280.827 6.64502 282.05 5.62251 283.288 5.22953C292.339 2.36295 313.905 22.4214 324.522 39.3296L327.879 37.7157C317.775 20.4438 294.851 -1.32773 285.451 1.6444C283.42 2.28665 281.441 4.63053 279.663 8.19785H279.664Z" fill="white"/>
</g>
<path d="M273.393 65.2852C272.716 65.2852 272.124 64.7854 272.025 64.0936C268.219 37.4219 275.149 3.45032 285.033 0.323027C295.551 -3.00775 319.205 20.1449 329.072 37.0137C329.459 37.675 329.237 38.5246 328.579 38.9125C327.919 39.2991 327.072 39.0791 326.685 38.4177C316.703 21.3518 294.28 0.311581 285.868 2.96959C278.754 5.22063 270.738 35.471 274.767 63.7006C274.875 64.4599 274.35 65.1619 273.593 65.2712C273.527 65.2801 273.461 65.2852 273.395 65.2852H273.393Z" fill="#650000"/>
<path d="M279.885 44.0568C285.706 39.1821 290.356 36.023 294.294 33.7745C297.745 31.8096 300.645 30.5493 303.305 29.4632C303.402 26.5623 289.893 7.0647 285.995 11.2145C284.829 12.4558 283.727 14.5071 282.763 17.0316C279.767 24.8517 278.078 37.2108 279.886 44.0568H279.885Z" fill="#9B4635"/>
<path d="M282.763 17.0329C284.241 15.887 286.378 14.6241 287.853 15.3986C290.366 16.7187 293.817 27.043 294.294 33.7745C297.745 31.8096 300.645 30.5493 303.305 29.4632C303.401 26.5623 289.893 7.0647 285.995 11.2145C284.829 12.4558 283.727 14.5071 282.763 17.0316V17.0329Z" fill="#873A2D"/>
<path d="M279.105 46.5177L278.549 44.4116C276.074 35.0564 279.684 15.9073 284.986 10.2619C285.583 9.62732 286.926 8.70529 289.222 9.6642C294.801 11.9954 304.795 26.3066 304.686 29.5102L304.656 30.4094L303.825 30.7489C298.013 33.1221 291.444 36.1858 280.774 45.1213L279.105 46.5177ZM287.001 12.1645C283.072 16.3474 279.438 32.0589 280.789 41.5145C290.097 33.9614 296.277 30.8927 301.691 28.6276C300.248 25.0349 292.353 13.7046 287.964 12.1518C287.251 11.9 287.076 12.0857 287.001 12.1645Z" fill="#650000"/>
<path d="M346.991 39.4771L369.36 77.1674L379.028 93.455C394.826 76.6905 405.653 52.6222 405.597 40.7731C405.585 38.3351 405.112 36.4185 404.13 35.1823C397.723 27.132 365.547 31.3263 346.991 39.4771Z" fill="#FFFEFF"/>
<path d="M369.36 77.1674L379.028 93.455C394.826 76.6905 405.653 52.6222 405.597 40.7731C403.86 36.7606 400.245 33.2264 393.315 42.6413C386.131 52.3907 375.462 68.0997 369.36 77.1674Z" fill="#FFE4D2"/>
<g opacity="0.5">
<path d="M346.991 39.4771L348.402 41.8515C367.244 34.6253 398.236 32.3972 403.11 37.0709C407.073 40.871 401.827 57.0836 396.04 69.594C404.227 54.4243 407.858 39.8625 404.13 35.1823C397.723 27.132 365.547 31.3263 346.991 39.4771Z" fill="white"/>
</g>
<path d="M379.027 94.8413C378.685 94.8413 378.344 94.7154 378.076 94.4623C377.521 93.9358 377.496 93.0582 378.021 92.4999C397.581 71.7458 407.903 42.1415 403.049 36.0459C397.292 28.8158 365.904 32.6859 347.545 40.7476C346.844 41.0554 346.027 40.7349 345.722 40.0329C345.415 39.3309 345.734 38.5119 346.435 38.2054C364.54 30.2555 398.075 25.349 405.213 34.315C411.945 42.7685 398.53 74.7803 380.033 94.4076C379.76 94.6963 379.393 94.8425 379.027 94.8425V94.8413Z" fill="#650000"/>
<path d="M365.966 40.8532C360.877 36.5737 354.431 32.8728 346.347 29.7188C286.455 6.34869 266.191 50.6395 258.328 74.5158C245.853 86.8087 237.733 122.829 302.551 142.652C366.636 161.377 389.85 122.862 391.122 120.653C384.467 105.463 387.031 87.5616 385.019 77.2272" fill="#F87B38"/>
<path d="M302.552 142.654C324.534 149.079 341.703 148.766 354.834 145.492C379.979 139.229 390.285 122.107 391.122 120.654C384.466 105.464 387.029 87.5654 385.018 77.2285C385.018 77.2285 383.185 66.3917 378.2 56.2976C375.243 50.3088 365.966 40.8557 365.966 40.8557C360.877 36.5749 354.43 32.8741 346.347 29.7214C286.455 6.34996 266.191 50.6395 258.329 74.5145C258.294 74.5476 258.26 74.5819 258.226 74.6201C245.807 87.0097 237.913 122.886 302.552 142.654Z" fill="#F87B38"/>
<path d="M249.745 96.1474C249.962 111.462 261.944 130.236 302.55 142.654C324.533 149.079 341.703 148.767 354.834 145.492C370.822 141.512 380.809 133.139 386.178 127.195C389.258 123.788 390.817 121.182 391.12 120.654C384.466 105.463 387.028 87.5654 385.018 77.2297C385.018 77.2297 383.185 66.3891 378.201 56.2976C375.241 50.3063 365.966 40.8557 365.966 40.8557C360.874 36.5749 354.43 32.8728 346.348 29.7214C286.455 6.35123 266.192 50.6408 258.327 74.5132C258.294 74.545 258.261 74.5819 258.227 74.6188C253.609 79.2264 249.617 87.0784 249.747 96.1461L249.745 96.1474Z" fill="#F87B38"/>
<path d="M249.745 96.1474C249.962 111.462 261.944 130.236 302.55 142.654C324.533 149.079 341.703 148.767 354.834 145.492C370.822 141.512 380.809 133.139 386.178 127.195C389.258 123.788 390.817 121.182 391.12 120.654C384.466 105.463 387.028 87.5654 385.018 77.2297C385.018 77.2297 383.185 66.3891 378.201 56.2976C375.241 50.3063 365.966 40.8557 365.966 40.8557C360.874 36.5749 354.43 32.8728 346.348 29.7214C286.455 6.35123 266.192 50.6408 258.327 74.5132C258.294 74.545 258.261 74.5819 258.227 74.6188C253.609 79.2264 249.617 87.0784 249.747 96.1461L249.745 96.1474Z" fill="#F87B38"/>
<path d="M383.89 125.115C378.599 130.972 369.135 138.74 354.09 142.487C341.806 145.551 327.82 145.394 312.523 142.022C309.551 141.367 306.486 140.578 303.415 139.68C259.759 126.33 252.984 106.646 252.834 96.1016C252.834 96.1016 256.498 123.882 306.64 136.861C361.673 151.105 383.891 125.115 383.891 125.115H383.89Z" fill="#EA5A1B"/>
<path d="M383.89 125.115C378.599 130.972 369.135 138.74 354.09 142.487C341.806 145.551 327.82 145.394 312.523 142.022C309.551 141.367 306.486 140.578 303.415 139.68C259.759 126.33 252.984 106.646 252.834 96.1016C252.834 96.1016 256.498 123.882 306.64 136.861C361.673 151.105 383.891 125.115 383.891 125.115H383.89Z" fill="#EA5A1B"/>
<path d="M273.375 126.445C263.81 120.254 258.546 113.797 255.752 108.017C255.785 106.927 255.933 105.854 256.195 104.809C258.319 108.598 261.756 113.255 267.287 118.009C268.41 120.797 270.41 123.643 273.375 126.445Z" fill="#8E381A"/>
<path d="M340.56 141.084C339.743 142.267 338.799 143.454 337.732 144.641C329.821 144.854 321.392 143.979 312.523 142.023C312.03 141.913 311.532 141.8 311.031 141.686C315.853 142.043 319.313 141.388 321.919 139.957C328.747 140.935 334.95 141.25 340.56 141.084Z" fill="#8E381A"/>
<path d="M364.358 136.892C363.391 138.082 362.333 139.211 361.225 140.279C358.999 141.112 356.623 141.856 354.09 142.486C341.806 145.551 327.821 145.396 312.524 142.022C309.55 141.365 306.486 140.579 303.414 139.68C259.758 126.33 252.983 106.645 252.833 96.1041C252.833 96.1041 256.496 123.883 306.641 136.862C333.045 143.694 351.895 141.269 364.36 136.894L364.358 136.892Z" fill="#F9D3B7"/>
<path d="M256.773 106.194C256.792 110.317 257.467 114.329 258.426 117.679C260.724 120.386 263.543 123.071 266.959 125.695C265.078 121.233 264.428 117.292 264.62 113.824C261.661 111.4 259.058 108.846 256.773 106.194Z" fill="#A82B26"/>
<path d="M302.551 142.654C324.534 149.079 341.703 148.766 354.833 145.492C363.455 139.458 372.331 130.052 369.543 117.946C363.618 92.2494 334.012 111.696 321.759 106.025C312.154 101.583 310.264 93.5237 298.393 90.5325C290.456 88.5333 288.826 92.7466 281.013 92.2901C271.683 91.7458 264.826 77.0034 258.224 74.6188C245.806 87.0084 237.912 122.885 302.55 142.652L302.551 142.654Z" fill="#FFFEFF"/>
<path d="M364.358 136.892C363.391 138.082 362.333 139.211 361.225 140.279C358.999 141.112 356.623 141.856 354.09 142.486C341.806 145.551 327.821 145.396 312.524 142.022C309.55 141.365 306.486 140.579 303.414 139.68C259.758 126.33 252.983 106.645 252.833 96.1041C252.833 96.1041 256.496 123.883 306.641 136.862C333.045 143.694 351.895 141.269 364.36 136.894L364.358 136.892Z" fill="#FFE4D2"/>
<path d="M293.315 138.354C293.107 138.531 292.895 138.702 292.686 138.869C292.558 138.972 292.43 139.071 292.304 139.166C275.68 132.871 264.964 125.388 258.445 117.701C258.44 117.691 258.432 117.685 258.426 117.677C249.685 103.408 263.333 86.52 284.064 92.2278C276.559 93.8658 269.797 97.3886 266.622 109.179C264.317 117.748 270.818 128.182 289.519 136.713C290.734 137.268 291.999 137.816 293.317 138.352L293.315 138.354Z" fill="#9B4635"/>
<path d="M334.626 147.765V147.769C325.307 147.69 314.659 146.194 302.55 142.652C299.594 141.748 296.794 140.811 294.136 139.844C293.625 139.498 293.138 139.173 292.686 138.868C291.245 137.89 290.13 137.134 289.517 136.713C289.177 136.477 288.991 136.344 288.992 136.341C317.729 146.195 324.464 141.527 328.707 131.321C333.951 118.701 322.843 109.521 315.867 102.266C345.383 113.241 353.222 130.695 334.627 147.765H334.626Z" fill="#9B4635"/>
<path d="M273.375 126.445C263.81 120.254 258.546 113.797 255.752 108.017C255.785 106.927 255.933 105.854 256.195 104.809C258.319 108.598 261.756 113.255 267.287 118.009C268.41 120.797 270.41 123.643 273.375 126.445Z" fill="#873A2D"/>
<path d="M340.56 141.084C339.743 142.267 338.799 143.454 337.732 144.641C329.821 144.854 321.392 143.979 312.523 142.023C312.03 141.913 311.532 141.8 311.031 141.686C315.853 142.043 319.313 141.388 321.919 139.957C328.747 140.935 334.95 141.25 340.56 141.084Z" fill="#873A2D"/>
<path d="M365.966 40.8532C342.265 27.0176 309.306 16.0778 285.272 34.7003C272.358 44.6253 264.894 59.842 259.643 74.9482C259.573 75.1631 259.447 75.3551 259.298 75.5052C257.926 76.8647 256.723 78.4188 255.679 80.0721C250.353 88.3705 249.675 99.3192 253.958 108.219C264.378 130.568 300.384 142.665 323.356 145.596C332.341 146.719 341.572 146.679 350.481 145.013C366.099 142.081 381.264 133.562 389.922 119.96C389.922 119.958 389.853 121.213 389.853 121.212C388.185 117.798 387.077 114.142 386.326 110.456C383.985 99.4934 385.363 88.3107 385.018 77.2272C387.31 84.4572 387.186 94.3275 388.213 101.811C388.521 104.458 388.918 107.205 389.464 109.814C390.172 113.326 391.135 116.759 392.387 120.094C392.562 120.504 392.54 120.984 392.318 121.346C383.261 135.679 367.364 144.663 350.994 147.738C340.767 149.669 330.2 149.461 319.935 147.942C299.218 144.611 273.107 135.585 258.559 119.89C249.591 110.363 245.581 96.8596 250.475 84.3389C251.994 80.3087 254.306 76.5888 257.356 73.5238L257.012 74.0783C262.196 57.5605 270.476 40.8494 284.95 30.6256C302.184 18.1584 325.027 19.9592 343.943 27.2948C352.059 30.2224 360.301 34.1064 365.963 40.8506L365.966 40.8532Z" fill="#650000"/>
<path d="M372.878 47.3596C376.458 52.6616 380.541 59.2774 384.745 73.3012C385.331 72.8154 385.922 72.252 386.502 71.6212C390.584 67.2412 394.507 59.7212 396.65 53.0877C397.986 48.9595 398.636 45.1785 398.206 42.7074C397.213 36.9781 374.447 44.9229 372.878 47.3609V47.3596Z" fill="#9B4635"/>
<path d="M372.878 47.3596C376.458 52.6616 380.541 59.2774 384.745 73.3012C385.331 72.8154 385.922 72.252 386.502 71.6212C387.324 66.6498 385.061 60.3151 384.784 55.8245C384.211 46.5062 392.166 43.1882 394.313 44.7728C395.586 45.7126 396.37 50.8519 396.65 53.0877C397.986 48.9595 398.636 45.1785 398.206 42.7074C397.213 36.9781 374.447 44.9229 372.878 47.3609V47.3596Z" fill="#873A2D"/>
<path d="M384.745 74.6887C384.611 74.6887 384.476 74.6697 384.344 74.629C383.9 74.4941 383.553 74.1457 383.419 73.7006C379.313 59.9985 375.396 53.5595 371.735 48.1392C371.424 47.6788 371.418 47.076 371.719 46.6092C373.476 43.8762 389.884 38.2104 396.155 39.486C398.771 40.0189 399.419 41.5845 399.573 42.4696C400.926 50.2719 393.107 68.1594 385.629 74.3695C385.378 74.5781 385.065 74.6887 384.746 74.6887H384.745ZM374.715 47.6101C378.099 52.7125 381.687 58.9404 385.416 70.7691C391.99 63.857 397.849 48.7331 396.844 42.9453C396.825 42.8384 396.769 42.5116 395.883 42.2712C391.235 41.0147 378.088 45.527 374.715 47.6101Z" fill="#650000"/>
<path d="M346.867 60.188C346.867 60.188 342.85 47.8479 337.668 48.363C332.486 48.8794 331.622 54.1865 333.94 56.524C337.306 59.9196 346.866 60.1867 346.866 60.1867L346.867 60.188Z" fill="#FFF3E9"/>
<path d="M286.678 41.7803C286.678 41.7803 294.584 33.5825 298.479 35.9874C302.374 38.3923 301.021 42.9173 298.293 43.8711C294.331 45.2561 286.678 41.7803 286.678 41.7803Z" fill="#FFF3E9"/>
<path d="M289.756 89.8139C288.868 92.5673 291.144 95.9922 293.025 98.2178C294.328 99.7592 296.393 100.429 298.349 99.9449C301.174 99.2454 305.02 97.8058 305.908 95.0524C307.351 90.5808 291.198 85.3411 289.756 89.8139Z" fill="#650000"/>
<g opacity="0.35">
<path d="M293.899 90.0886C293.734 90.5973 294.722 91.4151 295.505 91.9683C296.047 92.3511 296.811 92.5991 297.475 92.6067C298.432 92.6182 299.71 92.5355 299.875 92.0268C300.141 91.2002 294.165 89.2607 293.899 90.0886Z" fill="white"/>
</g>
<path d="M367.658 42.6362C357.437 29.7913 349.46 27.4589 335.895 16.528C332.51 13.8 327.122 7.43098 327.122 7.43098C327.122 7.43098 323.279 14.282 323.054 18.9405C314.097 15.7814 309.671 18.732 297.061 14.9103C298.207 19.2369 301.501 25.569 308.591 27.2732" fill="#F87B38"/>
<path d="M367.658 42.6362C364.49 39.411 361.216 36.3702 357.685 33.6918C354.685 31.353 349.862 28.3097 346.623 26.1833C340.986 22.4176 335.087 18.6162 330.504 13.5202C328.973 11.8224 327.478 10.131 326.066 8.32758L328.328 8.1101C327.399 9.81937 326.53 11.6711 325.829 13.4973C325.16 15.2587 324.555 17.1651 324.434 19.0067C324.399 19.7774 323.739 20.3713 322.972 20.3255C320.833 19.6998 318.717 19.0435 316.477 18.8579C312.174 18.4369 307.589 18.6353 303.245 17.8137C301.011 17.4258 298.819 16.8701 296.659 16.238L298.397 14.5542C300.369 20.0915 302.815 24.928 308.588 27.2732C302.341 26.7594 296.875 21.3836 295.72 15.2664C295.461 14.2502 296.456 13.2773 297.459 13.5825C301.594 14.8289 305.777 15.5856 310.103 15.7331C312.266 15.8323 314.501 15.8501 316.781 16.1007C319.062 16.3372 321.348 16.8637 323.511 17.6319L321.669 18.8744C321.914 15.5602 323.144 12.5537 324.485 9.58918C324.934 8.63026 325.388 7.70822 325.914 6.75185C326.356 5.90739 327.582 5.79675 328.175 6.53437C331.18 9.72271 334.106 13.0662 337.542 15.7916C344.516 21.5082 352.235 26.0752 358.939 32.195C362.273 35.3197 365.217 38.8323 367.654 42.6375L367.658 42.6362Z" fill="#650000"/>
<path d="M294.452 99.2925C294.201 101.397 295.2 103.754 295.396 103.793C295.526 103.82 296.057 101.283 297.16 99.95" fill="#650000"/>
<path d="M313.953 128.408C320.859 127.751 326.647 123.052 324.37 116.712C321.319 109.992 315.183 114.471 304.854 111.32C298.715 109.446 297.12 106.641 293.92 108.163C291 109.553 289.548 115.237 292.799 119.969C296.58 125.473 305.447 129.217 313.953 128.408Z" fill="#5E3519"/>
<path d="M314.446 128.354C314.283 128.373 314.119 128.392 313.953 128.407C307.768 128.995 301.393 127.179 296.92 124.022C295.243 122.841 293.83 121.471 292.799 119.966C289.552 115.238 291.004 109.553 293.923 108.163C295.382 107.466 296.509 107.672 297.888 108.281C299.527 109.008 301.52 110.302 304.858 111.32C310.149 112.936 314.339 112.546 317.58 112.689C320.665 112.82 322.885 113.435 324.371 116.713C326.597 122.9 321.136 127.523 314.449 128.354H314.446Z" fill="#650000"/>
<path d="M303.076 115.08C298.149 113.183 297.544 110.557 297.886 108.283C299.525 109.009 301.518 110.303 304.855 111.321C310.146 112.937 314.336 112.547 317.577 112.691C317.327 117.471 310.848 118.069 303.076 115.08Z" fill="white"/>
<path d="M314.446 128.354C314.283 128.373 314.119 128.392 313.953 128.407C307.768 128.995 301.393 127.179 296.92 124.022C299.501 121.62 303.942 120.986 307.383 123.408C310.676 122.454 313.45 124.53 314.26 127.72C314.333 127.942 314.392 128.152 314.448 128.354H314.446Z" fill="#F28475"/>
<path d="M307.134 120.644C307.134 120.644 309.844 123.132 308.88 123.176C307.739 123.23 305.629 123.965 305.021 125.059C305.021 125.059 305.23 122.397 307.134 120.644Z" fill="#650000"/>
<path d="M311.615 129.559C303.665 129.559 295.668 125.981 291.944 120.559C290.093 117.865 289.458 114.507 290.242 111.575C290.791 109.525 291.969 107.939 293.475 107.222C295.897 106.07 297.654 106.966 299.881 108.102C301.212 108.78 302.867 109.624 305.156 110.324C309.182 111.552 312.481 111.58 315.393 111.605C319.766 111.641 323.219 111.669 325.314 116.281L325.345 116.36C326.293 118.999 326.047 121.575 324.632 123.81C322.682 126.894 318.725 129 314.049 129.445C313.241 129.523 312.427 129.559 311.614 129.559H311.615ZM295.695 108.765C295.265 108.765 294.848 108.874 294.366 109.104C293.424 109.552 292.633 110.679 292.247 112.116C291.618 114.466 292.143 117.181 293.654 119.379C297.3 124.685 305.985 128.122 313.855 127.373C317.837 126.994 321.295 125.202 322.881 122.696C323.946 121.012 324.124 119.131 323.407 117.106C321.862 113.741 319.553 113.722 315.376 113.688C312.475 113.664 308.865 113.633 304.552 112.317C302.088 111.565 300.343 110.675 298.94 109.959C297.427 109.187 296.537 108.765 295.695 108.765Z" fill="#650000"/>
<path d="M314.941 98.172C326.349 85.6222 343.786 82.2113 346.821 100.642L314.941 98.172Z" fill="#F87B38"/>
<path d="M314.941 98.172C318.556 91.6097 324.938 86.4476 332.675 85.4568C339.206 84.634 345.194 88.5523 346.587 95.0536C347.013 96.9257 347.093 98.8067 346.821 100.642C345.236 97.6443 343.666 94.5755 341.122 92.5406C333.348 86.487 322.112 93.5962 314.942 98.172H314.941Z" fill="#650000"/>
<path d="M287.976 88.4112C286.107 68.686 276.787 66.9487 268.247 77.3836L287.976 88.4112Z" fill="#F87B38"/>
<path d="M287.976 88.4112C285.87 83.5237 284.811 78.1429 280.985 74.4662C278.266 72.1083 274.827 73.7374 271.971 75.2648C270.775 75.9096 269.579 76.6625 268.246 77.3836C268.702 75.9363 269.425 74.6226 270.336 73.4042C273.452 69.0319 279.622 67.0161 283.942 71.1481C288.405 75.6502 288.963 82.5025 287.976 88.4124V88.4112Z" fill="#650000"/>
<path d="M442.549 144.317C441.869 151.78 433.157 159.774 423.208 157.443C417.98 156.133 412.9 152.328 409.039 153.338C403.33 154.19 355.996 182.089 347.541 187.092C346.707 187.588 346.252 187.858 346.252 187.858L330.529 149.334C331.899 148.964 333.271 148.552 334.648 148.097C355.547 141.2 377.351 125.143 405.088 117.672C413.946 115.618 427.409 111.121 430.674 116.232C432.306 118.78 431.504 120.922 429.967 122.693C429.294 123.469 428.482 124.175 427.671 124.811C428.877 125.457 434.17 127.79 438.118 132.106C439.191 133.279 440.164 134.601 440.93 136.075C441.467 137.112 441.902 138.224 442.195 139.412C442.568 140.921 442.711 142.553 442.55 144.317H442.549Z" fill="#F87B38"/>
<path d="M442.549 144.317C441.87 151.78 433.158 159.773 423.209 157.442C419.198 156.436 415.267 153.958 411.913 153.321C410.898 153.13 409.938 153.105 409.04 153.339C403.331 154.19 355.997 182.09 347.542 187.093C346.707 187.589 346.252 187.859 346.252 187.859L330.527 149.334C331.895 148.962 333.27 148.551 334.645 148.098C355.544 141.199 377.351 125.144 405.084 117.675C405.275 117.633 405.466 117.586 405.66 117.54C414.517 115.431 427.478 111.233 430.673 116.233C432.302 118.78 431.5 120.924 429.966 122.696C429.292 123.468 428.482 124.177 427.669 124.811C428.874 125.459 434.169 127.79 438.117 132.107C439.191 133.279 440.163 134.601 440.93 136.076C441.464 137.114 441.902 138.223 442.192 139.414C442.567 140.924 442.709 142.554 442.549 144.318V144.317Z" fill="#F87B38"/>
<g opacity="0.4">
<path d="M429.965 122.693C430.367 121.56 430.06 117.996 428.581 117.076C425.286 115.023 413.014 118.002 402.124 121.281C386.094 126.117 373.841 133.744 354.788 141.78C344.56 146.095 338.347 147.649 334.645 148.097C355.544 141.2 377.348 125.143 405.086 117.672C413.944 115.618 427.407 111.121 430.672 116.232C432.303 118.78 431.501 120.922 429.964 122.693H429.965Z" fill="white"/>
</g>
<path d="M442.549 144.317C441.869 151.78 433.157 159.774 423.208 157.443C417.98 156.133 412.9 152.328 409.039 153.338C403.33 154.19 355.996 182.089 347.541 187.092C348.692 178.989 403.446 148.157 409.851 147.661C416.12 147.179 423.024 155.235 433.753 151.186C440.155 148.768 441.807 143.01 442.194 139.412C442.567 140.921 442.71 142.553 442.549 144.317Z" fill="#EA5A1B"/>
<path d="M442.549 144.317C441.87 151.78 433.158 159.773 423.209 157.442C423.082 157.41 422.958 157.378 422.835 157.343C422.708 157.311 422.584 157.271 422.457 157.236C422.34 157.2 422.22 157.165 422.101 157.129C421.447 156.923 420.797 156.686 420.15 156.431C419.827 156.306 419.506 156.175 419.188 156.044C418.679 155.832 418.173 155.612 417.672 155.396C417.435 155.292 417.195 155.189 416.958 155.088C415.767 154.574 414.607 154.084 413.497 153.735C413.395 153.699 413.296 153.667 413.197 153.639C413.088 153.607 412.977 153.576 412.872 153.548C412.547 153.456 412.229 153.381 411.914 153.321C410.108 152.141 408.267 150.554 406.55 148.683C408.069 148.07 409.207 147.713 409.85 147.663C416.121 147.181 423.023 155.235 433.753 151.186C440.158 148.77 441.808 143.011 442.193 139.414C442.567 140.924 442.709 142.554 442.549 144.318V144.317Z" fill="#FFE4D2"/>
<path d="M442.549 144.317C441.87 151.78 433.158 159.773 423.209 157.442C419.198 156.436 415.267 153.958 411.913 153.321C401.986 146.836 390.912 127.971 405.661 117.54C414.517 115.431 427.478 111.233 430.673 116.233C432.302 118.78 431.5 120.924 429.967 122.696C429.292 123.468 428.483 124.177 427.669 124.811C428.875 125.459 434.169 127.79 438.117 132.107C439.191 133.279 440.163 134.601 440.93 136.076C441.465 137.114 441.902 138.223 442.193 139.414C442.567 140.924 442.709 142.554 442.549 144.318V144.317Z" fill="#FFFEFF"/>
<path d="M442.549 144.317C441.87 151.78 433.158 159.773 423.209 157.442C423.082 157.41 422.958 157.378 422.835 157.343C422.708 157.311 422.584 157.271 422.457 157.236C422.34 157.2 422.22 157.165 422.101 157.129C421.447 156.923 420.797 156.686 420.15 156.431C419.827 156.306 419.506 156.175 419.188 156.044C418.679 155.832 418.173 155.612 417.672 155.396C417.435 155.292 417.195 155.189 416.958 155.088C415.767 154.574 414.607 154.084 413.497 153.735C413.399 153.699 413.296 153.667 413.197 153.639C413.088 153.607 412.977 153.576 412.872 153.548C412.547 153.456 412.229 153.381 411.914 153.321C410.108 152.141 408.267 150.554 406.55 148.683C408.069 148.07 409.207 147.713 409.85 147.663C416.121 147.181 423.023 155.235 433.753 151.186C440.158 148.77 441.808 143.011 442.193 139.414C442.567 140.924 442.709 142.554 442.549 144.318V144.317Z" fill="#FFE4D2"/>
<path d="M411.788 128.682C414.585 123.063 424.394 126.086 427.044 130.749C430.006 135.96 421.72 140.691 416.928 138.857C412.808 137.28 409.99 132.295 411.788 128.682Z" fill="#FF999E"/>
<path d="M422.962 145.034C423.496 142.937 428.344 142.993 429.722 145.638C431.08 148.246 428.282 149.725 426.16 149.352C423.78 148.935 422.621 146.372 422.961 145.034H422.962Z" fill="#FF999E"/>
<path d="M430.34 139.628C431.163 137.628 435.965 137.725 437.064 140.542C438.132 143.282 435.624 144.629 433.502 144.256C431.122 143.839 429.714 141.147 430.338 139.628H430.34Z" fill="#FF999E"/>
<path d="M440.929 136.075C440.385 137.315 438.622 137.923 437.173 137.668C434.793 137.252 433.465 134.835 433.802 133.497C434.14 132.177 436.256 131.651 438.117 132.107C439.19 133.281 440.163 134.602 440.929 136.076V136.075Z" fill="#FF999E"/>
<path d="M422.903 123.816L427.951 123.451L427.386 126.169L422.903 123.816Z" fill="#650000"/>
<path d="M346.251 187.858C350.43 183.486 355.889 180.598 360.967 177.49C373.821 169.814 386.853 162.449 400.188 155.63C403.078 154.26 405.646 152.744 408.832 151.95C409.801 151.615 412.377 151.847 413.575 152.311C420.591 154.69 425.123 158.525 432.684 155.13C437.232 153.016 441.063 148.496 441.221 143.33C441.533 134.947 433.88 129.287 427.016 126.035C426.135 125.613 426.017 124.327 426.786 123.741C427.711 123.014 428.584 122.242 429.222 121.41C431.305 118.915 429.722 115.743 426.568 115.426C424.352 115.074 421.94 115.366 419.681 115.719C414.905 116.5 410.165 117.924 405.433 119.047C388 123.735 371.234 133.047 355.063 140.947C347.286 144.681 339.203 148.443 330.527 149.334C338.511 145.633 349.346 140.602 357.022 136.594C371.238 129.243 385.738 121.831 401.151 117.336C404.601 116.299 408.433 115.399 411.915 114.537C416.841 113.428 421.89 111.994 427.026 112.689C430.177 113.045 432.808 115.51 432.949 118.805C433.068 121.835 430.668 124.238 428.52 125.904L428.32 123.587C433.32 126.02 438.567 129.364 441.704 134.62C444.055 138.547 444.755 143.657 443.074 147.977C441.427 152.245 437.968 155.74 433.839 157.652C427.771 160.448 422.313 159.169 416.556 156.429C414.271 155.492 411.591 154.138 409.244 154.727C403.9 156.538 398.643 159.756 393.618 162.409C383.182 168.192 372.864 174.215 362.461 180.07C357.259 182.942 352.085 186.296 346.251 187.859V187.858Z" fill="#650000"/>
<path d="M230.971 101.405C231.095 107.677 229.184 113.854 225.369 118.829C207.599 141.988 181.177 156.625 153.02 167.622L150.859 165.308L131.7 144.774C157.431 136.703 179.252 119.581 198.74 97.0707C200.092 95.5077 201.004 93.614 201.438 91.5868C203.637 81.2829 206.269 72.9757 210.958 69.6589C213.546 67.839 217.06 68.4876 218.927 71.0515C221.75 74.9215 223.206 81.5105 224.331 88.7558C225.654 86.9359 227.014 86.0876 228.404 86.1614C229.845 86.2352 230.911 87.5769 230.845 89.0216C230.787 90.4956 230.771 91.948 230.787 93.3698C230.802 96.1779 230.926 98.8753 230.971 101.404V101.405Z" fill="#5F5F82"/>
<g opacity="0.2">
<path d="M230.971 101.405C231.095 107.677 229.185 113.854 225.369 118.829C207.6 141.988 181.178 156.625 153.02 167.622L150.859 165.308C150.859 163.76 150.991 162.197 151.204 160.701C151.601 157.872 152.424 154.746 154.88 153.295L156.726 152.483C169.12 149.182 180.339 142.533 191.294 135.847C200.844 130.017 210.46 124.003 218.158 115.88C224.135 109.571 228.913 101.788 230.788 93.3698C230.803 96.1779 230.928 98.8753 230.972 101.404L230.971 101.405Z" fill="#000072"/>
</g>
<path d="M153.02 169.273C152.574 169.273 152.135 169.09 151.818 168.75L130.498 145.902C130.111 145.487 129.964 144.902 130.108 144.354C130.253 143.806 130.668 143.37 131.208 143.2C154.691 135.832 176.375 120.39 197.497 95.9897C198.642 94.667 199.448 93.0277 199.827 91.2472C201.88 81.6212 204.533 72.1808 210.012 68.3159C213.331 65.9758 217.833 66.7516 220.261 70.0811C222.945 73.7616 224.423 79.6207 225.44 85.3716C226.412 84.7472 227.431 84.461 228.492 84.517C230.802 84.6391 232.597 86.6943 232.493 89.0979C232.355 92.2634 232.447 95.3169 232.536 98.2687C232.568 99.3281 232.599 100.365 232.618 101.373C232.749 108.11 230.637 114.666 226.673 119.834C211.131 140.095 187.917 155.768 153.616 169.161C153.422 169.237 153.219 169.274 153.019 169.274L153.02 169.273ZM134.669 145.541L153.459 165.679C186.609 152.604 209.06 137.382 224.064 117.822C227.574 113.246 229.443 107.427 229.327 101.437C229.308 100.44 229.276 99.4158 229.245 98.3679C229.154 95.355 229.06 92.2405 229.204 88.9529C229.229 88.3717 228.815 87.8376 228.318 87.8122C227.307 87.7587 226.319 88.8258 225.661 89.7313C225.269 90.2705 224.59 90.5198 223.943 90.3621C223.296 90.2044 222.806 89.6715 222.704 89.0127C221.729 82.7378 220.361 75.813 217.602 72.0294C216.242 70.165 213.74 69.7199 211.905 71.0146C207.341 74.2334 204.865 83.3978 203.044 91.9365C202.549 94.2613 201.49 96.4106 199.981 98.153C179.186 122.173 157.796 137.699 134.666 145.541H134.669Z" fill="#00046A"/>
<path d="M227.487 88.3234C224.501 91.0323 222.607 94.6836 221.373 98.5078C221.243 98.8982 220.821 99.1081 220.433 98.9771C220.101 98.8652 219.9 98.5421 219.928 98.2076C220.115 96.0189 220.517 93.8073 221.274 91.6478C222.028 89.4922 223.155 87.3912 224.688 85.5446C226.593 83.4411 229.567 86.3827 227.487 88.3234Z" fill="#00046A"/>
<path d="M106.632 223.545C106.632 223.545 97.7407 234.656 87.8412 233.639C78.184 232.646 74.7146 221.812 77.447 215.345C80.461 208.21 90.1588 205.903 95.7948 212.96" fill="#777782"/>
<path d="M106.632 223.543C106.632 223.543 97.7434 234.656 87.8426 233.639C81.2273 232.957 77.5131 227.66 76.7114 222.312C76.3422 219.853 76.5845 217.38 77.4458 215.343C79.9968 209.303 87.339 206.723 92.9522 210.354C93.9695 211.013 94.9311 211.876 95.7937 212.96L106.632 223.545V223.543Z" fill="#5F5F82"/>
<g opacity="0.3">
<path d="M91.1725 212.492C91.4034 211.932 88.8892 210.971 87.3517 210.971C83.9585 210.971 80.8937 213.036 79.5428 216.235C78.8578 217.856 78.821 220.325 79.3728 220.397C80.0844 220.489 80.4092 216.541 84.4037 214.116C87.5775 212.189 90.8706 213.223 91.1725 212.492Z" fill="white"/>
</g>
<g opacity="0.2">
<path d="M106.632 223.544C106.632 223.544 97.7434 234.656 87.8427 233.639C81.2273 232.957 77.5131 227.66 76.7114 222.312C78.5558 224.295 81.2895 225.926 85.005 224.945C91.3374 223.274 90.6918 212.711 92.951 210.353C93.9683 211.011 94.9299 211.875 95.7925 212.959L106.631 223.544H106.632Z" fill="#000072"/>
</g>
<path d="M89.1429 235.137C88.6634 235.137 88.1814 235.113 87.6955 235.063C83.3039 234.612 79.6315 232.237 77.3546 228.378C74.8886 224.197 74.4078 218.862 76.1304 214.785C77.8163 210.795 81.4963 207.952 85.7344 207.365C89.9801 206.776 94.0559 208.49 96.91 212.063C97.4035 212.681 97.3033 213.583 96.6868 214.078C96.0703 214.572 95.1722 214.473 94.6774 213.854C92.4689 211.086 89.3522 209.756 86.1238 210.204C82.8777 210.654 80.0565 212.836 78.7613 215.903C77.4015 219.12 77.8252 223.547 79.8142 226.919C81.0903 229.081 83.5424 231.755 87.986 232.212C97.0077 233.14 105.432 222.752 105.516 222.647C106.01 222.03 106.908 221.931 107.525 222.426C108.14 222.92 108.239 223.823 107.746 224.44C107.38 224.897 99.0665 235.136 89.1416 235.136L89.1429 235.137Z" fill="#000072"/>
<path d="M96.7032 234.266C93.5141 229.371 86.5436 226.549 80.9584 228.899C74.4458 231.64 71.1172 242.258 70.2445 245.847C66.8651 259.728 71.1933 267.092 80.5321 267.949C90.7538 269.148 92.1771 260.698 92.7746 256.588L96.7032 234.266Z" fill="#5F5F82"/>
<g opacity="0.2">
<path d="M82.4211 265.324C86.115 265.324 87.9873 263.603 89.058 260.628C89.5134 259.364 87.7768 260.698 87.7768 260.698C87.4064 261.177 71.4763 265.808 72.8983 246.496C71.2353 253.331 71.5271 258.589 73.7444 261.701C75.1982 263.74 77.5652 264.926 80.7796 265.22L80.8481 265.227C81.3961 265.291 81.9251 265.324 82.4198 265.324H82.4211Z" fill="#000072"/>
</g>
<path d="M82.4143 269.495C81.7674 269.495 81.0862 269.456 80.3644 269.371C75.9246 268.964 72.5452 267.197 70.3558 264.125C67.3722 259.935 66.8661 253.671 68.8539 245.507C69.445 243.075 72.7837 230.784 80.4037 227.578C86.3112 225.093 94.1582 227.74 97.8978 233.482L95.5041 235.049C92.4825 230.411 86.2046 228.245 81.5099 230.22C75.0201 232.951 71.9579 244.839 71.6306 246.186C69.8737 253.401 70.2378 259.029 72.6822 262.46C74.3656 264.824 77.0497 266.19 80.6599 266.522C88.6326 267.457 90.5125 262.2 91.3586 256.381L94.1874 256.794C93.7155 260.036 92.3392 269.495 82.4143 269.497V269.495Z" fill="#000072"/>
<path d="M88.0481 258.157C88.586 263.384 86.3458 268.97 80.4434 269.373V266.508C85.2028 267.27 87.6536 262.223 88.0481 258.159V258.157Z" fill="#000072"/>
<path d="M82.4663 256.816C82.3217 261.694 79.9077 267.803 74.0586 267.35L74.4747 264.515C78.9754 265.779 81.5149 260.445 82.4663 256.817V256.816Z" fill="#000072"/>
<path d="M107.553 151.954C108.035 152.116 108.537 152.269 109.066 152.42C126.139 157.266 140.424 154.434 151.541 148.453C147.171 144.035 140.031 139.324 129.446 139.324C120.768 139.324 113.261 145.253 107.553 151.954Z" fill="#5F5F82"/>
<path d="M132.122 228.984C131.381 244.941 122.954 257.786 119.991 270.324C118.283 277.196 117.159 299.289 136.05 298.548C150.528 298.034 148.336 280.558 148.465 277.373C150.528 274.704 170.9 249.109 174.031 212.806L132.12 228.984H132.122Z" fill="#C97043"/>
<path d="M136.051 298.546C141.156 298.364 144.186 296.077 145.976 293.045C149.269 287.486 148.381 279.432 148.466 277.37C150.188 275.143 164.684 256.917 171.237 229.816C172.532 224.472 173.516 218.783 174.032 212.806L132.12 228.984C131.379 244.94 122.954 257.785 119.99 270.324C118.282 277.196 117.158 299.289 136.049 298.546H136.051Z" fill="#5F5F82"/>
<g opacity="0.2">
<path d="M133.617 275.763C133.958 277.389 144.635 278.31 144.785 276.32C144.892 274.9 143.664 272.268 141.667 271.905C138.834 271.391 133.233 273.936 133.617 275.764V275.763Z" fill="#000072"/>
</g>
<g opacity="0.2">
<path d="M136.051 298.546C141.156 298.364 144.186 296.077 145.976 293.045C143.564 294.121 140.226 295.039 136.051 294.837C125.461 294.323 121.729 284.372 122.955 274.627C124.493 262.409 130.755 252.447 132.747 250.879C136.187 248.166 155.963 250.66 171.239 229.816C172.534 224.472 173.517 218.783 174.033 212.806L132.122 228.984C131.381 244.94 122.955 257.785 119.992 270.324C118.283 277.196 117.159 299.289 136.05 298.546H136.051Z" fill="#000072"/>
</g>
<path d="M135.123 300C129.643 300 125.342 298.123 122.332 294.413C116.179 286.831 117.555 274.205 118.605 269.98C119.736 265.197 121.614 260.45 123.603 255.427C126.867 247.183 130.243 238.657 130.694 228.919L133.55 229.052C133.075 239.269 129.611 248.02 126.26 256.484C124.31 261.408 122.468 266.06 121.382 270.656C120.489 274.253 119.162 285.966 124.548 292.605C127.139 295.796 130.992 297.313 135.994 297.117C146.198 296.754 147.264 287.188 147.052 278.895C147.035 278.231 147.021 277.706 147.038 277.315L147.057 276.858L147.479 276.312C152.662 269.636 169.793 245.323 172.609 212.684L175.456 212.931C172.601 246.032 155.375 270.763 149.891 277.871C149.893 278.138 149.902 278.465 149.911 278.821C150.042 283.929 150.437 299.472 136.103 299.981C135.773 299.994 135.447 300 135.125 300H135.123Z" fill="#000072"/>
<path d="M96.3061 229.642C96.3061 229.642 102.141 245.254 128.364 245.254C154.587 245.254 161.392 238.489 161.392 238.489C168.297 232.443 172.352 225.558 174.372 218.352C178.325 204.243 174.457 188.911 168.82 176.296C165.103 167.986 160.616 160.851 157.097 156.028C157.097 156.028 139.396 138.597 126.693 137.891C113.987 137.185 95.7632 170.616 95.7632 170.616C95.271 176.553 94.6875 183.18 93.9695 190.165C93.3239 196.423 92.5691 202.965 91.6735 209.559C91.5568 210.405 91.4579 211.252 91.3894 212.101C90.9619 217.363 91.6456 222.761 96.3061 229.643V229.642Z" fill="white"/>
<path d="M93.9683 190.163C102.018 194.557 138.349 179.942 168.82 176.293C165.103 167.984 160.616 160.849 157.097 156.025C157.097 156.025 139.437 133.198 126.734 132.492C114.027 131.786 95.7632 170.614 95.7632 170.614C95.271 176.55 94.6875 183.177 93.9695 190.162L93.9683 190.163Z" fill="#5F5F82"/>
<g opacity="0.2">
<path d="M96.3047 229.642C96.3047 229.642 102.14 245.254 128.363 245.254C154.585 245.254 161.391 238.489 161.391 238.489C168.296 232.443 172.351 225.558 174.37 218.352C171.792 221.384 159.177 233.958 129.585 231.132C120.367 230.252 107.403 218.867 99.5813 214.06C95.2645 204.621 98.607 190.94 94.851 189.849C94.851 189.849 93.0611 214.439 91.3879 212.1C90.9604 217.361 91.6441 222.76 96.3047 229.642Z" fill="#000072"/>
</g>
<g opacity="0.2">
<path d="M107.553 151.954C108.035 152.116 108.537 152.269 109.066 152.42C126.139 157.266 151.383 156.025 159.084 139.165C154.714 134.747 140.032 139.324 129.446 139.324C120.768 139.324 113.261 145.253 107.553 151.954Z" fill="#000072"/>
</g>
<path d="M95.7605 170.615C96.136 175.676 96.0599 180.724 95.848 185.779C95.6209 190.819 94.7634 195.797 94.2243 200.808C92.9697 212.034 90.4885 218.641 97.4857 228.835C98.5043 230.406 96.226 231.993 95.1211 230.445C87.6699 219.465 89.9532 212.549 91.3854 200.467C92.0386 195.491 92.2416 190.467 92.9862 185.5C93.7524 180.509 94.5541 175.537 95.7605 170.615Z" fill="#000072"/>
<path d="M161.39 238.489C168.949 230.267 174.103 219.849 174.283 208.58C174.747 189.686 166.361 172.08 157.095 156.025C162.128 161.747 166.302 168.234 169.701 175.116C180.255 196.115 182.66 223.448 161.39 238.488V238.489Z" fill="#000072"/>
<path d="M82.4678 248.936C83.9469 262.209 95.0096 264.778 102.852 262.921C112.332 260.682 116.497 251.936 119.505 244.856L119.508 244.852C127.767 246.667 142.584 246.153 150.528 243.044L129.587 231.13L91.6734 209.557C91.3728 212.629 90.826 215.845 90.1968 219.116C89.0209 225.252 87.5596 231.575 86.9101 237.459C86.9101 237.459 85.7799 238.741 85.0898 241.286C84.2285 244.476 82.469 248.934 82.469 248.934L82.4678 248.936Z" fill="white"/>
<path d="M88.407 228.127C94.0278 224.332 107.489 239.249 119.505 244.856L119.509 244.852C111.62 229.643 95.3357 225.413 90.2007 219.12L90.1969 219.116C90.0498 219.883 89.9001 220.651 89.7453 221.425C89.3013 223.654 88.8371 225.899 88.4058 228.124L88.407 228.127Z" fill="#5D5D6D"/>
<g opacity="0.2">
<path d="M88.4058 228.128C94.0266 224.333 107.488 239.25 119.503 244.857L119.507 244.853C127.765 246.669 142.583 246.156 150.526 243.045L129.586 231.131C111.351 228.109 102.838 221.136 99.5814 214.059L91.6722 209.558C91.0988 215.428 89.6223 221.838 88.4058 228.127V228.128Z" fill="#000072"/>
</g>
<path d="M82.4679 248.936C83.947 262.209 95.0097 264.778 102.852 262.921C112.333 260.682 116.497 251.936 119.505 244.856L119.509 244.852C111.618 229.64 95.3294 225.413 90.197 219.118C89.0211 225.253 87.5597 231.576 86.9102 237.461C86.9102 237.461 83.8113 238.057 83.1212 240.602C82.2599 243.791 82.4692 248.936 82.4692 248.936H82.4679Z" fill="#5F5F82"/>
<g opacity="0.2">
<path d="M85.8774 248.679C87.0343 258.555 94.1127 260.035 98.2404 260.035C99.533 260.035 100.821 259.884 102.066 259.589C106.288 258.592 109.278 255.98 111.618 252.642C111.618 252.642 106.676 255.985 98.0197 255.424C89.4356 254.867 85.8774 248.679 85.8774 248.679Z" fill="#000072"/>
</g>
<g opacity="0.2">
<path d="M88.4067 228.127C94.0275 224.332 107.489 239.249 119.504 244.856L119.508 244.852C111.619 229.643 95.3354 225.413 90.2004 219.12C90.0507 219.887 89.8998 220.655 89.7463 221.426C89.3023 223.655 88.838 225.9 88.4067 228.126V228.127Z" fill="#000072"/>
</g>
<path d="M93.094 209.7C91.6491 219.181 88.4563 228.053 86.9087 237.462C87.1992 232.742 87.9273 228.044 88.625 223.374C89.3201 218.706 90.028 214.038 90.2487 209.42L93.094 209.699V209.7Z" fill="#000072"/>
<path d="M82.4663 248.937C83.3048 253.182 85.3877 257.476 89.1007 259.816C96.283 264.317 106.517 262.194 111.641 255.516C114.597 251.94 116.603 247.379 118.535 242.939L119.863 243.231C124.783 244.319 129.999 244.523 135.068 244.483C140.259 244.408 145.409 244.14 150.527 243.047C143.421 246.757 135.117 247.481 127.213 247.322C124.54 247.229 121.856 247.037 119.153 246.481L121.036 245.508C118.493 251.804 114.871 258.765 108.55 262.265C97.1659 268.408 82.5678 263.092 82.4676 248.937H82.4663Z" fill="#000072"/>
<path d="M143.453 286.902C143.756 291.786 142.696 298.406 137.164 299.907L136.705 297.079C141.218 296.673 142.881 290.741 143.453 286.902Z" fill="#000072"/>
<path d="M135.139 286.531C135.53 291.272 134.014 299.545 127.627 298.494L128.411 295.738C132.577 297.224 134.795 289.645 135.139 286.531Z" fill="#000072"/>
<path d="M133.678 27.5695C133.201 19.2763 140.117 4.54023 153.941 3.71358C168.562 2.83987 179.599 13.4592 177.773 27.9421C176.353 39.1872 167.932 45.1569 161.444 47.6915L133.678 27.5695Z" fill="#C97043"/>
<path d="M133.679 27.5682L146.986 37.2146L161.443 47.6928C167.932 45.1581 176.356 39.1859 177.771 27.9434C178.004 26.1222 178.028 24.3596 177.867 22.6757C176.768 10.9678 166.72 2.95052 153.94 3.71231C140.119 4.53642 133.2 19.2763 133.679 27.567V27.5682Z" fill="#5F5F82"/>
<path d="M132.965 27.6102C131.524 19.0893 137.275 9.53195 144.432 5.1049C151.182 1.00724 159.977 1.38115 166.975 4.69666C181.054 11.3404 183.536 30.8977 172.747 41.6544C171.213 43.2429 169.456 44.5795 167.595 45.6986C165.74 46.828 163.751 47.7068 161.704 48.3579C161.328 48.4775 160.924 48.2689 160.805 47.8899C160.695 47.5414 160.863 47.1714 161.186 47.0226C168.444 43.6384 174.523 37.4258 176.015 29.4365C177.977 20.4539 174.104 11.329 165.681 7.37247C149.289 0.227647 136.687 11.0186 134.392 27.5275C134.327 28.3402 133.123 28.4127 132.965 27.6102Z" fill="#000072"/>
<path d="M125.044 149.858C98.5856 155.265 73.4335 154.196 59.528 134.584C50.0103 121.161 40.4876 80.2273 56.4582 54.6494C63.6735 42.5536 75.1422 33.9373 91.9209 26.121C101.298 21.7486 105.296 21.0034 107.964 9.36916C112.835 8.90878 118.591 12.4723 118.506 18.6684C130.391 12.6033 134.86 18.7129 140.784 11.6215C142.689 15.0247 144.015 20.4819 139.424 25.4635C173.197 33.3917 180.18 68.6287 184.299 83.464C196.462 102.661 194.742 129.409 137.35 146.639" fill="#C97043"/>
<path d="M189.002 110.951C184.774 123.831 170.157 136.788 137.349 146.639L125.046 149.858C98.5856 155.265 73.4372 154.195 59.5343 134.585L59.5292 134.583C50.0102 121.159 40.4875 80.2261 56.4581 54.6481C63.6747 42.5548 75.1434 33.9373 91.9195 26.1197C101.295 21.7486 105.292 21.0021 107.964 9.36662C112.834 8.90878 118.589 12.4697 118.504 18.6671C130.389 12.6033 134.859 18.7103 140.784 11.6227C142.686 15.0247 144.016 20.4819 139.424 25.4622C173.198 33.393 180.182 68.6275 184.301 83.4614C189.509 91.6873 192.173 101.294 189.002 110.951Z" fill="#C97043"/>
<path d="M59.5315 134.584L59.5366 134.587C60.7721 136.328 62.0926 137.924 63.5032 139.379C77.9136 154.335 100.936 154.784 125.048 149.857L137.351 146.639C170.158 136.788 184.775 123.831 189.003 110.951C192.175 101.294 189.508 91.6898 184.3 83.4627C180.181 68.6275 173.201 33.393 139.427 25.4609C144.019 20.4845 142.687 15.0273 140.785 11.624C134.86 18.7116 130.392 12.6058 118.505 18.6671C118.591 12.471 112.835 8.9075 107.967 9.36916C105.296 21.0033 101.296 21.7499 91.9218 26.1197C75.1444 33.936 63.6757 42.5548 56.4591 54.6481C40.4898 80.2248 50.0138 121.158 59.5328 134.583L59.5315 134.584Z" fill="white"/>
<g opacity="0.2">
<path d="M70.9688 145.43C85.2332 154.341 104.754 154.003 125.047 149.856C125.047 149.856 128.207 149.271 130.841 148.546C134.382 147.572 137.35 146.637 137.35 146.637C160.723 139.619 174.864 131.023 182.592 122.003C177.456 125.46 132.918 156.129 70.9688 145.429V145.43Z" fill="#000072"/>
</g>
<path d="M125.044 149.858C102.976 156.469 73.7618 156.91 58.8174 136.301C53.1624 128.424 50.468 118.861 48.4955 109.501C44.95 90.914 45.2202 70.1968 55.3975 53.6472C62.8348 41.1699 75.2358 32.6681 88.0263 26.4008C92.0691 24.2998 96.7144 22.6999 100.432 20.2263C104.171 17.712 105.561 13.3104 106.568 9.0474C106.705 8.43186 107.23 7.99056 107.827 7.94223C113.999 7.33432 120.15 12.2968 119.932 18.6887L117.854 17.3915C121.551 15.494 125.767 14.2897 129.924 14.1726C134.255 14.0366 136.852 14.1345 139.684 10.702C140.301 9.94018 141.565 10.047 142.026 10.9207C143.362 13.3371 144.152 16.1108 143.922 18.9138C143.722 21.7346 142.34 24.3926 140.469 26.4364L139.745 24.0683C146.203 25.6224 152.439 28.2868 157.828 32.214C174.232 43.6117 181.572 65.7812 185.5 82.6958C188.828 87.7371 191.331 93.6191 191.896 99.7211C193.672 117.214 179.362 129.785 165.179 137.031C156.404 141.517 146.943 144.672 137.345 146.639C154.206 139.525 174.948 132.099 184.876 115.885C191.025 105.735 189.087 93.9816 183.089 84.2334C179.634 71.7357 176.347 59.0345 169.074 48.2002C163.884 40.2707 156.685 33.6842 148.02 29.8587C145.146 28.5933 142.151 27.6102 139.094 26.8599C138.323 26.6704 137.851 25.8908 138.04 25.1175C138.1 24.8772 138.215 24.6648 138.371 24.4931C139.118 23.655 139.764 22.7508 140.231 21.774C141.719 18.751 141.171 15.2587 139.534 12.326L141.876 12.5448C140.781 13.8204 139.476 15.0146 137.978 15.7611C135.626 16.9693 132.615 16.9388 130.067 17.038C126.191 17.16 122.591 18.2054 119.152 19.949C118.226 20.4438 117.047 19.6896 117.074 18.6518C117.078 17.5225 116.861 16.4211 116.402 15.4241C115.008 12.3477 111.39 10.501 108.094 10.7986L109.353 9.69346C108.282 14.4626 106.396 19.7138 102.079 22.5714C97.9537 25.3108 93.5748 26.7581 89.2872 28.9748C72.3639 37.1549 57.7341 48.9671 52.2211 67.6609C46.6346 87.03 49.49 110.401 57.899 128.603C70.5943 154.186 100.607 152.904 125.042 149.861L125.044 149.858Z" fill="#000072"/>
<path d="M89.8289 69.4401C89.8289 69.4401 92.1655 56.1336 99.9238 57.3277C101.989 57.6457 103.863 61.1596 102.63 63.3458C100.47 67.1738 89.8276 69.4414 89.8276 69.4414L89.8289 69.4401Z" fill="#000072"/>
<path d="M157.852 52.5179C157.852 52.5179 151.876 42.6502 146.689 46.8852C145.321 48.0018 144.715 51.0376 147.068 52.8117C150.162 55.1454 157.852 52.5179 157.852 52.5179Z" fill="#000072"/>
<path d="M140.306 26.5903C135.852 29.2012 130.3 29.3017 125.514 27.6636C129.827 28.2448 134.454 27.4449 137.978 24.8098C138.186 24.6572 138.421 24.4588 138.541 24.3354L140.306 26.5903Z" fill="#000072"/>
<path d="M151.283 98.93C151.867 101.264 149.788 103.976 148.103 105.717C146.937 106.923 145.187 107.363 143.591 106.851C141.287 106.112 138.177 104.703 137.593 102.369C136.646 98.579 150.336 95.1401 151.283 98.93Z" fill="#000072"/>
<g opacity="0.35">
<path d="M147.83 98.9249C147.938 99.3561 147.073 99.9792 146.393 100.394C145.923 100.681 145.274 100.844 144.724 100.814C143.928 100.769 142.873 100.629 142.765 100.198C142.59 99.4972 147.655 98.2242 147.83 98.9249Z" fill="white"/>
</g>
<path d="M126.771 102.67C127.581 92.3537 118.597 73.6192 102.925 78.2395C86.4561 83.0939 78.5558 108.592 85.3385 118.308C89.4333 124.173 99.4952 116.179 111.774 113.828C121.075 112.047 126.215 109.731 126.771 102.672V102.67Z" fill="#5F5F82"/>
<path d="M153.766 96.1601C146.984 88.7393 144.941 69.7517 153.809 66.6855C162.321 63.7426 173.153 69.2049 178.695 78.6618C181.776 83.918 182.294 90.4664 179.569 92.1426C177.591 93.3609 173.135 94.1685 169.402 95.2877C163.143 97.1661 159.123 102.02 153.766 96.1588V96.1601Z" fill="#5F5F82"/>
<path d="M74.8021 43.15C69.7217 34.6775 54.4995 23.2836 37.9086 32.1174C24.8213 39.0854 19.5671 58.6415 30.6945 71.957C38.5454 81.3516 51.8838 82.2596 59.9554 80.3876C59.9554 80.3876 64.9102 79.2277 70.4549 64.6583C76.3116 49.2698 74.8021 43.15 74.8021 43.15Z" fill="#5F5F82"/>
<g opacity="0.2">
<path d="M69.3423 52.8829C68.7144 55.5727 67.7236 58.9302 66.1672 63.0189C62.3908 72.9388 59.1903 75.5307 58.5091 75.9923C58.0956 76.0813 57.6618 76.1627 57.2216 76.2327C50.3044 77.3226 40.1309 76.0826 34.2145 69.0001C33.2415 67.8351 32.4056 66.5964 31.7104 65.303C38.8408 70.965 49.7259 72.369 56.5125 68.9696C65.1955 64.6201 69.341 52.8829 69.341 52.8829H69.3423Z" fill="#000072"/>
</g>
<path d="M74.802 43.15C68.6104 35.6834 59.439 30.225 49.7171 30.4399C40.2349 30.7311 31.3933 36.973 28.1472 45.9594C22.6241 60.16 30.3354 75.5777 45.3064 79.1132C49.9746 80.3558 54.9167 80.7665 59.9553 80.3876C55.1565 82.2164 49.8147 82.4923 44.7508 81.5792C20.8482 77.1738 15.2971 46.009 34.6154 32.1695C43.4963 26.0892 55.6943 25.8399 64.6107 31.8236C68.911 34.6164 72.6823 38.4686 74.802 43.15Z" fill="#000072"/>
<path d="M147.311 105.258C147.2 107.895 145.503 110.59 145.256 110.599C145.089 110.605 144.943 107.382 143.853 105.524" fill="#000072"/>
<path d="M127.999 132.641C121.207 131.533 115.788 126.497 118.461 120.373C121.924 113.924 127.701 118.766 138.133 116.33C144.332 114.883 146.097 112.212 149.163 113.932C151.961 115.501 153.024 121.223 149.494 125.691C145.387 130.888 136.365 134.006 128 132.64L127.999 132.641Z" fill="#5E3519"/>
<path d="M127.514 132.554C127.675 132.585 127.835 132.614 128 132.64C134.082 133.632 140.511 132.257 145.148 129.43C146.885 128.372 148.375 127.109 149.495 125.688C153.021 121.224 151.958 115.5 149.162 113.932C147.765 113.146 146.634 113.274 145.23 113.786C143.559 114.395 141.502 115.544 138.131 116.33C132.788 117.579 128.666 116.915 125.45 116.843C122.388 116.768 120.15 117.228 118.463 120.375C115.851 126.351 120.951 131.289 127.515 132.554H127.514Z" fill="#000072"/>
<path d="M139.645 120.17C144.647 118.618 145.418 116.06 145.229 113.786C143.558 114.395 141.501 115.544 138.13 116.33C132.787 117.579 128.665 116.915 125.449 116.843C125.426 118.42 127.551 123.354 128.795 123.657C129.357 123.793 130.082 122.504 130.402 121.345C132.885 121.663 136.112 121.264 139.644 120.17H139.645Z" fill="white"/>
<path d="M127.514 132.554C127.675 132.585 127.835 132.614 128 132.64C134.083 133.632 140.511 132.257 145.148 129.43C142.753 126.881 138.398 125.959 134.832 128.127C131.637 126.965 128.754 128.834 127.742 131.939C127.655 132.153 127.584 132.357 127.515 132.553L127.514 132.554Z" fill="#F28475"/>
<path d="M135.26 125.408C135.26 125.408 132.413 127.69 133.365 127.798C134.49 127.926 136.531 128.795 137.06 129.917C137.06 129.917 137.028 127.268 135.26 125.408Z" fill="#000072"/>
<path d="M132.025 134.036C130.62 134.036 129.21 133.927 127.826 133.702C123.215 132.949 119.427 130.593 117.693 127.401C116.435 125.084 116.36 122.505 117.479 119.944L117.517 119.865C119.907 115.415 123.34 115.617 127.685 115.871C130.566 116.04 133.83 116.232 137.889 115.285C140.198 114.746 141.89 114.021 143.249 113.438C145.539 112.458 147.346 111.683 149.684 112.995C151.138 113.81 152.207 115.469 152.618 117.546C153.204 120.512 152.349 123.806 150.332 126.358C146.586 131.1 139.325 134.036 132.024 134.036H132.025ZM119.425 120.844C118.589 122.787 118.64 124.648 119.576 126.372C120.974 128.946 124.267 130.942 128.17 131.579C135.898 132.842 144.703 130.021 148.652 125.023C150.283 122.958 150.979 120.319 150.515 117.962C150.231 116.525 149.529 115.369 148.638 114.869C147.289 114.112 146.415 114.419 144.091 115.413C142.654 116.029 140.867 116.795 138.375 117.376C134.013 118.393 130.434 118.183 127.559 118.014C123.44 117.774 121.163 117.639 119.425 120.843V120.844Z" fill="#000072"/>
<path d="M122.407 105.696C111.619 94.1405 95.3254 91.176 92.7236 108.393L122.407 105.696Z" fill="#5F5F82"/>
<path d="M122.407 105.696C115.591 101.75 105.229 95.3843 98.0821 100.911C95.7214 102.79 94.2537 105.623 92.7226 108.393C92.389 106.676 92.4042 104.906 92.7518 103.133C93.896 96.9346 99.551 93.118 105.739 93.8238C113.047 94.6925 119.047 99.4311 122.406 105.696H122.407Z" fill="#000072"/>
<path d="M156.511 95.4543C158.01 77.0453 166.675 75.3119 174.765 84.9303L156.511 95.4543Z" fill="#5F5F82"/>
<path d="M156.511 95.4543C155.594 91.3477 155.727 87.0478 157.309 83.0837C159.265 77.9635 164.629 75.1071 169.589 78.148C172.145 79.7529 173.892 82.1146 174.765 84.9303C172.436 83.8061 170.26 82.4415 167.928 81.756C164.763 80.7042 162.585 82.2889 161.052 84.957C159.085 88.223 158.084 91.7725 156.512 95.4543H156.511Z" fill="#000072"/>
<path d="M1.49463 148.149C2.1606 155.465 10.7028 163.303 20.4564 161.018C25.5812 159.734 30.5627 156.003 34.3479 156.993C39.9446 157.828 86.3521 185.18 94.6406 190.086C95.4575 190.572 95.9053 190.836 95.9053 190.836L111.322 153.068C109.978 152.706 108.632 152.301 107.283 151.856C86.7935 145.094 65.4152 129.351 38.2233 122.028C29.5377 120.013 16.3401 115.606 13.1383 120.616C11.54 123.113 12.3252 125.214 13.8322 126.95C14.4919 127.71 15.2872 128.402 16.0838 129.025C14.9016 129.659 9.71208 131.947 5.84057 136.178C4.7877 137.329 3.83504 138.623 3.08281 140.069C2.55638 141.087 2.13015 142.175 1.8422 143.34C1.47687 144.821 1.33606 146.419 1.49336 148.15L1.49463 148.149Z" fill="#5F5F82"/>
<g opacity="0.4">
<path d="M13.8322 126.95C13.4377 125.838 13.7384 122.346 15.1883 121.442C18.4192 119.43 30.4498 122.348 41.1269 125.565C56.8438 130.306 68.8554 137.783 87.5344 145.661C97.562 149.891 103.653 151.416 107.283 151.855C86.7935 145.093 65.4152 129.35 38.2233 122.027C29.5378 120.012 16.3401 115.604 13.1384 120.615C11.54 123.112 12.3252 125.212 13.8322 126.948V126.95Z" fill="white"/>
</g>
<g opacity="0.2">
<path d="M1.49463 148.149C2.1606 155.465 10.7028 163.303 20.4564 161.018C25.5812 159.734 30.5627 156.003 34.3479 156.993C39.9446 157.828 86.3521 185.18 94.6406 190.086C93.5129 182.142 39.8317 151.913 33.5513 151.426C27.4054 150.953 20.6365 158.852 10.1167 154.883C3.84012 152.512 2.22149 146.867 1.8422 143.339C1.47687 144.819 1.33606 146.418 1.49336 148.149H1.49463Z" fill="#000072"/>
</g>
<path d="M31.6523 132.82C28.9097 127.311 19.2944 130.275 16.6952 134.847C13.7915 139.957 21.9139 144.596 26.6124 142.797C30.6514 141.251 33.4155 136.363 31.6523 132.822V132.82Z" fill="white"/>
<path d="M20.6976 148.852C20.1749 146.796 15.4205 146.852 14.0696 149.445C12.7376 152.001 15.4814 153.451 17.5618 153.086C19.8946 152.676 21.0312 150.165 20.6976 148.853V148.852Z" fill="white"/>
<path d="M13.4657 143.553C12.6589 141.59 7.95016 141.688 6.87319 144.449C5.82539 147.135 8.28505 148.455 10.3654 148.09C12.6982 147.681 14.0796 145.042 13.4669 143.553H13.4657Z" fill="white"/>
<path d="M3.08398 140.068C3.61676 141.284 5.34575 141.88 6.76649 141.63C9.10056 141.222 10.4021 138.852 10.071 137.54C9.73989 136.245 7.66587 135.731 5.84174 136.176C4.78887 137.327 3.83622 138.622 3.08398 140.068Z" fill="white"/>
<path d="M20.7544 128.05L16.3742 130.428L15.792 127.621L20.7544 128.05Z" fill="#000072"/>
<path d="M95.9052 190.836C90.1512 189.38 85.0898 186.087 79.9739 183.268C69.7712 177.536 59.6573 171.627 49.4293 165.955C44.4617 163.33 39.4321 160.238 34.136 158.427C31.8552 157.853 29.237 159.175 27.0069 160.091C21.3468 162.783 15.9696 164.041 10.0037 161.288C5.93815 159.407 2.53345 155.967 0.912283 151.763C-0.7444 147.507 -0.0543268 142.473 2.26072 138.604C5.34702 133.432 10.5073 130.147 15.4102 127.76L15.2034 130.152C13.0837 128.509 10.7141 126.126 10.8346 123.132C10.9564 120.764 12.4545 118.484 14.6478 117.64C21.0627 115.232 31.892 119.248 38.5733 120.604C54.9828 124.98 70.3763 132.691 85.3816 140.504C92.8823 144.407 103.609 149.414 111.321 153.066C101.574 152.125 92.6629 147.524 83.9697 143.326C69.0266 135.876 54.039 127.851 37.8655 123.445C33.2303 122.343 28.5812 120.946 23.9029 120.181C21.6081 119.82 19.2487 119.561 17.1734 119.894C14.1378 120.204 12.6042 123.227 14.6173 125.645C15.23 126.445 16.066 127.186 16.9628 127.895C17.5958 128.372 17.7138 129.278 17.2241 129.902C16.9413 130.306 15.3277 130.981 14.9104 131.231C8.84432 134.36 2.56009 139.792 2.86707 147.177C3.02056 152.216 6.76142 156.62 11.1949 158.683C18.5675 161.999 23.02 158.24 29.8789 155.916C31.0383 155.455 33.635 155.234 34.5597 155.56C37.6967 156.339 40.2148 157.826 43.0562 159.171C56.1334 165.855 68.9162 173.067 81.5139 180.603C86.489 183.654 91.8497 186.479 95.9026 190.836H95.9052Z" fill="#000072"/>
</g>
<defs>
<clipPath id="clip0_49_3371">
<rect width="444" height="300" fill="white"/>
</clipPath>
</defs>
</svg>
