<svg width="444" height="300" fill="none" xmlns="http://www.w3.org/2000/svg"><g clip-path="url(#a)"><path d="M304.215 219.288c.049.08.105.165.166.251 6.168 8.938 57.262 43.447 96.669 13.558 14.135-11.09 22.293-27.302 25.093-43.846 4.695-27.696-5.624-56.32-28.025-63.395-9.902-3.127-22.734.619-29.336 13.221-4.13 7.889-4.579 17.321-4.389 29.249.364 22.247-8.189 36.038-20.509 40.209-.246.082-.492.162-.741.237a9.155 9.155 0 0 1-.378.109 21.937 21.937 0 0 1-1.89.466c-.096.021-.195.04-.294.059a2.292 2.292 0 0 1-.169.031c-.202.039-.402.074-.605.104-.169.028-.336.052-.505.077l-.07.008c-.146.023-.288.042-.434.059l-.059.008c-.089.011-.174.02-.261.029l-.026.001a13.47 13.47 0 0 1-.455.046 15.609 15.609 0 0 1-.51.042c-.154.011-.307.023-.462.028-.147.013-.293.016-.441.02-.148.01-.296.013-.447.013-.146.006-.298.01-.446.01-.151 0-.3 0-.451-.004-.133 0-.269 0-.403-.006h-.052c-.289-.004-.58-.018-.875-.036a4.454 4.454 0 0 1-.285-.015c-.039 0-.076-.005-.115-.009-.015 0-.028-.002-.043-.001a9.122 9.122 0 0 1-.438-.036c-.021 0-.039-.004-.061-.005a9.711 9.711 0 0 1-.412-.039c-.019 0-.037 0-.054-.004a19.429 19.429 0 0 1-.812-.093c-.016-.002-.031-.002-.046-.005-.157-.02-.313-.043-.469-.066-.109-.014-.213-.031-.321-.047-.123-.021-.249-.04-.375-.06l-.048-.009c-.099-.015-.2-.034-.302-.053-.105-.017-.211-.037-.322-.057-.209-.04-.42-.082-.633-.128-.101-.021-.205-.04-.308-.066a25.464 25.464 0 0 1-.669-.152 5.519 5.519 0 0 1-1.07-.274l-.012-.002a20.553 20.553 0 0 1-.931-.27 7.406 7.406 0 0 1-.426-.128 9.26 9.26 0 0 1-.202-.063c-.132-.039-.265-.084-.398-.129a12.514 12.514 0 0 1-.372-.125l-.034-.013c-.063-.021-.128-.042-.191-.066a15.13 15.13 0 0 1-.585-.207c-.118-.044-.237-.088-.355-.134a31.422 31.422 0 0 1-.933-.362c-.154-.063-.309-.126-.464-.192-.086-.035-.173-.069-.26-.111l-.232-.099a28.64 28.64 0 0 1-.514-.225 26.62 26.62 0 0 1-.861-.396 51.664 51.664 0 0 1-.892-.432c-.005-.004-.011-.005-.017-.009a55.323 55.323 0 0 1-1.726-.908l-.047-.028a47.942 47.942 0 0 1-1.781-1.03v.002l-11.675 15.499-.004-.001Z" fill="#F87B38"/><path d="M304.319 219.307c.047.08.103.162.163.247l.003.004c3.694 5.35 23.492 19.87 47.243 24.245 7.883 1.45 16.203 1.788 24.512.295a57.032 57.032 0 0 0 18.538-6.751 60.466 60.466 0 0 0 6.373-4.231c14.135-11.09 22.296-27.301 25.094-43.846 4.697-27.696-5.625-56.32-28.022-63.395-9.904-3.128-22.734.619-29.338 13.221-4.128 7.891-4.577 17.321-4.389 29.249.124 7.681-.811 14.355-2.599 19.97-.056.167-.108.33-.163.493l-.035.11c-.019.055-.036.111-.058.166a36.563 36.563 0 0 1-.471 1.326c-.173.465-.353.925-.54 1.372l-.016.035-.115.276a31.97 31.97 0 0 1-.42.955c-.099.22-.202.438-.306.655-.001.009-.006.014-.01.02a20.34 20.34 0 0 1-.317.646c-.089.182-.181.362-.275.539-.085.16-.17.321-.259.481-.075.137-.15.275-.227.409-.102.186-.207.371-.315.551-.099.171-.201.34-.303.506-.119.197-.242.395-.368.588a4.777 4.777 0 0 1-.182.285c-.094.143-.188.283-.282.423a.59.59 0 0 1-.022.031c-.107.163-.215.315-.324.474-.177.252-.358.5-.542.74a27.588 27.588 0 0 1-1.492 1.828c-.011.01-.02.024-.03.034a3.07 3.07 0 0 1-.149.168c-.073.083-.147.164-.224.246-.071.082-.146.157-.216.231-.007.005-.011.013-.019.018-.123.132-.246.261-.374.388-.131.136-.263.267-.397.396-.117.117-.241.234-.36.348-.15.14-.298.278-.451.414-2.577 2.314-5.487 4.015-8.647 5.086-.188.061-.374.122-.561.181l-.177.057a7.618 7.618 0 0 1-.381.108.399.399 0 0 0-.065.019.704.704 0 0 1-.062.019c-.035.012-.075.021-.11.029a22.56 22.56 0 0 1-.581.156c-.11.029-.22.054-.332.08a7.273 7.273 0 0 1-.335.076 15.483 15.483 0 0 1-.699.145c-.055.011-.112.023-.166.031l-.125.022a11.742 11.742 0 0 1-.484.081c-.074.011-.148.025-.222.035l-.21.029c-.023.005-.047.007-.069.012-.022.002-.051.006-.073.007a7.321 7.321 0 0 1-.434.059 6.856 6.856 0 0 1-.296.034c-.06.004-.117.013-.173.018-.106.012-.214.022-.32.031-.148.015-.294.025-.445.038-.072.005-.143.01-.215.013-.141.011-.285.021-.428.029-.1.006-.197.01-.298.01l-.038.002c-.013 0-.028 0-.041.002a6.22 6.22 0 0 1-.279.01h-.127c-.139.005-.276.01-.414.009-.012-.003-.028 0-.047 0-.149 0-.293-.001-.434-.004h-.117c-.084 0-.166-.003-.249-.006H334.889a18.577 18.577 0 0 1-.873-.036c-.095-.005-.19-.008-.287-.016-.039 0-.076-.006-.115-.009h-.025l-.235-.017a2.144 2.144 0 0 1-.14-.01c-.049-.003-.091-.008-.142-.014a26.921 26.921 0 0 1-.466-.043 16.905 16.905 0 0 1-.713-.08l-.151-.02a18.95 18.95 0 0 1-.443-.061l-.015-.002a34.483 34.483 0 0 1-2.008-.355c-.051-.009-.102-.022-.155-.032a1.84 1.84 0 0 1-.151-.034 21.352 21.352 0 0 1-.669-.153l-.006.002a8.752 8.752 0 0 1-.394-.102 1.29 1.29 0 0 1-.094-.024 9.56 9.56 0 0 1-.404-.103c-.047-.012-.094-.027-.14-.038-.021-.004-.041-.011-.063-.018-.151-.037-.299-.08-.449-.124a4.772 4.772 0 0 1-.199-.058c-.006 0-.009-.005-.014-.007-.29-.081-.582-.17-.879-.265-.233-.074-.472-.15-.715-.236l-.09-.031c-.032-.009-.064-.022-.096-.033a1.14 1.14 0 0 1-.092-.034 10.369 10.369 0 0 1-.587-.208c-.116-.043-.238-.088-.352-.134-.015-.002-.029-.009-.04-.014l-.05-.017a32.683 32.683 0 0 1-.842-.33h-.003c-.152-.062-.309-.126-.464-.192a5.507 5.507 0 0 1-.258-.109c-.154-.066-.309-.129-.466-.199l-.023-.01a4.684 4.684 0 0 1-.256-.116c-.021-.01-.044-.017-.064-.026-.005-.004-.011-.005-.016-.009-.018-.006-.037-.017-.055-.023l-.299-.136a7.415 7.415 0 0 1-.253-.118c-.059-.027-.119-.054-.179-.083-.02-.01-.043-.02-.067-.034-.279-.13-.559-.265-.838-.407-.576-.29-1.15-.592-1.727-.908l-.047-.028a52.486 52.486 0 0 1-1.325-.755c-.007 0-.009-.005-.012-.007l-.444-.269v.003l-.115.151-11.56 15.348-.005.005Z" fill="#F87B38"/><path d="m426.203 188.862-.063.392c.024-.126.045-.247.067-.371v-.004c-.004-.008-.006-.012-.004-.017Z" fill="#EA5A1B"/><path d="M304.381 219.539c6.167 8.938 57.262 43.447 96.668 13.558 14.136-11.09 22.293-27.302 25.094-43.846h-.002c-1.852 10.231-19.264 46.485-55.736 48.374-13.712.711-13.595-25.611-26.52-29.09l-.003-.004c-.144.05-.289.096-.431.143-.103.033-.204.067-.307.098-.124.038-.251.074-.378.109a23.345 23.345 0 0 1-1.527.384l-.222.051c-.048.01-.093.021-.141.029a5.89 5.89 0 0 1-.271.049c-.008.005-.017.006-.024.011-.009.001-.02.003-.028 0-.049.01-.093.021-.141.029-.048.011-.099.02-.15.025-.153.026-.303.054-.455.078-.169.028-.336.053-.505.077l-.07.009a9.212 9.212 0 0 1-.434.058l-.059.008-.262.029-.025.001a6.873 6.873 0 0 1-.296.032c-.053.005-.106.012-.159.014-.145.014-.29.027-.436.037l-.074.005c-.047.004-.092.008-.137.009-.107.008-.216.015-.325.02a7.186 7.186 0 0 1-.442.021c-.149.006-.298.01-.446.012l-.447.011c-.151 0-.299 0-.45-.004-.136 0-.268-.004-.403-.007h-.052c-.29-.003-.58-.017-.876-.035-.091-.005-.186-.007-.284-.015-.039 0-.076-.006-.115-.009-.015 0-.028-.003-.043-.002-.147-.005-.29-.02-.438-.035-.022 0-.039-.004-.061-.005a14.007 14.007 0 0 1-.412-.04c-.019 0-.037 0-.055-.004a17.665 17.665 0 0 1-.812-.092l-.045-.006c-.157-.02-.313-.043-.47-.066a10.7 10.7 0 0 1-.32-.047l-.375-.059-.048-.009c-.099-.016-.2-.035-.302-.054l-.128-.024a3.578 3.578 0 0 1-.194-.033l-.11-.02-.523-.107c-.101-.022-.205-.041-.308-.066a14.236 14.236 0 0 1-.669-.153 8.54 8.54 0 0 1-1.07-.273l-.012-.003a20.184 20.184 0 0 1-.931-.27 10.28 10.28 0 0 1-.426-.128c-.067-.019-.135-.041-.202-.062-.132-.04-.265-.084-.398-.13a8.559 8.559 0 0 1-.372-.125c-.011-.005-.023-.007-.034-.012-.063-.022-.128-.042-.192-.067-.194-.067-.392-.134-.584-.207-.12-.041-.238-.088-.356-.133-.029-.009-.058-.021-.086-.032a14.466 14.466 0 0 1-.846-.331 22.742 22.742 0 0 1-.464-.192 6.148 6.148 0 0 1-.26-.11l-.232-.1-.233-.099c-.093-.042-.189-.081-.281-.127a26.62 26.62 0 0 1-.929-.43c-.275-.128-.549-.263-.824-.398-.005-.004-.012-.005-.017-.009-.251-.125-.51-.259-.763-.389-.097-.048-.194-.101-.293-.154-.221-.122-.449-.242-.67-.366l-.047-.028a41.41 41.41 0 0 1-1.781-1.028l-11.508 15.75-.005.004Z" fill="#EA5A1B"/><path d="M411.555 216.219c.091 2.131.05 4.331-.136 6.595.239-.297.475-.596.707-.897.23-.296.454-.591.675-.889.082-.109.169-.221.248-.335.321-.436.639-.875.949-1.315a67.925 67.925 0 0 0 3.881-6.225c.223-.402.44-.806.654-1.208.042-.081.088-.164.131-.249a73.83 73.83 0 0 0 3.225-7.084c.05-.115.091-.23.136-.347.349-.908.683-1.824.999-2.741.259-.753.503-1.508.742-2.27.004-.001-.001-.004-.001-.004.232-.755.455-1.52.667-2.284.28-1.02.54-2.045.779-3.074.224-.964.431-1.928.614-2.897l.071-.382.045-.237v-.004c.055-.289.104-.581.151-.871-.052.253-.111.522-.178.803-1.312 5.47-5.987 16.105-14.36 25.917l.001-.002Z" fill="#8E381A"/><path d="M352.633 203.469c16.869 7.445 22.226 21.529 23.362 33.978.008.091.017.179.024.27.033.406.066.811.092 1.211.02.274.035.542.048.81.012.232.025.466.034.696.01.243.018.486.025.729.005.236.012.471.018.705.003.121.005.242.004.363.002.217.006.431.005.641.004.131.004.263.001.393 0 .281-.001.559-.006.834a57.061 57.061 0 0 0 18.538-6.75c.103-.519.2-1.048.291-1.589.044-.241.083-.486.119-.73.007-.042.015-.08.02-.123a54.483 54.483 0 0 0 .411-3.256c1.139-11.513-.843-25.863-11.913-35.521-5.293-4.624-14.142-6.768-21.809-7.816h-.003c-.052.163-.108.329-.158.492l-.036.111c-.019.055-.035.111-.058.165a37.897 37.897 0 0 1-.471 1.327c-.175.465-.355.92-.54 1.372l-.015.034c-.038.092-.078.183-.116.276-.134.325-.276.641-.42.955-.099.22-.201.439-.305.655-.002.009-.007.014-.011.021-.102.218-.209.433-.317.646-.088.182-.181.362-.275.539-.085.16-.171.324-.259.481-.075.137-.149.274-.227.409a28.216 28.216 0 0 1-.618 1.057 23.98 23.98 0 0 1-.367.588c-.059.098-.12.194-.183.284a16.708 16.708 0 0 1-.282.424l-.021.031c-.108.162-.216.315-.325.474-.176.252-.358.5-.542.74a26.592 26.592 0 0 1-1.103 1.381c-.004.005-.008.012-.016.015-.12.148-.244.292-.372.432-.012.01-.021.024-.031.034-.048.058-.099.114-.148.168-.075.085-.151.164-.225.245-.071.083-.146.158-.215.232-.008.005-.012.012-.02.018-.123.132-.248.259-.374.387a14.86 14.86 0 0 1-.397.397c-.116.117-.241.234-.36.347-.15.14-.298.279-.45.415l-.004.003Z" fill="#9B4635"/><path d="M411.422 222.812c7.625-9.499 12.393-20.857 14.522-32.439-3.819-10.631-16.07-28.572-39.538-28.212-6.928.105-15.264 2.794-22.008 6.397.071 4.984-.313 9.54-1.087 13.654 27.084-9.055 50.597 9.671 48.111 40.6Z" fill="#9B4635"/><path d="M375.963 237.09c.012.12.024.237.033.357.008.091.017.179.024.27a51.664 51.664 0 0 1 .14 2.021c.015.236.025.466.034.696.01.243.018.486.026.729a28.089 28.089 0 0 1 .021 1.068c.007.215.008.429.005.641a45.912 45.912 0 0 1-.005 1.227 57.044 57.044 0 0 0 18.538-6.75 51.93 51.93 0 0 0 .291-1.589c.044-.241.084-.486.119-.73.008-.042.015-.08.02-.123.037-.232.071-.467.106-.705a66.06 66.06 0 0 0 .305-2.551c.055-.577.104-1.165.142-1.755-5.736 3.458-12.325 6.056-19.797 7.194h-.002ZM411.421 222.813c.238-.296.474-.595.706-.896.23-.296.454-.591.675-.889.083-.109.169-.221.249-.335.321-.436.638-.875.949-1.315a68.133 68.133 0 0 0 3.88-6.225c.223-.402.44-.806.655-1.208.041-.081.087-.164.13-.249a72.39 72.39 0 0 0 2.032-4.224c.422-.945.817-1.897 1.193-2.86.051-.115.091-.23.137-.347.354-.907.687-1.822.998-2.741.263-.754.507-1.51.742-2.27.004-.001-.001-.004-.001-.004.24-.758.459-1.521.667-2.284.284-1.021.544-2.046.779-3.074.225-.964.431-1.928.614-2.897l.071-.382c.016-.08.029-.157.046-.237l-.028-.072c-1.312 5.47-5.986 16.105-14.36 25.917.091 2.13.05 4.33-.136 6.594l.002-.002ZM304.482 219.555l.003.004c3.694 5.35 23.492 19.87 47.243 24.245 4.85-7.725.305-25.163-8.301-35.065l-.002-.004c-.073.024-.148.043-.219.065l-.34.1a.419.419 0 0 0-.064.019 2.31 2.31 0 0 0-.173.049c-.195.053-.387.107-.581.155-.11.029-.223.055-.332.08l-.335.076c-.221.046-.445.091-.672.135a6.655 6.655 0 0 1-.193.042l-.124.023c-.068.013-.137.022-.207.033l-.204.037a.44.44 0 0 1-.074.011 4.104 4.104 0 0 1-.222.036l-.209.029c-.047.007-.095.013-.142.021-.144.022-.288.042-.434.058a5.735 5.735 0 0 1-.297.034c-.06.004-.117.013-.173.018a3.154 3.154 0 0 1-.17.018c-.05.006-.1.009-.15.013-.149.015-.295.025-.446.038-.072.005-.143.01-.215.013-.141.011-.285.021-.428.029-.1.006-.199.009-.298.01a.243.243 0 0 0-.038.003l-.041.001c-.093.004-.186.009-.279.01-.18.006-.362.01-.541.01-.012-.002-.028 0-.047 0-.183.003-.367 0-.552-.004-.083-.002-.166-.002-.249-.006h-.037c-.016.004-.03 0-.046 0h-.009c-.29-.006-.577-.019-.873-.037-.095-.005-.19-.008-.287-.016a7.74 7.74 0 0 1-.374-.027c-.046-.003-.095-.005-.139-.01-.05-.003-.092-.008-.143-.014a19.737 19.737 0 0 1-.466-.044 15.398 15.398 0 0 1-.713-.08l-.151-.019a15.739 15.739 0 0 1-.443-.061l-.015-.002a34.483 34.483 0 0 1-2.163-.387c-.051-.009-.101-.022-.151-.034-.122-.026-.244-.051-.368-.08l-.308-.07a9.156 9.156 0 0 1-.395-.102c-.033-.006-.062-.015-.093-.024a9.56 9.56 0 0 1-.404-.103c-.047-.012-.094-.027-.141-.038-.02-.004-.04-.011-.062-.018a7.857 7.857 0 0 1-.449-.124 3.094 3.094 0 0 0-.103-.028 1.026 1.026 0 0 1-.096-.03c-.006 0-.009-.005-.014-.006-.29-.082-.582-.171-.879-.266-.233-.074-.472-.15-.715-.236l-.091-.031c-.031-.009-.063-.022-.095-.033-.092-.03-.182-.063-.275-.094-.055-.02-.107-.042-.161-.062a4.629 4.629 0 0 1-.242-.085 9.42 9.42 0 0 1-.442-.165c-.28-.104-.559-.212-.842-.329h-.003c-.152-.063-.309-.126-.464-.192-.086-.035-.171-.073-.257-.11-.155-.066-.31-.128-.467-.198a5.84 5.84 0 0 1-.343-.153c-.005-.004-.011-.005-.016-.009-.018-.006-.037-.016-.055-.023-.1-.043-.199-.09-.299-.136a6.516 6.516 0 0 1-.253-.118c-.082-.037-.164-.078-.247-.117-.279-.13-.559-.265-.838-.407a42.475 42.475 0 0 1-1.057-.543c-.225-.122-.449-.242-.67-.366l-.047-.028a34.888 34.888 0 0 1-1.325-.754c-.007 0-.009-.006-.012-.008-.147-.087-.298-.176-.444-.265h-.002l-.112.152-11.396 15.594h-.002Z" fill="#873A2D"/><path d="M390.049 158.88c3.622 13.33-5.894 36.977-16.667 35.078-8.726-1.537-1.865-11.635-2.974-27.826-1.17-17.097 16.019-20.581 19.641-7.252Z" fill="#fff" opacity=".3"/><path d="M365.312 149.845c23.221-11.599 50.995-3.037 61.292 16.328-2.523-19.01-12.384-35.23-28.489-40.318-9.899-3.125-22.733.623-29.333 13.225-1.724 3.295-2.807 6.861-3.47 10.767v-.002Z" fill="#9B4635"/><path d="M365.154 246.456c-4.426 0-8.991-.43-13.695-1.291-24.326-4.454-44.964-19.639-48.416-25.138a1.39 1.39 0 0 1 .433-1.914 1.384 1.384 0 0 1 1.91.435c3.162 5.036 23.399 19.644 46.572 23.885 18.434 3.375 34.67-.138 48.257-10.444 22.36-17.541 28.43-47.222 24.519-68.847-3.294-18.213-13.399-31.657-27.031-35.963-8.73-2.758-21.121-.009-27.693 12.544-3.807 7.271-4.433 15.985-4.229 28.58.304 18.732-5.831 33.114-16.833 39.458-9.496 5.475-21.805 4.459-33.772-2.787a1.389 1.389 0 0 1-.469-1.905 1.38 1.38 0 0 1 1.9-.47c11.079 6.708 22.364 7.713 30.961 2.756 10.103-5.825 15.733-19.314 15.445-37.006-.212-13.044.464-22.12 4.546-29.915 7.312-13.963 21.182-16.994 30.976-13.901 14.63 4.621 25.442 18.87 28.924 38.114 4.06 22.447-2.267 53.275-25.555 71.543-10.763 8.164-23.078 12.266-36.747 12.266h-.003Z" fill="#650000"/><path d="M345.438 232.155c3.252-4.993 10.362-7.871 16.059-5.474 6.643 2.795 10.038 13.626 10.928 17.286 3.447 14.159-.968 21.67-10.493 22.543-10.426 1.224-11.877-7.395-12.487-11.588l-4.007-22.769v.002Z" fill="#FFFEFF"/><path d="M360.005 263.833c-3.767 0-5.676-1.755-6.77-4.789-.464-1.29 1.307.071 1.307.071.378.487 16.626 5.212 15.175-14.485 1.696 6.97 1.398 12.333-.862 15.508-1.483 2.081-3.897 3.288-7.176 3.59l-.07.007c-.558.067-1.097.1-1.604.1v-.002Z" fill="#FFE4D2"/><path d="M359.93 268.023c-9.979 0-11.326-9.268-11.855-12.9l2.74-.401c.869 5.973 2.795 11.362 10.957 10.41 3.74-.344 6.495-1.748 8.225-4.177 2.506-3.517 2.881-9.279 1.085-16.659-.335-1.377-3.468-13.536-10.12-16.336-4.822-2.028-11.265.195-14.365 4.954l-2.318-1.517c3.796-5.828 11.761-8.517 17.754-5.995 7.74 3.255 11.136 15.762 11.738 18.237 2.022 8.306 1.511 14.675-1.52 18.93-2.22 3.116-5.648 4.908-10.191 5.325-.75.088-1.459.13-2.128.13l-.002-.001Z" fill="#650000"/><path d="M354.267 256.524c.38 4.171 2.879 9.338 7.757 8.59v2.776c-5.995-.386-8.274-6.065-7.757-11.366Z" fill="#650000"/><path d="M309.31 226.769c.755 16.275 9.352 29.378 12.373 42.167 1.742 7.008 2.889 29.544-16.38 28.786-14.767-.524-12.532-18.349-12.664-21.598-2.103-2.722-22.882-28.829-26.077-65.857l42.748 16.502Z" fill="#C97043"/><path d="m306.363 143.816-19.159 20.532-2.162 2.315c-25.005-9.769-48.642-22.408-66.058-41.334a106.457 106.457 0 0 1-6.291-7.46c-3.811-4.976-5.724-11.153-5.603-17.426.047-2.525.169-5.225.189-8.035.014-1.418 0-2.869-.06-4.348-.068-1.445.997-2.781 2.438-2.856 1.394-.074 2.747.77 4.074 2.593 1.125-7.245 2.579-13.834 5.401-17.703 1.873-2.565 5.382-3.214 7.974-1.391 4.688 3.315 7.321 11.62 9.516 21.922.437 2.026 1.347 3.924 2.7 5.483.902 1.047 1.812 2.08 2.734 3.1 18.789 20.984 39.767 36.911 64.307 44.608Z" fill="#F87B38"/><path d="M242.056 99.207c-2.128 8.885-7.764 16.893-15.287 22.064a76.105 76.105 0 0 1-6.862-6.354c-5.98-6.306-10.755-14.091-12.627-22.51.014-1.418 0-2.869-.061-4.348-.067-1.445.997-2.781 2.438-2.856 1.394-.074 2.748.769 4.074 2.593 1.126-7.246 2.579-13.835 5.402-17.704 1.872-2.565 5.381-3.213 7.974-1.39 4.687 3.315 7.32 11.62 9.515 21.922.437 2.026 1.347 3.924 2.7 5.483.902 1.046 1.812 2.079 2.734 3.099v.001Z" fill="#FFFEFF"/><path d="M226.769 121.271a35.038 35.038 0 0 1-7.785 4.058 1.538 1.538 0 0 1-.175-.195 79.61 79.61 0 0 1-1.455-1.614 92.206 92.206 0 0 1-1.475-1.702 136.83 136.83 0 0 1-1.543-1.857 123.958 123.958 0 0 1-1.643-2.093c-3.811-4.976-5.724-11.153-5.603-17.426.047-2.526.169-5.226.189-8.035 1.873 8.419 6.647 16.204 12.627 22.51 2.155 2.269 4.458 4.375 6.863 6.354Z" fill="#FFE4D2"/><path d="M217.354 123.52a82.4 82.4 0 0 0 1.455 1.614 53.912 53.912 0 0 1-1.455-1.614ZM287.204 164.348l-2.162 2.315c-25.005-9.769-48.642-22.408-66.058-41.334a34.954 34.954 0 0 0 7.785-4.058c6.21 5.118 13.119 9.419 20.001 13.618 10.957 6.685 22.17 13.329 34.568 16.636l1.846.811c2.458 1.451 3.279 4.577 3.677 7.406.21 1.492.344 3.059.344 4.606h-.001Z" fill="#EA5A1B"/><path d="M285.042 168.051a1.4 1.4 0 0 1-.502-.094c-34.254-13.375-57.432-29.022-72.944-49.243-3.928-5.122-6.02-11.619-5.891-18.296.019-1.006.051-2.039.083-3.096.089-2.959.181-6.019.043-9.196-.099-2.26 1.586-4.192 3.752-4.307 1.119-.06 2.201.288 3.226 1.04 1.015-5.847 2.488-11.857 5.205-15.583 2.343-3.214 6.686-3.964 9.887-1.707 5.405 3.814 8.038 13.199 10.079 22.773.39 1.823 1.215 3.505 2.389 4.86 21.155 24.438 42.878 39.906 66.408 47.289a1.385 1.385 0 0 1 .597 2.271l-21.319 22.849c-.267.286-.636.44-1.011.44h-.002Zm-75.224-81.463c-.029 0-.06 0-.089.002-.634.034-1.164.696-1.133 1.415.144 3.28.05 6.392-.042 9.401-.031 1.047-.062 2.07-.081 3.065-.116 6.049 1.771 11.927 5.318 16.55 15.06 19.632 37.596 34.899 70.882 48.007l19.19-20.566c-23.231-7.784-44.707-23.324-65.586-47.44-1.479-1.71-2.518-3.819-3.005-6.1-1.831-8.589-4.327-17.81-8.965-21.082-1.953-1.378-4.615-.907-6.058 1.074-2.792 3.83-4.17 10.792-5.15 17.098a1.39 1.39 0 0 1-1.042 1.135 1.386 1.386 0 0 1-1.445-.53c-.979-1.347-1.919-2.028-2.794-2.028v-.001Z" fill="#650000"/><path d="M212.96 84.999c3.098 3.3 4.616 7.888 4.96 12.304.05.625-.878.778-1.026.168-.982-3.968-2.831-7.85-5.902-10.519-1.429-1.343.632-3.398 1.967-1.952l.001-.001Z" fill="#650000"/><path d="M305.303 297.721c-5.206-.186-8.298-2.519-10.124-5.611-3.359-5.671-2.454-13.884-2.541-15.988-1.757-2.271-16.543-20.862-23.227-48.505a116.143 116.143 0 0 1-2.85-17.351l42.749 16.501c.756 16.275 9.35 29.377 12.372 42.167 1.743 7.009 2.888 29.545-16.379 28.786v.001Z" fill="#F87B38"/><path d="M305.303 297.722c-5.206-.188-8.299-2.519-10.123-5.612-3.361-5.67-2.453-13.883-2.541-15.988-.215-.276-.621-.797-1.187-1.545-4.054-5.396-16.174-22.684-22.04-46.961a116.525 116.525 0 0 1-2.85-17.349l42.748 16.502c.584 12.555 5.828 23.216 9.581 33.307 1.114 2.992 2.096 5.932 2.789 8.86 1.743 7.008 2.891 29.544-16.378 28.786h.001Z" fill="#F87B38"/><path d="M307.787 274.482c-.349 1.66-11.24 2.598-11.392.567-.109-1.447 1.143-4.133 3.18-4.503 2.89-.524 8.604 2.071 8.212 3.935v.001Z" fill="#EA5A1B"/><path d="M305.303 297.721c-5.206-.186-8.298-2.519-10.124-5.611 2.461 1.097 5.865 2.033 10.124 1.827 10.802-.524 14.608-10.674 13.357-20.614-1.568-12.462-7.956-22.622-9.988-24.223-3.509-2.768-23.679-.224-39.261-21.484a116.143 116.143 0 0 1-2.85-17.351l42.749 16.501c.756 16.275 9.35 29.377 12.372 42.167 1.743 7.009 2.888 29.545-16.379 28.785v.003Z" fill="#EA5A1B"/><path d="M305.303 297.722c-5.206-.188-8.299-2.519-10.123-5.612 2.46 1.099 5.863 2.033 10.123 1.829 10.804-.524 14.607-10.673 13.356-20.616a49.192 49.192 0 0 0-1.124-5.935c.802-2.063 1.287-4.486 1.358-7.31l.144.389a156.96 156.96 0 0 1 .665 1.845c.127.369.255.74.378 1.109.01.032.021.06.032.092a63.254 63.254 0 0 1 .674 2.122 51.64 51.64 0 0 1 .588 2.076c.028.095.053.195.077.29.081.312.156.621.23.932 1.743 7.009 2.891 29.545-16.378 28.787v.002Z" fill="#FFE4D2"/><path d="M305.303 297.722c-5.206-.188-8.299-2.519-10.123-5.612-3.361-5.67-2.453-13.883-2.541-15.988-.215-.276-.621-.797-1.187-1.545 7.659 5.386 26.964 4.565 27.441-14.499 1.113 2.991 2.095 5.931 2.788 8.859 1.743 7.009 2.891 29.545-16.378 28.787v-.002Z" fill="#FFFEFF"/><path d="M305.303 297.722c-5.206-.188-8.299-2.519-10.123-5.612 2.46 1.099 5.863 2.033 10.123 1.829 10.804-.524 14.607-10.673 13.356-20.616a49.192 49.192 0 0 0-1.124-5.935c.802-2.063 1.287-4.486 1.358-7.31l.144.389a156.96 156.96 0 0 1 .665 1.845c.127.369.255.74.378 1.109.01.032.021.06.032.092a63.254 63.254 0 0 1 .674 2.122 51.64 51.64 0 0 1 .588 2.076c.028.095.053.195.077.29.081.312.156.621.23.932 1.743 7.009 2.891 29.545-16.378 28.787v.002Z" fill="#FFE4D2"/><path d="M306.245 299.129c-.328 0-.659-.007-.995-.021-14.544-.516-14.14-16.315-14.009-21.506.009-.374.018-.718.021-.996-5.575-7.221-23.165-32.443-26.078-66.22l2.757-.239c2.875 33.315 20.359 58.129 25.648 64.94l.415.537.018.444c.017.395.003.929-.015 1.605-.217 8.494.876 18.29 11.344 18.662 5.133.201 9.084-1.356 11.74-4.63 5.513-6.793 4.159-18.773 3.249-22.435-1.112-4.709-2.992-9.455-4.981-14.482-3.417-8.626-6.948-17.547-7.431-27.956l2.765-.129c.462 9.945 3.907 18.646 7.238 27.062 2.028 5.122 3.944 9.96 5.1 14.85 1.064 4.283 2.465 17.131-3.792 24.842-3.056 3.765-7.425 5.671-12.995 5.671l.001.001Z" fill="#650000"/><path d="M345.843 227.439s-5.951 15.925-32.698 15.925-33.688-6.901-33.688-6.901c-7.043-6.166-11.18-13.189-13.24-20.54-6.691-23.878 8.581-51.181 17.62-63.571 0 0 18.013-23.283 30.971-24.002 12.96-.72 31.591 38.883 31.591 38.883.955 11.484 2.238 25.498 4.171 39.721.118.864.219 1.726.289 2.592.435 5.367-.261 10.873-5.014 17.893h-.002Z" fill="#F87B38"/><path d="M345.843 227.439s-5.951 15.925-32.698 15.925-33.688-6.901-33.688-6.901c-7.043-6.166-11.18-13.189-13.24-20.54 2.631 3.092 15.498 15.918 45.681 13.036 9.402-.898 22.625-12.511 30.604-17.413 4.403-9.628.993-23.582 4.824-24.694 0 0 1.826 25.08 3.533 22.696.435 5.367-.261 10.872-5.014 17.892l-.002-.001ZM334.371 148.199c-.491.164-1.004.321-1.544.475-17.414 4.944-43.835 1.194-49.529-12.768 4.457-4.508 17.946-.589 28.741-.589 8.851 0 16.508 6.047 22.331 12.882h.001Z" fill="#EA5A1B"/><path d="M346.398 167.232c1.19 5.026 1.989 10.1 2.755 15.19.746 5.069.969 10.192 1.633 15.269 1.457 12.311 3.789 19.345-3.798 30.526-1.056 1.481-3.279-.004-2.291-1.556 7.151-10.416 4.624-17.178 3.34-28.641-.552-5.11-1.409-10.188-1.654-15.327-.231-5.153-.328-10.3.015-15.461ZM279.457 236.463c-21.59-15.407-19.141-43.209-8.417-64.612 3.456-7.02 7.694-13.642 12.798-19.5-9.529 16.335-18.1 34.329-17.616 53.609.195 11.504 5.469 22.153 13.236 30.502l-.001.001Z" fill="#650000"/><path d="M359.957 247.12c-1.509 13.538-12.793 16.159-20.791 14.265-9.671-2.285-13.918-11.204-16.985-18.427l-.004-.003c-8.423 1.851-23.537 1.327-31.639-1.846l21.359-12.152 38.672-22.004c.882 9.011 3.843 19.261 4.858 28.461 0 0 1.866 1.589 3.146 4.104 1.657 3.256 1.384 7.602 1.384 7.602Z" fill="#F87B38"/><path d="M356.48 246.856c-1.181 10.074-8.4 11.582-12.61 11.582-1.319 0-2.632-.152-3.902-.454-4.307-1.017-7.355-3.681-9.742-7.086 0 0 5.041 3.411 13.87 2.839 8.755-.568 12.384-6.881 12.384-6.881ZM353.9 225.895c-5.732-3.871-19.463 11.344-31.719 17.063l-.004-.003c-8.423 1.851-23.537 1.327-31.639-1.846l21.359-12.152c18.599-3.081 27.283-10.194 30.604-17.413l8.068-4.591c.586 5.989 2.09 12.526 3.331 18.941v.001Z" fill="#EA5A1B"/><path d="M333.552 221.406c-7.667 14.797-27.236 18.185-41.575 14.415-9.66-2.358-15.392-7.672-18.689-14.01 6.973 4.368 19.216 9.001 38.609 7.149.773-.074 1.575-.22 2.397-.43 8.469-1.638 14.72-4.157 19.258-7.124Z" fill="#E0B299"/><path d="M314.294 228.529c-.822.21-1.623.356-2.397.43.819-.136 1.617-.28 2.397-.43Z" fill="#B25B36"/><path d="M351.948 206.821c.503 9.513 2.869 19.042 3.48 28.595-.767-4.761-1.967-9.414-3.143-14.087-1.173-4.675-2.372-9.365-3.093-14.237l2.756-.271ZM359.958 247.12c-.073 4.691-1.876 9.577-5.722 12.543-5.869 4.557-14.471 4.535-20.842.985-6.428-3.572-10.1-10.645-12.696-17.059l1.823.943c-2.75.566-5.484.765-8.206.862-8.057.164-16.511-.551-23.777-4.282 5.209 1.153 10.471 1.437 15.765 1.536 5.177.047 10.502-.16 15.53-1.267l1.288-.282c1.962 4.516 4.002 9.142 7.017 12.784 5.251 6.833 15.74 9 23.082 4.368 3.787-2.403 5.902-6.792 6.74-11.133l-.002.002Z" fill="#650000"/><path d="M291.977 235.822c17.072 4.485 41.552-1.17 44.54-24.144 1.661-12.764-3.799-51.788-29.814-55.527-18.784-2.7-33.861 16.171-37.105 38.622-1.351 13.041-.63 35.431 22.379 41.049Z" fill="#FFFEFF"/><path d="M333.552 221.406c-7.667 14.797-27.236 18.185-41.575 14.415-9.66-2.358-15.392-7.672-18.689-14.01 6.973 4.368 19.216 9.001 38.609 7.149.773-.074 1.575-.22 2.397-.43 8.469-1.638 14.72-4.157 19.258-7.124Z" fill="#FFE4D2"/><path d="M297.753 285.844c.579 3.964 2.222 9.981 6.871 10.454l-.445 2.739c-5.616-1.512-6.705-8.233-6.426-13.193ZM306.233 285.465c.337 3.205 2.576 10.963 6.883 9.462l.758 2.669c-6.467 1.069-8.007-7.326-7.641-12.131Z" fill="#650000"/><path d="M268.753 62.306c-10.789 11.237-20.316 12.528-20.316 12.528s-.012 19.928 4.168 27.59c6.682 12.248 24.996-49.334 16.148-40.119Z" fill="#F87B38"/><path d="M254.697 105.428c-.942 0-2.257-.416-3.306-2.339-4.3-7.883-4.34-27.429-4.34-28.257 0-.694.513-1.281 1.199-1.374.088-.013 9.232-1.416 19.505-12.115 1.211-1.262 2.331-1.657 3.328-1.175 1.365.66 1.712 2.509 1.195 6.379-1.215 9.116-9.766 37.479-16.986 38.825a3.377 3.377 0 0 1-.597.056h.002Zm-4.864-29.466c.075 4.277.58 19.55 3.987 25.794.615 1.127.96.944 1.323.753 2.57-1.356 6.673-9.364 10.209-19.926 3.204-9.573 4.503-16.762 4.397-19.313-8.882 9.25-16.932 11.962-19.916 12.692Z" fill="#650000"/><path d="m273.394 63.897 25.277-12.148 29.209-14.033c-10.104-17.272-33.028-39.044-42.428-36.072-1.781.566-3.518 2.427-5.116 5.28-5.999 10.699-10.036 35.277-6.942 56.973Z" fill="#FFFEFF"/><path d="m273.394 63.897 25.277-12.148C296.5 36.599 290.34 1.67 280.336 6.923c-5.999 10.699-10.036 35.277-6.942 56.973Z" fill="#FFE4D2"/><path d="M279.664 8.198c1.163-1.553 2.386-2.575 3.624-2.968 9.051-2.867 30.617 17.191 41.234 34.1l3.357-1.614c-10.104-17.272-33.028-39.044-42.428-36.072-2.031.643-4.01 2.987-5.788 6.554h.001Z" fill="#fff" opacity=".5"/><path d="M273.393 65.285c-.677 0-1.269-.5-1.368-1.191-3.806-26.672 3.124-60.644 13.008-63.771 10.518-3.33 34.172 19.822 44.039 36.69a1.39 1.39 0 0 1-.493 1.9 1.383 1.383 0 0 1-1.894-.495C316.703 21.352 294.28.312 285.868 2.97c-7.114 2.25-15.13 32.501-11.101 60.73a1.387 1.387 0 0 1-1.372 1.585h-.002Z" fill="#650000"/><path d="M279.885 44.057c5.821-4.875 10.471-8.034 14.409-10.282 3.451-1.965 6.351-3.226 9.011-4.312.097-2.9-13.412-22.398-17.31-18.248-1.166 1.24-2.268 3.292-3.232 5.817-2.996 7.82-4.685 20.179-2.877 27.025h-.001Z" fill="#9B4635"/><path d="M282.763 17.033c1.478-1.146 3.615-2.409 5.09-1.634 2.513 1.32 5.964 11.644 6.441 18.376 3.451-1.965 6.351-3.226 9.011-4.312.096-2.9-13.412-22.398-17.31-18.248-1.166 1.24-2.268 3.292-3.232 5.817Z" fill="#873A2D"/><path d="m279.105 46.518-.556-2.106c-2.475-9.356 1.135-28.505 6.437-34.15.597-.635 1.94-1.557 4.236-.598 5.579 2.331 15.573 16.643 15.464 19.846l-.03.9-.831.339c-5.812 2.373-12.381 5.437-23.051 14.372l-1.669 1.397Zm7.896-34.354c-3.929 4.183-7.563 19.895-6.212 29.35 9.308-7.553 15.488-10.621 20.902-12.886-1.443-3.593-9.338-14.923-13.727-16.476-.713-.252-.888-.066-.963.013Z" fill="#650000"/><path d="m346.991 39.477 22.369 37.69 9.668 16.288c15.798-16.764 26.625-40.833 26.569-52.682-.012-2.438-.485-4.355-1.467-5.59-6.407-8.051-38.583-3.857-57.139 4.294Z" fill="#FFFEFF"/><path d="m369.36 77.167 9.668 16.288c15.798-16.764 26.625-40.833 26.569-52.682-1.737-4.012-5.352-7.547-12.282 1.868-7.184 9.75-17.853 25.459-23.955 34.526Z" fill="#FFE4D2"/><path d="m346.991 39.477 1.411 2.375c18.842-7.227 49.834-9.455 54.708-4.781 3.963 3.8-1.283 20.013-7.07 32.523 8.187-15.17 11.818-29.731 8.09-34.412-6.407-8.05-38.583-3.856-57.139 4.295Z" fill="#fff" opacity=".5"/><path d="M379.027 94.841a1.38 1.38 0 0 1-.951-.379 1.392 1.392 0 0 1-.055-1.962c19.56-20.754 29.882-50.358 25.028-56.454-5.757-7.23-37.145-3.36-55.504 4.702a1.388 1.388 0 0 1-1.11-2.542c18.105-7.95 51.64-12.857 58.778-3.891 6.732 8.454-6.683 40.465-25.18 60.093-.273.288-.64.434-1.006.434Z" fill="#650000"/><path d="M365.966 40.853c-5.089-4.28-11.535-7.98-19.619-11.134-59.892-23.37-80.156 20.92-88.019 44.797-12.475 12.293-20.595 48.313 44.223 68.136 64.085 18.725 87.299-19.79 88.571-21.999-6.655-15.19-4.091-33.091-6.103-43.426" fill="#F87B38"/><path d="M302.552 142.654c21.982 6.425 39.151 6.112 52.282 2.838 25.145-6.263 35.451-23.385 36.288-24.838-6.656-15.19-4.093-33.089-6.104-43.425 0 0-1.833-10.837-6.818-20.931-2.957-5.99-12.234-15.442-12.234-15.442-5.089-4.281-11.536-7.982-19.619-11.135-59.892-23.371-80.156 20.918-88.018 44.793a1.696 1.696 0 0 0-.103.106c-12.419 12.39-20.313 48.266 44.326 68.034Z" fill="#F87B38"/><path d="M249.745 96.147c.217 15.315 12.199 34.089 52.805 46.507 21.983 6.425 39.153 6.113 52.284 2.838 15.988-3.98 25.975-12.353 31.344-18.297 3.08-3.407 4.639-6.013 4.942-6.541-6.654-15.191-4.092-33.089-6.102-43.424 0 0-1.833-10.84-6.817-20.932-2.96-5.992-12.235-15.442-12.235-15.442-5.092-4.281-11.536-7.983-19.618-11.135-59.893-23.37-80.156 20.92-88.021 44.792-.033.032-.066.069-.1.106-4.618 4.607-8.61 12.46-8.48 21.527l-.002.001Z" fill="#F87B38"/><path d="M249.745 96.147c.217 15.315 12.199 34.089 52.805 46.507 21.983 6.425 39.153 6.113 52.284 2.838 15.988-3.98 25.975-12.353 31.344-18.297 3.08-3.407 4.639-6.013 4.942-6.541-6.654-15.191-4.092-33.089-6.102-43.424 0 0-1.833-10.84-6.817-20.932-2.96-5.992-12.235-15.442-12.235-15.442-5.092-4.281-11.536-7.983-19.618-11.135-59.893-23.37-80.156 20.92-88.021 44.792-.033.032-.066.069-.1.106-4.618 4.607-8.61 12.46-8.48 21.527l-.002.001Z" fill="#F87B38"/><path d="M383.89 125.115c-5.291 5.857-14.755 13.625-29.8 17.372-12.284 3.064-26.27 2.907-41.567-.465a139.94 139.94 0 0 1-9.108-2.342c-43.656-13.35-50.431-33.034-50.581-43.578 0 0 3.664 27.78 53.806 40.759 55.033 14.244 77.251-11.746 77.251-11.746h-.001Z" fill="#EA5A1B"/><path d="M383.89 125.115c-5.291 5.857-14.755 13.625-29.8 17.372-12.284 3.064-26.27 2.907-41.567-.465a139.94 139.94 0 0 1-9.108-2.342c-43.656-13.35-50.431-33.034-50.581-43.578 0 0 3.664 27.78 53.806 40.759 55.033 14.244 77.251-11.746 77.251-11.746h-.001Z" fill="#EA5A1B"/><path d="M273.375 126.445c-9.565-6.191-14.829-12.648-17.623-18.428.033-1.09.181-2.163.443-3.208 2.124 3.789 5.561 8.446 11.092 13.2 1.123 2.788 3.123 5.634 6.088 8.436ZM340.56 141.084a35.64 35.64 0 0 1-2.828 3.557c-7.911.213-16.34-.662-25.209-2.618-.493-.11-.991-.223-1.492-.337 4.822.357 8.282-.298 10.888-1.729 6.828.978 13.031 1.293 18.641 1.127Z" fill="#8E381A"/><path d="M364.358 136.892a38.113 38.113 0 0 1-3.133 3.387 65.335 65.335 0 0 1-7.135 2.207c-12.284 3.065-26.269 2.91-41.566-.464a140.472 140.472 0 0 1-9.11-2.342c-43.656-13.35-50.431-33.035-50.581-43.576 0 0 3.663 27.779 53.808 40.758 26.404 6.832 45.254 4.407 57.719.032l-.002-.002Z" fill="#F9D3B7"/><path d="M256.773 106.194c.019 4.123.694 8.135 1.653 11.485 2.298 2.707 5.117 5.392 8.533 8.016-1.881-4.462-2.531-8.403-2.339-11.871a63.137 63.137 0 0 1-7.847-7.63Z" fill="#A82B26"/><path d="M302.551 142.654c21.983 6.425 39.152 6.112 52.282 2.838 8.622-6.034 17.498-15.44 14.71-27.546-5.925-25.697-35.531-6.25-47.784-11.921-9.605-4.442-11.495-12.501-23.366-15.493-7.937-1.999-9.567 2.215-17.38 1.758-9.33-.544-16.187-15.287-22.789-17.671-12.418 12.39-20.312 48.266 44.326 68.033l.001.002Z" fill="#FFFEFF"/><path d="M364.358 136.892a38.113 38.113 0 0 1-3.133 3.387 65.335 65.335 0 0 1-7.135 2.207c-12.284 3.065-26.269 2.91-41.566-.464a140.472 140.472 0 0 1-9.11-2.342c-43.656-13.35-50.431-33.035-50.581-43.576 0 0 3.663 27.779 53.808 40.758 26.404 6.832 45.254 4.407 57.719.032l-.002-.002Z" fill="#FFE4D2"/><path d="M293.315 138.354a26.317 26.317 0 0 1-1.011.812c-16.624-6.295-27.34-13.778-33.859-21.465-.005-.01-.013-.016-.019-.024-8.741-14.269 4.907-31.157 25.638-25.45-7.505 1.639-14.267 5.162-17.442 16.952-2.305 8.569 4.196 19.003 22.897 27.534a97.894 97.894 0 0 0 3.798 1.639l-.002.002Z" fill="#9B4635"/><path d="M334.626 147.765v.004c-9.319-.079-19.967-1.575-32.076-5.117a170.142 170.142 0 0 1-8.414-2.808c-.511-.346-.998-.671-1.45-.976-1.441-.978-2.556-1.734-3.169-2.155-.34-.236-.526-.369-.525-.372 28.737 9.854 35.472 5.186 39.715-5.02 5.244-12.62-5.864-21.8-12.84-29.055 29.516 10.975 37.355 28.429 18.76 45.499h-.001Z" fill="#9B4635"/><path d="M273.375 126.445c-9.565-6.191-14.829-12.648-17.623-18.428.033-1.09.181-2.163.443-3.208 2.124 3.789 5.561 8.446 11.092 13.2 1.123 2.788 3.123 5.634 6.088 8.436ZM340.56 141.084a35.64 35.64 0 0 1-2.828 3.557c-7.911.213-16.34-.662-25.209-2.618-.493-.11-.991-.223-1.492-.337 4.822.357 8.282-.298 10.888-1.729 6.828.978 13.031 1.293 18.641 1.127Z" fill="#873A2D"/><path d="M365.966 40.853c-23.701-13.835-56.66-24.775-80.694-6.153-12.914 9.925-20.378 25.142-25.629 40.248-.07.215-.196.407-.345.557-1.372 1.36-2.575 2.914-3.619 4.567-5.326 8.299-6.004 19.247-1.721 28.147 10.42 22.349 46.426 34.446 69.398 37.377 8.985 1.123 18.216 1.083 27.125-.583 15.618-2.932 30.783-11.451 39.441-25.053l-.069 1.252c-1.668-3.414-2.776-7.07-3.527-10.756-2.341-10.963-.963-22.145-1.308-33.229 2.292 7.23 2.168 17.1 3.195 24.584.308 2.647.705 5.394 1.251 8.003a66.709 66.709 0 0 0 2.923 10.28c.175.41.153.89-.069 1.252-9.057 14.333-24.954 23.317-41.324 26.392-10.227 1.931-20.794 1.723-31.059.204-20.717-3.331-46.828-12.357-61.376-28.052-8.968-9.527-12.978-23.03-8.084-35.551 1.519-4.03 3.831-7.75 6.881-10.815l-.344.554c5.184-16.518 13.464-33.229 27.938-43.452 17.234-12.468 40.077-10.667 58.993-3.331 8.116 2.927 16.358 6.811 22.02 13.556l.003.002Z" fill="#650000"/><path d="M372.878 47.36c3.58 5.302 7.663 11.917 11.867 25.941a18.085 18.085 0 0 0 1.757-1.68c4.082-4.38 8.005-11.9 10.148-18.533 1.336-4.129 1.986-7.91 1.556-10.38-.993-5.73-23.759 2.215-25.328 4.653v-.001Z" fill="#9B4635"/><path d="M372.878 47.36c3.58 5.302 7.663 11.917 11.867 25.941a18.085 18.085 0 0 0 1.757-1.68c.822-4.971-1.441-11.306-1.718-15.796-.573-9.319 7.382-12.637 9.529-11.052 1.273.94 2.057 6.079 2.337 8.315 1.336-4.129 1.986-7.91 1.556-10.38-.993-5.73-23.759 2.215-25.328 4.653v-.001Z" fill="#873A2D"/><path d="M384.745 74.689a1.388 1.388 0 0 1-1.326-.988c-4.106-13.703-8.023-20.142-11.684-25.562a1.39 1.39 0 0 1-.016-1.53c1.757-2.733 18.165-8.399 24.436-7.123 2.616.533 3.264 2.099 3.418 2.984 1.353 7.802-6.466 25.69-13.944 31.9-.251.208-.564.319-.883.319h-.001Zm-10.03-27.079c3.384 5.102 6.972 11.33 10.701 23.16 6.574-6.913 12.433-22.037 11.428-27.825-.019-.107-.075-.433-.961-.674-4.648-1.256-17.795 3.256-21.168 5.34Z" fill="#650000"/><path d="M346.867 60.188s-4.017-12.34-9.199-11.825c-5.182.516-6.046 5.824-3.728 8.161 3.366 3.396 12.926 3.663 12.926 3.663l.001.001ZM286.678 41.78s7.906-8.197 11.801-5.793c3.895 2.405 2.542 6.93-.186 7.884-3.962 1.385-11.615-2.09-11.615-2.09Z" fill="#FFF3E9"/><path d="M289.756 89.814c-.888 2.753 1.388 6.178 3.269 8.404a5.306 5.306 0 0 0 5.324 1.727c2.825-.7 6.671-2.14 7.559-4.893 1.443-4.471-14.71-9.71-16.152-5.238Z" fill="#650000"/><path d="M293.899 90.089c-.165.508.823 1.326 1.606 1.88.542.382 1.306.63 1.97.638.957.011 2.235-.072 2.4-.58.266-.827-5.71-2.766-5.976-1.938Z" fill="#fff" opacity=".35"/><path d="M367.658 42.636c-10.221-12.845-18.198-15.177-31.763-26.108-3.385-2.728-8.773-9.097-8.773-9.097s-3.843 6.851-4.068 11.51c-8.957-3.16-13.383-.209-25.993-4.03 1.146 4.326 4.44 10.658 11.53 12.362" fill="#F87B38"/><path d="M367.658 42.636c-3.168-3.225-6.442-6.266-9.973-8.944-3-2.339-7.823-5.382-11.062-7.509-5.637-3.765-11.536-7.567-16.119-12.663-1.531-1.698-3.026-3.389-4.438-5.192l2.262-.218a45.962 45.962 0 0 0-2.499 5.387c-.669 1.762-1.274 3.668-1.395 5.51a1.384 1.384 0 0 1-1.462 1.319c-2.139-.626-4.255-1.282-6.495-1.468-4.303-.421-8.888-.223-13.232-1.044-2.234-.388-4.426-.944-6.586-1.576l1.738-1.684c1.972 5.537 4.418 10.374 10.191 12.72-6.247-.515-11.713-5.89-12.868-12.008-.259-1.016.736-1.989 1.739-1.684 4.135 1.247 8.318 2.004 12.644 2.151 2.163.1 4.398.117 6.678.368 2.281.236 4.567.763 6.73 1.53l-1.842 1.243c.245-3.314 1.475-6.32 2.816-9.285.449-.959.903-1.88 1.429-2.837.442-.845 1.668-.955 2.261-.218 3.005 3.189 5.931 6.532 9.367 9.258 6.974 5.716 14.693 10.283 21.397 16.403a55.039 55.039 0 0 1 8.715 10.443l.004-.002ZM294.452 99.293c-.251 2.104.748 4.461.944 4.5.13.027.661-2.51 1.764-3.843" fill="#650000"/><path d="M313.953 128.408c6.906-.657 12.694-5.356 10.417-11.696-3.051-6.72-9.187-2.241-19.516-5.392-6.139-1.874-7.734-4.679-10.934-3.157-2.92 1.39-4.372 7.074-1.121 11.806 3.781 5.504 12.648 9.248 21.154 8.439Z" fill="#5E3519"/><path d="M314.446 128.354a19.07 19.07 0 0 1-.493.053c-6.185.588-12.56-1.228-17.033-4.385-1.677-1.181-3.09-2.551-4.121-4.056-3.247-4.728-1.795-10.413 1.124-11.803 1.459-.697 2.586-.491 3.965.118 1.639.727 3.632 2.021 6.97 3.039 5.291 1.616 9.481 1.226 12.722 1.369 3.085.131 5.305.746 6.791 4.024 2.226 6.187-3.235 10.81-9.922 11.641h-.003Z" fill="#650000"/><path d="M303.076 115.08c-4.927-1.897-5.532-4.523-5.19-6.797 1.639.726 3.632 2.02 6.969 3.038 5.291 1.616 9.481 1.226 12.722 1.37-.25 4.78-6.729 5.378-14.501 2.389Z" fill="#fff"/><path d="M314.446 128.354a19.07 19.07 0 0 1-.493.053c-6.185.588-12.56-1.228-17.033-4.385 2.581-2.402 7.022-3.036 10.463-.614 3.293-.954 6.067 1.122 6.877 4.312.073.222.132.432.188.634h-.002Z" fill="#F28475"/><path d="M307.134 120.644s2.71 2.488 1.746 2.532c-1.141.054-3.251.789-3.859 1.883 0 0 .209-2.662 2.113-4.415Z" fill="#650000"/><path d="M311.615 129.559c-7.95 0-15.947-3.578-19.671-9-1.851-2.694-2.486-6.052-1.702-8.984.549-2.05 1.727-3.636 3.233-4.353 2.422-1.152 4.179-.256 6.406.88 1.331.678 2.986 1.522 5.275 2.222 4.026 1.228 7.325 1.256 10.237 1.281 4.373.036 7.826.064 9.921 4.676l.031.079c.948 2.639.702 5.215-.713 7.45-1.95 3.084-5.907 5.19-10.583 5.635a25.36 25.36 0 0 1-2.435.114h.001Zm-15.92-20.794c-.43 0-.847.109-1.329.339-.942.448-1.733 1.575-2.119 3.012-.629 2.35-.104 5.065 1.407 7.263 3.646 5.306 12.331 8.743 20.201 7.994 3.982-.379 7.44-2.171 9.026-4.677 1.065-1.684 1.243-3.565.526-5.59-1.545-3.365-3.854-3.384-8.031-3.418-2.901-.024-6.511-.055-10.824-1.371-2.464-.752-4.209-1.642-5.612-2.358-1.513-.772-2.403-1.194-3.245-1.194Z" fill="#650000"/><path d="M314.941 98.172c11.408-12.55 28.845-15.96 31.88 2.47l-31.88-2.47Z" fill="#F87B38"/><path d="M314.941 98.172c3.615-6.562 9.997-11.724 17.734-12.715 6.531-.823 12.519 3.095 13.912 9.597.426 1.872.506 3.753.234 5.588-1.585-2.998-3.155-6.066-5.699-8.101-7.774-6.054-19.01 1.055-26.18 5.631h-.001Z" fill="#650000"/><path d="M287.976 88.411c-1.869-19.725-11.189-21.462-19.729-11.027l19.729 11.027Z" fill="#F87B38"/><path d="M287.976 88.411c-2.106-4.887-3.165-10.268-6.991-13.945-2.719-2.358-6.158-.729-9.014.799-1.196.645-2.392 1.397-3.725 2.119.456-1.448 1.179-2.761 2.09-3.98 3.116-4.372 9.286-6.388 13.606-2.256 4.463 4.502 5.021 11.355 4.034 17.264Z" fill="#650000"/><path d="M442.549 144.317c-.68 7.463-9.392 15.457-19.341 13.126-5.228-1.31-10.308-5.115-14.169-4.105-5.709.852-53.043 28.751-61.498 33.754l-1.289.766-15.723-38.524c1.37-.37 2.742-.782 4.119-1.237 20.899-6.897 42.703-22.954 70.44-30.425 8.858-2.054 22.321-6.551 25.586-1.44 1.632 2.548.83 4.69-.707 6.461-.673.776-1.485 1.482-2.296 2.118 1.206.646 6.499 2.979 10.447 7.295 1.073 1.173 2.046 2.495 2.812 3.969a15.122 15.122 0 0 1 1.265 3.337c.373 1.509.516 3.141.355 4.905h-.001Z" fill="#F87B38"/><path d="M442.549 144.317c-.679 7.463-9.391 15.456-19.34 13.125-4.011-1.006-7.942-3.484-11.296-4.121-1.015-.191-1.975-.216-2.873.018-5.709.851-53.043 28.751-61.498 33.754l-1.29.766-15.725-38.525a81.552 81.552 0 0 0 4.118-1.236c20.899-6.899 42.706-22.954 70.439-30.423.191-.042.382-.089.576-.135 8.857-2.109 21.818-6.307 25.013-1.307 1.629 2.547.827 4.691-.707 6.463-.674.772-1.484 1.481-2.297 2.115 1.205.648 6.5 2.979 10.448 7.296 1.074 1.172 2.046 2.494 2.813 3.969a15.086 15.086 0 0 1 1.262 3.338c.375 1.51.517 3.14.357 4.904v-.001Z" fill="#F87B38"/><path d="M429.965 122.693c.402-1.133.095-4.697-1.384-5.617-3.295-2.053-15.567.926-26.457 4.205-16.03 4.836-28.283 12.463-47.336 20.499-10.228 4.315-16.441 5.869-20.143 6.317 20.899-6.897 42.703-22.954 70.441-30.425 8.858-2.054 22.321-6.551 25.586-1.44 1.631 2.548.829 4.69-.708 6.461h.001Z" fill="#fff" opacity=".4"/><path d="M442.549 144.317c-.68 7.463-9.392 15.457-19.341 13.126-5.228-1.31-10.308-5.115-14.169-4.105-5.709.852-53.043 28.751-61.498 33.754 1.151-8.103 55.905-38.935 62.31-39.431 6.269-.482 13.173 7.574 23.902 3.525 6.402-2.418 8.054-8.176 8.441-11.774.373 1.509.516 3.141.355 4.905Z" fill="#EA5A1B"/><path d="M442.549 144.317c-.679 7.463-9.391 15.456-19.34 13.125a12.716 12.716 0 0 1-.374-.099c-.127-.032-.251-.072-.378-.107l-.356-.107a29.522 29.522 0 0 1-1.951-.698 48.222 48.222 0 0 1-.962-.387c-.509-.212-1.015-.432-1.516-.648a73.17 73.17 0 0 0-.714-.308c-1.191-.514-2.351-1.004-3.461-1.353a4.933 4.933 0 0 0-.3-.096 13.69 13.69 0 0 0-.325-.091 11.21 11.21 0 0 0-.958-.227c-1.806-1.18-3.647-2.767-5.364-4.638 1.519-.613 2.657-.97 3.3-1.02 6.271-.482 13.173 7.572 23.903 3.523 6.405-2.416 8.055-8.175 8.44-11.772.374 1.51.516 3.14.356 4.904v-.001Z" fill="#FFE4D2"/><path d="M442.549 144.317c-.679 7.463-9.391 15.456-19.34 13.125-4.011-1.006-7.942-3.484-11.296-4.121-9.927-6.485-21.001-25.35-6.252-35.781 8.856-2.109 21.817-6.307 25.012-1.307 1.629 2.547.827 4.691-.706 6.463-.675.772-1.484 1.481-2.298 2.115 1.206.648 6.5 2.979 10.448 7.296 1.074 1.172 2.046 2.494 2.813 3.969a15.088 15.088 0 0 1 1.263 3.338c.374 1.51.516 3.14.356 4.904v-.001Z" fill="#FFFEFF"/><path d="M442.549 144.317c-.679 7.463-9.391 15.456-19.34 13.125a12.716 12.716 0 0 1-.374-.099c-.127-.032-.251-.072-.378-.107l-.356-.107a29.522 29.522 0 0 1-1.951-.698 48.222 48.222 0 0 1-.962-.387c-.509-.212-1.015-.432-1.516-.648a73.17 73.17 0 0 0-.714-.308c-1.191-.514-2.351-1.004-3.461-1.353a4.175 4.175 0 0 0-.3-.096 13.69 13.69 0 0 0-.325-.091 11.21 11.21 0 0 0-.958-.227c-1.806-1.18-3.647-2.767-5.364-4.638 1.519-.613 2.657-.97 3.3-1.02 6.271-.482 13.173 7.572 23.903 3.523 6.405-2.416 8.055-8.175 8.44-11.772.374 1.51.516 3.14.356 4.904v-.001Z" fill="#FFE4D2"/><path d="M411.788 128.682c2.797-5.619 12.606-2.596 15.256 2.067 2.962 5.211-5.324 9.942-10.116 8.108-4.12-1.577-6.938-6.562-5.14-10.175ZM422.962 145.034c.534-2.097 5.382-2.041 6.76.604 1.358 2.608-1.44 4.087-3.562 3.714-2.38-.417-3.539-2.98-3.199-4.318h.001ZM430.34 139.628c.823-2 5.625-1.903 6.724.914 1.068 2.74-1.44 4.087-3.562 3.714-2.38-.417-3.788-3.109-3.164-4.628h.002ZM440.929 136.075c-.544 1.24-2.307 1.848-3.756 1.593-2.38-.416-3.708-2.833-3.371-4.171.338-1.32 2.454-1.846 4.315-1.39 1.073 1.174 2.046 2.495 2.812 3.969v-.001Z" fill="#FF999E"/><path d="m422.903 123.816 5.048-.365-.565 2.718-4.483-2.353Z" fill="#650000"/><path d="M346.251 187.858c4.179-4.372 9.638-7.26 14.716-10.368 12.854-7.676 25.886-15.041 39.221-21.86 2.89-1.37 5.458-2.886 8.644-3.68.969-.335 3.545-.103 4.743.361 7.016 2.379 11.548 6.214 19.109 2.819 4.548-2.114 8.379-6.634 8.537-11.8.312-8.383-7.341-14.043-14.205-17.295-.881-.422-.999-1.708-.23-2.294.925-.727 1.798-1.499 2.436-2.331 2.083-2.495.5-5.667-2.654-5.984-2.216-.352-4.628-.06-6.887.293-4.776.781-9.516 2.205-14.248 3.328-17.433 4.688-34.199 14-50.37 21.9-7.777 3.734-15.86 7.496-24.536 8.387 7.984-3.701 18.819-8.732 26.495-12.74 14.216-7.351 28.716-14.763 44.129-19.258 3.45-1.037 7.282-1.937 10.764-2.799 4.926-1.109 9.975-2.543 15.111-1.848 3.151.356 5.782 2.821 5.923 6.116.119 3.03-2.281 5.433-4.429 7.099l-.2-2.317c5 2.433 10.247 5.777 13.384 11.033 2.351 3.927 3.051 9.037 1.37 13.357-1.647 4.268-5.106 7.763-9.235 9.675-6.068 2.796-11.526 1.517-17.283-1.223-2.285-.937-4.965-2.291-7.312-1.702-5.344 1.811-10.601 5.029-15.626 7.682-10.436 5.783-20.754 11.806-31.157 17.661-5.202 2.872-10.376 6.226-16.21 7.789v-.001Z" fill="#650000"/><path d="M230.971 101.405c.124 6.272-1.787 12.449-5.602 17.424-17.77 23.159-44.192 37.796-72.349 48.793l-2.161-2.314-19.159-20.534c25.731-8.071 47.552-25.193 67.04-47.703 1.352-1.563 2.264-3.457 2.698-5.484 2.199-10.304 4.831-18.611 9.52-21.928 2.588-1.82 6.102-1.171 7.969 1.392 2.823 3.87 4.279 10.46 5.404 17.705 1.323-1.82 2.683-2.668 4.073-2.595 1.441.074 2.507 1.416 2.441 2.86-.058 1.475-.074 2.927-.058 4.349.015 2.808.139 5.505.184 8.034v.001Z" fill="#5F5F82"/><path d="M230.971 101.405c.124 6.272-1.786 12.449-5.602 17.424-17.769 23.159-44.191 37.796-72.349 48.793l-2.161-2.314c0-1.548.132-3.111.345-4.607.397-2.829 1.22-5.955 3.676-7.406l1.846-.812c12.394-3.301 23.613-9.95 34.568-16.636 9.55-5.83 19.166-11.844 26.864-19.967 5.977-6.309 10.755-14.092 12.63-22.51.015 2.808.14 5.505.184 8.034l-.001.001Z" fill="#000072" opacity=".2"/><path d="M153.02 169.273c-.446 0-.885-.183-1.202-.523l-21.32-22.848a1.652 1.652 0 0 1 .71-2.702c23.483-7.368 45.167-22.81 66.289-47.21 1.145-1.323 1.951-2.962 2.33-4.743 2.053-9.626 4.706-19.066 10.185-22.931 3.319-2.34 7.821-1.564 10.249 1.765 2.684 3.68 4.162 9.54 5.179 15.29.972-.624 1.991-.91 3.052-.854 2.31.122 4.105 2.177 4.001 4.58-.138 3.166-.046 6.22.043 9.172.032 1.06.063 2.096.082 3.104.131 6.737-1.981 13.293-5.945 18.461-15.542 20.261-38.756 35.934-73.057 49.327a1.638 1.638 0 0 1-.597.113l.001-.001Zm-18.351-23.732 18.79 20.138c33.15-13.075 55.601-28.297 70.605-47.857 3.51-4.576 5.379-10.395 5.263-16.385-.019-.997-.051-2.021-.082-3.07-.091-3.012-.185-6.127-.041-9.414.025-.581-.389-1.115-.886-1.14-1.011-.054-1.999 1.013-2.657 1.918a1.644 1.644 0 0 1-2.957-.718c-.975-6.275-2.343-13.2-5.102-16.984-1.36-1.864-3.862-2.31-5.697-1.014-4.564 3.218-7.04 12.383-8.861 20.921-.495 2.325-1.554 4.475-3.063 6.217-20.795 24.02-42.185 39.546-65.315 47.388h.003Z" fill="#00046A"/><path d="M227.487 88.323c-2.986 2.71-4.88 6.36-6.114 10.185-.13.39-.552.6-.94.47a.747.747 0 0 1-.505-.77c.187-2.19.589-4.4 1.346-6.56.754-2.156 1.881-4.257 3.414-6.103 1.905-2.104 4.879.838 2.799 2.778Z" fill="#00046A"/><path d="M106.632 223.545s-8.891 11.111-18.79 10.094c-9.658-.993-13.127-11.827-10.395-18.294 3.014-7.135 12.712-9.442 18.348-2.385" fill="#777782"/><path d="M106.632 223.543s-8.889 11.113-18.79 10.096c-6.615-.682-10.329-5.979-11.13-11.327-.37-2.459-.127-4.932.734-6.969 2.55-6.04 9.893-8.62 15.506-4.989a11.926 11.926 0 0 1 2.842 2.606l10.838 10.585v-.002Z" fill="#5F5F82"/><path d="M91.172 212.492c.231-.56-2.283-1.521-3.82-1.521-3.394 0-6.458 2.065-7.81 5.264-.684 1.621-.721 4.09-.17 4.162.712.092 1.037-3.856 5.032-6.281 3.174-1.927 6.467-.893 6.769-1.624Z" fill="#fff" opacity=".3"/><path d="M106.632 223.544s-8.889 11.112-18.79 10.095c-6.615-.682-10.329-5.979-11.13-11.327 1.844 1.983 4.578 3.614 8.293 2.633 6.332-1.671 5.687-12.234 7.946-14.592a11.905 11.905 0 0 1 2.842 2.606l10.838 10.585h.001Z" fill="#000072" opacity=".2"/><path d="M89.143 235.137c-.48 0-.962-.024-1.448-.074-4.391-.451-8.063-2.826-10.34-6.685-2.466-4.181-2.947-9.516-1.225-13.593 1.686-3.99 5.366-6.833 9.604-7.42 4.246-.589 8.322 1.125 11.176 4.698.493.618.393 1.52-.223 2.015a1.427 1.427 0 0 1-2.01-.224c-2.208-2.768-5.325-4.098-8.553-3.65-3.246.45-6.067 2.632-7.363 5.699-1.36 3.217-.936 7.644 1.053 11.016 1.276 2.162 3.728 4.836 8.172 5.293 9.022.928 17.446-9.46 17.53-9.565a1.427 1.427 0 0 1 2.009-.221c.615.494.714 1.397.221 2.014-.366.457-8.68 10.696-18.604 10.696v.001Z" fill="#000072"/><path d="M96.703 234.266c-3.189-4.895-10.16-7.717-15.745-5.367-6.512 2.741-9.84 13.359-10.713 16.948-3.38 13.881.948 21.245 10.287 22.102 10.222 1.199 11.645-7.251 12.243-11.361l3.928-22.322Z" fill="#5F5F82"/><path d="M82.421 265.324c3.694 0 5.566-1.721 6.637-4.696.455-1.264-1.281.07-1.281.07-.37.479-16.3 5.11-14.879-14.202-1.663 6.835-1.37 12.093.846 15.205 1.454 2.039 3.821 3.225 7.036 3.519l.068.007c.548.064 1.077.097 1.572.097h.001Z" fill="#000072" opacity=".2"/><path d="M82.414 269.495c-.647 0-1.328-.039-2.05-.124-4.44-.407-7.819-2.174-10.008-5.246-2.984-4.19-3.49-10.454-1.502-18.618.591-2.432 3.93-14.723 11.55-17.929 5.907-2.485 13.754.162 17.494 5.904l-2.394 1.567c-3.022-4.638-9.3-6.804-13.994-4.829-6.49 2.731-9.552 14.619-9.88 15.966-1.756 7.215-1.392 12.843 1.052 16.274 1.684 2.364 4.368 3.73 7.978 4.062 7.973.935 9.853-4.322 10.699-10.141l2.828.413c-.471 3.242-1.848 12.701-11.773 12.703v-.002Z" fill="#000072"/><path d="M88.048 258.157c.538 5.227-1.702 10.813-7.605 11.216v-2.865c4.76.762 7.21-4.285 7.605-8.349v-.002ZM82.466 256.816c-.144 4.878-2.558 10.987-8.407 10.534l.416-2.835c4.5 1.264 7.04-4.07 7.991-7.698v-.001Z" fill="#000072"/><path d="M107.553 151.954c.482.162.984.315 1.513.466 17.073 4.846 31.358 2.014 42.475-3.967-4.37-4.418-11.51-9.129-22.095-9.129-8.678 0-16.185 5.929-21.893 12.63Z" fill="#5F5F82"/><path d="M132.122 228.984c-.741 15.957-9.168 28.802-12.131 41.34-1.708 6.872-2.832 28.965 16.059 28.224 14.478-.514 12.286-17.99 12.415-21.175 2.063-2.669 22.435-28.264 25.566-64.567l-41.911 16.178h.002Z" fill="#C97043"/><path d="M136.051 298.546c5.105-.182 8.135-2.469 9.925-5.501 3.293-5.559 2.405-13.613 2.49-15.675 1.722-2.227 16.218-20.453 22.771-47.554a113.788 113.788 0 0 0 2.795-17.01l-41.912 16.178c-.741 15.956-9.166 28.801-12.13 41.34-1.708 6.872-2.832 28.965 16.059 28.222h.002Z" fill="#5F5F82"/><path d="M133.617 275.763c.341 1.626 11.018 2.547 11.168.557.107-1.42-1.121-4.052-3.118-4.415-2.833-.514-8.434 2.031-8.05 3.859v-.001Z" fill="#000072" opacity=".2"/><path d="M136.051 298.546c5.105-.182 8.135-2.469 9.925-5.501-2.412 1.076-5.75 1.994-9.925 1.792-10.59-.514-14.322-10.465-13.096-20.21 1.538-12.218 7.8-22.18 9.792-23.748 3.44-2.713 23.216-.219 38.492-21.063a113.79 113.79 0 0 0 2.794-17.01l-41.911 16.178c-.741 15.956-9.167 28.801-12.13 41.34-1.709 6.872-2.833 28.965 16.058 28.222h.001Z" fill="#000072" opacity=".2"/><path d="M135.123 300c-5.48 0-9.781-1.877-12.791-5.587-6.153-7.582-4.777-20.208-3.727-24.433 1.131-4.783 3.009-9.53 4.998-14.553 3.264-8.244 6.64-16.77 7.091-26.508l2.856.133c-.475 10.217-3.939 18.968-7.29 27.432-1.95 4.924-3.792 9.576-4.878 14.172-.893 3.597-2.22 15.31 3.166 21.949 2.591 3.191 6.444 4.708 11.446 4.512 10.204-.363 11.27-9.929 11.058-18.222-.017-.664-.031-1.189-.014-1.58l.019-.457.422-.546c5.183-6.676 22.314-30.989 25.13-63.628l2.847.247c-2.855 33.101-20.081 57.832-25.565 64.94.002.267.011.594.02.95.131 5.108.526 20.651-13.808 21.16-.33.013-.656.019-.978.019h-.002Z" fill="#000072"/><path d="M96.306 229.642s5.835 15.612 32.058 15.612 33.028-6.765 33.028-6.765c6.905-6.046 10.96-12.931 12.98-20.137 3.953-14.109.085-29.441-5.552-42.056-3.717-8.31-8.204-15.445-11.723-20.268 0 0-17.701-17.431-30.404-18.137-12.706-.706-30.93 32.725-30.93 32.725a993.428 993.428 0 0 1-1.794 19.549 608.9 608.9 0 0 1-2.295 19.394 45.222 45.222 0 0 0-.285 2.542c-.427 5.262.257 10.66 4.917 17.542v-.001Z" fill="#fff"/><path d="M93.968 190.163c8.05 4.394 44.381-10.221 74.852-13.87-3.717-8.309-8.204-15.444-11.723-20.268 0 0-17.66-22.827-30.363-23.533-12.707-.706-30.97 38.122-30.97 38.122a994.066 994.066 0 0 1-1.794 19.548l-.002.001Z" fill="#5F5F82"/><path d="M96.305 229.642s5.835 15.612 32.058 15.612c26.222 0 33.028-6.765 33.028-6.765 6.905-6.046 10.96-12.931 12.979-20.137-2.578 3.032-15.193 15.606-44.785 12.78-9.218-.88-22.182-12.265-30.004-17.072-4.317-9.439-.974-23.12-4.73-24.211 0 0-1.79 24.59-3.463 22.251-.428 5.261.256 10.66 4.917 17.542ZM107.553 151.954c.482.162.984.315 1.513.466 17.073 4.846 42.317 3.605 50.018-13.255-4.37-4.418-19.052.159-29.638.159-8.678 0-16.185 5.929-21.893 12.63Z" fill="#000072" opacity=".2"/><path d="M95.76 170.615c.376 5.061.3 10.109.088 15.164-.227 5.04-1.085 10.018-1.624 15.029-1.254 11.226-3.736 17.833 3.262 28.027 1.018 1.571-1.26 3.158-2.365 1.61-7.451-10.98-5.168-17.896-3.736-29.978.654-4.976.857-10 1.601-14.967.766-4.991 1.568-9.963 2.774-14.885ZM161.39 238.489c7.559-8.222 12.713-18.64 12.893-29.909.464-18.894-7.922-36.5-17.188-52.555 5.033 5.722 9.207 12.209 12.606 19.091 10.554 20.999 12.959 48.332-8.311 63.372v.001Z" fill="#000072"/><path d="M82.468 248.936c1.479 13.273 12.542 15.842 20.384 13.985 9.48-2.239 13.645-10.985 16.653-18.065l.003-.004c8.259 1.815 23.076 1.301 31.02-1.808l-20.941-11.914-37.914-21.573c-.3 3.072-.847 6.288-1.476 9.559-1.176 6.136-2.637 12.459-3.287 18.343 0 0-1.13 1.282-1.82 3.827-.862 3.19-2.621 7.648-2.621 7.648l-.001.002Z" fill="#fff"/><path d="M88.407 228.127c5.62-3.795 19.082 11.122 31.098 16.729l.004-.004c-7.889-15.209-24.173-19.439-29.308-25.732l-.004-.004a296.97 296.97 0 0 1-.452 2.309c-.444 2.229-.908 4.474-1.34 6.699l.002.003Z" fill="#5D5D6D"/><path d="M88.406 228.128c5.62-3.795 19.082 11.122 31.097 16.729l.004-.004c8.258 1.816 23.076 1.303 31.019-1.808l-20.94-11.914c-18.235-3.022-26.748-9.995-30.005-17.072l-7.909-4.501c-.573 5.87-2.05 12.28-3.266 18.569v.001Z" fill="#000072" opacity=".2"/><path d="M82.468 248.936c1.479 13.273 12.542 15.842 20.384 13.985 9.481-2.239 13.645-10.985 16.653-18.065l.004-.004c-7.891-15.212-24.18-19.439-29.312-25.734-1.176 6.135-2.637 12.458-3.287 18.343 0 0-3.099.596-3.789 3.141-.861 3.189-.652 8.334-.652 8.334h-.001Z" fill="#5F5F82"/><path d="M85.877 248.679c1.157 9.876 8.236 11.356 12.363 11.356 1.293 0 2.581-.151 3.826-.446 4.222-.997 7.212-3.609 9.552-6.947 0 0-4.942 3.343-13.598 2.782-8.584-.557-12.143-6.745-12.143-6.745ZM88.407 228.127c5.62-3.795 19.082 11.122 31.097 16.729l.004-.004c-7.889-15.209-24.173-19.439-29.308-25.732-.15.767-.3 1.535-.454 2.306-.444 2.229-.908 4.474-1.34 6.7v.001Z" fill="#000072" opacity=".2"/><path d="M93.094 209.7c-1.445 9.481-4.638 18.353-6.185 27.762.29-4.72 1.018-9.418 1.716-14.088.695-4.668 1.403-9.336 1.624-13.954l2.845.279v.001ZM82.466 248.937c.839 4.245 2.922 8.539 6.635 10.879 7.182 4.501 17.416 2.378 22.54-4.3 2.956-3.576 4.962-8.137 6.894-12.577l1.328.292c4.92 1.088 10.136 1.292 15.205 1.252 5.191-.075 10.341-.343 15.459-1.436-7.106 3.71-15.41 4.434-23.314 4.275-2.673-.093-5.357-.285-8.06-.841l1.883-.973c-2.543 6.296-6.165 13.257-12.486 16.757-11.384 6.143-25.982.827-26.082-13.328h-.002ZM143.453 286.902c.303 4.884-.757 11.504-6.289 13.005l-.459-2.828c4.513-.406 6.176-6.338 6.748-10.177ZM135.139 286.531c.391 4.741-1.125 13.014-7.512 11.963l.784-2.756c4.166 1.486 6.384-6.093 6.728-9.207Z" fill="#000072"/><path d="M133.678 27.57c-.477-8.294 6.439-23.03 20.263-23.856 14.621-.874 25.658 9.745 23.832 24.228-1.42 11.245-9.841 17.215-16.329 19.75L133.678 27.57Z" fill="#C97043"/><path d="m133.679 27.568 13.307 9.647 14.457 10.478c6.489-2.535 14.913-8.507 16.328-19.75.233-1.82.257-3.583.096-5.267C176.768 10.968 166.72 2.95 153.94 3.712c-13.821.824-20.74 15.564-20.261 23.855v.001Z" fill="#5F5F82"/><path d="M132.965 27.61c-1.441-8.52 4.31-18.078 11.467-22.505 6.75-4.098 15.545-3.724 22.543-.408 14.079 6.643 16.561 26.2 5.772 36.957-1.534 1.589-3.291 2.925-5.152 4.045a27.139 27.139 0 0 1-5.891 2.659.717.717 0 0 1-.518-1.335c7.258-3.385 13.337-9.597 14.829-17.587 1.962-8.982-1.911-18.107-10.334-22.064-16.392-7.144-28.994 3.647-31.289 20.155-.065.813-1.269.886-1.427.083Z" fill="#000072"/><path d="M125.044 149.858c-26.458 5.407-51.61 4.338-65.516-15.274-9.518-13.423-19.04-54.357-3.07-79.935 7.215-12.095 18.684-20.712 35.463-28.528 9.377-4.372 13.375-5.118 16.043-16.752 4.871-.46 10.627 3.103 10.542 9.3 11.885-6.066 16.354.044 22.278-7.048 1.905 3.404 3.231 8.86-1.36 13.842 33.773 7.929 40.756 43.166 44.875 58.001 12.163 19.197 10.443 45.945-46.949 63.175" fill="#C97043"/><path d="M189.002 110.951c-4.228 12.88-18.845 25.837-51.653 35.688l-12.303 3.219c-26.46 5.407-51.609 4.337-65.512-15.273l-.005-.002c-9.519-13.424-19.042-54.357-3.07-79.935 7.216-12.093 18.684-20.71 35.46-28.528 9.376-4.371 13.373-5.118 16.045-16.753 4.87-.458 10.625 3.103 10.54 9.3 11.885-6.064 16.355.043 22.28-7.044 1.902 3.402 3.232 8.859-1.36 13.84 33.774 7.93 40.758 43.165 44.877 57.998 5.208 8.226 7.872 17.833 4.701 27.49Z" fill="#C97043"/><path d="m59.532 134.584.005.003a40.711 40.711 0 0 0 3.966 4.792c14.41 14.956 37.433 15.405 61.545 10.478l12.303-3.218c32.807-9.851 47.424-22.808 51.652-35.688 3.172-9.657.505-19.261-4.703-27.488-4.119-14.835-11.099-50.07-44.873-58.002 4.592-4.976 3.26-10.434 1.358-13.837-5.925 7.088-10.393.982-22.28 7.043.086-6.196-5.67-9.76-10.538-9.298-2.671 11.634-6.671 12.38-16.045 16.75-16.778 7.817-28.246 16.436-35.463 28.53-15.97 25.576-6.445 66.509 3.074 79.934l-.002.001Z" fill="#fff"/><path d="M70.969 145.43c14.264 8.911 33.785 8.573 54.078 4.426 0 0 3.16-.585 5.794-1.31 3.541-.974 6.509-1.909 6.509-1.909 23.373-7.018 37.514-15.614 45.242-24.634-5.136 3.457-49.674 34.126-111.623 23.426v.001Z" fill="#000072" opacity=".2"/><path d="M125.044 149.858c-22.068 6.611-51.282 7.052-66.227-13.557-5.655-7.877-8.349-17.44-10.322-26.8-3.545-18.587-3.275-39.304 6.903-55.854 7.437-12.477 19.838-20.979 32.628-27.246 4.043-2.101 8.688-3.701 12.406-6.175 3.739-2.514 5.129-6.916 6.136-11.179a1.419 1.419 0 0 1 1.259-1.105c6.172-.608 12.323 4.355 12.105 10.747l-2.078-1.297c3.697-1.898 7.913-3.102 12.07-3.22 4.331-.135 6.928-.038 9.76-3.47.617-.762 1.881-.655 2.342.219 1.336 2.416 2.126 5.19 1.896 7.993-.2 2.82-1.582 5.479-3.453 7.522l-.724-2.368c6.458 1.554 12.694 4.219 18.083 8.146 16.404 11.398 23.744 33.567 27.672 50.482 3.328 5.041 5.831 10.923 6.396 17.025 1.776 17.493-12.534 30.064-26.717 37.31-8.775 4.486-18.236 7.641-27.834 9.608 16.861-7.114 37.603-14.54 47.531-30.754 6.149-10.15 4.211-21.903-1.787-31.652-3.455-12.497-6.742-25.199-14.015-36.033-5.19-7.93-12.389-14.516-21.054-18.341-2.874-1.266-5.869-2.249-8.926-3a1.44 1.44 0 0 1-.723-2.366c.747-.838 1.393-1.742 1.86-2.719 1.488-3.023.94-6.515-.697-9.448l2.342.219c-1.095 1.275-2.4 2.47-3.898 3.216-2.352 1.208-5.363 1.178-7.911 1.277-3.876.122-7.476 1.167-10.915 2.911-.926.495-2.105-.26-2.078-1.297.004-1.13-.213-2.23-.672-3.228-1.394-3.076-5.012-4.923-8.308-4.625l1.259-1.106c-1.071 4.77-2.957 10.02-7.274 12.878-4.125 2.74-8.504 4.187-12.792 6.404-16.923 8.18-31.553 19.992-37.066 38.686-5.586 19.369-2.731 42.74 5.678 60.942 12.695 25.583 42.708 24.301 67.143 21.258l.002-.003Z" fill="#000072"/><path d="M89.829 69.44s2.337-13.306 10.095-12.112c2.065.318 3.939 3.832 2.706 6.018-2.16 3.828-12.802 6.095-12.802 6.095ZM157.852 52.518s-5.976-9.868-11.163-5.633c-1.368 1.117-1.974 4.153.379 5.927 3.094 2.333 10.784-.294 10.784-.294ZM140.306 26.59c-4.454 2.611-10.006 2.712-14.792 1.074 4.313.58 8.94-.22 12.464-2.854.208-.153.443-.351.563-.475l1.765 2.255ZM151.283 98.93c.584 2.334-1.495 5.046-3.18 6.787a4.406 4.406 0 0 1-4.512 1.134c-2.304-.739-5.414-2.148-5.998-4.482-.947-3.79 12.743-7.229 13.69-3.439Z" fill="#000072"/><path d="M147.83 98.925c.108.431-.757 1.054-1.437 1.469-.47.287-1.119.45-1.669.42-.796-.045-1.851-.185-1.959-.616-.175-.7 4.89-1.974 5.065-1.273Z" fill="#fff" opacity=".35"/><path d="M126.771 102.67c.81-10.316-8.174-29.05-23.846-24.43-16.469 4.854-24.37 30.352-17.587 40.068 4.095 5.865 14.157-2.129 26.436-4.48 9.301-1.781 14.441-4.097 14.997-11.156v-.002ZM153.766 96.16c-6.782-7.42-8.825-26.408.043-29.474 8.512-2.943 19.344 2.519 24.886 11.976 3.081 5.256 3.599 11.804.874 13.48-1.978 1.219-6.434 2.026-10.167 3.146-6.259 1.878-10.279 6.732-15.636.87v.002ZM74.802 43.15C69.722 34.678 54.5 23.284 37.91 32.117c-13.088 6.968-18.342 26.525-7.214 39.84 7.85 9.395 21.189 10.303 29.26 8.43 0 0 4.955-1.16 10.5-15.729 5.857-15.388 4.347-21.508 4.347-21.508Z" fill="#5F5F82"/><path d="M69.342 52.883c-.628 2.69-1.618 6.047-3.175 10.136-3.776 9.92-6.977 12.512-7.658 12.973-.413.09-.847.17-1.287.24-6.918 1.09-17.091-.15-23.008-7.232a22.062 22.062 0 0 1-2.504-3.697c7.13 5.662 18.016 7.066 24.803 3.667 8.682-4.35 12.828-16.087 12.828-16.087h.001Z" fill="#000072" opacity=".2"/><path d="M74.802 43.15c-6.192-7.467-15.363-12.925-25.085-12.71-9.482.291-18.324 6.533-21.57 15.52-5.523 14.2 2.188 29.618 17.16 33.153 4.668 1.243 9.61 1.653 14.648 1.275-4.798 1.828-10.14 2.104-15.204 1.191-23.903-4.405-29.454-35.57-10.136-49.41 8.881-6.08 21.08-6.33 29.996-.345 4.3 2.792 8.071 6.645 10.191 11.326ZM147.311 105.258c-.111 2.637-1.808 5.332-2.055 5.341-.167.006-.313-3.217-1.403-5.075" fill="#000072"/><path d="M127.999 132.641c-6.792-1.108-12.211-6.144-9.538-12.268 3.463-6.449 9.24-1.607 19.672-4.043 6.199-1.447 7.964-4.118 11.03-2.398 2.798 1.569 3.861 7.291.331 11.759-4.107 5.197-13.129 8.315-21.494 6.949l-.001.001Z" fill="#5E3519"/><path d="M127.514 132.554c.161.031.321.06.486.086 6.082.992 12.511-.383 17.148-3.21 1.737-1.058 3.227-2.321 4.347-3.742 3.526-4.464 2.463-10.188-.333-11.756-1.397-.786-2.528-.658-3.932-.146-1.671.609-3.728 1.758-7.099 2.544-5.343 1.249-9.465.585-12.681.513-3.062-.075-5.3.385-6.987 3.532-2.612 5.976 2.488 10.914 9.052 12.179h-.001Z" fill="#000072"/><path d="M139.645 120.17c5.002-1.552 5.773-4.11 5.584-6.384-1.671.609-3.728 1.758-7.099 2.544-5.343 1.249-9.465.585-12.681.513-.023 1.577 2.102 6.511 3.346 6.814.562.136 1.287-1.153 1.607-2.312 2.483.318 5.71-.081 9.242-1.175h.001Z" fill="#fff"/><path d="M127.514 132.554c.161.031.321.06.486.086 6.083.992 12.511-.383 17.148-3.21-2.395-2.549-6.75-3.471-10.316-1.303-3.195-1.162-6.078.707-7.09 3.812-.087.214-.158.418-.227.614l-.001.001Z" fill="#F28475"/><path d="M135.26 125.408s-2.847 2.282-1.895 2.39c1.125.128 3.166.997 3.695 2.119 0 0-.032-2.649-1.8-4.509Z" fill="#000072"/><path d="M132.025 134.036c-1.405 0-2.815-.109-4.199-.334-4.611-.753-8.399-3.109-10.133-6.301-1.258-2.317-1.333-4.896-.214-7.457l.038-.079c2.39-4.45 5.823-4.248 10.168-3.994 2.881.169 6.145.361 10.204-.586 2.309-.539 4.001-1.264 5.36-1.847 2.29-.98 4.097-1.755 6.435-.443 1.454.815 2.523 2.474 2.934 4.551.586 2.966-.269 6.26-2.286 8.812-3.746 4.742-11.007 7.678-18.308 7.678h.001Zm-12.6-13.192c-.836 1.943-.785 3.804.151 5.528 1.398 2.574 4.691 4.57 8.594 5.207 7.728 1.263 16.533-1.558 20.482-6.556 1.631-2.065 2.327-4.704 1.863-7.061-.284-1.437-.986-2.593-1.877-3.093-1.349-.757-2.223-.45-4.547.544-1.437.616-3.224 1.382-5.716 1.963-4.362 1.017-7.941.807-10.816.638-4.119-.24-6.396-.375-8.134 2.829v.001Z" fill="#000072"/><path d="M122.407 105.696c-10.788-11.555-27.082-14.52-29.683 2.697l29.683-2.697Z" fill="#5F5F82"/><path d="M122.407 105.696c-6.816-3.946-17.178-10.312-24.325-4.785-2.36 1.879-3.828 4.712-5.36 7.482-.333-1.717-.318-3.487.03-5.26 1.144-6.198 6.799-10.015 12.987-9.31 7.308.87 13.308 5.608 16.667 11.873h.001Z" fill="#000072"/><path d="M156.511 95.454c1.499-18.409 10.164-20.142 18.254-10.524l-18.254 10.524Z" fill="#5F5F82"/><path d="M156.511 95.454c-.917-4.106-.784-8.406.798-12.37 1.956-5.12 7.32-7.977 12.28-4.936 2.556 1.605 4.303 3.967 5.176 6.782-2.329-1.124-4.505-2.489-6.837-3.174-3.165-1.052-5.343.533-6.876 3.201-1.967 3.266-2.968 6.816-4.54 10.497h-.001Z" fill="#000072"/><path d="M1.495 148.149c.666 7.316 9.208 15.154 18.961 12.869 5.125-1.284 10.107-5.015 13.892-4.025 5.597.835 52.004 28.187 60.293 33.093.816.486 1.264.75 1.264.75l15.417-37.768a75.947 75.947 0 0 1-4.039-1.212c-20.49-6.762-41.868-22.505-69.06-29.828-8.685-2.015-21.883-6.422-25.085-1.412-1.598 2.497-.813 4.598.694 6.334.66.76 1.455 1.452 2.252 2.075-1.182.634-6.372 2.922-10.243 7.153-1.053 1.151-2.006 2.445-2.758 3.891a14.878 14.878 0 0 0-1.24 3.271 14.46 14.46 0 0 0-.35 4.81l.002-.001Z" fill="#5F5F82"/><path d="M13.832 126.95c-.394-1.112-.094-4.604 1.356-5.508 3.231-2.012 15.262.906 25.939 4.123 15.717 4.741 27.728 12.218 46.407 20.096 10.028 4.23 16.119 5.755 19.749 6.194-20.49-6.762-41.868-22.505-69.06-29.828-8.685-2.015-21.883-6.423-25.085-1.412-1.598 2.497-.813 4.597.694 6.333v.002Z" fill="#fff" opacity=".4"/><path d="M1.495 148.149c.666 7.316 9.208 15.154 18.961 12.869 5.125-1.284 10.107-5.015 13.892-4.025 5.597.835 52.004 28.187 60.293 33.093-1.128-7.944-54.81-38.173-61.09-38.66-6.146-.473-12.915 7.426-23.434 3.457-6.277-2.371-7.896-8.016-8.275-11.544a14.458 14.458 0 0 0-.349 4.81h.002Z" fill="#000072" opacity=".2"/><path d="M31.652 132.82c-2.742-5.509-12.358-2.545-14.957 2.027-2.904 5.11 5.219 9.749 9.917 7.95 4.04-1.546 6.804-6.434 5.04-9.975v-.002ZM20.698 148.852c-.523-2.056-5.277-2-6.628.593-1.332 2.556 1.411 4.006 3.492 3.641 2.333-.41 3.47-2.921 3.136-4.233v-.001ZM13.466 143.553c-.807-1.963-5.516-1.865-6.593.896-1.048 2.686 1.412 4.006 3.492 3.641 2.333-.409 3.715-3.048 3.102-4.537h-.001ZM3.084 140.068c.533 1.216 2.262 1.812 3.682 1.562 2.335-.408 3.636-2.778 3.305-4.09-.331-1.295-2.405-1.809-4.23-1.364-1.052 1.151-2.005 2.446-2.757 3.892Z" fill="#fff"/><path d="m20.754 128.05-4.38 2.378-.582-2.807 4.962.429Z" fill="#000072"/><path d="M95.905 190.836c-5.754-1.456-10.815-4.749-15.931-7.568-10.203-5.732-20.317-11.641-30.545-17.313-4.967-2.625-9.997-5.717-15.293-7.528-2.28-.574-4.899.748-7.13 1.664-5.66 2.692-11.036 3.95-17.002 1.197-4.066-1.881-7.47-5.321-9.092-9.525-1.656-4.256-.966-9.29 1.349-13.159 3.086-5.172 8.246-8.457 13.15-10.844l-.208 2.392c-2.12-1.643-4.489-4.026-4.368-7.02.121-2.368 1.62-4.648 3.813-5.492 6.415-2.408 17.244 1.608 23.925 2.964 16.41 4.376 31.803 12.087 46.809 19.9 7.5 3.903 18.227 8.91 25.939 12.562-9.747-.941-18.658-5.542-27.351-9.74-14.943-7.45-29.931-15.475-46.105-19.881-4.635-1.102-9.284-2.499-13.962-3.264-2.295-.361-4.654-.62-6.73-.287-3.035.31-4.569 3.333-2.556 5.751.613.8 1.449 1.541 2.346 2.25.633.477.75 1.383.261 2.007-.283.404-1.896 1.079-2.314 1.329-6.066 3.129-12.35 8.561-12.043 15.946.154 5.039 3.894 9.443 8.328 11.506 7.372 3.316 11.825-.443 18.684-2.767 1.16-.461 3.756-.682 4.68-.356 3.138.779 5.656 2.266 8.497 3.611 13.077 6.684 25.86 13.896 38.458 21.432 4.975 3.051 10.336 5.876 14.389 10.233h.002Z" fill="#000072"/></g><defs><clipPath id="a"><path fill="#fff" d="M0 0h444v300H0z"/></clipPath></defs></svg>