<svg width="1440" height="526" fill="none" xmlns="http://www.w3.org/2000/svg"><path d="M1692.79 333.156v-.02a194.979 194.979 0 0 0 12.1-27.723c-4.2-7.637-8.71-15.09-13.46-22.319 11.49-22.646 19.35-47.973 22.49-75.247-12.85-86.188-79.69-157.03-166.99-168.409-87.13-11.378-132.05 72.117-91.95 155.868-6.05-3.008-42.62-10.625-72.4 19.719-40.98 41.722-20.2 91.499-18.17 96.036.05-.611.11-.999.16.337-.2 1.754-.2.663-.16-.204-2.54-3.242-33.12-43.894-93.43-45.964-18.2-.642-38.12 11.787-50.79 33.453.13-.132.25-.275.41-.408-.16.164-.32.337-.48.5-8.01 13.724-13.07 31.169-12.94 51.347-.05-.051-.09-.071-.13-.112-2.03-1.733-4.23-3.262-6.51-4.608-13.49-7.912-30.21-9.483-45.38-5.68-9.12 2.284-18.07 6.658-24 14a32.585 32.585 0 0 0-5.27 9.533c.78-2.529 1.39-5.149 1.87-7.8 3.27-18.904-.83-39.245-13.83-53.06a55.284 55.284 0 0 0-2.32-2.325c-4.14-3.854-8.74-7.137-13.65-9.849 1.58-3.538 2.71-7.229 3.33-11.104 2.02-12.745-1.85-25.786-7.51-37.419-19.16-39.357-60.34-66.968-103.943-69.731a109.313 109.313 0 0 0-7.305-.225c-1.973 0-3.957.041-5.931.164l-1.231.071c-.61.02-1.251.071-1.861.132-.682.051-1.364.092-2.076.164a127.34 127.34 0 0 0-14.141 2.161c-.6.133-1.159.255-1.76.408-.793.163-1.566.337-2.34.571a32.89 32.89 0 0 0-2.614.663c-.814.204-1.638.459-2.452.703-.732.184-1.434.408-2.146.643-1.181.367-2.361.754-3.541 1.162-.956.316-1.912.663-2.869 1.03-.478.183-.976.367-1.454.55-.702.276-1.435.551-2.137.847-.976.387-1.984.815-2.96 1.254a43.6 43.6 0 0 0-1.913.846 89.85 89.85 0 0 0-4.456 2.141c-.63.296-1.271.612-1.882.959a56.47 56.47 0 0 0-2.187 1.162c-.733.387-1.455.795-2.187 1.213-.885.5-1.75 1.03-2.615 1.55a60.986 60.986 0 0 0-3.042 1.897 68.817 68.817 0 0 0-3.001 1.978 105.247 105.247 0 0 0-6.735 4.924 50.39 50.39 0 0 0-1.912 1.509c-2.065 1.683-4.09 3.416-6.053 5.272a107.674 107.674 0 0 0-4.527 4.404 78.755 78.755 0 0 0-2.544 2.692c-.844.918-1.658 1.825-2.482 2.784-1.496 1.733-6.725 8.829-6.887 8.778-17.081-6.912-36.828-6.046-53.858.939-10.56 4.312-28.475 23.206-26.796 20.82-18.963-13.795-41.691-22.442-65.12-23.92a107.569 107.569 0 0 0-7.254-.224c-1.912 0-3.845.04-5.758.163-.478 0-.936.02-1.414.071-.753.041-1.505.092-2.248.163-.57.041-1.139.092-1.729.133-1.323.132-2.656.275-3.978.459-1.14.142-2.249.295-3.388.479-.997.132-1.984.316-2.981.499a36.21 36.21 0 0 0-2.075.408c-.753.112-1.496.276-2.248.459-1.211.255-2.412.52-3.622.846-1.068.255-2.137.551-3.184.816-1.526.438-3.022.887-4.527 1.366a73.66 73.66 0 0 0-2.981.979c-.936.316-1.862.643-2.778.999-.773.255-1.526.551-2.268.867-.885.316-1.77.683-2.635 1.05-.865.367-1.709.734-2.543 1.091-.092.041-.184.092-.275.112-1.089.5-2.187 1-3.276 1.53-1.119.52-2.228 1.091-3.347 1.662-1.089.571-2.187 1.142-3.276 1.753a95.585 95.585 0 0 0-3.235 1.846 85.804 85.804 0 0 0-3.184 1.937 124.02 124.02 0 0 0-6.186 4.15 60.26 60.26 0 0 0-1.983 1.438 125.41 125.41 0 0 0-17.519 15.753c-.844.907-1.658 1.845-2.482 2.783a115.534 115.534 0 0 0-4.364 5.363s-2.361 3.467-2.523 3.416c-9.004-3.62-18.76-5.108-28.476-4.67-1.454-5.567-3.611-11.012-6.114-16.161-19.176-39.356-60.358-66.967-103.961-69.731a109.076 109.076 0 0 0-7.304-.224c-1.954 0-3.887.041-5.82.163-.457 0-.915.021-1.342.072-.682.02-1.384.091-2.066.132-.64.041-1.271.092-1.892.163-2.279.204-4.527.48-6.755.816-1.088.184-2.157.337-3.225.551-.132.02-.254.02-.366.071a77.04 77.04 0 0 0-3.408.663c-1.18.255-2.34.499-3.5.795-1.16.275-2.319.571-3.479.887-1.028.275-2.045.571-3.072.867-.733.204-1.455.428-2.188.683-.976.296-1.933.612-2.889.958-.865.276-1.709.571-2.543.908a62.01 62.01 0 0 0-2.391.887c-.366.132-.702.275-1.048.408-.814.316-1.617.662-2.431.999a3.077 3.077 0 0 0-.59.275 50.517 50.517 0 0 0-3.052 1.346c-1.089.5-2.157.999-3.256 1.55-.936.459-1.862.938-2.797 1.417-.367.184-.723.388-1.069.571l-2.339 1.295a1.298 1.298 0 0 0-.275.163c-.997.571-1.984 1.142-2.961 1.733a100.607 100.607 0 0 0-3.052 1.897 79.106 79.106 0 0 0-2.98 1.988 113.17 113.17 0 0 0-2.818 1.958c-.184.132-.387.275-.57.408-.814.591-1.638 1.213-2.432 1.825-.956.734-1.882 1.478-2.818 2.233a97.139 97.139 0 0 0-2.756 2.304c-.906.775-1.801 1.57-2.686 2.376a84.777 84.777 0 0 0-2.615 2.467 73.906 73.906 0 0 0-2.543 2.529c-3.347 3.415-11.761 14.274-11.893 14.233-17.081-6.882-36.848-6.015-53.878.959-16.328 6.678-31.11 20.29-33.592 37.776-.336-.02-.682-.071-1.027-.112-11.262-1.162-25.749-4.333-36.757-2.916-4.69.591-9.369 1.662-13.825 3.283-13.714-26.041-54.906-23.92-54.906-23.92 8.505-49.634-37.916-74.329-51.945-68.018a67.46 67.46 0 0 0 2.594-12.49c3.887-35.87-25.179-47.952-52.474-31.536 0 0-3.55-25.123-36.166-10.788-1.363-37.827-34.68-32.882-34.68-32.882C18.294 72.8-12.542 8.045-73.093 1.366c-53.522-5.903-70.481 35.931-76.494 91.337-.661 5.923-.753 11.786-.407 17.557-69.555 23.41-122.893 87.003-131.642 167.674a201.557 201.557 0 0 0-1.201 21.504c6.918 44.526 26.542 84.953 55.038 116.011a358.204 358.204 0 0 0-5.799 20.341c3.052 3.599 6.206 7.117 9.481 10.491-6.867 20.821-11.709 42.773-14.191 65.622-3.754 34.585-1.862 68.558 4.934 100.921 31.842 123.698 128.845 220.438 252.532 236.63 90.004 11.786 175.398-21.504 237.446-83.659 25.769 50.114 72.23 86.575 128.346 93.916 68.874 9.034 133.027-28.345 166.538-89.582 36.888 93.936 117.176 164.391 216.498 177.411 100.981 13.224 195.582-36.318 251.303-120.599-.94 8.962 110.99 357.269 282.89 379.679 25.71 3.36 51.02 3.4 75.58.43h.23c137.1-22.12 249.26-142.39 266.47-300.447 3.79-34.912 2.71-69.201-2.71-102.083-2.68-17.731-7.42-34.871-8.41-38.511a387.043 387.043 0 0 0-7.17-22.982c64.49-52.397 109.9-132.63 120.19-226.892a375.621 375.621 0 0 0 2.15-38.123 323.987 323.987 0 0 0-55.72-144.856Z" fill="#E0FBFF"/></svg>