<?xml version="1.0" encoding="UTF-8" standalone="no"?>
<!-- Created with Inkscape (http://www.inkscape.org/) -->
<svg xmlns:inkscape="http://www.inkscape.org/namespaces/inkscape" xmlns:rdf="http://www.w3.org/1999/02/22-rdf-syntax-ns#" xmlns="http://www.w3.org/2000/svg" xmlns:xlink="http://www.w3.org/1999/xlink" xmlns:ns1="http://sozi.baierouge.fr" xmlns:cc="http://creativecommons.org/ns#" xmlns:sodipodi="http://sodipodi.sourceforge.net/DTD/sodipodi-0.dtd" xmlns:dc="http://purl.org/dc/elements/1.1/" id="svg2" xml:space="preserve" viewBox="0 0 175.26 417.55" version="1.1" inkscape:version="0.91 r13725">
  <defs id="defs6">
    <linearGradient id="linearGradient24" y2="-325.65" gradientUnits="userSpaceOnUse" x2="-138.59" gradientTransform="matrix(-.7944 .09464 .09464 .7944 .0060891 334.04)" y1="-325.65" x1="-168.4">
      <stop id="stop26" style="stop-color:#afd9c0" offset="0"/>
      <stop id="stop28" style="stop-color:#81c8a7" offset=".2863"/>
      <stop id="stop30" style="stop-color:#63bd97" offset="0.502"/>
      <stop id="stop32" style="stop-color:#64bd97" offset=".50590"/>
      <stop id="stop34" style="stop-color:#afdaca" offset="1"/>
    </linearGradient>
    <linearGradient id="linearGradient48" y2="208.23" gradientUnits="userSpaceOnUse" x2="129.71" gradientTransform="matrix(.8 -.00624 -.00624 -.8 .0062111 334.04)" y1="208.23" x1="30.757">
      <stop id="stop50" style="stop-color:#c0e1cf" offset="0"/>
      <stop id="stop52" style="stop-color:#a7d3c1" offset=".102"/>
      <stop id="stop54" style="stop-color:#82beac" offset=".27450"/>
      <stop id="stop56" style="stop-color:#6cb19f" offset=".41570"/>
      <stop id="stop58" style="stop-color:#64ac9b" offset="0.502"/>
      <stop id="stop60" style="stop-color:#acd9c0" offset="1"/>
    </linearGradient>
    <linearGradient id="linearGradient74" y2="150.29" gradientUnits="userSpaceOnUse" x2="245.11" gradientTransform="matrix(.51576 -.61152 -.61152 -.51576 .0064725 334.04)" y1="150.29" x1="195.01">
      <stop id="stop76" style="stop-color:#d7f1db" offset="0"/>
      <stop id="stop78" style="stop-color:#bddac3" offset="1"/>
    </linearGradient>
    <clipPath id="clipPath86">
      <path id="path88" d="m90 147.04h39v72h-39v-72z" inkscape:connector-curvature="0"/>
    </clipPath>
    <mask id="mask90">
      <g id="g92">
        <g id="g94" clip-path="url(#clipPath86)">
          <path id="path96" style="fill:#000000;fill-opacity:.32810" d="m90 147.04h39v72h-39v-72z" inkscape:connector-curvature="0"/>
        </g>
      </g>
    </mask>
    <clipPath id="clipPath102">
      <path id="path104" d="m90 147.04h39v72h-39v-72z" inkscape:connector-curvature="0"/>
    </clipPath>
    <clipPath id="clipPath106">
      <path id="path108" d="m90 148h39v72h-39v-72z" inkscape:connector-curvature="0"/>
    </clipPath>
    <clipPath id="clipPath130">
      <path id="path132" d="m27 162.04h45v169h-45v-169z" inkscape:connector-curvature="0"/>
    </clipPath>
    <mask id="mask134">
      <g id="g136">
        <g id="g138" clip-path="url(#clipPath130)">
          <path id="path140" style="fill:#000000;fill-opacity:.21090" d="m27 162.04h45v169h-45v-169z" inkscape:connector-curvature="0"/>
        </g>
      </g>
    </mask>
    <clipPath id="clipPath146">
      <path id="path148" d="m27 162.04h45v169h-45v-169z" inkscape:connector-curvature="0"/>
    </clipPath>
    <clipPath id="clipPath150">
      <path id="path152" d="m27 163h45v169h-45v-169z" inkscape:connector-curvature="0"/>
    </clipPath>
    <clipPath id="clipPath174">
      <path id="path176" d="m19 15.04h23v145h-23v-145z" inkscape:connector-curvature="0"/>
    </clipPath>
    <mask id="mask178">
      <g id="g180">
        <g id="g182" clip-path="url(#clipPath174)">
          <path id="path184" style="fill:#000000;fill-opacity:.32810" d="m19 15.04h23v145h-23v-145z" inkscape:connector-curvature="0"/>
        </g>
      </g>
    </mask>
    <clipPath id="clipPath190">
      <path id="path192" d="m19 15.04h23v145h-23v-145z" inkscape:connector-curvature="0"/>
    </clipPath>
    <clipPath id="clipPath194">
      <path id="path196" d="m19 16h23v145h-23v-145z" inkscape:connector-curvature="0"/>
    </clipPath>
    <clipPath id="clipPath218">
      <path id="path220" d="m70 48.04h16v73h-16v-73z" inkscape:connector-curvature="0"/>
    </clipPath>
    <mask id="mask222">
      <g id="g224">
        <g id="g226" clip-path="url(#clipPath218)">
          <path id="path228" style="fill:#000000;fill-opacity:.21090" d="m70 48.04h16v73h-16v-73z" inkscape:connector-curvature="0"/>
        </g>
      </g>
    </mask>
    <clipPath id="clipPath234">
      <path id="path236" d="m70 48.04h16v73h-16v-73z" inkscape:connector-curvature="0"/>
    </clipPath>
    <clipPath id="clipPath238">
      <path id="path240" d="m70 49h16v73h-16v-73z" inkscape:connector-curvature="0"/>
    </clipPath>
    <clipPath id="clipPath262">
      <path id="path264" d="m72 143.04h16v132h-16v-132z" inkscape:connector-curvature="0"/>
    </clipPath>
    <mask id="mask266">
      <g id="g268">
        <g id="g270" clip-path="url(#clipPath262)">
          <path id="path272" style="fill:#000000;fill-opacity:.21090" d="m72 143.04h16v132h-16v-132z" inkscape:connector-curvature="0"/>
        </g>
      </g>
    </mask>
    <clipPath id="clipPath278">
      <path id="path280" d="m72 143.04h16v132h-16v-132z" inkscape:connector-curvature="0"/>
    </clipPath>
    <clipPath id="clipPath282">
      <path id="path284" d="m72 144h16v132h-16v-132z" inkscape:connector-curvature="0"/>
    </clipPath>
    <linearGradient id="linearGradient312" y2="261.77" gradientUnits="userSpaceOnUse" x2="91.4" gradientTransform="matrix(.8 0 0 -.8 .0061040 334.04)" y1="261.77" x1="38.768">
      <stop id="stop314" style="stop-color:#c0e1cf" offset="0"/>
      <stop id="stop316" style="stop-color:#a7d3c1" offset=".102"/>
      <stop id="stop318" style="stop-color:#82beac" offset=".27450"/>
      <stop id="stop320" style="stop-color:#6cb19f" offset=".41570"/>
      <stop id="stop322" style="stop-color:#64ac9b" offset="0.502"/>
      <stop id="stop324" style="stop-color:#acd9c0" offset="1"/>
    </linearGradient>
    <clipPath id="clipPath332">
      <path id="path334" d="m29 101.04h44v65h-44v-65z" inkscape:connector-curvature="0"/>
    </clipPath>
    <mask id="mask336">
      <g id="g338">
        <g id="g340" clip-path="url(#clipPath332)">
          <path id="path342" style="fill:#000000;fill-opacity:.32810" d="m29 101.04h44v65h-44v-65z" inkscape:connector-curvature="0"/>
        </g>
      </g>
    </mask>
    <clipPath id="clipPath348">
      <path id="path350" d="m29 101.04h44v65h-44v-65z" inkscape:connector-curvature="0"/>
    </clipPath>
    <clipPath id="clipPath352">
      <path id="path354" d="m29 102h44v65h-44v-65z" inkscape:connector-curvature="0"/>
    </clipPath>
    <linearGradient id="linearGradient382" y2="-199.08" gradientUnits="userSpaceOnUse" x2="156.01" gradientTransform="matrix(-.31968 -.73336 -.73336 .31968 .0053360 334.04)" y1="-199.08" x1="89.684">
      <stop id="stop384" style="stop-color:#d7f1db" offset="0"/>
      <stop id="stop386" style="stop-color:#bddac3" offset="1"/>
    </linearGradient>
    <linearGradient id="linearGradient400" y2="-72.566" gradientUnits="userSpaceOnUse" x2="231.89" gradientTransform="matrix(-.0316 -.79936 -.79936 .0316 .0057467 334.04)" y1="-72.566" x1="192.01">
      <stop id="stop402" style="stop-color:#d7f1db" offset="0"/>
      <stop id="stop404" style="stop-color:#bddac3" offset="1"/>
    </linearGradient>
    <linearGradient id="linearGradient418" y2="-58.396" gradientUnits="userSpaceOnUse" x2="161.54" gradientTransform="matrix(.07 -.79696 -.79696 -.07 .0057169 334.04)" y1="-58.396" x1="102.09">
      <stop id="stop420" style="stop-color:#d7f1db" offset="0"/>
      <stop id="stop422" style="stop-color:#bddac3" offset="1"/>
    </linearGradient>
  </defs>
  <g id="g10" transform="matrix(1.25 0 0 -1.25 0 417.55)">
    <g id="g12">
      <g id="g14">
        <g id="g16">
          <g id="g22">
            <path id="path36" style="fill-rule:evenodd;fill:url(#linearGradient24)" d="m113.96 97.118c0.242-1.863-1.52-9.023-5.281-21.476-1.68-5.524-2.704-8.977-3.079-10.364-0.828-3.25-1.839-8.023-3.039-14.316-0.933-5.016-1.867-8.774-2.8-11.281-1.149-3.039-2.161-6.536-3.039-10.481-1.95-8.668-3.454-14.414-4.52-17.238 0.184 0.691 2.852 32.863 8 96.519 0.586-0.64 1.504-1.281 2.758-1.921 1.625-0.825 3.535-2.118 5.719-3.879 1.148-0.934 2.429-1.95 3.839-3.039 0.856-0.774 1.336-1.614 1.442-2.52v-0.004z" inkscape:connector-curvature="0"/>
          </g>
        </g>
      </g>
      <g id="g38">
        <g id="g40">
          <g id="g46">
            <path id="path62" style="fill-rule:evenodd;fill:url(#linearGradient48)" d="m70.727 334.04c0.132-0.535 0.226-1.535 0.281-3 0.078-2.961-0.094-6.828-0.524-11.602-0.504-5.41-0.492-10.386 0.043-14.918 0.532-4.265 1.227-6.187 2.078-5.761 0.586 0.293 0.84 1.75 0.762 4.359-0.109 3.574-0.109 5.75 0 6.524 0.293 1.972 0.719 3.343 1.281 4.117 0.586 0.801 1.133 0.574 1.637-0.68 0.348-0.824 0.457-2.559 0.32-5.199-0.132-2.586 0.028-4.387 0.481-5.399 0.16-0.347 0.867-1.109 2.121-2.281 0.801-0.746 1.254-2.375 1.359-4.879 0.082-2.136 0.028-5.949-0.16-11.441 0.11-5.199 1.039-9.613 2.801-13.238 3.84-7.922 5.613-15.789 5.32-23.602-0.082-1.602 0.039-2.574 0.36-2.922 0.32-0.316 0.691 0.016 1.121 1 1.117 2.508 1.68 6.508 1.68 12 0 5.254 0.05 8.844 0.16 10.762 0.078 1.094 0.199 1.84 0.359 2.238 0.133 0.27 0.426-1.25 0.879-4.558 0.453-3.305 0.867-7.012 1.242-11.122 0.317-3.144 0.117-8.41-0.601-15.796-0.829-8.348-1.243-13.161-1.243-14.442 0-3.519 0.137-7.668 0.403-12.441 0.293-5.067 0.558-7.344 0.801-6.84 0.16 0.32 3.281-0.906 9.359-3.68 6.613-2.984 10.613-4.531 12-4.64 2.558-0.161 5.437-0.786 8.641-1.879 3.679-1.282 5.226-2.508 4.64-3.68-0.215-0.426-2.242-3.508-6.082-9.238-3.492-5.231-5.453-8.524-5.879-9.883-1.199-3.813-2.082-6.481-2.64-8-1.493-4.156-3.094-7.774-4.801-10.84-1.309-2.398-2.692-4.172-4.16-5.316-0.614-0.801-0.547-2.91 0.199-6.321 1.015-4.668 1.695-10.269 2.043-16.8 0.371-7.122 0.133-12.055-0.723-14.801-0.613-1.946-1.597-4.36-2.957-7.238-1.043-2.668-1.562-5.563-1.562-8.684 0-5.117-0.348-15.731-1.039-31.84-0.133-3.437-0.348-6.211-0.641-8.316-0.242-1.654-0.922-5.681-2.043-12.079-0.906-5.575-1.789-12.094-2.641-19.563-0.718-6.183-1.082-9.664-1.082-10.437l-1.316-11.403-53.32-0.277c-3.227 8.504-6.95 29.387-11.161 62.641-2.082 16.586-4.988 29.492-8.722 38.718-3.864 8.133-6.907 14.653-9.117 19.559-4.161 9.148-5.817 14.48-4.961 16 0.746 1.332 2.984 3.426 6.718 6.281 3.602 2.774 5.52 4.481 5.762 5.117 0.027 0.055-0.066 3.575-0.281 10.563-0.16 6.293 0.547 10.027 2.121 11.199 1.973 1.441 3.371 3.055 4.199 4.84 0.801 1.734 1 3.48 0.602 5.242-0.614 2.637-0.961 4.559-1.043 5.758-0.184 2.934 0.066 7.121 0.761 12.559 0.348 2.64 0.387 5.363 0.122 8.16-0.43 2.988-0.735 5.109-0.922 6.363-0.586 4.266 0.214 7.652 2.402 10.16 2.477 2.824 3.934 4.945 4.359 6.359 0.371 2.559 0.946 5.481 1.719 8.758 0.961 3.973 2.465 7.586 4.52 10.84 2.402 3.36 4.172 6.11 5.32 8.242 1.973 3.625 3.082 5.785 3.32 6.481 0.535 1.465 1.106 4.344 1.719 8.637 0.187 1.23 0.613 6.16 1.281 14.8 0.426 5.36 1.055 8.309 1.879 8.84 0.961 0.586 1.547 0.375 1.762-0.64 0.105-0.399 0.226-2.399 0.359-6 0.106-1.946 0.254-5.532 0.442-10.758 0.211-4.559 0.425-7.614 0.636-9.16 0.11-0.774-0.172-3.68-0.839-8.719-0.532-4.11-0.344-6.414 0.562-6.922 1.625-0.906 3.254-1.188 4.879-0.84 2.055 0.453 3.082 1.973 3.082 4.559v12.961c0.156 6.48 0.691 11.8 1.598 15.961 0.906 4.214 1.519 8.293 1.839 12.238 0.293 5.281 0.563 9.961 0.801 14.043 0.348 5.094 1.332 10.144 2.961 15.16 0.824 2.531 1.613 4.543 2.36 6.039z" inkscape:connector-curvature="0"/>
          </g>
        </g>
      </g>
      <g id="g64">
        <g id="g66">
          <g id="g72">
            <path id="path80" style="fill-rule:evenodd;fill:url(#linearGradient74)" d="m2.125 138c1.148 1.359 2.75 2.625 4.801 3.801 0.64 0.371 1.949 1.078 3.922 2.117 1.679 0.855 2.984 1.586 3.918 2.199 0.879 0.586 1.586 1.43 2.121 2.52 0.851 1.734 1.425 2.8 1.718 3.203-0.238-2.11 0.028-4.817 0.801-8.121 0.348-1.547 0.492-2.934 0.442-4.16-0.055-1.227-0.336-2.586-0.84-4.082-0.188 0.562-0.149 1.16 0.117 1.8-0.531-0.933-1.773-2.211-3.719-3.84-1.785-1.492-2.945-2.812-3.48-3.96 0.215 1.839 0.347 2.855 0.398 3.042-1.597-1.972-2.41-2.988-2.437-3.042-0.907-1.278-1.442-2.465-1.602-3.559 0 0.266-0.051 0.922-0.16 1.961-0.039 0.398-0.051 0.754-0.039 1.058-0.141-0.66-0.438-1.476-0.879-2.46-0.934-2.079-1.414-3.161-1.441-3.239-0.586-1.625-0.961-2.933-1.121-3.922-0.161-1.304-0.051-2.636 0.32-4-0.797 2-1.414 4.348-1.84 7.043-0.184 1.282-0.437 3.707-0.758 7.282-0.265-1.176-0.293-2.336-0.082-3.481-1.437 2.078-2.199 4.117-2.277 6.117-0.082 2 0.625 3.91 2.117 5.723z" inkscape:connector-curvature="0"/>
          </g>
        </g>
      </g>
      <g id="g82">
        <g id="g98" mask="url(#mask90)">
          <g id="g110">
            <g id="g112" clip-path="url(#clipPath102)">
              <g id="g114" transform="translate(0 -.95999)">
                <g id="g118">
                  <g id="g120" clip-path="url(#clipPath106)">
                    <g id="g122">
                      <path id="path124" style="fill-rule:evenodd;fill:#90b5b0" d="m123.44 195.24 5.321-2.277c0.531-0.32-0.895-2.629-4.282-6.922-1.707-2.184-3.613-4.519-5.718-7-0.243 0.906-0.137 2.121 0.32 3.641 0.504 1.679 0.719 2.894 0.637 3.64-0.934-0.132-2.051-0.718-3.36-1.761-0.718-0.559-1.718-1.371-3-2.438-1.386-0.961-2.093-0.922-2.117 0.117-0.055 1.442-0.535 2.203-1.441 2.282l-0.481-0.442c-0.187 0.27-0.347 0.684-0.48 1.242-0.149 0.567-0.293 0.973-0.442 1.219 0.184-0.363-0.789-0.344-2.918 0.063-0.695 0.343-1.535 1.132-2.519 2.359-0.695-0.535-1.067-1.52-1.121-2.961-0.028-0.801-0.028-1.945 0-3.441-0.078-0.934-0.492-2.145-1.239-3.637-0.773-1.574-1.242-2.777-1.402-3.602-0.183-1.148-0.183-2.707 0-4.679 0.215-2.321 0.309-3.879 0.281-4.68-0.027-0.586-0.148-1.895-0.359-3.922-0.187-1.625-0.242-2.961-0.16-4 0.027-0.586 0.172-2.199 0.437-4.84 0.188-1.945 0.254-3.558 0.203-4.84-0.828 0.907-1.386 2.387-1.679 4.442-0.188 2.344-0.321 3.972-0.403 4.879-0.343 4.453-0.585 7.8-0.718 10.039-0.055 1.254-0.243 3.121-0.559 5.601-0.32 2.481-0.523 4.348-0.601 5.602-0.028 2.476-0.106 4.344-0.243 5.598-0.211 2.16-0.84 3.878-1.879 5.16-0.425-0.399-0.64-1.121-0.64-2.16 0-1.067-0.145-1.786-0.438-2.161-0.828 0.934-1.347 2.43-1.562 4.481-0.106 2.32-0.184 3.949-0.238 4.879-0.188 1.469-0.321 2.574-0.399 3.32-0.187 1.336-0.215 2.441-0.082 3.32l0.199 1.52c0.348 2.535 0.641 5.746 0.883 9.641 0.051 1.492 0.09 2.695 0.117 3.601 0.082 1.707 0.254 2.906 0.52 3.598 0.269-0.852 0.707-2.731 1.32-5.641 0.535-2.586 0.922-4.172 1.16-4.758 0.668-1.492 1.586-2.574 2.762-3.242 0.746-0.398 2.105-0.933 4.078-1.598 7.199-2.906 14.613-5.988 22.242-9.242z" inkscape:connector-curvature="0"/>
                    </g>
                  </g>
                </g>
              </g>
            </g>
          </g>
        </g>
      </g>
      <g id="g126">
        <g id="g142" mask="url(#mask134)">
          <g id="g154">
            <g id="g156" clip-path="url(#clipPath146)">
              <g id="g158" transform="translate(0 -.95999)">
                <g id="g162">
                  <g id="g164" clip-path="url(#clipPath150)">
                    <g id="g166">
                      <path id="path168" style="fill-rule:evenodd;fill:#90b5b0" d="m69.207 328.72c0.375 1.281 0.68 2.226 0.918 2.84-0.637-2.559-1.078-4.477-1.32-5.758-0.426-2.242-0.559-4.188-0.399-5.84 0.106-1.016 0.16-1.746 0.16-2.199-0.027-0.723-0.132-1.43-0.32-2.121-0.187-0.586-0.281-1.336-0.281-2.243v-2.238c0-0.48-0.106-1.215-0.317-2.199-0.187-0.934-0.281-1.668-0.281-2.199 0-0.242 0.039-0.789 0.121-1.641 0.051-0.668 0.051-1.215 0-1.641-0.8-5.253-0.75-10.546 0.16-15.878 0.477-2.723 0.383-6.309-0.281-10.762-0.347-2.481-0.961-6.055-1.84-10.719-0.242-1.707-0.281-4.242-0.121-7.601 0.16-3.387 0.106-5.918-0.16-7.598-0.238-1.734-0.879-4.067-1.918-7-1.254-3.442-2.027-5.762-2.32-6.961-0.188-0.746-0.414-2.094-0.68-4.039-0.32-1.734-0.828-2.949-1.523-3.641-0.746 2.16-1.504 1.867-2.278-0.883-0.375-1.41-0.734-3.265-1.082-5.558-0.347-1.547-0.465-3.121-0.359-4.719 0.082-0.988 0.254-2.562 0.519-4.723 0.133-1.332 0.348-3.371 0.641-6.117 0.188-2.426 0.227-4.469 0.121-6.121-0.508-4.773-1.265-6.586-2.281-5.441-0.32-1.731-0.453-4.145-0.398-7.239 0.105-3.625 0.238-5.96 0.398-7 0.562-3.199 1.719-4.878 3.48-5.039 1.84-0.16 2.922 1.344 3.239 4.52-0.024 3.68-0.012 5.984 0.043 6.918 0.613-0.984 1.093-2.371 1.437-4.16 0.453-2.293 0.789-3.731 1-4.321 0.453-1.226 1.137-2.558 2.043-4 0.504-0.824 1.36-2.05 2.559-3.679 1.254-1.653 1.961-2.614 2.121-2.879 0.664-1.149 1-2.266 1-3.36-0.028-1.492-0.281-2.253-0.762-2.281-0.293 0-1 0.414-2.121 1.242-1.277 0.985-2.813 1.547-4.598 1.68-2.16-0.055-3.839-0.082-5.039-0.082-2.109 0.082-3.695 0.149-4.761 0.199-1.922 0.055-3.52-0.023-4.801-0.238-0.399-0.078-1.934-0.559-4.598-1.441-1.789-0.586-3.387-0.747-4.801-0.477-1.734 0.316-2.828 0.703-3.281 1.156-0.266 0.27-0.453 0.657-0.558 1.16-0.161 0.801-0.254 1.243-0.282 1.321-0.48 1.254-1.601 2.652-3.359 4.203-1.922 1.703-3.149 3.023-3.68 3.957-0.773 1.387-0.972 3.109-0.601 5.16 0 0.027 0.468 1.762 1.402 5.199 1.012 3.657 1.305 7.684 0.879 12.082-0.027 0.16-0.508 2.508-1.442 7.039-0.558 2.856-0.558 5.161 0 6.922 0.801 3.278 1.469 5.973 2 8.078 1.016 3.946 2.083 6.68 3.2 8.2 0.082-2.293-0.184-5.094-0.797-8.399-0.348-1.84-0.895-4.586-1.641-8.238-0.375-2.43-0.187-5.215 0.559-8.363 0.293-1.227 1.148-3.907 2.562-8.039 0.559-1.625 1.106-4.254 1.637-7.879 0.48-3.387 1.066-5.95 1.762-7.68 0.187-0.481 0.386-1.227 0.601-2.242 0.293-0.852 0.774-1.399 1.438-1.637 0.293-0.109 0.722-0.094 1.281 0.039 0.773 0.184 1.227 0.277 1.359 0.277 0.481 0.028 1.172-0.039 2.082-0.199 0.957-0.16 1.637-0.238 2.04-0.238 0.183 0.559 0.265 1.598 0.238 3.121-0.028 1.383 0.121 2.371 0.441 2.957 0.16-0.531 0.438-1.879 0.84-4.039 0.481-1.52 1.066-1.398 1.758 0.359 0.297 0.774 0.457 1.856 0.48 3.243v3.32c0.028 1.758 0.243 3.746 0.641 5.957 0 0.027 0.387 1.976 1.16 5.84 0.32 1.519 0.442 3.187 0.359 5-0.05 1.015-0.226 2.679-0.519 5 0 0.027 0.199 1.855 0.602 5.48 0.265 2.613-0.094 4.176-1.083 4.68-0.398-0.559-0.613-1.438-0.64-2.641 0-1.41-0.094-2.359-0.277-2.84-0.403 0.75-0.708 1.84-0.922 3.282-0.321 2.054-0.504 3.199-0.559 3.441-0.187 0.774-0.547 1.57-1.082 2.399-0.824 1.308-1.266 2-1.32 2.082-0.477 0.933-0.703 2.117-0.68 3.558 0.109 1.68 0.16 2.922 0.16 3.719 0.027 0.586-0.039 1.387-0.199 2.402-0.133 1.067-0.199 1.852-0.199 2.36 0.133 1.066 0.226 1.879 0.281 2.441 0.078 0.984-0.109 1.719-0.563 2.199l-0.277 0.278c-0.695-0.692-1.082-2.012-1.16-3.957-0.082-2.403-0.215-3.856-0.402-4.364-0.454 0.563-0.653 1.442-0.598 2.641 0.16 1.387 0.238 2.359 0.238 2.922 0.028 0.851-0.039 1.785-0.199 2.801-0.027 0.16-0.199 1.078-0.519 2.757-0.215 1.016-0.254 1.813-0.122 2.403 0.106 0.426 0.465 1.172 1.082 2.238 2.504 4.559 3.918 7.973 4.239 10.238 0.054 0.348 0.133 1.59 0.238 3.723 0.055 1.387 0.27 2.641 0.641 3.758 0.507 1.496 0.855 3.109 1.039 4.84 0.109 1.066 0.187 2.707 0.242 4.921 0 0.852 0.16 2.254 0.48 4.2 0.293 1.785 0.414 3.175 0.36 4.16 0.695-3.813 0.945-8.985 0.761-15.52-0.187-7.601-0.16-12.8 0.079-15.601 0.054-0.637 0.066-1.758 0.039-3.36 0.082-1.386 0.414-2.414 1-3.078 1.519-1.652 3.16-0.894 4.922 2.278 0.773 1.121 1.359 2 1.757 2.64 0.723 1.149 1.094 2.094 1.121 2.84 0.028 0.723 0.172 1.828 0.442 3.32 0.265 1.442 0.398 2.563 0.398 3.36 0 0.187-0.066 0.855-0.199 2-0.082 0.828-0.055 1.508 0.078 2.043 1.469-1.414 2.203 0.011 2.203 4.277 0 0.563-0.093 1.641-0.281 3.242-0.16 1.36-0.215 2.438-0.16 3.239 0.027 0.562 0.027 1.64 0 3.242-0.055 1.359-0.027 2.426 0.078 3.199 0.082 0.613 0.309 1.414 0.68 2.398 0.429 1.227 0.695 2.028 0.8 2.403 0.348 1.492 0.614 3.359 0.801 5.597 0.133 2.563 0.242 4.453 0.321 5.68 0.132 3.734 0.238 6.547 0.32 8.441 0.133 3.36 0.414 6.149 0.84 8.36 0.133 0.801 0.105 2.308-0.082 4.519-0.157 1.946-0.051 3.414 0.32 4.403 0.961 2.531 1.656 4.519 2.082 5.957z" inkscape:connector-curvature="0"/>
                    </g>
                  </g>
                </g>
              </g>
            </g>
          </g>
        </g>
      </g>
      <g id="g170">
        <g id="g186" mask="url(#mask178)">
          <g id="g198">
            <g id="g200" clip-path="url(#clipPath190)">
              <g id="g202" transform="translate(0 -.95999)">
                <g id="g206">
                  <g id="g208" clip-path="url(#clipPath194)">
                    <g id="g210">
                      <path id="path212" style="fill-rule:evenodd;fill:#90b5b0" d="m23.727 153.72c0.211 2.453 0.707 4.668 1.48 6.64 0.16-1.437 0.266-3.64 0.32-6.597 0.051-1.094 0.36-2.481 0.918-4.16 0.696-2.215 1.106-3.602 1.243-4.161 0.316-1.546 0.703-3.906 1.16-7.082 0.105-0.613 0.519-2.425 1.238-5.437 0.508-2.188 0.801-4.016 0.879-5.481 0.082-1.386 0.105-3.496 0.082-6.32 0.078-2.453 0.437-4.508 1.078-6.16 2.375-6.16 3.68-11.656 3.922-16.481 0.051-1.199 0.359-2.867 0.918-5 0.562-2.292 0.894-3.972 1-5.039 0.133-1.496 0.293-4.48 0.48-8.961 0.348-7.039 0.707-11.867 1.082-14.48 0.239-1.707 0.321-3.895 0.239-6.559-0.106-3.679-0.149-5.894-0.121-6.64 0.109-3.813 0.386-9.563 0.839-17.242 0.055-1.172 0.11-4.133 0.161-8.879 0.027-3.653 0.16-6.575 0.402-8.758-1.414 4.156-2.496 9.851-3.242 17.078-0.293 2.801-0.946 5.828-1.957 9.078-0.055 0.16-1.082 3.082-3.082 8.762-0.536 1.519-0.602 3.828-0.2 6.922 0.399 3.093 0.305 5.398-0.281 6.918-0.586 1.332-1 2.281-1.238 2.84-0.402 0.96-0.641 2.015-0.723 3.16-0.344 4.586-1.023 9.121-2.039 13.601-0.078 0.321-0.547 1.719-1.398 4.199-0.586 1.735-0.828 3.106-0.723 4.122 0.082 0.796 0.828 2.679 2.242 5.636 1.039 2.188 1.188 4.11 0.442 5.762-0.618 1.359-1.524 2.906-2.723 4.641-0.293 0.425-1.359 1.879-3.199 4.359-2.078 2.719-3.16 4.867-3.238 6.441-0.055 1.387 0.492 3.161 1.636 5.321 1.469 2.718 2.297 4.426 2.481 5.117 0.507 1.894 0.679 4.226 0.519 7-0.293 3.148-0.476 5.496-0.558 7.043-0.215 3.703-0.227 6.637-0.039 8.797z" inkscape:connector-curvature="0"/>
                    </g>
                  </g>
                </g>
              </g>
            </g>
          </g>
        </g>
      </g>
      <g id="g214">
        <g id="g230" mask="url(#mask222)">
          <g id="g242">
            <g id="g244" clip-path="url(#clipPath234)">
              <g id="g246" transform="translate(0 -.95999)">
                <g id="g250">
                  <g id="g252" clip-path="url(#clipPath238)">
                    <g id="g254">
                      <path id="path256" style="fill-rule:evenodd;fill:#90b5b0" d="m78.488 114.48c0.614 3.282 0.864 5.559 0.758 6.84 0.16-1.465 0.266-3.679 0.32-6.64 0.055-1.094 0.36-2.481 0.922-4.16 0.719-2.215 1.133-3.586 1.239-4.122 0.507-2.425 1.464-6.386 2.878-11.878 0.883-4.879 0.629-8.852-0.757-11.918-0.641-1.442-2.282-3.707-4.922-6.801-2.266-2.668-3.653-5.106-4.16-7.321-0.211-0.96-0.52-4.253-0.918-9.878-0.293-4.27-1.016-7.364-2.16-9.282-0.266 1.868-0.454 4.293-0.563 7.282-0.184 4.425-0.293 6.89-0.32 7.398 0 0.16-0.157 1.734-0.477 4.719-0.187 1.789-0.215 3.308-0.082 4.562 0.242 2.239 0.961 4.719 2.16 7.438 0.453 1.043 1.625 3.359 3.52 6.961 1.039 2 1.707 3.547 2 4.64 0.402 1.465 0.469 3.106 0.199 4.918-0.559 3.922-0.719 7.922-0.477 12 0.079 0.989 0.36 2.735 0.84 5.242z" inkscape:connector-curvature="0"/>
                    </g>
                  </g>
                </g>
              </g>
            </g>
          </g>
        </g>
      </g>
      <g id="g258">
        <g id="g274" mask="url(#mask266)">
          <g id="g286">
            <g id="g288" clip-path="url(#clipPath278)">
              <g id="g290" transform="translate(0 -.95999)">
                <g id="g294">
                  <g id="g296" clip-path="url(#clipPath282)">
                    <g id="g298">
                      <path id="path300" style="fill-rule:evenodd;fill:#90b5b0" d="m76.324 271.6c0.16-0.961 0.387-2.309 0.68-4.043 0.828-3.145 1.656-7.653 2.48-13.52 0.856-6.105 1.641-10.613 2.364-13.519 0.613-2.532 0.304-5.907-0.922-10.122-1.281-4.343-1.707-7.636-1.281-9.878 0.136-0.692 0.48-1.653 1.043-2.879 0.585-1.36 0.957-2.321 1.117-2.879 0.906-3.094 1.519-6.657 1.84-10.684 0.293-3.703 0.308-7.266 0.043-10.68-0.668-7.918-0.708-16.039-0.122-24.359 0.641-8.824 1.918-16.934 3.84-24.32-1.039 2.32-2.105 5.652-3.199 10-1.629 6.613-2.519 10.176-2.68 10.679-1.281 3.657-2.226 6.336-2.839 8.043-1.043 3.039-1.629 5.774-1.762 8.2-0.293 4.371-0.762 8.027-1.399 10.961-0.136 0.586-0.48 1.664-1.043 3.238-0.504 1.387-0.796 2.465-0.879 3.238-0.105 1.227 0.122 2.563 0.68 4 0.293 0.801 0.922 2.094 1.879 3.883 0.801 1.574 1.348 2.812 1.641 3.719 0.453 1.359 0.586 2.625 0.402 3.8-0.187 1.122-0.789 2.465-1.801 4.04-1.199 1.839-1.933 3.121-2.199 3.839-0.48 1.336-0.707 3.016-0.68 5.039 0.161 2.27 0.239 3.934 0.239 5 0 0.508-0.348 3-1.039 7.481-0.481 3.043-0.309 5.453 0.519 7.242 0.188-1.707 0.481-3.336 0.879-4.883 0.535-2.023 1.199-3.547 2-4.558 1.227 1.465 1.734 3.773 1.52 6.922-0.481 3.546-0.797 6.011-0.957 7.398-0.11 1.039-0.254 3.281-0.442 6.719-0.16 2.801-0.387 5.054-0.68 6.761-0.507 2.161-0.851 3.813-1.039 4.961-0.32 2.024-0.203 3.664 0.36 4.918 0.64-0.773 1.117-2.027 1.437-3.757z" inkscape:connector-curvature="0"/>
                    </g>
                  </g>
                </g>
              </g>
            </g>
          </g>
        </g>
      </g>
      <g id="g302">
        <g id="g304">
          <g id="g310">
            <path id="path326" style="fill-rule:evenodd;fill:url(#linearGradient312)" d="m73.125 167.68-0.48-4.039c-0.532-3.364-1.344-6.696-2.438-10-1.867-5.629-3.121-9.774-3.762-12.442-1.277-5.148-2.144-10.828-2.597-17.039-0.11-1.308-0.707-9.976-1.801-26-0.723-10.43-1.188-15.91-1.402-16.441-0.211-0.535-0.77 0.414-1.68 2.84-1.067 3.148-1.824 5.293-2.277 6.441-0.801 2.051-1.868 5.492-3.204 10.316-1.57 5.657-2.906 11.149-4 16.485-1.199 6-2.371 10.558-3.519 13.679-1.227 3.36-2.879 6.414-4.957 9.161-1.922 2.531-3.762 6-5.524 10.398-1.492 3.734-2.476 6.895-2.957 9.48-0.136 0.719-0.519 1.918-1.16 3.598-0.402 1.094-0.453 1.844-0.16 2.242 0.344 0.453 7.438 0.813 21.277 1.082 6.907 0.106 13.789 0.184 20.641 0.239z" inkscape:connector-curvature="0"/>
          </g>
        </g>
      </g>
      <g id="g328">
        <g id="g344" mask="url(#mask336)">
          <g id="g356">
            <g id="g358" clip-path="url(#clipPath348)">
              <g id="g360" transform="translate(0 -.95999)">
                <g id="g364">
                  <g id="g366" clip-path="url(#clipPath352)">
                    <g id="g368">
                      <path id="path370" style="fill-rule:evenodd;fill:#90b5b0" d="m72.285 166.36c0.082 0-0.055-1.492-0.398-4.48-0.348-2.879-0.563-4.481-0.641-4.801-1.199-2.957-2.254-5.68-3.16-8.156-1.734-4.777-2.949-10.231-3.641-16.363-0.187 0.722-0.304 2.242-0.359 4.562-0.055 2.774 0.027 6.067 0.238 9.879 0.028 0.695 0.094 1.414 0.203 2.16 0.133 0.906 0.227 1.613 0.278 2.121-0.133-0.187-0.399-0.746-0.801-1.679-0.316-0.747-0.637-1.254-0.957-1.524-0.402 0.668-0.762 1.563-1.082 2.684-0.348 1.25-0.613 2.183-0.801 2.797-0.453-0.426-0.891-1.2-1.316-2.321-0.508-1.304-0.895-2.144-1.16-2.519-0.458 1.949-0.817 3.426-1.083 4.441-0.453 1.895-1.011 3.293-1.679 4.199-0.399-1.359-0.614-2.078-0.641-2.16-0.371-1.011-0.785-1.558-1.238-1.64-0.535-0.079-0.934 0.214-1.199 0.882-0.243 0.825-0.43 1.36-0.563 1.598-0.558-1.277-1.055-2.172-1.48-2.68-0.641 0.453-1.039 1.215-1.2 2.282-1.093-0.133-1.917-0.496-2.48-1.082-0.48-0.504-0.879-1.321-1.199-2.438l-0.801-5.762c-0.613 0.907-1.078 1.586-1.398 2.039-0.536 0.774-1.082 1.309-1.641 1.602-0.188-2.719 0.078-5.652 0.801-8.801 0.961-3.972 1.519-6.613 1.679-7.918 0.161-1.203 0.586-2.469 1.282-3.801 0.879-1.707 1.41-2.867 1.597-3.48 0.293-1.039 0.375-2.574 0.243-4.602-0.083-1.117-0.227-2.652-0.442-4.597-0.426-7.016-0.625-11.641-0.601-13.879-0.957 2.211-1.68 5-2.161 8.359-0.398 3.891-0.718 6.774-0.957 8.641-0.187 1.543-0.828 3.625-1.922 6.238-1.171 2.801-1.894 4.867-2.16 6.199-0.133 0.774-0.105 2.496 0.082 5.161 0.161 2.132-0.109 3.812-0.8 5.039-1.254 1.789-2.122 3.066-2.602 3.839-0.801 1.231-1.172 2.707-1.121 4.442l0.242 2.64c0.078 1.122 0.055 1.985-0.082 2.598-0.105 0.508-1 1.734-2.68 3.684-1.039 1.25-1.73 2.226-2.078 2.918-0.535 1.015-0.547 1.8-0.039 2.359 0.399 0.426 7.504 0.773 21.321 1.039 6.906 0.137 13.773 0.227 20.597 0.281z" inkscape:connector-curvature="0"/>
                    </g>
                  </g>
                </g>
              </g>
            </g>
          </g>
        </g>
      </g>
      <g id="g372">
        <g id="g374">
          <g id="g380">
            <path id="path388" style="fill-rule:evenodd;fill:url(#linearGradient382)" d="m138.21 198.32c1.387-1.629 2.051-3.601 2-5.922-0.027-2.027-0.586-4.093-1.68-6.199-0.855-1.68-1.386-3.121-1.601-4.32 0.082 2.668-0.707 5.238-2.36 7.719 0.106-1.094 0.305-2.746 0.602-4.957 0.133-2.028-0.121-3.922-0.762-5.68-0.105 1.305-0.375 2.719-0.801 4.238-0.507 1.68-0.878 2.918-1.121 3.719 0.137-2.399-1.078-5.68-3.636-9.84-2.614-4.293-3.95-7.613-4-9.961-0.082 1.629 0.066 3.442 0.437 5.442 0.242 1.093 0.586 2.468 1.043 4.121 0.559 2.027 0.918 3.359 1.078 4 0.321 1.254 0.36 2.773 0.121 4.558-0.347 2.055-0.601 3.574-0.761 4.563-0.161-0.641-0.532-1.336-1.118-2.082-0.32-0.426-0.855-1.055-1.601-1.879 0.238 0.879 0.16 2.133-0.238 3.758-0.536 1.816-0.883 3.066-1.043 3.761-0.133-0.933-0.465-1.761-1-2.48-0.399-0.535-1.024-1.16-1.879-1.879-0.266-0.242-0.907-0.707-1.918-1.402-0.821-0.645-1.246-1.196-1.281-1.661 0.023 2.086 0.011 3.653-0.043 4.704-0.907-0.829-1.571-1.829-2-3-0.532 2.343-0.879 4.679-1.04 7-0.238-0.508-1.078-1.067-2.519-1.68-1.039-0.961-1.039-2.75 0-5.363-1.145 1.254-2.387 3.281-3.719 6.082-1.359 2.828-2.308 4.547-2.84 5.16 0.825-1.867 1.133-3.16 0.918-3.879-0.48 1.199-1.465 2.238-2.961 3.117-1.57 0.883-2.57 1.762-3 2.641-0.238-0.934-0.558-1.625-0.957-2.078-0.8 0.851-1.254 2-1.359 3.437-0.988-2.32-1.91-3.961-2.762-4.918-0.48 2.586-0.867 5.641-1.16 9.16-0.266 4.106-0.48 7.199-0.641 9.278 2.215 0.32 4.735-0.079 7.563-1.2 1.812-0.718 5.211-2.187 10.199-4.398 2.051-0.801 5.067-1.148 9.039-1.039 3.973 0.101 6.891-0.164 8.762-0.801-0.578 0.18-1.176 0.219-1.801 0.117-0.668-0.105-1.254-0.343-1.762-0.718 1.094 0.187 2.215 0.066 3.364-0.36 1.066-0.398 2.039-1.027 2.918-1.879-1.094 0.106-1.895 0.184-2.403 0.239 0.856-0.801 2.508-1.973 4.961-3.52 2.215-1.359 3.801-2.602 4.762-3.719z" inkscape:connector-curvature="0"/>
          </g>
        </g>
      </g>
      <g id="g390">
        <g id="g392">
          <g id="g398">
            <path id="path406" style="fill-rule:evenodd;fill:url(#linearGradient400)" d="m73.207 164.36c0.961-2.215 1.266-4.574 0.918-7.082-0.266-2-1-4.304-2.199-6.918-1.004-2.144-1.617-4.007-1.84-5.601 0.098 0.851-0.059 2.039-0.481 3.558-0.507 1.735-0.761 2.95-0.761 3.645-0.293-0.563-0.465-1.176-0.52-1.844-0.398 0.668-0.719 1.723-0.957 3.16-0.242 1.496-0.523 2.547-0.844 3.16-0.156-0.398-0.437-1.093-0.839-2.078-0.344-0.91-0.664-1.562-0.957-1.961 0.453 0.668 0.117 2.028-1 4.079-0.668 1.121-1.137 1.16-1.403 0.121-0.265-1.012-0.25-1.918 0.043-2.719-0.297 0.586-0.949 1.332-1.961 2.238-1.094 0.961-1.801 1.695-2.121 2.199-0.375 0.778-0.652 1.321-0.84 1.645-0.32 0.586-0.734 1.012-1.238 1.277 0.613-1.945 0.863-2.851 0.758-2.719-0.559 0.532-1.238 0.84-2.039 0.918-0.614 0.055-0.946 0.27-1 0.641-0.668-0.531-0.852-1.266-0.559-2.199-0.828 0.64-1.242 1.508-1.242 2.601-0.32-0.668-0.934-1.32-1.84-1.961-0.133-0.105-0.453-0.292-0.961-0.558-0.433-0.258-0.672-0.504-0.719-0.742 0.036 0.207 0.129 0.613 0.282 1.218 0.133 0.508 0.183 0.922 0.16 1.243-0.695-0.426-1.227-1.055-1.602-1.879-0.215-0.508-0.507-1.297-0.879-2.364-0.347 0.481-0.679 1.254-1 2.321-0.347 1.176-0.64 1.972-0.882 2.402-0.024-0.082-0.184-0.933-0.477-2.562-0.215-1.094-0.508-1.868-0.883-2.321-0.586 0.563-1.144 1.617-1.679 3.16 0.082-0.796 0.015-1.597-0.2-2.398-0.418 0.234-0.906 0.922-1.461 2.059 0.168-0.454-0.691-1.418-2.578-2.899-2.16-1.625-3.066-3.215-2.722-4.762-0.293 0.243-0.504 0.668-0.637 1.282-0.109 0.695-0.203 1.187-0.281 1.48-0.106-0.371-0.227-0.945-0.36-1.719-0.347 0.852-0.562 1.825-0.64 2.918-0.106 1.227-0.016 2.215 0.281 2.961-0.668-1.308-1-2.828-1-4.558-0.027-0.989-0.016-2.535 0.039-4.641-0.563 0.824-0.988 2.012-1.281 3.559-0.348 1.84-0.653 3.054-0.918 3.64-1.149 2.692-1.696 5.082-1.641 7.16 0.078 2.668 1.172 4.692 3.277 6.083l0.762 0.437c5.813 3.547 12.52 5.133 20.121 4.762 2.664-0.133 4.641-0.282 5.918-0.442 2.215-0.265 4.121-0.707 5.723-1.32 2.531-0.961 4.387-1.895 5.558-2.801 1.493-1.144 2.696-2.773 3.602-4.879z" inkscape:connector-curvature="0"/>
          </g>
        </g>
      </g>
      <g id="g408">
        <g id="g410">
          <g id="g416">
            <path id="path424" style="fill-rule:evenodd;fill:url(#linearGradient418)" d="m61.688 256.36c0.48-1.386 0.785-2.375 0.917-2.961l0.083-0.48c0.292-1.84-0.309-4.199-1.801-7.078-1.653-3.149-2.496-5.508-2.52-7.082l-0.441 1.441c-0.188-0.828-0.172-1.719 0.039-2.68-0.266 0.266-0.586 0.665-0.957 1.2-0.457 0.668-0.735 1.082-0.84 1.242 0-1.121-0.563-2.668-1.684-4.641-1.187-2.035-1.839-4.351-1.957-6.961 0.012 0.856-0.172 2.121-0.562 3.801-0.125 0.578-0.231 1.109-0.32 1.598 0.054-1.555-0.079-3.211-0.399-4.957-0.293-1.524-0.785-3.84-1.48-6.961 0 1.734-0.055 3.293-0.161 4.679-0.371 2.106-0.64 3.708-0.8 4.801-0.321 1.973-0.145 3.559 0.519 4.758-0.719-0.559-1.25-1.293-1.597-2.199-0.293 0.906-0.348 1.961-0.161 3.16 0.293 1.359 0.465 2.398 0.52 3.121 0.055 0.559 0.039 1.891-0.039 4-0.082 1.625 0.027 2.945 0.32 3.957-0.429-0.398-0.84-0.973-1.242-1.719l-0.918-1.839c-0.641 2.507-0.254 5.558 1.16 9.16 1.387 3.547 3.145 6.093 5.278 7.64-0.106-1.812 0.066-3.199 0.523-4.16 0.613 0.641 1.023 1.121 1.238 1.442-0.054-0.536 0.012-0.989 0.199-1.364 0.188-0.425 0.481-0.586 0.879-0.476 0.961-1.762 1.481-2.696 1.563-2.801 0.746-0.883 1.558-0.934 2.437-0.16 0.563 0.504 0.95 1.359 1.161 2.558 0.054 0.426 0.121 1.403 0.203 2.922 0.105-0.746 0.386-1.734 0.84-2.961z" inkscape:connector-curvature="0"/>
          </g>
        </g>
      </g>
    </g>
  </g>
<metadata><rdf:RDF><cc:Work><dc:format>image/svg+xml</dc:format><dc:type rdf:resource="http://purl.org/dc/dcmitype/StillImage"/><cc:license rdf:resource="http://creativecommons.org/licenses/publicdomain/"/><dc:publisher><cc:Agent rdf:about="http://openclipart.org/"><dc:title>Openclipart</dc:title></cc:Agent></dc:publisher></cc:Work><cc:License rdf:about="http://creativecommons.org/licenses/publicdomain/"><cc:permits rdf:resource="http://creativecommons.org/ns#Reproduction"/><cc:permits rdf:resource="http://creativecommons.org/ns#Distribution"/><cc:permits rdf:resource="http://creativecommons.org/ns#DerivativeWorks"/></cc:License></rdf:RDF></metadata></svg>
