<?xml version="1.0" encoding="UTF-8" standalone="no"?>
<!-- Created with Inkscape (http://www.inkscape.org/) -->
<svg xmlns:inkscape="http://www.inkscape.org/namespaces/inkscape" xmlns:rdf="http://www.w3.org/1999/02/22-rdf-syntax-ns#" xmlns="http://www.w3.org/2000/svg" xmlns:xlink="http://www.w3.org/1999/xlink" xmlns:ns1="http://sozi.baierouge.fr" xmlns:cc="http://creativecommons.org/ns#" xmlns:sodipodi="http://sodipodi.sourceforge.net/DTD/sodipodi-0.dtd" xmlns:dc="http://purl.org/dc/elements/1.1/" id="svg2" xml:space="preserve" viewBox="0 0 126.85 242.51" version="1.1" inkscape:version="0.91 r13725">
  <defs id="defs6">
    <radialGradient id="radialGradient26" gradientUnits="userSpaceOnUse" cy="122.95" cx="97.6" gradientTransform="matrix(-.79656 .074 .08584 .92432 145.27 -25.224)" r="25.911">
      <stop id="stop28" style="stop-color:#859698" offset="0"/>
      <stop id="stop30" style="stop-color:#6c7988" offset=".28240"/>
      <stop id="stop32" style="stop-color:#5a657d" offset="0.549"/>
      <stop id="stop34" style="stop-color:#545e79" offset=".72550"/>
      <stop id="stop36" style="stop-color:#4f5872" offset=".78820"/>
      <stop id="stop38" style="stop-color:#42465e" offset=".87450"/>
      <stop id="stop40" style="stop-color:#2c283e" offset=".97650"/>
      <stop id="stop42" style="stop-color:#262136" offset="1"/>
    </radialGradient>
    <radialGradient id="radialGradient56" gradientUnits="userSpaceOnUse" cy="65.55" cx="95.7" gradientTransform="matrix(-.79656 .074 .09176 .9876 146.78 69.744)" r="28.058">
      <stop id="stop58" style="stop-color:#859698" offset="0"/>
      <stop id="stop60" style="stop-color:#6c7988" offset=".28240"/>
      <stop id="stop62" style="stop-color:#5a657d" offset="0.549"/>
      <stop id="stop64" style="stop-color:#545e79" offset=".72550"/>
      <stop id="stop66" style="stop-color:#4f5872" offset=".78820"/>
      <stop id="stop68" style="stop-color:#42465e" offset=".87450"/>
      <stop id="stop70" style="stop-color:#2c283e" offset=".97650"/>
      <stop id="stop72" style="stop-color:#262136" offset="1"/>
    </radialGradient>
    <radialGradient id="radialGradient86" gradientUnits="userSpaceOnUse" cy="45.15" cx="81.1" gradientTransform="matrix(-.79656 .07408 .09176 .98736 125.34 107.3)" r="26.05">
      <stop id="stop88" style="stop-color:#859698" offset="0"/>
      <stop id="stop90" style="stop-color:#6c7988" offset=".2"/>
      <stop id="stop92" style="stop-color:#5a657d" offset=".38820"/>
      <stop id="stop94" style="stop-color:#545e79" offset=".5176"/>
      <stop id="stop96" style="stop-color:#4f5872" offset=".6196"/>
      <stop id="stop98" style="stop-color:#42465e" offset=".77650"/>
      <stop id="stop100" style="stop-color:#2c283e" offset=".96080"/>
      <stop id="stop102" style="stop-color:#262136" offset="1"/>
    </radialGradient>
    <radialGradient id="radialGradient116" gradientUnits="userSpaceOnUse" cy="22.85" cx="82.5" gradientTransform="matrix(-.79656 .07408 .09176 .98736 129.62 147.05)" r="13.207">
      <stop id="stop118" style="stop-color:#859698" offset="0"/>
      <stop id="stop120" style="stop-color:#6c7988" offset=".2"/>
      <stop id="stop122" style="stop-color:#5a657d" offset=".38820"/>
      <stop id="stop124" style="stop-color:#545e79" offset=".5176"/>
      <stop id="stop126" style="stop-color:#4f5872" offset=".6196"/>
      <stop id="stop128" style="stop-color:#42465e" offset=".77650"/>
      <stop id="stop130" style="stop-color:#2c283e" offset=".96080"/>
      <stop id="stop132" style="stop-color:#262136" offset="1"/>
    </radialGradient>
    <radialGradient id="radialGradient146" gradientUnits="userSpaceOnUse" cy="70.85" cx="49.4" gradientTransform="matrix(-.79656 .07392 .07728 .83304 73.393 74.648)" r="28.497">
      <stop id="stop148" style="stop-color:#859698" offset="0"/>
      <stop id="stop150" style="stop-color:#6c7988" offset=".28240"/>
      <stop id="stop152" style="stop-color:#5a657d" offset="0.549"/>
      <stop id="stop154" style="stop-color:#545e79" offset=".72550"/>
      <stop id="stop156" style="stop-color:#4f5872" offset=".78820"/>
      <stop id="stop158" style="stop-color:#42465e" offset=".87450"/>
      <stop id="stop160" style="stop-color:#2c283e" offset=".97650"/>
      <stop id="stop162" style="stop-color:#262136" offset="1"/>
    </radialGradient>
    <radialGradient id="radialGradient176" gradientUnits="userSpaceOnUse" cy="62.2" cx="30.6" gradientTransform="matrix(-.79656 .07392 .07496 .80792 44.191 91.728)" r="44.051">
      <stop id="stop178" style="stop-color:#859698" offset="0"/>
      <stop id="stop180" style="stop-color:#6c7988" offset=".28240"/>
      <stop id="stop182" style="stop-color:#5a657d" offset="0.549"/>
      <stop id="stop184" style="stop-color:#545e79" offset=".72550"/>
      <stop id="stop186" style="stop-color:#4f5872" offset=".78820"/>
      <stop id="stop188" style="stop-color:#42465e" offset=".87450"/>
      <stop id="stop190" style="stop-color:#2c283e" offset=".97650"/>
      <stop id="stop192" style="stop-color:#262136" offset="1"/>
    </radialGradient>
    <radialGradient id="radialGradient208" gradientUnits="userSpaceOnUse" cy="60.15" cx="46.7" gradientTransform="matrix(-.79656 .07392 .14784 1.5942 65.667 46.544)" r="20.161">
      <stop id="stop210" style="stop-color:#859698" offset="0"/>
      <stop id="stop212" style="stop-color:#6c7988" offset=".28240"/>
      <stop id="stop214" style="stop-color:#5a657d" offset="0.549"/>
      <stop id="stop216" style="stop-color:#545e79" offset=".72550"/>
      <stop id="stop218" style="stop-color:#4f5872" offset=".78820"/>
      <stop id="stop220" style="stop-color:#42465e" offset=".87450"/>
      <stop id="stop222" style="stop-color:#2c283e" offset=".97650"/>
      <stop id="stop224" style="stop-color:#262136" offset="1"/>
    </radialGradient>
    <radialGradient id="radialGradient238" gradientUnits="userSpaceOnUse" cy="40.85" cx="61.95" gradientTransform="matrix(-.79656 .074 .052 .55936 96.784 133.88)" r="41.742">
      <stop id="stop240" style="stop-color:#859698" offset="0"/>
      <stop id="stop242" style="stop-color:#6c7988" offset=".28240"/>
      <stop id="stop244" style="stop-color:#5a657d" offset="0.549"/>
      <stop id="stop246" style="stop-color:#545e79" offset=".72550"/>
      <stop id="stop248" style="stop-color:#4f5872" offset=".78820"/>
      <stop id="stop250" style="stop-color:#42465e" offset=".87450"/>
      <stop id="stop252" style="stop-color:#2c283e" offset=".97650"/>
      <stop id="stop254" style="stop-color:#262136" offset="1"/>
    </radialGradient>
    <radialGradient id="radialGradient270" gradientUnits="userSpaceOnUse" cy="119.65" cx="27.4" gradientTransform="matrix(-.75536 .26344 .3292 .94368 3.2319 -21.848)" r="34.221">
      <stop id="stop272" style="stop-color:#859698" offset="0"/>
      <stop id="stop274" style="stop-color:#74838d" offset=".17650"/>
      <stop id="stop276" style="stop-color:#545e79" offset=".55290"/>
      <stop id="stop278" style="stop-color:#4c546e" offset=".61570"/>
      <stop id="stop280" style="stop-color:#312f46" offset=".86670"/>
      <stop id="stop282" style="stop-color:#262136" offset="1"/>
    </radialGradient>
    <radialGradient id="radialGradient302" gradientUnits="userSpaceOnUse" cy="91.9" cx="89.3" gradientTransform="matrix(-.79656 .07368 .07192 .77752 135.96 42.44)" r="16.269">
      <stop id="stop304" style="stop-color:#545e79" offset="0"/>
      <stop id="stop306" style="stop-color:#4f5872" offset=".2157"/>
      <stop id="stop308" style="stop-color:#42465e" offset=".53730"/>
      <stop id="stop310" style="stop-color:#2c283e" offset=".91760"/>
      <stop id="stop312" style="stop-color:#262136" offset="1"/>
    </radialGradient>
    <radialGradient id="radialGradient326" gradientUnits="userSpaceOnUse" cy="103.15" cx="76.8" gradientTransform="matrix(-.79656 .07384 .08568 .92384 113.78 10.512)" r="21.692">
      <stop id="stop328" style="stop-color:#859698" offset="0"/>
      <stop id="stop330" style="stop-color:#6c7988" offset=".28240"/>
      <stop id="stop332" style="stop-color:#5a657d" offset="0.549"/>
      <stop id="stop334" style="stop-color:#545e79" offset=".72550"/>
      <stop id="stop336" style="stop-color:#4f5872" offset=".78820"/>
      <stop id="stop338" style="stop-color:#42465e" offset=".87450"/>
      <stop id="stop340" style="stop-color:#2c283e" offset=".97650"/>
      <stop id="stop342" style="stop-color:#262136" offset="1"/>
    </radialGradient>
    <radialGradient id="radialGradient356" gradientUnits="userSpaceOnUse" cy="177.45" cx="51.05" gradientTransform="matrix(-.79656 .074 .0824 .8864 66.886 -109.03)" r="69.561">
      <stop id="stop358" style="stop-color:#859698" offset="0"/>
      <stop id="stop360" style="stop-color:#6c7988" offset=".21180"/>
      <stop id="stop362" style="stop-color:#5a657d" offset=".41570"/>
      <stop id="stop364" style="stop-color:#545e79" offset=".55290"/>
      <stop id="stop366" style="stop-color:#515b75" offset=".66670"/>
      <stop id="stop368" style="stop-color:#4a506a" offset=".77250"/>
      <stop id="stop370" style="stop-color:#3c3f57" offset=".87840"/>
      <stop id="stop372" style="stop-color:#2a263c" offset=".98040"/>
      <stop id="stop374" style="stop-color:#262136" offset="1"/>
    </radialGradient>
    <radialGradient id="radialGradient388" gradientUnits="userSpaceOnUse" cy="198.95" cx="94.7" gradientTransform="matrix(-.79656 .074 .05768 .62032 139.73 -95.576)" r="65.92">
      <stop id="stop390" style="stop-color:#859698" offset="0"/>
      <stop id="stop392" style="stop-color:#6c7988" offset=".21180"/>
      <stop id="stop394" style="stop-color:#5a657d" offset=".41570"/>
      <stop id="stop396" style="stop-color:#545e79" offset=".55290"/>
      <stop id="stop398" style="stop-color:#515b75" offset=".66670"/>
      <stop id="stop400" style="stop-color:#4a506a" offset=".77250"/>
      <stop id="stop402" style="stop-color:#3c3f57" offset=".87840"/>
      <stop id="stop404" style="stop-color:#2a263c" offset=".98040"/>
      <stop id="stop406" style="stop-color:#262136" offset="1"/>
    </radialGradient>
    <radialGradient id="radialGradient420" gradientUnits="userSpaceOnUse" cy="142.5" cx="39.45" gradientTransform="matrix(-.79656 .074 .0964 1.0373 49.246 -70.736)" r="29.451">
      <stop id="stop422" style="stop-color:#859698" offset="0"/>
      <stop id="stop424" style="stop-color:#6c7988" offset=".21180"/>
      <stop id="stop426" style="stop-color:#5a657d" offset=".41570"/>
      <stop id="stop428" style="stop-color:#545e79" offset=".55290"/>
      <stop id="stop430" style="stop-color:#515b75" offset=".66670"/>
      <stop id="stop432" style="stop-color:#4a506a" offset=".77250"/>
      <stop id="stop434" style="stop-color:#3c3f57" offset=".87840"/>
      <stop id="stop436" style="stop-color:#2a263c" offset=".98040"/>
      <stop id="stop438" style="stop-color:#262136" offset="1"/>
    </radialGradient>
    <radialGradient id="radialGradient452" gradientUnits="userSpaceOnUse" cy="161.1" cx="24" gradientTransform="matrix(-.7592 .25224 .31512 .94856 -13.35 -93.752)" r="35.955">
      <stop id="stop454" style="stop-color:#859698" offset="0"/>
      <stop id="stop456" style="stop-color:#74838d" offset=".17650"/>
      <stop id="stop458" style="stop-color:#545e79" offset=".55290"/>
      <stop id="stop460" style="stop-color:#4c546e" offset=".61570"/>
      <stop id="stop462" style="stop-color:#312f46" offset=".86670"/>
      <stop id="stop464" style="stop-color:#262136" offset="1"/>
    </radialGradient>
    <radialGradient id="radialGradient480" gradientUnits="userSpaceOnUse" cy="214.45" cx="-5.0498" gradientTransform="matrix(-.79656 .07392 .08224 .8864 -25.702 -167.27)" r="54.106">
      <stop id="stop482" style="stop-color:#859698" offset="0"/>
      <stop id="stop484" style="stop-color:#6c7988" offset=".21180"/>
      <stop id="stop486" style="stop-color:#5a657d" offset=".41570"/>
      <stop id="stop488" style="stop-color:#545e79" offset=".55290"/>
      <stop id="stop490" style="stop-color:#515b75" offset=".66670"/>
      <stop id="stop492" style="stop-color:#4a506a" offset=".77250"/>
      <stop id="stop494" style="stop-color:#3c3f57" offset=".87840"/>
      <stop id="stop496" style="stop-color:#2a263c" offset=".98040"/>
      <stop id="stop498" style="stop-color:#262136" offset="1"/>
    </radialGradient>
    <radialGradient id="radialGradient512" gradientUnits="userSpaceOnUse" cy="259.1" cx="83" gradientTransform="matrix(-.79656 .074 .0824 .88648 111.17 -249.1)" r="49.287">
      <stop id="stop514" style="stop-color:#859698" offset="0"/>
      <stop id="stop516" style="stop-color:#6c7988" offset=".21180"/>
      <stop id="stop518" style="stop-color:#5a657d" offset=".41570"/>
      <stop id="stop520" style="stop-color:#545e79" offset=".55290"/>
      <stop id="stop522" style="stop-color:#515b75" offset=".66670"/>
      <stop id="stop524" style="stop-color:#4a506a" offset=".77250"/>
      <stop id="stop526" style="stop-color:#3c3f57" offset=".87840"/>
      <stop id="stop528" style="stop-color:#2a263c" offset=".98040"/>
      <stop id="stop530" style="stop-color:#262136" offset="1"/>
    </radialGradient>
    <radialGradient id="radialGradient546" gradientUnits="userSpaceOnUse" cy="156.1" cx="67.8" gradientTransform="matrix(-.79656 .07392 .0992 1.0689 92.76 -102.74)" r="35.402">
      <stop id="stop548" style="stop-color:#859698" offset="0"/>
      <stop id="stop550" style="stop-color:#6c7988" offset=".28240"/>
      <stop id="stop552" style="stop-color:#5a657d" offset="0.549"/>
      <stop id="stop554" style="stop-color:#545e79" offset=".72550"/>
      <stop id="stop556" style="stop-color:#4f5872" offset=".78820"/>
      <stop id="stop558" style="stop-color:#42465e" offset=".87450"/>
      <stop id="stop560" style="stop-color:#2c283e" offset=".97650"/>
      <stop id="stop562" style="stop-color:#262136" offset="1"/>
    </radialGradient>
    <radialGradient id="radialGradient576" gradientUnits="userSpaceOnUse" cy="221.65" cx="62.05" gradientTransform="matrix(-.79656 .07384 .1024 1.1038 76.375 -232.58)" r="31.146">
      <stop id="stop578" style="stop-color:#859698" offset="0"/>
      <stop id="stop580" style="stop-color:#6c7988" offset=".28240"/>
      <stop id="stop582" style="stop-color:#5a657d" offset="0.549"/>
      <stop id="stop584" style="stop-color:#545e79" offset=".72550"/>
      <stop id="stop586" style="stop-color:#4f5872" offset=".78820"/>
      <stop id="stop588" style="stop-color:#42465e" offset=".87450"/>
      <stop id="stop590" style="stop-color:#2c283e" offset=".97650"/>
      <stop id="stop592" style="stop-color:#262136" offset="1"/>
    </radialGradient>
    <radialGradient id="radialGradient606" gradientUnits="userSpaceOnUse" cy="232.7" cx="72.6" gradientTransform="matrix(-.79656 .07424 .10288 1.1042 91.968 -254.5)" r="9.9431">
      <stop id="stop608" style="stop-color:#859698" offset="0"/>
      <stop id="stop610" style="stop-color:#6c7988" offset=".28240"/>
      <stop id="stop612" style="stop-color:#5a657d" offset="0.549"/>
      <stop id="stop614" style="stop-color:#545e79" offset=".72550"/>
      <stop id="stop616" style="stop-color:#4f5872" offset=".78820"/>
      <stop id="stop618" style="stop-color:#42465e" offset=".87450"/>
      <stop id="stop620" style="stop-color:#2c283e" offset=".97650"/>
      <stop id="stop622" style="stop-color:#262136" offset="1"/>
    </radialGradient>
    <radialGradient id="radialGradient636" gradientUnits="userSpaceOnUse" cy="151.55" cx="101.5" gradientTransform="matrix(-.79656 .074 .13736 1.4786 141.23 -158.83)" r="11.876">
      <stop id="stop638" style="stop-color:#859698" offset="0"/>
      <stop id="stop640" style="stop-color:#6c7988" offset=".28240"/>
      <stop id="stop642" style="stop-color:#5a657d" offset="0.549"/>
      <stop id="stop644" style="stop-color:#545e79" offset=".72550"/>
      <stop id="stop646" style="stop-color:#4f5872" offset=".78820"/>
      <stop id="stop648" style="stop-color:#42465e" offset=".87450"/>
      <stop id="stop650" style="stop-color:#2c283e" offset=".97650"/>
      <stop id="stop652" style="stop-color:#262136" offset="1"/>
    </radialGradient>
    <radialGradient id="radialGradient666" gradientUnits="userSpaceOnUse" cy="213.75" cx="77.3" gradientTransform="matrix(-.79656 .074 .09696 1.0438 102.69 -205.84)" r="47.843">
      <stop id="stop668" style="stop-color:#859698" offset="0"/>
      <stop id="stop670" style="stop-color:#6c7988" offset=".28240"/>
      <stop id="stop672" style="stop-color:#5a657d" offset="0.549"/>
      <stop id="stop674" style="stop-color:#545e79" offset=".72550"/>
      <stop id="stop676" style="stop-color:#4f5872" offset=".78820"/>
      <stop id="stop678" style="stop-color:#42465e" offset=".87450"/>
      <stop id="stop680" style="stop-color:#2c283e" offset=".97650"/>
      <stop id="stop682" style="stop-color:#262136" offset="1"/>
    </radialGradient>
  </defs>
  <g id="g10" transform="matrix(1.25 0 0 -1.25 0 242.51)">
    <g id="g12">
      <path id="path14" style="fill-rule:evenodd;fill:#646d80" d="m41 158.52c1.441 2.453 5.055 9.453 10.84 21 4.851 9.68 7.414 14.414 7.68 14.199 0.691-0.531 0.906-2.093 0.64-4.679-0.558-5.094-0.867-8.961-0.922-11.602-0.023-1.84-0.449-6.437-1.277-13.797-0.563-5.203-0.547-10.109 0.039-14.722 1.465-11.52 2.441-18.454 2.922-20.797 1.68-8.028 4.25-14.414 7.719-19.16 0.183-0.243 0.773-0.895 1.757-1.961 0.723-0.774 1.215-1.469 1.481-2.082 0.32-0.692 0.746-2.25 1.281-4.68 0.426-1.867 1.094-3.344 2-4.438 1.707-2.027 3.067-5.043 4.078-9.043 0.641-2.585 1.203-5.945 1.684-10.078 0.266-2.425 0.84-4.867 1.719-7.32 1.011-2.828 1.734-5.469 2.16-7.922 2.558-14.531 5.226-26.199 8-35 0.664-2.105 1.945-5.973 3.84-11.598 1.679-4.906 2.933-8.785 3.757-11.64 0.321-0.852 0.508-1.508 0.563-1.961-7.148 0.347-15.562 0.479-25.241 0.401-11.227-0.16-19.641-0.269-25.239-0.32-13.226-0.16-26.414-0.441-39.562-0.84-0.211 0-2.625-0.066-7.238-0.199 0 2.773 0.093 5.867 0.281 9.277 0.371 6.801 1 11.817 1.879 15.043 0.719 2.797 1.504 6.504 2.359 11.117 0.641 3.602 0.961 5.414 0.961 5.442 0.426 2.027 0.985 3.773 1.68 5.238 0.265 0.59 0.867 1.774 1.801 3.563 0.773 1.464 1.347 2.652 1.718 3.558 0.985 2.293 1.801 4.36 2.442 6.199 1.73 4.668 2.84 8.629 3.32 11.883 0.266 1.68 0.332 3.664 0.199 5.957-0.187 2.614-0.308 4.563-0.359 5.84-0.215 4.695 0.586 8.524 2.398 11.481 4.293 6.91 7.465 14.043 9.52 21.402 2.16 7.785 2.988 15.558 2.48 23.32-0.238 2.293-0.398 4.012-0.48 5.16-0.106 1.973 0.094 3.653 0.601 5.039 0.958 0.747 1.864 1.68 2.719 2.801 0.989 1.25 2.254 3.223 3.801 5.918z" inkscape:connector-curvature="0"/>
      <g id="g16">
        <g id="g18">
          <g id="g24">
            <path id="path44" style="fill-rule:evenodd;fill:url(#radialGradient26)" d="m62.301 114.66-0.141 0.058c0.613 1.469 1.067 2.547 1.36 3.243 0.597 1.343 0.187 0.242-1.219-3.301l6.859-3.66 7.559-16.121-1.52-8.879c-1.465-5.95-3.371-9.067-5.719-9.36-2.453-0.32-5.148 2.199-8.082 7.559-2.32 4.187-3.89 8.027-4.718 11.519 0.32 1.575 0.773 3.536 1.359 5.879 1.227 4.668 2.602 8.907 4.121 12.723 0.043 0.113 0.09 0.227 0.141 0.34z" inkscape:connector-curvature="0"/>
          </g>
        </g>
      </g>
      <g id="g46">
        <g id="g48">
          <g id="g54">
            <path id="path74" style="fill-rule:evenodd;fill:url(#radialGradient56)" d="m61.238 133.4c0.934-5.867 1.817-11.105 2.641-15.719-1.145 1.227-2.359 2.918-3.641 5.078-2.558 4.321-4.172 8.762-4.84 13.321-0.664 4.586-0.476 10.054 0.563 16.402l1.719 8.16c0.508-6.375 1.695-15.453 3.558-27.242z" inkscape:connector-curvature="0"/>
          </g>
        </g>
      </g>
      <g id="g76">
        <g id="g78">
          <g id="g84">
            <path id="path104" style="fill-rule:evenodd;fill:url(#radialGradient86)" d="m57.68 160.64-1-5.043c-0.719-3.652-1.188-6.238-1.399-7.758-0.562 0.961-1.121 2.2-1.679 3.719-1.176 3.067-1.829 6.028-1.961 8.879-0.161 3.121 0.281 6.402 1.32 9.844 0.851 2.824 1.879 5.133 3.078 6.918l2.039 2.961-0.277-3.403c-0.16-2.453-0.16-4.199 0-5.238 0.211-1.519 0.332-3.238 0.359-5.16 0.028-2.348-0.133-4.254-0.48-5.719z" inkscape:connector-curvature="0"/>
          </g>
        </g>
      </g>
      <g id="g106">
        <g id="g108">
          <g id="g114">
            <path id="path134" style="fill-rule:evenodd;fill:url(#radialGradient116)" d="m59.48 181.72-0.039-2.597c-0.027-1.817-0.015-2.934 0.039-3.364 0.082-0.453-0.082-2.21-0.48-5.277-0.32-2.48-0.586-4.348-0.801-5.601-0.133 3.066-0.293 4.96-0.48 5.679-0.106 0.508-0.172 1.375-0.199 2.602-0.055 1.121-0.055 2 0 2.64 0.082 2.051 0.375 4.293 0.878 6.719 0.348 1.735 0.883 3.414 1.602 5.039-0.266-2.531-0.441-4.48-0.52-5.84z" inkscape:connector-curvature="0"/>
          </g>
        </g>
      </g>
      <g id="g136">
        <g id="g138">
          <g id="g144">
            <path id="path164" style="fill-rule:evenodd;fill:url(#radialGradient146)" d="m49.32 160.92 5.961-13.079-0.121-3.402c-0.051-2.426-0.066-4.012-0.039-4.758 0.051-1.281 0.188-2.652 0.399-4.121 0.054-0.265-0.282-1.414-1-3.437-0.747-2-1.348-3.43-1.797-4.282-0.321-0.558-0.977-1.558-1.961-3-0.961-1.441-1.668-2.734-2.121-3.878-0.371-0.934-0.653-1.801-0.84-2.602-0.055-0.293-0.145-0.359-0.281-0.199-0.051 0.078-0.653 1.453-1.797 4.121-1.203 2.746-2.055 4.492-2.563 5.238-0.558 0.801-1.148 1.695-1.758 2.68l-0.722 1.238c0.054 2.91 0.027 5.11-0.078 6.602-0.082 1.039-0.082 2.093 0 3.16 0.054 0.988 0.132 1.519 0.238 1.601 0.133 0.133 0.801 1.332 2 3.598 1.359 2.535 2.43 4.668 3.199 6.402 0.75 1.625 1.523 3.465 2.32 5.52l0.961 2.598z" inkscape:connector-curvature="0"/>
          </g>
        </g>
      </g>
      <g id="g166">
        <g id="g168">
          <g id="g174">
            <path id="path194" style="fill-rule:evenodd;fill:url(#radialGradient176)" d="m35.199 116.24c-1.625-1.867-3.238-3.332-4.84-4.399 0.536 1.68 1.106 3.918 1.719 6.719 1.176 5.629 1.91 11.242 2.203 16.84 0.051 0.934-0.043 2.895-0.281 5.883-0.215 2.851-0.293 4.586-0.238 5.199l1.199-0.641c0.934-0.667 1.785-1.558 2.559-2.679 2.402-3.547 3.402-8.68 3-15.403-0.239-3.945-2.012-7.785-5.321-11.519z" inkscape:connector-curvature="0"/>
          </g>
        </g>
      </g>
      <path id="path196" style="fill-rule:evenodd;fill:#859698" d="m34.879 150.92 0.48-1.758c0.696-1.496 1.934-3.082 3.719-4.762 0.828-0.801 1.414-1.332 1.762-1.598l-0.199-11.44c0 1.973-0.293 4.094-0.879 6.359-1.149 4.481-3.149 7.403-6 8.762 0.238 1.652 0.613 3.133 1.117 4.438z" inkscape:connector-curvature="0"/>
      <g id="g198">
        <g id="g200">
          <g id="g206">
            <path id="path226" style="fill-rule:evenodd;fill:url(#radialGradient208)" d="m48.16 174.2 1.281-5.559c0.559-4.426 0.133-8.426-1.281-12-1.387-3.574-3.027-6.961-4.922-10.16-0.933-1.574-1.73-2.801-2.398-3.68-0.879 0.614-1.785 1.414-2.719 2.399-1.867 1.973-2.949 3.879-3.242 5.719 1.441 1.761 3.082 4.054 4.922 6.882 3.652 5.653 6.437 11.118 8.359 16.399z" inkscape:connector-curvature="0"/>
          </g>
        </g>
      </g>
      <g id="g228">
        <g id="g230">
          <g id="g236">
            <path id="path256" style="fill-rule:evenodd;fill:url(#radialGradient238)" d="m52.441 181.08 1.438-8.239-1-2.96c-0.664-2.266-1.051-4.188-1.156-5.758-0.161-2.668 0.089-5.508 0.757-8.524 0.348-1.519 0.692-2.758 1.04-3.718l-4.2 9.039c0.16 1.066 0.227 2.414 0.2 4.043-0.024 3.277-0.52 6.32-1.481 9.117l0.84 0.84c0.641 0.722 1.176 1.429 1.601 2.121 0.961 1.707 1.614 3.054 1.961 4.039z" inkscape:connector-curvature="0"/>
          </g>
        </g>
      </g>
      <path id="path258" style="fill-rule:evenodd;fill:#859698" d="m60.398 189.6c-0.265-1.52-0.398-2.2-0.398-2.04-0.32-0.719-0.641-1.574-0.961-2.558-0.641-2.028-1-3.762-1.078-5.2-0.508-0.64-1.055-1.414-1.641-2.32-1.199-1.789-2.015-3.336-2.441-4.641l-1.441 8.239c0.91 2.215 1.882 4.414 2.921 6.601 2.079 4.375 3.442 6.481 4.079 6.321 0.374-0.106 0.667-0.586 0.882-1.442 0.215-0.906 0.239-1.894 0.078-2.961z" inkscape:connector-curvature="0"/>
      <g id="g260">
        <g id="g262">
          <g id="g268">
            <path id="path284" style="fill-rule:evenodd;fill:url(#radialGradient270)" d="m35.879 89.438c-2.801-2.133-5.785-4.09-8.957-5.879-3.496-1.894-5.695-3.16-6.602-3.801 0.078 0.055-0.015 1.293-0.281 3.723-0.266 2.613-0.398 3.984-0.398 4.117 0.187 3.52 0.984 6.348 2.398 8.481 0.961 1.441 2.641 4.492 5.039 9.16l3.281 6.601 1.039 0.52c3.204 1.57 6.414 1.895 9.641 0.961 3.574-1.043 5.414-3.363 5.52-6.961 0.082-3.016-1.079-6.215-3.481-9.602-1.89-2.664-4.293-5.105-7.199-7.32z" inkscape:connector-curvature="0"/>
          </g>
        </g>
      </g>
      <path id="path286" style="fill-rule:evenodd;fill:#859698" d="m41.719 130 2.722-5.52c1.891-3.789 3.028-5.949 3.399-6.48 0.508-0.719 0.828-1.321 0.961-1.801 0.133-0.508 0.011-0.746-0.36-0.719-0.48 0.051-1.093-0.508-1.839-1.68-0.801-1.281-1.176-2.574-1.122-3.882-0.265-0.024-1.027 0.496-2.281 1.562-2.906 2.531-7.187 2.652-12.84 0.359 1.735 1.04 3.469 2.625 5.2 4.758 3.468 4.297 5.16 9.215 5.082 14.762l1.078-1.359z" inkscape:connector-curvature="0"/>
      <path id="path288" style="fill-rule:evenodd;fill:#859698" d="m19.801 72.84 0.719 3.442c0.718-9.469 1.105-14.309 1.16-14.52 0.054-0.16-0.332-0.707-1.16-1.64-0.852-0.989-1.786-1.922-2.801-2.801-1.387-1.227-3.25-4.055-5.598-8.481-0.055-0.082 0.414 1.586 1.399 5 0.906 3.2 1.574 5.52 2 6.961 0.214 0.692 0.652 1.586 1.32 2.68 0.613 1.039 1.105 2.172 1.48 3.399 0.426 1.386 0.918 3.375 1.481 5.96z" inkscape:connector-curvature="0"/>
      <path id="path290" style="fill-rule:evenodd;fill:#859698" d="m68.719 112.48 0.48-0.281c0.453-0.399 1.028-1.055 1.723-1.961l1.039-2.399c0.691-1.652 1.078-2.64 1.16-2.96 0.156-0.532 0.414-1.879 0.758-4.04l-4.359 5.84-0.68 3.121-0.121 2.68z" inkscape:connector-curvature="0"/>
      <g id="g292">
        <g id="g294">
          <g id="g300">
            <path id="path314" style="fill-rule:evenodd;fill:url(#radialGradient302)" d="m64.398 116.32c0.536-1.016 1.321-1.746 2.364-2.199l1.957-1.641 0.121-2.68c-0.586-0.082-1.266-0.043-2.039 0.118-1.547 0.296-2.735 1.015-3.563 2.16-0.851 1.121-1.519 3.136-2 6.043l-0.48 4 3.121-4.442 0.519-1.359z" inkscape:connector-curvature="0"/>
          </g>
        </g>
      </g>
      <g id="g316">
        <g id="g318">
          <g id="g324">
            <path id="path344" style="fill-rule:evenodd;fill:url(#radialGradient326)" d="m60.801 121.72 0.437-3.039c0.375-2.187 0.684-3.64 0.922-4.359l-2.121-6.44c-1.465-4.96-2.332-9.172-2.598-12.641l-2.281 4.121c-0.773 2.215-1.601 4.547-2.48 7-1.758 4.879-3.067 7.973-3.918 9.281 0.105 0.028 0.144 0.16 0.117 0.399-0.051 0.425-0.399 1.082-1.039 1.961-0.028 0.453 0.055 1.066 0.238 1.839 0.402 1.598 1.16 3.266 2.281 5 2.586 3.973 4.348 7.415 5.282 10.321l1.281-4.242c1.144-3.36 2.437-6.426 3.879-9.2z" inkscape:connector-curvature="0"/>
          </g>
        </g>
      </g>
      <g id="g346">
        <g id="g348">
          <g id="g354">
            <path id="path376" style="fill-rule:evenodd;fill:url(#radialGradient356)" d="m56.16 99.598c0.215-0.558 0.746-2.144 1.602-4.758 0.636-1.917 1.211-3.48 1.718-4.679 0.825-1.949 1.372-3.414 1.641-4.403 0.481-1.812 0.531-3.343 0.156-4.597-0.316-1.121-1.425-4.906-3.316-11.36-1.359-4.64-2.414-8.468-3.16-11.48-0.215-0.961-0.481-2.441-0.801-4.441-0.348-1.813-0.785-3.254-1.32-4.321-0.774 0.426-1.707 0.227-2.801-0.597-0.613-0.454-1.453-1.149-2.52-2.082 0.215 3.414 0.36 5.972 0.442 7.679 0.16 2.989 0.133 5.535-0.082 7.641-0.16 1.812-0.547 3.894-1.16 6.238-0.774 2.695-1.348 4.723-1.719 6.082-0.508 1.867-0.52 4.133-0.039 6.801 0.746 3.012 1.254 5.254 1.519 6.719 0.586 3.066 0.946 5.425 1.078 7.082 0.243 2.664 0.149 5.039-0.277 7.117-0.855 4.133-1.441 6.641-1.762 7.519-0.093 0.258-0.152 0.372-0.179 0.34 0.207 0.864 0.492 1.723 0.859 2.582 0.828 1.895 1.734 2.879 2.723 2.961 0.343 0.028 1.597-2.402 3.758-7.281 1.812-4.16 3.027-7.078 3.64-8.762z" inkscape:connector-curvature="0"/>
          </g>
        </g>
      </g>
      <g id="g378">
        <g id="g380">
          <g id="g386">
            <path id="path408" style="fill-rule:evenodd;fill:url(#radialGradient388)" d="m46.441 69.079 6.2-19.879-0.563-11.36c-0.426-8-0.797-13.054-1.117-15.16-0.215-1.547-0.492-5-0.84-10.359-0.293-4.266-0.519-6.281-0.68-6.039-2.535 2.504-5.093 5.492-7.679 8.957-5.121 6.855-8.293 13.281-9.52 19.281-1.226 5.973 0.774 13.535 6 22.68 1.625 2.855 3.481 5.68 5.559 8.48l2.64 3.399z" inkscape:connector-curvature="0"/>
          </g>
        </g>
      </g>
      <g id="g410">
        <g id="g412">
          <g id="g418">
            <path id="path440" style="fill-rule:evenodd;fill:url(#radialGradient420)" d="m46.121 106.92c1.332-5.864 1.973-9.161 1.918-9.879-0.051-0.587-0.398-2.708-1.039-6.361-0.668-3.734-1.121-6.172-1.359-7.32-0.348-1.598-0.719-3.852-1.121-6.758-1.387-3.203-2.332-4.707-2.84-4.519-0.399 0.132-0.707 1.597-0.918 4.398-0.215 2.719-0.27 5.68-0.16 8.879 0.078 2.59 0.398 5.43 0.957 8.52l0.8 3.882 3.762 9.157z" inkscape:connector-curvature="0"/>
          </g>
        </g>
      </g>
      <g id="g442">
        <g id="g444">
          <g id="g450">
            <path id="path466" style="fill-rule:evenodd;fill:url(#radialGradient452)" d="m41.281 85.122c-0.242-6.856-0.109-11.203 0.399-13.043l-2.801-5.36c-1.758-4.265-2.359-8.187-1.801-11.757l-2.199-4.961c-1.465-3.653-2.254-6.403-2.359-8.243-5.172 10.59-8.786 17.254-10.84 20l-1.36 18c2.133 1.122 4.625 2.59 7.481 4.403 5.707 3.625 10.387 7.187 14.039 10.679l-0.559-9.718z" inkscape:connector-curvature="0"/>
          </g>
        </g>
      </g>
      <path id="path468" style="fill-rule:evenodd;fill:#859698" d="m41.68 72.079 2.84 4.519 1.921-7.519-4.203-6c-2.933-4.239-4.652-6.946-5.16-8.117-0.238 0.371-0.398 1.027-0.476 1.961-0.137 1.863 0.183 4.144 0.957 6.839 0.8 2.692 1.734 4.891 2.8 6.598l1.321 1.723v-0.004z" inkscape:connector-curvature="0"/>
      <g id="g470">
        <g id="g472">
          <g id="g478">
            <path id="path500" style="fill-rule:evenodd;fill:url(#radialGradient480)" d="m25.719 55.88c3.015-4.852 5.281-9.559 6.801-14.118l-0.122-5.082c0.297-4.132 1.364-7.988 3.204-11.558l-0.321-8.36c-0.375-6.375-1-11.613-1.883-15.722l-33.398-1.039c1.305 5.226 2.641 10.988 4 17.281 2.746 12.558 4.32 21.453 4.719 26.68 1.203 2.238 2.629 4.668 4.281 7.281 3.359 5.199 6.254 8.707 8.68 10.519l4.039-5.882z" inkscape:connector-curvature="0"/>
          </g>
        </g>
      </g>
      <g id="g502">
        <g id="g504">
          <g id="g510">
            <path id="path532" style="fill-rule:evenodd;fill:url(#radialGradient512)" d="m53.398 1.321-20.238-0.082c0.586 2.559 1.172 7.309 1.762 14.242l0.68 9.637c1.171-2.504 3.839-6.399 8-11.68 2.05-2.64 4-5.027 5.839-7.16l3.957-4.957z" inkscape:connector-curvature="0"/>
          </g>
        </g>
      </g>
      <path id="path534" style="fill-rule:evenodd;fill:#859698" d="m31.879 44.04c0.32-0.399 0.586-0.653 0.801-0.758l-0.321-2.801-0.879 4.16 0.399-0.601z" inkscape:connector-curvature="0"/>
      <g id="g536">
        <g id="g538">
          <g id="g544">
            <path id="path564" style="fill-rule:evenodd;fill:url(#radialGradient546)" d="m63.52 80.758c1.707-2.343 3.507-3.707 5.402-4.078 1.89-0.375 3.758 2.52 5.598 8.68l2.199 9.359 0.679-0.679c0.696-2.586 1.243-6.707 1.641-12.36 0.32-4.425 0.481-8.441 0.481-12.043 0-5.089 0.066-8.425 0.203-10l-5.442-5.636c-3.922-4.27-6.601-7.629-8.043-10.082-2.293-3.946-3.515-6.371-3.679-7.282l-8.918 16.961 7.879 30.52 2-3.36z" inkscape:connector-curvature="0"/>
          </g>
        </g>
      </g>
      <g id="g566">
        <g id="g568">
          <g id="g574">
            <path id="path594" style="fill-rule:evenodd;fill:url(#radialGradient576)" d="m53.641 53.598 8.918-16.957 3.121-13.359c2.691-9.844 5.558-17.043 8.597-21.602l-20.879-0.359c-0.05 2.32-0.171 4.773-0.359 7.359-0.348 5.149-0.812 8.321-1.398 9.52 0.879 17.734 1.226 28.187 1.039 31.359l0.961 4.039z" inkscape:connector-curvature="0"/>
          </g>
        </g>
      </g>
      <g id="g596">
        <g id="g598">
          <g id="g604">
            <path id="path624" style="fill-rule:evenodd;fill:url(#radialGradient606)" d="m51.641 18.2 1.121-6.442c0.691-4.746 0.906-8.226 0.636-10.437l-3.957 4.957 0.918 11.281 1.282 0.641z" inkscape:connector-curvature="0"/>
          </g>
        </g>
      </g>
      <g id="g626">
        <g id="g628">
          <g id="g634">
            <path id="path654" style="fill-rule:evenodd;fill:url(#radialGradient636)" d="m79.48 85.52 1.758-9.961c1.254-6.933 2.043-11.094 2.364-12.48l-3.883-3.442-0.598 26.602 0.359-0.719z" inkscape:connector-curvature="0"/>
          </g>
        </g>
      </g>
      <g id="g656">
        <g id="g658">
          <g id="g664">
            <path id="path684" style="fill-rule:evenodd;fill:url(#radialGradient666)" d="m76.16 57.161c1.895 1.867 3.84 3.558 5.84 5.078l2.441 1.684c1.094-5.895 4.25-18.122 9.481-36.684 2.64-9.277 5.156-17.957 7.558-26.039l-27.199 0.48c-3.519 5.52-6.535 13-9.043 22.442l-2.679 12.519c2.933 7.625 7.468 14.465 13.601 20.52z" inkscape:connector-curvature="0"/>
          </g>
        </g>
      </g>
    </g>
  </g>
<metadata><rdf:RDF><cc:Work><dc:format>image/svg+xml</dc:format><dc:type rdf:resource="http://purl.org/dc/dcmitype/StillImage"/><cc:license rdf:resource="http://creativecommons.org/licenses/publicdomain/"/><dc:publisher><cc:Agent rdf:about="http://openclipart.org/"><dc:title>Openclipart</dc:title></cc:Agent></dc:publisher></cc:Work><cc:License rdf:about="http://creativecommons.org/licenses/publicdomain/"><cc:permits rdf:resource="http://creativecommons.org/ns#Reproduction"/><cc:permits rdf:resource="http://creativecommons.org/ns#Distribution"/><cc:permits rdf:resource="http://creativecommons.org/ns#DerivativeWorks"/></cc:License></rdf:RDF></metadata></svg>
