<?xml version="1.0" encoding="UTF-8" standalone="no"?>
<!-- Created with Inkscape (http://www.inkscape.org/) -->
<svg xmlns:inkscape="http://www.inkscape.org/namespaces/inkscape" xmlns:rdf="http://www.w3.org/1999/02/22-rdf-syntax-ns#" xmlns="http://www.w3.org/2000/svg" xmlns:xlink="http://www.w3.org/1999/xlink" xmlns:ns1="http://sozi.baierouge.fr" xmlns:cc="http://creativecommons.org/ns#" xmlns:sodipodi="http://sodipodi.sourceforge.net/DTD/sodipodi-0.dtd" xmlns:dc="http://purl.org/dc/elements/1.1/" id="svg2" xml:space="preserve" viewBox="0 0 105.88 61.66" version="1.1" inkscape:version="0.91 r13725">
  <defs id="defs6">
    <clipPath id="clipPath18">
      <path id="path20" d="m0-0.67194h85v18h-85v-18z" inkscape:connector-curvature="0"/>
    </clipPath>
    <mask id="mask22">
      <g id="g24">
        <g id="g26" clip-path="url(#clipPath18)">
          <path id="path28" style="fill:#000000;fill-opacity:.14060" d="m0-0.67194h85v18h-85v-18z" inkscape:connector-curvature="0"/>
        </g>
      </g>
    </mask>
    <clipPath id="clipPath34">
      <path id="path36" d="m0-0.67194h85v18h-85v-18z" inkscape:connector-curvature="0"/>
    </clipPath>
    <clipPath id="clipPath38">
      <path id="path40" d="m0 0h85v18h-85v-18z" inkscape:connector-curvature="0"/>
    </clipPath>
    <radialGradient id="radialGradient68" gradientUnits="userSpaceOnUse" cy="43.807" cx="-66.372" gradientTransform="matrix(-.06816 .79712 -.79712 -.06816 69.85 55.288)" r="58.713">
      <stop id="stop70" style="stop-color:#4fb395" offset="0"/>
      <stop id="stop72" style="stop-color:#53b598" offset=".2471"/>
      <stop id="stop76" style="stop-color:#5fbda1" offset=".47060"/>
      <stop id="stop78" style="stop-color:#74c9af" offset="0.698"/>
      <stop id="stop80" style="stop-color:#90dac3" offset=".92550"/>
      <stop id="stop82" style="stop-color:#97dec8" offset=".97650"/>
      <stop id="stop84" style="stop-color:#97dec8" offset="1"/>
    </radialGradient>
  </defs>
  <g id="g10" transform="matrix(1.25 0 0 -1.25 0 61.66)">
    <g id="g12">
      <g id="g14">
        <g id="g30" mask="url(#mask22)">
          <g id="g42">
            <g id="g44" clip-path="url(#clipPath34)">
              <g id="g46" transform="translate(0 -.67194)">
                <g id="g50">
                  <g id="g52" clip-path="url(#clipPath38)">
                    <g id="g54">
                      <path id="path56" style="fill-rule:evenodd;fill:#000000" d="m81.855 12.473c1.84-0.348 2.786-0.785 2.84-1.321 0.051-0.265-0.093-0.492-0.441-0.679-1.332-0.801-2.465-1.403-3.399-1.801l-4-2c-0.293-0.133-0.894-0.305-1.8-0.52-2-0.453-3.801-0.879-5.399-1.281-2.297-0.559-3.601-0.933-3.922-1.117-0.105-0.188-0.464-0.414-1.078-0.684-0.617-0.265-1.562-0.586-2.84-0.957-1.175-0.375-1.961-0.656-2.363-0.84-0.426-0.214-1.48-0.214-3.16 0-2.746 0.344-5.16 0.547-7.238 0.598-2.266 0.082-3.602 0.039-4-0.117-0.828-0.27-2.559-0.496-5.2-0.684-3.171-0.265-4.906-0.398-5.199-0.398-0.453 0.055-1.789 0.121-4 0.199-0.402 0-1.906 0.055-4.523 0.16-0.426 0.028-1.985 0.039-4.68 0.039-2.586 0-3.84 0.055-3.758 0.16 0.16 0.11 0.254 0.204 0.278 0.282 0.027 0.105-0.211 0.226-0.719 0.359-1.52 0.375-2.371 0.602-2.559 0.68-0.586 0.215-1.199 0.586-1.84 1.121-0.64 0.558-1.414 0.973-2.32 1.238-0.347 0.11-2.375 0.629-6.082 1.563-2.797 0.691-4.277 1.226-4.437 1.597-0.11 0.27 0.371 0.403 1.437 0.403 0.563 0 1.094 0.293 1.602 0.879 0.613 0.8 1.148 1.441 1.601 1.921 2.934 0.637 6.543 1.332 10.84 2.079 8.613 1.546 16.332 2.652 23.16 3.32 6.637 0.64 10.317 0.894 11.039 0.762 0.321-0.055 0.785-0.204 1.399-0.442 0.855-0.265 2.176-0.508 3.961-0.719 2.984-0.347 6.187-0.882 9.601-1.601 2.824-0.613 5.028-0.945 6.598-1 2.32-0.106 4.133-0.227 5.441-0.36 1.145-0.132 2.867-0.414 5.16-0.839z" inkscape:connector-curvature="0"/>
                    </g>
                  </g>
                </g>
              </g>
            </g>
          </g>
        </g>
      </g>
      <g id="g58">
        <g id="g60">
          <g id="g66">
            <path id="path86" style="fill-rule:evenodd;fill:url(#radialGradient68)" d="m70.336 17.801 8.879-8c-0.215-0.266-0.641-0.547-1.281-0.84-1.305-0.613-3.051-1.043-5.239-1.281-0.722-0.079-3.746-1.133-9.082-3.161-4.32-1.652-8.023-2.171-11.117-1.558-5.789 1.094-11.535 1.078-17.242-0.043-7.813-1.652-14.852-1.078-21.121 1.723-4.449 1.867-7.012 2.945-7.68 3.238-0.558 0.242-0.746 0.613-0.558 1.121 0.265 0.668 1.48 2.426 3.64 5.281 2.293 3.012 3.906 4.863 4.84 5.559 0.801 0.586 1.371 2.265 1.719 5.039 0.535 4.187 0.961 6.867 1.281 8.039 0.613 2.297 0.84 5.523 0.68 9.683-0.082 2.051-0.227 3.891-0.442 5.52l2.922 0.52c2.293 0.371 4.281 0.597 5.961 0.679 1.68 0.106 3.746-0.801 6.199-2.719 1.227-0.96 2.278-1.921 3.16-2.882l5.2-9.039c0.828-1.52 3.414-3.508 7.761-5.961 0.45-0.239 0.946-0.774 1.477-1.598 0.242-0.375 1.844-0.867 4.801-1.48 3.199-0.641 5.414-1.348 6.64-2.122 0.746-0.48 1.668-1.238 2.762-2.281 1.543-1.117 3.492-2.265 5.84-3.437z" inkscape:connector-curvature="0"/>
          </g>
        </g>
      </g>
      <path id="path88" style="fill-rule:evenodd;fill:#afedd9" d="m35.855 43.719 0.758-1.321-2.359-3.797 1.719-3.64c1.468-2.883 3.027-5.402 4.683-7.563 1.68-2.16 2.719-4.211 3.117-6.16 0.188-0.957 0.215-1.707 0.082-2.238-1.066 0.531-2.667 2-4.8 4.398-1.332 1.493-3.067 3.575-5.2 6.243-2.402 3.039-4.132 5.226-5.199 6.558-1.336 1.652-2.734 2.613-4.203 2.879l-1.797-0.078c-0.32 0-0.707-0.121-1.16-0.359-0.855-0.454-1.535-1.27-2.043-2.442-0.453-0.961-1.105-1.855-1.957-2.68 0.504 2.321 0.68 5.454 0.52 9.399-0.082 1.973-0.215 3.707-0.403 5.199l0.641 0.121c0.32-0.453 0.601-1.426 0.84-2.918 0.242-1.469 0.496-2.375 0.761-2.722 0.559-0.747 1.907-1.118 4.04-1.118 1.839 0 3.695 0.239 5.558 0.719 1.414 0.32 3.442 0.934 6.082 1.84l0.32-0.32z" inkscape:connector-curvature="0"/>
      <path id="path90" style="fill-rule:evenodd;fill:#50ab90" d="m70.336 17.801 8.879-8c-0.215-0.266-0.641-0.547-1.281-0.84-1.305-0.613-3.051-1.043-5.239-1.281-0.722-0.079-3.746-1.133-9.082-3.161-4.32-1.652-8.023-2.171-11.117-1.558-5.789 1.094-11.535 1.078-17.242-0.043-7.813-1.652-14.852-1.078-21.121 1.723-4.449 1.867-7.012 2.945-7.68 3.238-0.558 0.242-0.746 0.613-0.558 1.121 0.238 0.453 0.585 1.012 1.039 1.68 4.054-0.879 6.894-1.172 8.519-0.879 0.961 0.156 2 0.039 3.121-0.36 2.16-0.75 3.387-1.16 3.68-1.242 1.336-0.348 2.336-0.265 3 0.242 0.668 0.77 1.266 1.36 1.801 1.758 1.066 0.801 3.066 2.133 6 4l3.601-3.601 2.239-0.399c1.679-0.265 2.933-0.398 3.761-0.398 0.664 0 2.172-0.016 4.52-0.043 2.078 0.054 3.371 0.336 3.879 0.84 0.8 0.8 1.332 2.668 1.601 5.601-1.601 0.801-3.468 1.469-5.601 2-2 0.508-3.094 0.801-3.282 0.879-0.718 0.375-1.625 1.281-2.718 2.723-0.989 1.332-2.082 3-3.282 5l-1.519 2.597-6.801 9.2 3.203 2.402c1.117 0.851 2.094 1.851 2.918 3l0.281-0.281 5.2-9.039c0.828-1.52 3.414-3.508 7.761-5.961 0.45-0.239 0.946-0.774 1.477-1.598 0.242-0.375 1.844-0.867 4.801-1.48 3.199-0.641 5.414-1.348 6.64-2.122 0.746-0.48 1.668-1.238 2.762-2.281 1.543-1.117 3.492-2.265 5.84-3.437z" inkscape:connector-curvature="0"/>
      <path id="path92" style="fill-rule:evenodd;fill:#459980" d="m70.656 9.801c1.383 0.453 2.36 1.199 2.918 2.238 0.481 0.906 0.84 1.359 1.082 1.359h0.559l4-3.597c-0.215-0.266-0.641-0.547-1.281-0.84-1.305-0.613-3.051-1.043-5.239-1.281-0.722-0.079-3.746-1.133-9.082-3.161-4.32-1.652-8.023-2.171-11.117-1.558-5.789 1.094-11.535 1.078-17.242-0.043-7.813-1.652-14.852-1.078-21.121 1.723l-2.879 1.238c3.496 0.055 7.027-0.106 10.601-0.481 2.532-0.265 4.946-0.574 7.239-0.918 1.148-0.082 2.066 0.227 2.761 0.918l1.598 1.602 2.762-0.242c2.055-0.211 3.668-0.399 4.84-0.559 1.867-0.265 5.601-0.398 11.199-0.398 1.601 0 2.973-0.055 4.121-0.16 0.48 0.05 1.238 0.503 2.281 1.359 1.598 1.332 3.199 3.199 4.797 5.598l2.242-1.84c1.813-1.145 3.465-1.465 4.961-0.957z" inkscape:connector-curvature="0"/>
      <path id="path94" style="fill-rule:evenodd;fill:#86d4bc" d="m17.055 20.398c0.425 0.43 0.933 0.856 1.519 1.282 1.121 0.879 2.016 1.32 2.68 1.32 0.641 0 1.359-0.281 2.16-0.84l2.441-1.762 4.801-2.797c-2.668 0.399-5.402 0.934-8.203 1.598l-5.398 1.199z" inkscape:connector-curvature="0"/>
      <path id="path96" style="fill-rule:evenodd;fill:#86d4bc" d="m37.336 12.879-0.883 0.121c-0.293 0.105-0.504 0.293-0.637 0.559-0.269 0.535 0.012 1.214 0.84 2.039 0.906 0.91 1.68 1.429 2.317 1.562 0.16 0.024 1.187 0.039 3.082 0.039l1.761 0.559c1.332 0.375 2.411 0.519 3.239 0.441 1.332-0.133 3.199-0.801 5.601-2l-5.402-3.801c-1.066-0.773-1.973-1.011-2.719-0.718-1.519 0.558-2.68 0.867-3.48 0.918-1.575 0.082-2.813 0.175-3.719 0.281z" inkscape:connector-curvature="0"/>
    </g>
  </g>
<metadata><rdf:RDF><cc:Work><dc:format>image/svg+xml</dc:format><dc:type rdf:resource="http://purl.org/dc/dcmitype/StillImage"/><cc:license rdf:resource="http://creativecommons.org/licenses/publicdomain/"/><dc:publisher><cc:Agent rdf:about="http://openclipart.org/"><dc:title>Openclipart</dc:title></cc:Agent></dc:publisher></cc:Work><cc:License rdf:about="http://creativecommons.org/licenses/publicdomain/"><cc:permits rdf:resource="http://creativecommons.org/ns#Reproduction"/><cc:permits rdf:resource="http://creativecommons.org/ns#Distribution"/><cc:permits rdf:resource="http://creativecommons.org/ns#DerivativeWorks"/></cc:License></rdf:RDF></metadata></svg>
