<svg width="166" height="133" fill="none" xmlns="http://www.w3.org/2000/svg"><g clip-path="url(#a)"><path d="m88.183 40.617-8.98 8.338 7.922 6.66-4.51 6.762-6.248-5.89-.067 4.087-8.436.967-.511-25.88 9.434-1.127-.101 5.825 5.186-7.179 6.304 7.434.007.004ZM109.15 35.563c.123 3.283.214 5.922.274 7.917a373.05 373.05 0 0 1 .143 6.728v.514a19.567 19.567 0 0 1-.291 3.766 9.763 9.763 0 0 1-1.176 3.266 8.022 8.022 0 0 1-2.319 2.509c-.977.7-2.196 1.187-3.656 1.463-2.23.43-4.153.473-5.764.13-1.611-.343-2.939-.988-3.979-1.933a8.109 8.109 0 0 1-2.27-3.587c-.482-1.547-.7-3.16-.636-4.781v-.322c0-.213 0-.665.031-1.351.031-.69.042-1.652.067-2.898.02-1.246.063-2.905.13-4.988.066-2.082.14-4.613.223-7.598l9.21 1.61-.836 15.127a4.01 4.01 0 0 0 .017 1.488c.063.322.165.633.305.927.056.112.116.217.186.322.189.224.455.371.742.42.28.042.588-.217.928-.773.074-.13.133-.267.186-.403.15-.42.259-.858.322-1.302.115-.756.147-1.523.098-2.285l-.676-12.359 8.738-1.614.003.008ZM114.046 34.758l12.3 10.203.29-10.643 9.596.644-1.488 24.555-12.331-6.146.452 7.599-9.242.578.423-26.786v-.004ZM158.26 45.028a3.015 3.015 0 0 0-1.432-1.596 4.78 4.78 0 0 0-2.206-.498 6.61 6.61 0 0 0-2.476.515 8.122 8.122 0 0 0-2.35 1.449 7.666 7.666 0 0 0-1.755 2.285 6.618 6.618 0 0 0-.693 3.06c-.021 1.05.147 1.893.501 2.526a3.268 3.268 0 0 0 1.351 1.369c.564.284 1.191.41 1.822.371a5.387 5.387 0 0 0 1.964-.483 6.435 6.435 0 0 0 1.755-1.159 4.65 4.65 0 0 0 1.177-1.658l-4.574.871.515-5.183 14.04-1.768a10.79 10.79 0 0 1-.186 4.008 16.522 16.522 0 0 1-1.289 3.618 24.4 24.4 0 0 1-1.712 2.937 22.901 22.901 0 0 1-1.499 1.981c-.4.451-.617.697-.662.742a11.544 11.544 0 0 1-2.823 2.034 15.384 15.384 0 0 1-3.558 1.319 15.474 15.474 0 0 1-3.929.402 12.182 12.182 0 0 1-3.856-.714 10.66 10.66 0 0 1-3.397-2.009 9.9 9.9 0 0 1-2.529-3.507 13.783 13.783 0 0 1-1.254-4.812 14.97 14.97 0 0 1 2.14-8.869 16.969 16.969 0 0 1 2.9-3.587 17.966 17.966 0 0 1 3.782-2.72 16.253 16.253 0 0 1 4.413-1.61c.042 0 .273-.028.693-.08a10.91 10.91 0 0 1 1.821-.014c.904.063 1.801.217 2.673.465 1.12.325 2.202.777 3.222 1.351a15.736 15.736 0 0 1 3.446 2.625l-6.024 6.349-.011-.01Z" fill="#FCE4C9"/><path d="m87.567 39.84-8.983 8.337 7.929 6.665-4.514 6.758-6.248-5.89-.067 4.087-8.436.967-.515-25.88 9.435-1.123-.099 5.828 5.184-7.179 6.31 7.434.004-.004ZM108.527 34.786c.122 3.283.213 5.926.273 7.917.059 1.995.094 3.528.112 4.603.021 1.075.035 1.782.035 2.125v.518a19.647 19.647 0 0 1-.291 3.766 9.957 9.957 0 0 1-1.173 3.275 8.066 8.066 0 0 1-2.318 2.51c-.977.697-2.196 1.187-3.656 1.463-2.231.43-4.154.472-5.765.13-1.61-.344-2.938-.988-3.978-1.933a8.14 8.14 0 0 1-2.27-3.587 14.165 14.165 0 0 1-.644-4.781v-.329c0-.217 0-.665.031-1.355.032-.685.042-1.651.067-2.894.021-1.242.063-2.908.13-4.991.066-2.082.14-4.613.22-7.595l9.214 1.617-.837 15.127a4.01 4.01 0 0 0 .018 1.487c.06.322.16.634.304.928.056.112.116.217.186.322.19.224.455.371.742.42.277.042.589-.214.928-.774.074-.129.134-.262.186-.402.151-.42.259-.858.322-1.302.116-.756.147-1.523.098-2.285l-.675-12.359 8.744-1.624-.003.003ZM113.423 33.981l12.303 10.203.29-10.654 9.596.644-1.488 24.56-12.335-6.147.452 7.595-9.239.581.417-26.778.004-.004ZM157.633 44.25a2.98 2.98 0 0 0-1.432-1.592 4.803 4.803 0 0 0-2.203-.5 6.715 6.715 0 0 0-2.483.521 8.052 8.052 0 0 0-2.35 1.442 7.603 7.603 0 0 0-1.754 2.285 6.62 6.62 0 0 0-.694 3.06c-.021 1.05.144 1.893.501 2.523a3.264 3.264 0 0 0 1.352 1.369c.564.283 1.19.413 1.821.37a5.392 5.392 0 0 0 1.965-.483 6.61 6.61 0 0 0 1.754-1.158 4.615 4.615 0 0 0 1.173-1.659l-4.57.872.515-5.18 14.036-1.764a10.73 10.73 0 0 1-.185 4.007 16.712 16.712 0 0 1-1.279 3.612 23.658 23.658 0 0 1-1.723 2.944 23.48 23.48 0 0 1-1.495 1.98c-.399.448-.616.697-.658.742a11.48 11.48 0 0 1-2.816 2.027 15.226 15.226 0 0 1-3.558 1.32 15.458 15.458 0 0 1-3.93.402 12.31 12.31 0 0 1-3.862-.707 10.664 10.664 0 0 1-3.401-2.02 9.89 9.89 0 0 1-2.525-3.506 13.796 13.796 0 0 1-1.257-4.806 15.276 15.276 0 0 1 .385-4.634 14.965 14.965 0 0 1 1.755-4.231 16.933 16.933 0 0 1 2.899-3.588 17.65 17.65 0 0 1 3.783-2.72 16.13 16.13 0 0 1 4.412-1.599c.042 0 .273-.025.694-.08a10.91 10.91 0 0 1 1.821-.018c.903.063 1.8.217 2.672.465 1.121.326 2.203.781 3.218 1.355a15.674 15.674 0 0 1 3.446 2.621l-6.023 6.332-.004-.003Z" fill="#60547C"/><path d="m84.82 39.522-8.982 8.337 7.922 6.664-4.5 6.762-6.248-5.89-.067 4.087-8.436.967-.522-25.876 9.434-1.127-.098 5.828 5.19-7.179 6.308 7.434v-.007ZM105.785 34.468c.122 3.283.214 5.922.273 7.917.06 1.995.098 3.532.112 4.602.021 1.075.032 1.782.032 2.125v.514a19.727 19.727 0 0 1-.291 3.767 9.778 9.778 0 0 1-1.184 3.265 8.066 8.066 0 0 1-2.318 2.51c-.977.696-2.196 1.186-3.656 1.462-2.231.431-4.154.473-5.765.13-1.61-.343-2.938-.987-3.978-1.932a8.11 8.11 0 0 1-2.27-3.588 14.165 14.165 0 0 1-.644-4.78v-.322c0-.214.01-.666.032-1.352.02-.686.042-1.651.063-2.898.02-1.245.063-2.908.13-4.99.066-2.083.14-4.614.223-7.596l9.21 1.61-.836 15.127c-.088.494-.08.998.017 1.488.06.322.165.633.305.928.056.111.116.217.186.322.189.224.455.37.742.416.28.046.588-.213.928-.77a3.5 3.5 0 0 0 .186-.403c.15-.42.259-.857.322-1.302.112-.756.147-1.522.098-2.285l-.676-12.358 8.752-1.614.007.007ZM110.681 33.663l12.299 10.203.291-10.654 9.595.643-1.488 24.556-12.331-6.149.452 7.595-9.242.581.424-26.779v.004ZM154.891 43.928a2.995 2.995 0 0 0-1.432-1.592 4.782 4.782 0 0 0-2.206-.497 6.647 6.647 0 0 0-2.48.514 8.117 8.117 0 0 0-2.35 1.439 7.603 7.603 0 0 0-1.754 2.285 6.615 6.615 0 0 0-.694 3.056c-.021 1.05.147 1.893.501 2.527a3.264 3.264 0 0 0 1.352 1.369c.564.283 1.19.409 1.821.37a5.392 5.392 0 0 0 1.965-.483 6.527 6.527 0 0 0 1.754-1.158 4.607 4.607 0 0 0 1.173-1.649l-4.57.868.515-5.18 14.04-1.77a10.664 10.664 0 0 1-.186 4.007 16.443 16.443 0 0 1-1.271 3.619 24.085 24.085 0 0 1-1.723 2.947 22.135 22.135 0 0 1-1.499 1.977c-.399.449-.62.697-.662.742a11.405 11.405 0 0 1-2.816 2.027 14.99 14.99 0 0 1-3.558 1.32 15.355 15.355 0 0 1-3.936.406 12.217 12.217 0 0 1-3.863-.708 10.735 10.735 0 0 1-3.397-2.012 9.89 9.89 0 0 1-2.532-3.514 13.853 13.853 0 0 1-1.257-4.813 15.276 15.276 0 0 1 .385-4.633 15.029 15.029 0 0 1 1.755-4.236 16.933 16.933 0 0 1 2.899-3.587 17.848 17.848 0 0 1 3.783-2.72 16.388 16.388 0 0 1 4.412-1.61c.042 0 .273-.024.694-.08a11.03 11.03 0 0 1 1.831-.014c.904.06 1.8.217 2.672.465 1.121.326 2.203.778 3.222 1.352a15.69 15.69 0 0 1 3.446 2.624l-6.03 6.339-.004.004Z" fill="#FFCC70"/><path d="m86.163 64.281 17.808-1.288-.998 8.361-8.115.323-.353 2.512 6.762-.416.452 6.758-6.794.42-.322 8.24-8.21.185-.227-25.095h-.003ZM125.673 63.798c.123 3.283.214 5.922.273 7.917.06 1.995.095 3.528.112 4.602.021 1.075.032 1.782.032 2.125v.518c.024 1.26-.07 2.524-.291 3.766a9.785 9.785 0 0 1-1.176 3.266 8.056 8.056 0 0 1-2.315 2.509c-.977.697-2.196 1.186-3.657 1.463-2.23.43-4.153.472-5.764.13-1.611-.343-2.938-.987-3.978-1.932a8.105 8.105 0 0 1-2.27-3.588 14.26 14.26 0 0 1-.644-4.781v-.322c0-.217.01-.665.031-1.355.021-.686.042-1.651.067-2.897.021-1.246.066-2.905.129-4.988.064-2.082.141-4.613.225-7.595l9.21 1.61-.837 15.127a4.021 4.021 0 0 0 .326 2.415c.052.112.115.22.185.322.19.224.456.371.743.416.28.043.588-.213.928-.773.074-.13.137-.263.186-.403.15-.42.259-.857.322-1.301.112-.757.147-1.523.098-2.286l-.676-12.359 8.738-1.613.003.007Z" fill="#FCE4C9"/><path d="m85.283 64.078 17.808-1.288-.998 8.361-8.114.323-.354 2.509 6.759-.413.456 6.755-6.794.416-.323 8.24-8.212.185-.228-25.091v.003ZM124.798 63.599c.122 3.283.213 5.922.273 7.917.06 1.994.095 3.531.112 4.602.021 1.075.032 1.782.032 2.125v.514c.028 1.26-.07 2.52-.288 3.762a9.818 9.818 0 0 1-1.176 3.266 8.069 8.069 0 0 1-2.319 2.51c-.973.7-2.192 1.186-3.656 1.462-2.231.431-4.153.473-5.764.13-1.611-.343-2.939-.987-3.979-1.932a8.112 8.112 0 0 1-2.269-3.587 14.203 14.203 0 0 1-.648-4.788v-.323c0-.213.01-.665.031-1.35.021-.686.042-1.653.067-2.898.021-1.24.063-2.902.13-4.988.063-2.086.14-4.62.224-7.599l9.21 1.61-.837 15.127c-.087.494-.08.998.018 1.488.059.322.164.633.308.927.052.112.116.221.186.323.189.224.455.374.742.42.28.042.588-.214.928-.774.074-.13.133-.263.186-.403.154-.42.259-.857.322-1.302.112-.755.147-1.522.098-2.285l-.676-12.358 8.741-1.6.004.004Z" fill="#60547C"/><path d="m83.207 64.463 17.808-1.288-.998 8.362-8.115.322-.353 2.516 6.762-.42.452 6.758-6.794.42-.319 8.24-8.209.185-.231-25.099-.003.004ZM122.718 63.98c.122 3.283.213 5.922.276 7.917.06 1.995.098 3.531.112 4.602.021 1.072.035 1.779.035 2.125v.514a19.646 19.646 0 0 1-.29 3.766 9.931 9.931 0 0 1-1.177 3.266 8.043 8.043 0 0 1-2.322 2.513c-.977.696-2.196 1.186-3.656 1.463-2.231.43-4.154.472-5.765.13-1.611-.343-2.934-.991-3.968-1.936a8.112 8.112 0 0 1-2.269-3.588 14.147 14.147 0 0 1-.644-4.78v-.322c0-.214.01-.666.035-1.352.021-.686.042-1.651.063-2.898.021-1.242.066-2.908.129-4.99.067-2.083.14-4.614.224-7.595l9.211 1.61-.837 15.127a4 4 0 0 0 .017 1.487c.06.322.162.633.305.927.053.113.116.221.186.323.189.224.455.37.742.42.28.041.589-.214.928-.77.074-.13.133-.266.186-.403a6.13 6.13 0 0 0 .322-1.302c.112-.756.147-1.522.098-2.285l-.676-12.362 8.735-1.614v.007Z" fill="#FFCC70"/><path d="M82.216 95.33a16.567 16.567 0 0 1 1.432 4.025c.336 1.515.455 3.069.354 4.616a17.352 17.352 0 0 1-1.044 4.876 16.873 16.873 0 0 1-2.77 4.795l1.488 1.449-4.766 4.732-1.674-2.286a15.329 15.329 0 0 1-4.413 1.19c-1.551.196-3.12.123-4.647-.21a11.088 11.088 0 0 1-4.23-1.939c-1.3-.952-2.337-2.278-3.107-3.976-1.075-2.422-1.51-4.798-1.303-7.129a15.206 15.206 0 0 1 2.014-6.423 16.818 16.818 0 0 1 4.556-5.054 18.052 18.052 0 0 1 6.297-3.024 11.76 11.76 0 0 1 4.104-.34c1.198.12 2.364.427 3.464.917a9.685 9.685 0 0 1 2.627 1.722 8.145 8.145 0 0 1 1.621 2.052l-.003.007Zm-16.873 11.522c0 1.029.15 1.865.451 2.509a3.39 3.39 0 0 0 1.177 1.456 3.084 3.084 0 0 0 1.642.518c.63.018 1.261-.08 1.86-.29l-.742-.998 2.703-3.958 1.674 1.641c.354-.63.638-1.302.837-1.995a7.12 7.12 0 0 0 .273-1.736 5.45 5.45 0 0 0-.143-1.449 6.258 6.258 0 0 0-.417-1.19 3.043 3.043 0 0 0-1.37-1.487 3.648 3.648 0 0 0-1.918-.389 5.477 5.477 0 0 0-2.095.595 6.793 6.793 0 0 0-1.933 1.488 7.808 7.808 0 0 0-1.996 5.285h-.004ZM106.499 92.27c.123 3.284.214 5.922.273 7.917.06 1.995.095 3.532.112 4.603.021 1.071.032 1.781.032 2.124v.515c.024 1.26-.074 2.52-.291 3.759a9.766 9.766 0 0 1-1.177 3.265 8.014 8.014 0 0 1-2.318 2.51c-.977.696-2.196 1.186-3.656 1.463-2.231.43-4.154.472-5.765.129-1.61-.343-2.938-.987-3.978-1.925a8.112 8.112 0 0 1-2.27-3.587 14.169 14.169 0 0 1-.644-4.781v-.322c0-.214 0-.665.032-1.351.031-.686.042-1.652.066-2.898.021-1.246.063-2.905.13-4.991.066-2.082.14-4.613.224-7.595l9.21 1.61-.836 15.12c-.088.493-.081.997.017 1.487.06.322.165.634.305.928.056.112.115.217.185.322.193.224.456.371.743.42.28.045.588-.214.928-.77.07-.13.133-.266.186-.403.15-.42.259-.857.322-1.302.115-.756.147-1.522.098-2.285l-.676-12.358 8.745-1.61.003.007ZM121.569 91.242l-1.321 26.04-8.468.973.322-25.88 9.467-1.133ZM126.784 118.695l7.823-18.955-9.403.612 1.804-8.435 23.926-.773-10.912 18.119 12.106-1.488-1.611 9.366-23.737 1.551.004.003Z" fill="#FCE4C9"/><path d="M81.203 95.438a16.585 16.585 0 0 1 1.433 4.022c.336 1.515.455 3.069.353 4.619a17.247 17.247 0 0 1-1.043 4.879 16.723 16.723 0 0 1-2.77 4.795l1.488 1.449-4.77 4.722-1.674-2.286a15.329 15.329 0 0 1-4.413 1.19 13.717 13.717 0 0 1-4.647-.21 11.075 11.075 0 0 1-4.22-1.932c-1.3-.955-2.336-2.282-3.106-3.976-1.075-2.425-1.51-4.802-1.303-7.129a15.265 15.265 0 0 1 2.014-6.422 16.866 16.866 0 0 1 4.556-5.055 18.08 18.08 0 0 1 6.297-3.023 11.713 11.713 0 0 1 4.097-.34c1.198.123 2.364.438 3.464.927a9.685 9.685 0 0 1 2.626 1.722 8.046 8.046 0 0 1 1.625 2.041l-.007.007ZM64.33 106.96c0 1.029.15 1.865.452 2.509a3.371 3.371 0 0 0 1.177 1.449 3.09 3.09 0 0 0 1.642.515 5.004 5.004 0 0 0 1.86-.291l-.743-.997 2.7-3.955 1.674 1.641c.354-.63.638-1.302.837-1.995a7.121 7.121 0 0 0 .274-1.736 5.467 5.467 0 0 0-.144-1.449 6.258 6.258 0 0 0-.417-1.19 3.04 3.04 0 0 0-1.37-1.487 3.633 3.633 0 0 0-1.915-.385 5.442 5.442 0 0 0-2.097.602 6.575 6.575 0 0 0-1.934 1.487 7.778 7.778 0 0 0-1.989 5.289l-.007-.007ZM105.483 92.382c.123 3.283.214 5.922.274 7.917a371.208 371.208 0 0 1 .143 6.727v.515a19.63 19.63 0 0 1-.29 3.766 9.876 9.876 0 0 1-1.177 3.265 8.064 8.064 0 0 1-2.319 2.51c-.977.7-2.195 1.186-3.656 1.463-2.23.427-4.153.472-5.764.129-1.611-.343-2.939-.987-3.979-1.932a8.135 8.135 0 0 1-2.269-3.591 14.152 14.152 0 0 1-.644-4.777v-.322c0-.214.01-.662.031-1.351.021-.686.042-1.652.063-2.898.021-1.246.063-2.905.13-4.987.066-2.083.14-4.614.224-7.599l9.21 1.61-.84 15.127c-.088.493-.08.997.017 1.487.064.322.165.634.305.928.056.112.12.22.186.322.192.224.455.371.742.416.28.042.588-.213.928-.773.074-.13.133-.263.186-.403.15-.42.259-.857.322-1.302.116-.756.147-1.522.098-2.285l-.676-12.362 8.745-1.614.01.014ZM120.556 91.353l-1.32 26.037-8.468.966.322-25.879 9.466-1.127v.004ZM125.771 118.807l7.824-18.956-9.403.613 1.803-8.435 23.927-.77-10.916 18.119 12.107-1.487-1.608 9.366-23.734 1.547v.003Z" fill="#60547C"/><path d="M78.664 95.546a16.563 16.563 0 0 1 1.433 4.025c.336 1.516.455 3.07.353 4.62a17.359 17.359 0 0 1-1.043 4.876 16.873 16.873 0 0 1-2.77 4.795l1.488 1.449-4.766 4.728-1.674-2.285a15.327 15.327 0 0 1-4.413 1.19 13.85 13.85 0 0 1-4.647-.21 10.992 10.992 0 0 1-4.227-1.932c-1.3-.956-2.336-2.282-3.107-3.976-1.075-2.426-1.51-4.802-1.303-7.13a15.27 15.27 0 0 1 2.014-6.422 16.866 16.866 0 0 1 4.556-5.054 18.143 18.143 0 0 1 6.297-3.024 11.675 11.675 0 0 1 4.105-.336c1.194.119 2.364.427 3.463.917a9.683 9.683 0 0 1 2.627 1.722 8.002 8.002 0 0 1 1.618 2.04l-.004.007Zm-16.873 11.522c0 1.029.15 1.866.452 2.51a3.395 3.395 0 0 0 1.177 1.449c.486.322 1.057.5 1.642.514a5.023 5.023 0 0 0 1.86-.29l-.743-.998 2.704-3.958 1.674 1.641c.354-.63.634-1.298.837-1.995a6.98 6.98 0 0 0 .273-1.739 5.608 5.608 0 0 0-.144-1.449 6.462 6.462 0 0 0-.42-1.19 3.045 3.045 0 0 0-1.37-1.488 3.673 3.673 0 0 0-1.915-.388 5.477 5.477 0 0 0-2.094.595 6.622 6.622 0 0 0-1.933 1.487 7.802 7.802 0 0 0-1.996 5.296l-.004.003ZM102.948 92.491c.123 3.283.214 5.922.273 7.917.06 1.995.095 3.528.112 4.602.021 1.075.032 1.782.032 2.125v.525a19.73 19.73 0 0 1-.291 3.766 9.738 9.738 0 0 1-1.169 3.258 8.077 8.077 0 0 1-2.319 2.51c-.977.696-2.192 1.186-3.656 1.463-2.23.43-4.154.472-5.765.129-1.61-.343-2.938-.987-3.978-1.932a8.158 8.158 0 0 1-2.27-3.587 14.179 14.179 0 0 1-.644-4.781v-.322c0-.217.01-.665.032-1.355.02-.686.042-1.652.066-2.894.025-1.243.063-2.909.13-4.991.066-2.083.14-4.613.224-7.595l9.21 1.61-.836 15.127c-.088.493-.08.997.017 1.487.06.322.165.634.308.928.056.112.12.217.186.322.192.22.455.371.742.416.28.042.589-.213.928-.773.074-.13.133-.263.186-.403.15-.42.26-.857.322-1.302.116-.756.147-1.522.098-2.285l-.669-12.373 8.728-1.602.003.01ZM118.017 91.462l-1.32 26.047-8.468.955.322-25.879 9.466-1.126v.003ZM123.236 118.916l7.823-18.956-9.403.612 1.804-8.431 23.926-.773-10.916 18.119 12.107-1.488-1.611 9.366-23.734 1.547.004.004Z" fill="#FFCC70"/><mask id="b" style="mask-type:luminance" maskUnits="userSpaceOnUse" x="0" y="0" width="89" height="133"><path d="M88.34 0H0v133h88.34V0Z" fill="#fff"/></mask><g mask="url(#b)"><path d="M51.418 11.287s8.762 5.678 11.021 13.206c10.57-5.547 3.019-14.801 3.019-14.801-6.517-5.513-11.26-2.345-14.04 1.595Z" fill="#5F5F82"/><path d="M39.283 1.071s-1.166 6.038-18.046 9.223C8.73 13.482 5.169 39.43 5.169 39.43c-1.166.55-.147 20.08 13.525 21.998 4.973-.872 14.149 3.087 14.149 3.087s15.469-.515 18.82-2.468c3.348-1.953 19.367-2.261 14.348-22.617.287-14.325-6.643-26.698-15.451-28.77 3.24-.374 3.218-6.125 3.218-6.125.028.29-3.026 1.218-6.836 1.029-.907-.045-2.69.455-3.439-.063-1.036-.714-.99-2.52-1.849-3.265a5.365 5.365 0 0 0-2.367-1.17l-.004.004Z" fill="#F7F7F7"/><path d="M14.155 62.37S2.133 66.409 6.497 83.153c7.24 9.587 19.381 2.905 19.381 2.905s11.29 3.157 10.485-6.528c.298-6.629-6.044-5.383-6.044-5.383-.025.221-.123-5.677-5.12-1.326-2.196-8.827-11.043-10.451-11.043-10.451ZM52.045 59.087s-2.136 4.053 4.115 7.658c.578 2.215.904 4.494.967 6.783l9.161-.277-.413-7.525s1.499-10.993-7.547-11.119c-4.795-.242-6.283 4.48-6.283 4.48ZM34.23 64.631l9.931-.658-.178 5.933-9.753-5.275ZM20.943 14.591c.154.368-.82 3.592-2.683 6.773-1.422 2.604-4.91 5.691-6.244 5.82-.77.063-1.541.067-2.312.021-11-1.07-10.52-14.227-7.046-17.247 0 0 6.777-7.186 12.587-2.94 5.81 4.245 5.698 7.574 5.698 7.574ZM79.277 85.501c1.51.795 3.958-.553 5.51-1.725 2.734-2.069 3.512-5.575 3.197-8.687-.239-2.359-1.016-4.868-2.641-6.751a6.03 6.03 0 0 0-3.93-2.118c-4.997-.469-6.36 5.845-6.36 5.845s2.214 1.523 4.22 13.436h.004ZM43.307 124.022s2.277 7.616-5.046 8.106c-8.129.364-13.904 1.302-13.95-4.144-.027-3.559 1.892-4.868 1.892-4.868s5.74-1.873 8.843 1.344c3.922-.2 8.261-.438 8.261-.438Z" fill="#5F5F82"/><path d="M50.038 40.33c-.035 1.145-1.562 2.104-3.46 2.048-1.895-.056-3.506-1.183-3.47-2.324a1.877 1.877 0 0 1 .756-1.495c.64-.426 1.688-.507 2.735-.479 1.142.035 2.375.29 2.984.826.413.354.473.966.452 1.425h.003ZM49.562 44.755c-2.64-.508-5.565-.011-6.745 2.698a2.658 2.658 0 0 0-.098 1.981c.14.364.357.693.634.966.276.273.605.486.97.627 1.414.566 2.966-.221 4.003-1.173a7.357 7.357 0 0 0 1.106-1.313c.582-.864.862-2.138 2.147-2.12.22 0 .43.105.64.073.74-.123-.346-.861-.549-.98a6.522 6.522 0 0 0-2.105-.763l-.003.004Z" fill="#152360"/><path d="M23.8 48.041a6.568 6.568 0 0 1-4.5-1.844 6.562 6.562 0 0 1-2.007-4.428c-.178-3.234.567-8.368 6.132-11.75 2.848-1.728 6.252-3.3 9.673-3.041 1.755.133 3.016.864 4.157 2.156a12.492 12.492 0 0 1 2.241 3.542c1.125 2.747.851 5.722-.588 8.305a6.612 6.612 0 0 1-2.451 2.489c-2.967 1.729-4.634 1.376-6.801 2.968-1.212.882-3.527 1.613-5.852 1.603H23.8ZM57.05 28.297a.962.962 0 0 0-.127-.052c-.557-.203-4.402-1.425-6.262 2.359-1.435 2.926.263 6.877 1.338 8.883a4.248 4.248 0 0 0 2.024 1.876c2.816 1.253 9.383 3.763 9.964.119.753-4.617-1.478-10.587-6.938-13.184Z" fill="#5F5F82"/><path d="M56.77 31.867a3.197 3.197 0 0 0-1.037-1.039c-1.611-.956-3.691-.091-4.255 1.698-.564 1.788-.442 3.811 1.551 5.4a2.562 2.562 0 0 0 3.38-.154 4.142 4.142 0 0 0 1.163-3.762 5.947 5.947 0 0 0-.803-2.143ZM38.13 32.987a3.897 3.897 0 0 0-1.032-1.477c-1.744-1.498-4.444-.885-5.506 1.152-1.06 2.037-1.351 4.515.725 6.86a3.158 3.158 0 0 0 4.122.532 5.11 5.11 0 0 0 1.653-1.876 5.112 5.112 0 0 0 .56-2.436 7.363 7.363 0 0 0-.521-2.758v.003Z" fill="#152360"/><path d="m66.284 73.251 5.362-1.106 3.015-.531s6.41 10.657 4.872 15.83c-1.954 1.463-2.599 1.925-2.599 1.925s-7.53 7.731-17.773 8.011c-8.71 4.029-14.824 22.478-14.824 22.478v3.629l-9.057.55-9.977-1.915-1.702-7.014V103.38l1.842-1.551 40.841-28.578Z" fill="#EDEDF2"/><path d="m19.02 88.298 2.108 9.737-3.264 5.558 3.37 2.296 3.638-4.721 1.979 5.208s15.3 5.264 26.346-6.794c17.472-13.279 13.098-26.334 13.098-26.334s-16.863 2.082-34.296-9.072c-10.016-4.249-17.934-1.88-17.934-1.88 5.27 1.394 9.22 4.351 10.814 10.024 0 0 4.752-3.954 5.894 1.369 2.37.22 7.554 1.936 5.638 8.904-1.621 5.894-10.184 3.066-10.163 3.56l-7.228 2.145Z" fill="#D1E0FF"/><path d="M44.438 63.931v5.975s10.261 3.468 12.429 2.992c.22-1.6-1.002-6.087-1.002-6.087s-4.227-2.758-4.01-4.445c-6.783 1.394-7.417 1.562-7.417 1.562v.003Z" fill="#D1E0FF"/><path d="M53.614 36.102c.634-.174.956-1 .725-1.847-.235-.848-.935-1.394-1.57-1.219-.633.175-.955 1.002-.724 1.849.235.846.935 1.393 1.569 1.218Z" fill="#E8E8EA" stroke="#383838" stroke-width=".16" stroke-miterlimit="10"/><path d="M37.767 35.697c.08-.994-.455-1.848-1.198-1.908-.742-.06-1.408.697-1.488 1.69-.08.995.455 1.849 1.197 1.908.743.06 1.408-.696 1.489-1.69Z" fill="#E8E8EA" stroke="#383838" stroke-width=".17" stroke-miterlimit="10"/><path d="M24.903 121.828s-1.351-2.296-.084-3.097c.886.346 1.909.469 2.837.647 1.772.336 3.562.613 5.355.816 3.019.339 7.27 1.172 9.501-1.46.83-.98 4.44-9.551 5.06-10.685 1.22-2.212 2.893-4.144 4.427-6.143 1.87-2.447 4.661-4.54 7.635-5.936 2.507-1.18 5.263-1.662 7.852-2.629 2.493-.93 5.011-2.38 6.776-4.406 1.478-1.694 1.38-4.553 1.236-6.65.872 2.013 1.552 5.432 1.552 7.017-.088.179-5.187 6.111-16.548 7.694-7.97 3.209-12.047 12.81-12.047 12.81l-2.276 5.026c-1.18.161-2.214 8.606-1.839 8.662 1.135.172-8.857.557-8.857.557s-8.335-2.181-10.58-2.223Z" fill="#000"/><path opacity=".3" d="M24.119 118.867s-.518 2.783.522 3.36c1.04.578 7.992.462 9.056 1.607 1.212.21 9.911-.046 9.911-.046-.206.221 1.296-1.578.483-3.143-3.446 1.085-19.972-1.781-19.972-1.781v.003Z" fill="#313147"/><path d="m78.083 79.751 1.152 6.072s13.12-.93 6.903-15.34c2.472 11.088-6.644 11.039-7.383 10.391M24.61 129.077s4.584 2.373 11.038.959c6.45-1.418 5.992-6.195 5.992-6.195l1.772.22s1.187 6.178-2.09 7.413c-3.279 1.239-14.286 2.412-16.163-.822-.424-.49-.546-1.575-.546-1.575h-.004Z" fill="#000072" opacity=".3"/><path opacity=".3" d="M71.583 71.963c1.25 1.831 4.192 8.569 5.313 15.324.098.517.136 1.046.112 1.571a3.955 3.955 0 0 0 1.429-.837c.41-.377.735-.836.956-1.35 0 0-.956-9.332-4.385-14.648-3.25-.416-3.828-.406-3.428-.063l.003.004Z" fill="#313147"/><path d="M51.855 59.738c-.08.14.148 1.663-.665 2.31-3.32 2.656-12.993 3.682-18.186 1.921a29.34 29.34 0 0 0-4.367-1.105c-9.243-.172-16.383-2.937-19.483-8.134-.045-.088-.094-.172-.14-.256 3.086 5.768 29.145 9.825 42.845 5.26l-.004.004Z" fill="#DFE6F2"/><path d="M.704 15.218c-.484 2.538 2.241 11.165 14.772 9.608-.19.37-1.773 1.452-2.007 1.683C9.315 29.445-.904 24.227.704 15.218Z" fill="#43437E" opacity=".5"/><path d="M48.907 39.417c0 .203.123.508-1.845.441-1.92-.056-1.822-.353-1.814-.556.007-.203.83-.347 1.842-.316 1.012.032 1.828.225 1.82.431h-.003Z" fill="#FCFCFC" stroke="#212121" stroke-width=".14" stroke-miterlimit="10"/><path d="M44.246 47.488s-1.083.949-.386 1.855c.228.283.543.493.904.602.36.108.75.112 1.107.004.462-.144.875-.197.777-.686-.098-.49-.347-1.446-2.406-1.775h.004Z" fill="#EBA2AF"/><path d="M25.775 86.569c-.196.154-.665.22-.92.308a32.134 32.134 0 0 1-3.244.83c-2.952.591-6.174.822-9.098.017-1.404-.385-2.977-1.06-3.94-2.044-4.174-4.83-3.337-8.712-3.337-8.712 1.351 3.319 3.586 6.587 7.554 8.093 1.66.626 4.23.598 6.016.58 2.214-.02 4.36-.602 6.528-1.015.154.543.364 1.072.623 1.575.095.274-.056.28-.185.375l.003-.007Z" fill="#000072" opacity=".3"/><path d="M24.777 83.513s.848 2.706 1.286 2.986c.623.063 8.562.998 10.079-4.406-4.816 4.801-11.365 1.42-11.365 1.42ZM54.062 65.443c-.266-.374-.942-.455-1.033-.906-.091-.452-.43-.907-.333-1.359 0 0 6.977 7.193 12.874 1.359.256.846 0 1.301 0 1.301s-3.043 3.095-8.223 2.209c-1.26-.721-2.196-1.641-3.285-2.604Z" fill="#000072" opacity=".3"/><path d="M56.282 68.674s1.18 3.618.718 4.336c1.044.374 5.89.287 5.89.287.242-1.844-.03-4.294-1.064-5.176-1.72.738-3.509.707-5.544.556v-.004Z" fill="#000072" opacity=".3"/><path d="M67.086 14.591s.26 5.629-5.172 6.615c1.446 1.288 1.835 2.412 1.835 2.412s6.083-4.564 3.337-9.026Z" fill="#43437E" opacity=".5"/><path d="M63.041 24.052c3.44-2.261 5.071-6.261 3.916-10.15-.844-3.055-3.338-5.649-6.448-6.398-3.243-.822-6.503.917-8.737 3.23 3.043-4.399 8.401-5.82 12.772-2.369 5.326 4.277 4.97 12.757-1.503 15.687Z" fill="#000072"/><path d="M51.344 62.514c-.71.398-11.987 2.772-18.501 1.991" stroke="#000072" stroke-width="3.12" stroke-linecap="round" stroke-linejoin="round"/><path d="M20.246 94.444c.017-.07.045-.053.22-.046.62.004 1.236-.041 1.846-.136.665-.073 1.327-.136 1.979-.22a99.618 99.618 0 0 0 2.255-.308c.68-.102 1.422-.322 2.112-.322a88.326 88.326 0 0 0 16.579-4.323c3.61-1.351 7.01-3.192 9.81-5.642a20.315 20.315 0 0 0 3.922-4.553 10.507 10.507 0 0 0 1.523-3.963c.042-.367.063-.734.067-1.105 0-.07.028-.137.08-.186a.26.26 0 0 1 .186-.073h.273c.315.01.178-.05.494-.039 1.106.038.2 3 .045 3.51-1.586 5.349-6.199 9.447-11.242 12.44-4.78 2.838-10.268 4.623-15.84 5.796-2.504.528-5.04.934-7.589 1.252-2.105.263-4.272.501-6.402.456a.074.074 0 0 1-.045-.018.067.067 0 0 1-.025-.038l-.178-1.61c-.028-.239-.14-.575-.091-.809.01-.025.014-.049.017-.063h.004Z" fill="#EDEDF2" stroke="#000072" stroke-width="1.82" stroke-linejoin="round"/><path opacity=".24" d="M20.242 94.843c.018-.07.046-.053.22-.042.62.004 1.237-.042 1.846-.136.666-.074 1.328-.14 1.98-.22a99.61 99.61 0 0 0 2.255-.309c.679-.101 1.421-.322 2.111-.322a88.595 88.595 0 0 0 16.58-4.322c3.613-1.351 7.014-3.185 9.809-5.642a20.243 20.243 0 0 0 3.922-4.554 10.567 10.567 0 0 0 1.523-3.962c.067-.465.053-.927.074-1.393.175.035.354.046.532.028.316.01.179-.045.494-.035 1.107.039.2 3 .046 3.507-1.587 5.348-6.199 9.447-11.242 12.443-4.784 2.842-10.268 4.613-15.84 5.796-2.504.528-5.04.934-7.59 1.253-2.104.266-4.272.504-6.401.455a.07.07 0 0 1-.046-.014.067.067 0 0 1-.024-.039l-.179-1.606c-.028-.238-.14-.574-.09-.809l.013-.07.007-.007Z" stroke="#000072" stroke-width="1.22" stroke-linejoin="round"/><path d="M17.868 61.428c-9.453.536-14.611 13.773-12.04 20.381.934 2.404 3.06 4.396 5.69 5.555 1.716.755 5.926.972 7.176.738 1.016.357.588 1.771.743 2.604.465 2.481 1.134 4.868 1.695 7.332a.508.508 0 0 1-.077.389l-3.009 4.424a1.092 1.092 0 0 0-.164.851 1.077 1.077 0 0 0 .51.7l2.032 1.295a1.32 1.32 0 0 0 1.016.171c.171-.042.332-.115.476-.224.144-.105.263-.238.35-.392l1.993-3.787a.595.595 0 0 1 1.079.088l1.295 4.445a.939.939 0 0 0 .624.619c2.255.725 12.667 3.343 22.26-3.797a68.523 68.523 0 0 0 12.631-12.188c3.912-4.9 5.446-11.077 4.08-17.023a.572.572 0 0 0-.283-.347.6.6 0 0 0-.221-.067.557.557 0 0 0-.228.025c-3.078.83-14.709.823-26.728-5.835-9.963-5.533-17.132-6.18-20.907-5.974" stroke="#000072" stroke-width="3.12" stroke-linejoin="round"/><path d="M66.235 73.63c1.59-1.212 3.12-1.477 5.197-1.4 1.366-.501 2.448-.935 3.38-.28.192.136.35.318.459.531 3.306 6.518 4.08 10.76 4.258 13.553v.129c-.024 1.537-1.008 2.471-2.08 2.909a2.366 2.366 0 0 0-.995.79c-1.253 1.68-6.419 5.349-14.715 7.123-7.341 1.572-12.069 9.163-14.692 16.093-.931 2.461-2.105 4.571-2.48 6.419-.097.48-.097.973 0 1.453.134.623.102 1.27-.097 1.872a1.462 1.462 0 0 1-1.352.998l-8.017.22c-.486 0-.966-.136-1.38-.392-2.153-1.326-6.307-.455-8.212-1.396-.977-.483-1.044-1.939-.998-2.783a4.043 4.043 0 0 0-.154-1.358c-1.593-5.414-1.478-8.186-.413-14.238a1.44 1.44 0 0 1 .22-.542l.956-1.512M25.95 86.328c1.755.16 3.545.44 5.3.118 1.362-.255 2.766-.843 3.803-1.784a4.689 4.689 0 0 0 1.495-3.07c.26-2.331.203-4.83-1.551-6.611-1.016-1.03-2.245-1.212-3.618-.984-.07.01-1.061.2-1.061.147.637-1.477-.231-2.748-1.667-3.073a2.932 2.932 0 0 0-2.777.886c-.393.42-.725.889-.998 1.393" stroke="#000072" stroke-width="3.12" stroke-linejoin="round"/><path d="M24.938 73.251c-1.236 2.783-2.598 9.415 1.303 13.15" stroke="#000072" stroke-width="3.12" stroke-linejoin="round"/><path d="M25.219 73.412c-2.284-.766-4.669-1.575-7.106-1.55-.35.014-.694.088-1.02.22 1.276-.664 2.816-.479 4.207-.405a35.38 35.38 0 0 1 4.234.664l-.315 1.065v.006Z" fill="#000072"/><path d="M43.98 69.405v-5.33" stroke="#000072" stroke-width="3.12" stroke-linecap="round" stroke-linejoin="round"/><path d="M52.476 58.895c.126-1.625.798-2.248 1.761-3.042 0 0 6.325-5.016 10.815 3.37 1.796 4.253.704 6.85.704 6.85s.963 3.644.287 6.748" stroke="#000072" stroke-width="3.12" stroke-linejoin="round"/><path d="M57.098 72.901s-.343-3.874-1.019-5.74c-.5-1.392-5.312-2.537-4.28-7.238" stroke="#000072" stroke-width="3.12" stroke-linecap="round" stroke-linejoin="round"/><path d="M79.354 85.995a9.247 9.247 0 0 0 5.446-1.869c2.879-2.079 3.218-5.432 2.879-8.568a16.504 16.504 0 0 0-1.622-5.695 6.078 6.078 0 0 0-1.443-1.935 6.19 6.19 0 0 0-2.077-1.232 5.937 5.937 0 0 0-1.327-.28c-5.277-.483-5.964 6.237-5.964 6.237M43.307 123.599s2.277 8.001-5.046 8.519c-8.129.382-13.904 1.369-13.95-4.35-.027-3.742 2.711-5.016 2.711-5.016" stroke="#000072" stroke-width="3.12" stroke-linejoin="round"/><path d="M57.196 67.603c2.249.577 4.77.388 6.805-.791a7.951 7.951 0 0 0 1.87-1.512 8.086 8.086 0 0 1-1.72 1.736 9.14 9.14 0 0 1-4.65 1.683c-.855.084-1.713.06-2.56-.07a.513.513 0 0 1-.197-.084.56.56 0 0 1-.224-.353.545.545 0 0 1 .098-.41.487.487 0 0 1 .161-.143.548.548 0 0 1 .417-.056Z" fill="#000072"/><path d="M25.992 86.306c-1.814.55-4.994 1.593-7.305 1.789" stroke="#000072" stroke-width="3.14" stroke-linejoin="round"/><path d="M13.4 62.293c6.02.868 10.302 3.941 11.787 10.027l-1.085.221a13.547 13.547 0 0 0-1.191-3.71c-1.923-3.836-5.477-5.642-9.522-6.542h.01v.004Z" fill="#000072"/><path d="M30.248 96.215c.15.941-2.907 3.073-3.355 4.322-.865 2.268.36 3.637 1.905 4.82l.014.014c1.429 1.75.564 3.384-.22 4.389a.08.08 0 0 1-.046.028.155.155 0 0 1-.053 0 .097.097 0 0 1-.042-.032.08.08 0 0 1-.014-.049c.052-.836-.41-1.704-.529-1.914a.116.116 0 0 1-.014-.046c0-.014.004-.031.014-.045 1.828-2.401.28-5.394-.522-6.36a2.917 2.917 0 0 1-.455-.885 2.146 2.146 0 0 1 .014-1.302c.179-.448.441-.85.781-1.194.466-.563.904-1.151 1.31-1.757.28-.398.557-.794.833-1.193l.382 1.208-.003-.004Z" fill="#EFEFEF" stroke="#000072" stroke-width="1.06" stroke-linejoin="round"/><path d="m28.9 94.391-.014 1.327c-.014.273.003.55.056.816.087.318.23.619.423.885.603.83 1.317 1.575 2.12 2.212.556.473.983.921 1.085 1.628.171 1.158-.442 2.345-1.086 3.318-.238.36-.497.707-.774 1.039-.112.137-.256.263-.354.406 0 0-1.509 2.188.55 4.151.105.102.29 0 .245-.129-.2-.588-.455-1.306.15-2.485a.108.108 0 0 0 .012-.081.114.114 0 0 0-.043-.07c-.791-.689-2.157-2.019-.539-4.329.5-.665.869-1.425 1.082-2.23.084-.472.098-.956.05-1.431a5.805 5.805 0 0 0-.092-.921 3.585 3.585 0 0 0-.396-.885 10.24 10.24 0 0 0-.724-1.124 26.557 26.557 0 0 0-1.762-2.103l.01.006Z" fill="#EFEFEF" stroke="#000072" stroke-width="1.01" stroke-linejoin="round"/><path d="m25.877 94.738 2.539-2.212 3.204-.242s1.594 3.808-1.744 4.572c-3.337.766-3.999-2.118-3.999-2.118Z" fill="#EFEFEF" stroke="#000072" stroke-width="1.65" stroke-linejoin="round"/><path d="M30.062 96.975c-.665-.494-1.705-1.068-1.796-1.834a15.731 15.731 0 0 1-.08-.991 31.625 31.625 0 0 1-.043-1.41" stroke="#000072" stroke-width="1.26" stroke-linejoin="round"/><path opacity=".15" d="M29.148 96.975c-.441-.392-1.107-.851-1.177-1.46a19.747 19.747 0 0 1-.052-.791 40.11 40.11 0 0 1-.028-1.124l.525-.332.193 2.236.994 1.418-.455.049v.004Z" fill="#313147" stroke="#000072" stroke-width=".62" stroke-linejoin="round"/><path d="M17.868 61.429S-.995 56.56 7.729 26.954" stroke="#000072" stroke-width="3.12" stroke-linejoin="round"/><path d="M53.306 4.484c-.823 1.039-1.7 1.396-2.939 1.249a16.739 16.739 0 0 0-7.176.441.1.1 0 0 1-.056.004c-.017 0-.035-.011-.049-.021a.103.103 0 0 1-.035-.042.099.099 0 0 1-.014-.053c-.035-.738-.34-3.825-3.145-5.25a.395.395 0 0 0-.178-.042.538.538 0 0 0-.182.032.449.449 0 0 0-.249.262c-.844 2.328-2.77 4.064-4.871 5.264-2.154 1.229-4.651 1.712-7.071 2.24a34.471 34.471 0 0 0-7.418 2.657" stroke="#000072" stroke-width="3.12" stroke-linecap="round" stroke-linejoin="round"/><path d="M46.939 11.438c2.879-.63 5.019-1.676 6.1-4.54.33-.871.575-1.77.733-2.691 1.166 4.428-2.308 8.281-6.833 7.231Z" fill="#000072"/><path d="M63.182 56.004c4.114-2.671 4.262-10.308 3.253-14.263a18.77 18.77 0 0 1-.564-3.895c-.147-4.001-1.012-8.785-1.418-10.833a14.14 14.14 0 0 0-.708-2.436c-1.17-2.989-5.652-11.396-12.327-14.28" stroke="#000072" stroke-width="3.12" stroke-linejoin="round"/><path d="M13.049 26.845c-.914.585-2.073.546-3.12.532-2.161-.14-4.22-.948-5.898-2.32-4.472-3.434-5.26-10.063-2.164-14.686 1.796-2.762 4.871-4.729 8.173-5.058 3.37-.34 6.602 1.519 8.637 4.109 1.001 1.274 1.852 2.709 2.192 4.305.095.514.28 1.078.095 1.603-.004.014-.01.024-.025.028-.01.007-.024.007-.038.003-.014-.003-.025-.01-.029-.024-.006-.01-.006-.024-.003-.038.102-.522-.14-1.008-.277-1.509a7.337 7.337 0 0 0-.633-1.403c-1.506-2.632-3.909-4.946-6.865-5.772-3.912-1.088-8.317.903-10.569 4.19C-.511 15.127.147 21.37 4.283 24.752a10.085 10.085 0 0 0 5.656 2.436c1.02.042 2.15.119 3.054-.42.01-.007.024-.01.038-.007.014 0 .025.01.032.021.007.01.01.024.007.038 0 .014-.01.025-.021.032v-.007Z" fill="#000072"/><path d="M20.974 14.882c-1.008 4.277-3.225 8.41-6.762 11.098-.487.4-1.034.725-1.552 1.075.508-.375 1.033-.718 1.503-1.137 3.442-2.783 5.606-6.832 6.811-11.036ZM30.97 73.972a3.059 3.059 0 0 1-3.373 1.365 2.534 2.534 0 0 0 2.07-1.148c.129-.199.227-.42.287-.65l1.019.44v-.01l-.004.004ZM51.369 59.479c.683-1.13 2.13-2.191 3.456-1.502 1.153.582 1.916 1.887 1.681 3.144-.066.395-.227.77-.469 1.091-.242.319-.56.578-.924.75 1.358-.799 1.47-2.794.308-3.788-1.247-1.19-2.406-.535-3.079.827a.581.581 0 0 1-.133.185.55.55 0 0 1-.637.08.575.575 0 0 1-.175-.143.505.505 0 0 1-.102-.203.499.499 0 0 1-.01-.227.53.53 0 0 1 .08-.214h.004Z" fill="#000072"/><path d="M56.212 61.712c1.699 1.04 3.923 1.228 5.726.336a6.156 6.156 0 0 1-2.167.886 6.949 6.949 0 0 1-3.986-.487l.417-.739h.01v.004Z" fill="#000072"/><path d="M52.605 26.334c.05-.07.063-.126 0-.165a8.434 8.434 0 0 0-1.67.319 3.344 3.344 0 0 0-1.209.763c-.329.319-.714.679-.5 1.172a.536.536 0 0 0 .23.267c.106.059.225.083.347.07a.866.866 0 0 0 .518-.413c.137-.218.291-.424.456-.62.19-.213.403-.406.634-.578.185-.14.396-.234.588-.364.22-.122.427-.273.613-.448l-.007-.003ZM36.464 26.267c-.053-.07-.063-.125 0-.164a8.426 8.426 0 0 1 1.67.315 3.44 3.44 0 0 1 1.209.763c.329.319.714.679.5 1.172a.537.537 0 0 1-.23.266.566.566 0 0 1-.347.07.912.912 0 0 1-.302-.154.818.818 0 0 1-.217-.259 5.88 5.88 0 0 0-.448-.616 4.142 4.142 0 0 0-.634-.577c-.186-.14-.396-.234-.588-.364a3.001 3.001 0 0 1-.617-.452h.004Z" fill="#02026E"/><path d="M24.15 118.724c0 .028.032.038.05.049.385.119.78.21 1.176.276 1.275.221 2.553.427 3.832.616 4.258.602 8.541 1.176 12.842 1.222.861.014 1.723-.035 2.578-.14-1.692.378-3.443.413-5.17.381a68.42 68.42 0 0 1-10.31-1.141 50.332 50.332 0 0 1-3.803-.833 7.118 7.118 0 0 1-1.156-.374c-.02-.014-.06-.028-.045-.056h.007Z" fill="#000072"/><path d="M24.266 120.278c.704.15 1.828.189 2.56.269 1.723.123 3.429.389 5.145.578 1.716.189 5.964.161 7.75.21.858.014 1.72.021 2.578 0 .738-.035 1.509 0 2.213-.27a.397.397 0 0 0 .22-.192h.039a.466.466 0 0 1-.22.262c-.68.375-1.482.424-2.232.522-2.591.234-5.197.07-7.781-.182-2.581-.326-5.187-.203-7.75-.613-.855-.143-1.734-.231-2.543-.556l.021-.039v.014-.003Z" fill="#000072"/><path d="M24.406 120.519c-.193.284 16.474 2.804 20.242 1.537" stroke="#000072" stroke-width="1.17" stroke-linejoin="round"/><path d="M33.736 123.232c.949-.123 1.905-.179 2.86-.165.953.084 1.913.056 2.855-.084 1.629-.262 4-.563 5.656-.773v.038a13.237 13.237 0 0 1-4.206.907c-.953.094-1.92.01-2.879.094-.96.081-1.905.245-2.864.172-.48-.014-.96-.067-1.433-.147v-.039h.01v-.003ZM76.882 88.897a.958.958 0 0 0 .077-.505 9.728 9.728 0 0 0-.238-1.588 60.657 60.657 0 0 0-1.772-6.213 81.278 81.278 0 0 0-3.072-8.036.437.437 0 0 1-.014-.326.44.44 0 0 1 .54-.28c.108.032.2.106.259.2a62.33 62.33 0 0 1 3.705 7.745 68.044 68.044 0 0 1 2.721 8.124l-.99.178c-.547-5.677-2.295-11.27-4.802-16.39a.348.348 0 0 1-.021-.252.338.338 0 0 1 .16-.192.349.349 0 0 1 .253-.021c.084.028.15.084.193.16l1.428 2.73c.942 1.835 1.87 3.672 2.704 5.552.438.934.788 1.91 1.044 2.912l-.056.014a17.752 17.752 0 0 0-1.132-2.856c-1.327-2.783-2.85-5.464-4.314-8.176l.07-.039c2.658 5.131 4.444 10.745 5.029 16.502a.053.053 0 0 1-.014.039c-.007.01-.021.017-.035.021-.014 0-.028 0-.039-.007a.056.056 0 0 1-.024-.031c-1.52-5.457-3.544-10.805-6.304-15.765l.08-.038a82.647 82.647 0 0 1 4.088 12.303c.266 1.05.469 2.117.598 3.191.014.365.102.746-.087 1.086l-.046-.039.01-.004Z" fill="#000072"/><path d="M34.604 38.496c.333-.154.424-.661.207-1.127-.217-.468-.666-.72-.998-.566-.333.154-.424.661-.207 1.127.217.468.666.72.998.566ZM55.256 36.733c.312.105.687-.165.834-.602.147-.438.01-.876-.301-.98-.312-.106-.687.164-.834.598-.147.438-.01.875.301.98v.004Z" fill="#000"/></g></g><defs><clipPath id="a"><path fill="#fff" d="M0 0h166v133H0z"/></clipPath></defs></svg>