<svg width="208" height="25" viewBox="0 0 208 25" fill="none" xmlns="http://www.w3.org/2000/svg">
<path d="M18.9287 7.76819L11.8882 14.2946L18.1016 19.4965L14.5621 24.7752L9.67599 20.1683L9.61828 23.374L3.02017 24.1226L2.61621 3.89075L10.003 3.00777L9.92606 7.55705L13.985 1.95203L18.9287 7.76819Z" fill="#FCE4C9"/>
<path d="M35.3565 3.81398C35.4527 6.38615 35.5296 8.44004 35.5681 9.99486C35.6066 11.5497 35.6451 12.759 35.6643 13.6036C35.6643 14.4482 35.6835 14.9856 35.6835 15.2736V15.6767C35.6835 16.6556 35.6258 17.6538 35.4527 18.6135C35.2988 19.5157 34.991 20.3795 34.5293 21.1665C34.0677 21.9343 33.4521 22.6062 32.7211 23.1244C31.9517 23.6619 31.0091 24.0458 29.8549 24.2761C28.1044 24.6217 26.6039 24.6409 25.3343 24.3721C24.0647 24.1034 23.0259 23.6043 22.218 22.8557C21.3909 22.0879 20.7753 21.1281 20.4483 20.0532C20.0635 18.8439 19.9096 17.577 19.9481 16.3101V16.0606C19.9481 15.8878 19.9481 15.5423 19.9673 15.0048C19.9866 14.4674 20.0058 13.7187 20.0251 12.7398C20.0251 11.7608 20.0828 10.4747 20.1212 8.84314C20.179 7.21155 20.2367 5.23443 20.2944 2.9118L27.508 4.17869L26.854 16.003C26.7771 16.3869 26.7963 16.79 26.854 17.1739C26.8925 17.4234 26.9887 17.673 27.0848 17.9033C27.1233 17.9993 27.181 18.0761 27.2387 18.1528C27.3926 18.3256 27.585 18.4408 27.8158 18.4792C28.0274 18.5176 28.2775 18.3064 28.5468 17.8841C28.6045 17.7881 28.643 17.673 28.7007 17.577C28.8161 17.2507 28.9123 16.9052 28.9508 16.5596C29.047 15.9646 29.0662 15.3695 29.0277 14.7745L28.4891 5.11926L35.3373 3.85237L35.3565 3.81398Z" fill="#FCE4C9"/>
<path d="M39.1854 3.18054L48.8229 11.1658L49.0537 2.83502L56.5752 3.3341L55.4018 22.5294L45.7451 17.7306L46.0913 23.6619L38.8584 24.1226L39.1854 3.18054Z" fill="#FCE4C9"/>
<path d="M73.8111 11.2041C73.5995 10.6666 73.1955 10.2252 72.6953 9.95642C72.1567 9.68769 71.5604 9.55332 70.9641 9.57252C70.2908 9.57252 69.6368 9.72608 69.0212 9.97562C68.3479 10.2444 67.7323 10.6283 67.1745 11.1081C66.5974 11.6072 66.1357 12.2215 65.8087 12.8933C65.4432 13.6419 65.2508 14.4481 65.2701 15.2927C65.2701 16.1181 65.3855 16.7707 65.6548 17.2698C65.8856 17.7305 66.2511 18.0952 66.7128 18.3448C67.1553 18.5559 67.6362 18.6711 68.1363 18.6327C68.6749 18.6135 69.1943 18.4791 69.6752 18.2488C70.1754 18.0184 70.6371 17.7113 71.041 17.3466C71.445 16.9819 71.7528 16.5404 71.9644 16.0413L68.3864 16.7132L68.7903 12.663L79.7936 11.2809C79.9475 12.3174 79.8898 13.3924 79.6397 14.4097C79.4089 15.3887 79.0819 16.3484 78.6394 17.2314C78.2547 18.0184 77.793 18.7862 77.2929 19.5349C76.9274 20.0723 76.5426 20.5906 76.1194 21.0897C75.8117 21.4352 75.6385 21.6272 75.6001 21.6655C74.946 22.299 74.1958 22.8365 73.3879 23.2587C72.503 23.7194 71.5604 24.0649 70.5986 24.2953C69.5983 24.5256 68.5595 24.6408 67.5207 24.6024C66.482 24.5832 65.4624 24.3913 64.5006 24.0458C63.5196 23.7002 62.6154 23.1628 61.846 22.4717C60.9996 21.7231 60.3071 20.7826 59.8646 19.7268C59.3068 18.5367 58.9798 17.2698 58.8836 15.9645C58.7104 13.5267 59.2875 11.1081 60.5571 9.03505C61.1919 7.9985 61.9422 7.05794 62.827 6.23254C63.7119 5.38795 64.7122 4.67772 65.7895 4.10186C66.8667 3.52601 68.0401 3.08451 69.252 2.83497C69.2905 2.83497 69.4636 2.81578 69.7906 2.77739C70.2716 2.739 70.7332 2.739 71.2141 2.77739C71.9259 2.83497 72.6184 2.95015 73.3109 3.1421C74.1958 3.39164 75.0422 3.75635 75.8309 4.19784C76.812 4.7545 77.7353 5.44553 78.524 6.25173L73.8111 11.2233V11.2041Z" fill="#FCE4C9"/>
<path d="M18.4483 7.15394L11.4077 13.6803L17.6211 18.8823L14.0816 24.161L9.19552 19.5541L9.13781 22.7597L2.53971 23.5083L2.13574 3.27649L9.52254 2.39351L9.4456 6.94279L13.5045 1.33777L18.4483 7.15394Z" fill="#60547C"/>
<path d="M34.8568 3.19972C34.9529 5.77189 35.0299 7.82579 35.0684 9.3998C35.1068 10.9546 35.1453 12.1639 35.1645 12.9893C35.1645 13.8339 35.1838 14.3906 35.1838 14.6593V15.0624C35.1838 16.0414 35.1261 17.0395 34.9529 17.9993C34.7991 18.9015 34.4913 19.7652 34.0296 20.5522C33.5679 21.3201 32.9524 21.9919 32.2214 22.5102C31.4519 23.0476 30.5093 23.4315 29.3551 23.6619C27.6046 24.0074 26.1042 24.0266 24.8346 23.7579C23.565 23.4891 22.5262 22.9901 21.7183 22.2414C20.8911 21.4736 20.2755 20.5139 19.9485 19.4389C19.5638 18.2296 19.3906 16.9627 19.4484 15.6958V15.4463C19.4484 15.2736 19.4484 14.928 19.4676 14.3906C19.4868 13.8531 19.5061 13.1045 19.5253 12.1255C19.5253 11.1466 19.583 9.86049 19.6215 8.22889C19.6792 6.59729 19.7369 4.62017 19.7946 2.29755L27.0083 3.56443L26.3542 15.3887C26.2773 15.7726 26.2965 16.1757 26.3542 16.5596C26.3927 16.8092 26.4889 17.0587 26.5851 17.2891C26.6236 17.385 26.6813 17.4618 26.739 17.5386C26.8929 17.7114 27.0852 17.8265 27.3161 17.8649C27.5277 17.9033 27.7777 17.6922 28.0471 17.2699C28.1048 17.1739 28.1432 17.0587 28.201 16.9627C28.3164 16.6364 28.4125 16.2909 28.451 15.9454C28.5472 15.3503 28.5664 14.7553 28.528 14.1602L27.9894 4.48581L34.8375 3.21892L34.8568 3.19972Z" fill="#60547C"/>
<path d="M38.704 2.56628L48.3414 10.5515L48.5723 2.22076L56.0937 2.71984L54.9203 21.9151L45.2636 17.1163L45.6099 23.0476L38.377 23.5083L38.704 2.56628Z" fill="#60547C"/>
<path d="M73.33 10.6091C73.1184 10.0716 72.7144 9.63014 72.2142 9.3614C71.6756 9.09267 71.0793 8.9583 70.483 8.9775C69.8097 8.9775 69.1556 9.13106 68.5401 9.3806C67.8668 9.64933 67.2512 10.0332 66.6934 10.5131C66.1355 11.0122 65.6546 11.6264 65.3276 12.2983C64.9621 13.0469 64.7697 13.8531 64.789 14.6977C64.789 15.5231 64.9044 16.1757 65.1737 16.6748C65.4045 17.1355 65.77 17.5002 66.2317 17.7497C66.6741 17.9801 67.1743 18.0761 67.6552 18.0377C68.1938 18.0185 68.7132 17.8841 69.1941 17.6538C69.6943 17.4234 70.1559 17.1163 70.5599 16.7516C70.9639 16.3869 71.2717 15.9454 71.4833 15.4463L67.9053 16.1181L68.3092 12.0679L79.2933 10.6859C79.4471 11.7224 79.3894 12.7974 79.1394 13.8147C78.9085 14.7937 78.5815 15.7342 78.1391 16.6364C77.7543 17.4426 77.2927 18.2104 76.7925 18.9398C76.427 19.4773 76.0423 19.9956 75.6191 20.4947C75.3113 20.8402 75.1382 21.0321 75.0997 21.0705C74.4457 21.704 73.6954 22.2414 72.8875 22.6637C72.0026 23.1244 71.0601 23.4699 70.0982 23.7003C69.0979 23.9306 68.0592 24.0458 67.0204 24.0074C65.9816 23.9882 64.9621 23.7963 64.0003 23.4507C63.0192 23.086 62.1151 22.5678 61.3456 21.8767C60.4992 21.1281 59.8067 20.1875 59.3643 19.1318C58.8064 17.9417 58.4794 16.6748 58.3832 15.3695C58.3063 14.1602 58.3832 12.9317 58.691 11.7416C58.9796 10.5707 59.4412 9.45738 60.0568 8.44003C60.6916 7.40349 61.4418 6.46292 62.3267 5.63752C63.2116 4.79293 64.2119 4.0827 65.2891 3.50685C66.3664 2.93099 67.5398 2.50869 68.7517 2.25915C68.7901 2.25915 68.9633 2.23996 69.2903 2.20157C69.7712 2.16318 70.2329 2.14398 70.7138 2.20157C71.4255 2.25915 72.1181 2.37432 72.8106 2.56628C73.6954 2.81582 74.5419 3.18053 75.3305 3.62202C76.3116 4.17868 77.235 4.86971 78.0237 5.67591L73.3107 10.6283L73.33 10.6091Z" fill="#60547C"/>
<path d="M16.2933 6.90437L9.25274 13.4308L15.4661 18.6327L11.9458 23.9114L7.05978 19.3045L7.00207 22.5101L0.403968 23.2587L0 3.02692L7.3868 2.14394L7.30986 6.69322L11.3687 1.0882L16.3125 6.90437H16.2933Z" fill="#FDBD3F"/>
<path d="M32.722 2.95015C32.8182 5.52232 32.8951 7.57621 32.9336 9.13103C32.9721 10.6858 33.0105 11.8951 33.0298 12.7397C33.0298 13.5843 33.049 14.141 33.049 14.4097V14.8128C33.049 15.7918 32.9913 16.7899 32.8182 17.7497C32.6643 18.6519 32.3565 19.5157 31.8948 20.3027C31.4332 21.0705 30.8176 21.7423 30.0866 22.2606C29.3171 22.7981 28.3746 23.182 27.2204 23.4123C25.4698 23.7578 23.9694 23.777 22.6998 23.5083C21.4302 23.2396 20.3914 22.7405 19.5835 21.9919C18.7563 21.2241 18.1408 20.2643 17.8137 19.1894C17.429 17.9801 17.2559 16.7132 17.3136 15.4463V15.1967C17.3136 15.024 17.3136 14.6785 17.3328 14.141C17.3328 13.6035 17.3713 12.8549 17.3905 11.876C17.3905 10.897 17.4482 9.61091 17.4867 7.97931C17.5444 6.34772 17.6021 4.3706 17.6598 2.04797L24.8735 3.31486L24.2195 15.1391C24.1425 15.5231 24.1618 15.9262 24.2195 16.3101C24.258 16.5596 24.3541 16.8091 24.4503 17.0395C24.4888 17.1355 24.5465 17.2122 24.6042 17.289C24.7581 17.4618 24.9505 17.577 25.1813 17.6153C25.3929 17.6537 25.643 17.4426 25.9123 17.0203C25.97 16.9243 26.0085 16.8091 26.0662 16.7132C26.1816 16.3868 26.2778 16.0413 26.3163 15.6958C26.4124 15.1008 26.4317 14.5057 26.3932 13.9107L25.8546 4.25543L32.7028 2.98854L32.722 2.95015Z" fill="#FDBD3F"/>
<path d="M36.5497 2.31671L46.1871 10.3019L46.418 1.97119L53.9394 2.47027L52.766 21.6655L43.1093 16.8667L43.4556 22.7981L36.2227 23.2588L36.5497 2.31671Z" fill="#FDBD3F"/>
<path d="M71.175 10.3595C70.9634 9.82204 70.5594 9.38055 70.0593 9.11182C69.5206 8.84308 68.9243 8.70872 68.328 8.72791C67.6547 8.72791 67.0007 8.88148 66.3851 9.13101C65.7118 9.39975 65.0963 9.78365 64.5384 10.2635C63.9613 10.7626 63.4996 11.3769 63.1726 12.0487C62.8071 12.7973 62.6147 13.6035 62.634 14.4481C62.634 15.2735 62.7494 15.9261 63.0187 16.4252C63.2496 16.8859 63.6343 17.2506 64.0767 17.5002C64.5192 17.7305 65.0193 17.8265 65.5002 17.7881C66.0388 17.7689 66.5582 17.6345 67.0391 17.4042C67.5393 17.1738 68.001 16.8667 68.4049 16.502C68.8089 16.1373 69.1167 15.6958 69.3283 15.2159L65.7503 15.8878L66.1543 11.8375L77.1575 10.4555C77.3114 11.492 77.2537 12.567 77.0036 13.5843C76.792 14.5633 76.4458 15.5038 76.0033 16.406C75.5994 17.2122 75.1569 17.98 74.6568 18.7095C74.2913 19.2469 73.9066 19.7652 73.4834 20.2643C73.1756 20.6098 73.0024 20.8017 72.964 20.8401C72.3099 21.4736 71.5789 22.011 70.7518 22.4333C69.8669 22.894 68.9243 23.2395 67.9625 23.4699C66.943 23.7002 65.9234 23.8154 64.8847 23.7962C63.8459 23.777 62.8264 23.5851 61.8645 23.2395C60.8835 22.8748 59.9794 22.3566 59.2099 21.6655C58.3443 20.9169 57.671 19.9763 57.2285 18.9206C56.6707 17.7305 56.3437 16.4636 56.2475 15.1583C56.1705 13.949 56.2475 12.7205 56.5553 11.5304C56.8438 10.3595 57.3055 9.24619 57.921 8.22884C58.5559 7.19229 59.3061 6.25172 60.191 5.42633C61.0758 4.58173 62.0761 3.87151 63.1534 3.29565C64.2306 2.71979 65.404 2.2783 66.6159 2.02876C66.6544 2.02876 66.8275 2.00957 67.1546 1.97118C67.6355 1.93279 68.1164 1.93279 68.5973 1.97118C69.309 2.00957 70.0016 2.14393 70.6941 2.33589C71.5789 2.58543 72.4254 2.95014 73.214 3.39163C74.1951 3.94829 75.1184 4.63932 75.9071 5.44552L71.1942 10.3979L71.175 10.3595Z" fill="#FDBD3F"/>
<path d="M90.2363 1.43968L104.183 0.441528L103.394 6.98712L97.046 7.23665L96.7767 9.19457L102.067 8.86825L102.413 14.147L97.0845 14.4733L96.8344 20.9229L90.4094 21.0764L90.2363 1.45888V1.43968Z" fill="#FCE4C9"/>
<path d="M121.168 1.05574C121.264 3.62791 121.341 5.6818 121.38 7.25581C121.418 8.81063 121.457 10.0199 121.476 10.8453C121.476 11.6899 121.495 12.2466 121.495 12.5153V12.9184C121.515 13.8974 121.438 14.8955 121.264 15.8553C121.111 16.7575 120.803 17.6213 120.341 18.4083C119.879 19.1761 119.264 19.8479 118.533 20.3662C117.763 20.9037 116.821 21.2876 115.667 21.5179C113.916 21.8634 112.416 21.8826 111.146 21.6139C109.876 21.3451 108.838 20.8461 108.03 20.0975C107.203 19.3296 106.587 18.3699 106.26 17.2949C105.875 16.0856 105.702 14.8188 105.76 13.5519V13.3023C105.76 13.1296 105.76 12.7841 105.779 12.2466C105.779 11.7091 105.818 10.9605 105.837 9.98154C105.837 9.00258 105.895 7.7165 105.933 6.0849C105.991 4.45331 106.048 2.47619 106.106 0.153564L113.32 1.42045L112.666 13.2447C112.589 13.6286 112.608 14.0317 112.666 14.4157C112.704 14.6652 112.8 14.9147 112.897 15.1451C112.935 15.2411 112.993 15.3178 113.05 15.3946C113.204 15.5674 113.397 15.6825 113.628 15.7209C113.839 15.7593 114.089 15.5482 114.359 15.1259C114.416 15.0299 114.474 14.9147 114.512 14.8188C114.628 14.4924 114.724 14.1469 114.763 13.8014C114.859 13.2064 114.878 12.6113 114.839 12.0162L114.32 2.36102L121.168 1.09413V1.05574Z" fill="#FCE4C9"/>
<path d="M89.5439 1.26689L103.49 0.268738L102.702 6.81433L96.3536 7.06387L96.0843 9.02178L101.374 8.69546L101.721 13.9742L96.3921 14.3005L96.1421 20.7501L89.7171 20.9037L89.5439 1.28609V1.26689Z" fill="#60547C"/>
<path d="M120.495 0.902177C120.592 3.47434 120.669 5.52824 120.707 7.08305C120.746 8.63787 120.784 9.84718 120.803 10.6918C120.803 11.5364 120.822 12.093 120.822 12.3618V12.7649C120.842 13.7438 120.765 14.742 120.592 15.7017C120.438 16.6039 120.13 17.4677 119.668 18.2547C119.207 19.0225 118.591 19.6944 117.86 20.2126C117.091 20.7501 116.148 21.134 114.994 21.3643C113.243 21.7099 111.743 21.729 110.473 21.4603C109.204 21.1916 108.165 20.6925 107.357 19.9439C106.53 19.1761 105.914 18.2163 105.587 17.1414C105.202 15.9321 105.029 14.6652 105.087 13.3983V13.1488C105.087 12.976 105.087 12.6305 105.106 12.093C105.106 11.5556 105.145 10.8069 105.164 9.82798C105.164 8.86822 105.222 7.56294 105.26 5.93134C105.318 4.29974 105.376 2.32263 105.433 0L112.647 1.26689L111.993 13.0912C111.916 13.4751 111.935 13.8782 111.993 14.2621C112.031 14.5116 112.128 14.7612 112.224 14.9915C112.262 15.0875 112.32 15.1643 112.378 15.241C112.532 15.4138 112.724 15.529 112.955 15.5674C113.166 15.6058 113.416 15.3946 113.686 14.9723C113.743 14.8763 113.782 14.7612 113.84 14.6652C113.955 14.3389 114.051 13.9934 114.09 13.6478C114.186 13.0528 114.205 12.4577 114.167 11.8627L113.628 2.20746L120.476 0.959764L120.495 0.902177Z" fill="#60547C"/>
<path d="M87.9092 1.57402L101.856 0.575867L101.067 7.12145L94.7189 7.371L94.4496 9.32891L99.7396 9.00259L100.086 14.2813L94.7574 14.6076L94.5073 21.0572L88.0823 21.2108L87.9092 1.59322V1.57402Z" fill="#FDBD3F"/>
<path d="M118.861 1.19011C118.957 3.76228 119.034 5.81617 119.072 7.39019C119.111 8.945 119.149 10.1543 119.168 10.9989C119.168 11.8435 119.188 12.381 119.188 12.6689V13.072C119.188 14.0509 119.13 15.0491 118.957 16.0089C118.803 16.911 118.495 17.7748 118.033 18.5618C117.572 19.3488 116.956 20.0015 116.225 20.5198C115.456 21.0572 114.513 21.4411 113.359 21.6715C111.609 22.017 110.108 22.0362 108.838 21.7674C107.569 21.4987 106.549 20.9996 105.722 20.251C104.895 19.4832 104.279 18.5234 103.952 17.4485C103.568 16.2392 103.395 14.9723 103.452 13.7054V13.4559C103.452 13.2831 103.452 12.9376 103.471 12.4002C103.471 11.8627 103.51 11.1141 103.529 10.1351C103.529 9.15615 103.587 7.87007 103.625 6.23847C103.683 4.60687 103.741 2.62976 103.799 0.307129L111.012 1.57402L110.358 13.3983C110.281 13.7822 110.3 14.1853 110.358 14.5692C110.397 14.8188 110.493 15.0683 110.589 15.2986C110.627 15.3946 110.685 15.4714 110.743 15.5482C110.897 15.7209 111.089 15.8361 111.32 15.8745C111.532 15.9129 111.782 15.7017 112.051 15.2794C112.109 15.1835 112.147 15.0683 112.205 14.9723C112.32 14.646 112.416 14.3005 112.455 13.955C112.551 13.3599 112.57 12.7649 112.532 12.1698L111.993 2.49539L118.841 1.2285L118.861 1.19011Z" fill="#FDBD3F"/>
<path d="M153.139 3.7026C153.639 4.70075 154.024 5.75649 154.255 6.85062C154.524 8.04073 154.601 9.25003 154.524 10.4593C154.447 11.7646 154.158 13.0507 153.697 14.2792C153.177 15.6421 152.446 16.9089 151.523 18.0223L152.697 19.1548L148.965 22.8595L147.657 21.0743C146.56 21.5542 145.387 21.8613 144.194 22.0149C142.982 22.1684 141.751 22.1109 140.558 21.8421C139.366 21.5734 138.231 21.0551 137.25 20.3257C136.23 19.5771 135.422 18.5405 134.826 17.2161C133.979 15.3157 133.652 13.4538 133.806 11.6494C133.941 9.88348 134.499 8.1559 135.384 6.62028C136.288 5.06546 137.5 3.72179 138.942 2.66605C140.424 1.57192 142.097 0.765722 143.867 0.305036C144.906 0.036302 146.002 -0.0596805 147.079 0.0362959C148.022 0.132272 148.926 0.362621 149.792 0.746526C150.542 1.07285 151.235 1.53353 151.85 2.0902C152.35 2.55088 152.793 3.08835 153.12 3.7026H153.139ZM139.924 12.7052C139.924 13.5114 140.039 14.164 140.27 14.6631C140.462 15.1238 140.789 15.5077 141.193 15.7956C141.578 16.0452 142.02 16.1987 142.482 16.1987C142.982 16.1987 143.463 16.1411 143.944 15.9684L143.367 15.1814L145.483 12.0909L146.791 13.377C147.06 12.8779 147.291 12.3597 147.445 11.8222C147.58 11.3807 147.637 10.92 147.657 10.4593C147.657 10.0754 147.637 9.69152 147.541 9.32681C147.464 9.00049 147.349 8.69337 147.214 8.40544C147.003 7.90636 146.618 7.50326 146.137 7.23452C145.675 7.00418 145.156 6.88901 144.636 6.9274C144.059 6.96579 143.501 7.11936 143.001 7.38809C142.424 7.67602 141.924 8.07912 141.482 8.559C141.001 9.09647 140.635 9.69152 140.366 10.3634C140.058 11.112 139.924 11.899 139.924 12.7052Z" fill="#FCE4C9"/>
<path d="M172.164 1.32237C172.261 3.89454 172.338 5.94844 172.376 7.50325C172.414 9.05807 172.453 10.2674 172.472 11.112C172.472 11.9566 172.491 12.5132 172.491 12.782V13.1851C172.491 14.164 172.434 15.1622 172.261 16.1219C172.107 17.0241 171.799 17.8879 171.337 18.6749C170.876 19.4427 170.26 20.1145 169.529 20.6328C168.76 21.1703 167.817 21.5542 166.663 21.7845C164.912 22.1301 163.412 22.1492 162.142 21.8805C160.873 21.6118 159.834 21.1127 159.026 20.3833C158.199 19.6155 157.583 18.6557 157.256 17.5808C156.871 16.3715 156.698 15.1046 156.756 13.8377V13.5882C156.756 13.4154 156.756 13.0699 156.775 12.5324C156.794 11.9949 156.814 11.2463 156.833 10.2674C156.833 9.28841 156.891 8.00233 156.929 6.37073C156.987 4.73913 157.045 2.76202 157.102 0.439392L164.316 1.70628L163.662 13.5306C163.585 13.9145 163.604 14.3176 163.662 14.7015C163.7 14.951 163.797 15.2006 163.893 15.4309C163.931 15.5269 163.989 15.6037 164.047 15.6804C164.2 15.8532 164.412 15.9684 164.624 16.0068C164.835 16.0452 165.085 15.834 165.355 15.4117C165.412 15.3157 165.451 15.2006 165.509 15.1046C165.624 14.7783 165.72 14.4327 165.759 14.0872C165.855 13.4922 165.874 12.8971 165.836 12.3021L165.297 2.64684L172.145 1.37996L172.164 1.32237Z" fill="#FCE4C9"/>
<path d="M183.957 0.516174L182.918 20.8824L176.281 21.6502L176.531 1.41835L183.937 0.535374L183.957 0.516174Z" fill="#FCE4C9"/>
<path d="M188.053 21.9765L194.19 7.15774L186.822 7.63762L188.227 1.03444L206.963 0.439392L198.422 14.6055L207.905 13.4346L206.636 20.7672L188.053 21.9765Z" fill="#FCE4C9"/>
<path d="M152.351 3.79858C152.851 4.79673 153.236 5.85247 153.467 6.9466C153.736 8.13671 153.813 9.34601 153.736 10.5553C153.659 11.8606 153.37 13.1467 152.909 14.3752C152.389 15.738 151.658 17.0049 150.735 18.1182L151.908 19.2508L148.177 22.9363L146.868 21.1511C145.772 21.631 144.599 21.9381 143.406 22.0725C142.194 22.226 140.963 22.1685 139.77 21.9189C138.578 21.6502 137.443 21.1319 136.462 20.4025C135.442 19.6539 134.634 18.6173 134.038 17.2929C133.191 15.3925 132.864 13.5306 133.018 11.7262C133.172 9.96025 133.711 8.23268 134.596 6.69706C135.5 5.14224 136.712 3.79858 138.154 2.74284C139.636 1.64871 141.309 0.842499 143.079 0.381812C144.118 0.113078 145.214 0.0171029 146.291 0.113079C147.234 0.209056 148.138 0.458596 149.004 0.842502C149.754 1.16882 150.446 1.62951 151.062 2.18617C151.562 2.64686 152.005 3.18432 152.332 3.77938L152.351 3.79858ZM139.135 12.8012C139.135 13.6074 139.251 14.26 139.482 14.7591C139.674 15.2198 140.001 15.6037 140.405 15.8916C140.79 16.1411 141.232 16.2755 141.694 16.2947C142.194 16.2947 142.675 16.2371 143.156 16.0644L142.579 15.2773L144.695 12.1869L146.003 13.473C146.272 12.9739 146.503 12.4556 146.657 11.9182C146.792 11.4767 146.849 11.016 146.868 10.5553C146.868 10.1714 146.849 9.7875 146.753 9.42279C146.676 9.09647 146.561 8.78934 146.426 8.48222C146.214 7.98314 145.83 7.58004 145.349 7.31131C144.887 7.08096 144.368 6.96579 143.848 7.00418C143.271 7.04257 142.713 7.21533 142.213 7.48407C141.636 7.77199 141.136 8.1751 140.694 8.65498C140.213 9.19245 139.847 9.7875 139.578 10.4593C139.27 11.2079 139.135 11.995 139.135 12.8012Z" fill="#60547C"/>
<path d="M171.356 1.39916C171.452 3.97133 171.529 6.02522 171.567 7.59924C171.606 9.15405 171.644 10.3634 171.664 11.2079C171.664 12.0525 171.683 12.6092 171.683 12.8779V13.281C171.683 14.26 171.625 15.2581 171.452 16.2179C171.298 17.1201 170.99 17.9839 170.529 18.7709C170.067 19.5387 169.451 20.2105 168.72 20.7288C167.951 21.2663 167.008 21.6502 165.854 21.8805C164.104 22.2068 162.603 22.2452 161.334 21.9765C160.064 21.7078 159.025 21.2087 158.217 20.4601C157.39 19.6923 156.775 18.7325 156.448 17.6576C156.063 16.4483 155.89 15.1814 155.947 13.9145V13.6649C155.947 13.4922 155.947 13.1467 155.967 12.6092C155.967 12.0717 156.005 11.3231 156.024 10.3442C156.024 9.3652 156.082 8.07911 156.121 6.44751C156.178 4.81592 156.236 2.8388 156.294 0.516174L163.507 1.78307L162.853 13.6074C162.776 13.9913 162.796 14.3944 162.853 14.7783C162.892 15.0278 162.988 15.2773 163.084 15.5077C163.123 15.6037 163.18 15.6804 163.238 15.7572C163.392 15.93 163.584 16.0452 163.815 16.0835C164.027 16.1219 164.277 15.9108 164.546 15.4885C164.604 15.3925 164.642 15.2773 164.7 15.1814C164.815 14.8551 164.912 14.5095 164.95 14.164C165.046 13.569 165.065 12.9739 165.027 12.3789L164.488 2.70444L171.337 1.43755L171.356 1.39916Z" fill="#60547C"/>
<path d="M183.168 0.592957L182.129 20.9591L175.492 21.7078L175.742 1.47594L183.148 0.592957H183.168Z" fill="#60547C"/>
<path d="M187.246 22.0725L193.382 7.25375L186.015 7.73363L187.419 1.13046L206.155 0.5354L197.614 14.7015L207.098 13.5306L205.847 20.8632L187.265 22.0725H187.246Z" fill="#60547C"/>
<path d="M150.369 3.87538C150.87 4.87354 151.254 5.92928 151.485 7.02342C151.754 8.21352 151.851 9.42282 151.754 10.6321C151.658 11.9374 151.389 13.2235 150.927 14.452C150.408 15.8148 149.677 17.0817 148.754 18.1951L149.927 19.3276L146.195 23.0323L144.887 21.2471C143.791 21.727 142.617 22.0341 141.424 22.1877C140.213 22.3412 138.981 22.2837 137.789 22.0149C136.596 21.7462 135.461 21.2279 134.48 20.4985C133.461 19.7499 132.653 18.7133 132.056 17.3889C131.21 15.4885 130.883 13.6266 131.037 11.8222C131.171 10.0563 131.729 8.32869 132.614 6.79307C133.518 5.23825 134.73 3.89458 136.173 2.83884C137.654 1.74471 139.328 0.938513 141.097 0.477826C142.136 0.209093 143.233 0.11311 144.31 0.209086C145.253 0.305063 146.157 0.535411 147.022 0.919317C147.773 1.24564 148.465 1.70632 149.081 2.26299C149.581 2.72367 150.023 3.26114 150.35 3.85619L150.369 3.87538ZM137.154 12.878C137.154 13.6842 137.269 14.3368 137.5 14.8359C137.693 15.2966 138.02 15.6805 138.424 15.9684C138.808 16.218 139.251 16.3523 139.712 16.3715C140.213 16.3715 140.693 16.3139 141.174 16.1412L140.597 15.3542L142.713 12.2637L144.021 13.5498C144.291 13.0507 144.522 12.5325 144.675 11.995C144.81 11.5535 144.868 11.0928 144.887 10.6321C144.887 10.2482 144.868 9.86431 144.772 9.4996C144.695 9.17328 144.579 8.86616 144.445 8.55904C144.233 8.05996 143.848 7.65686 143.367 7.38812C142.906 7.15778 142.386 7.04261 141.867 7.081C141.29 7.11939 140.732 7.27295 140.232 7.54169C139.655 7.82962 139.155 8.23271 138.712 8.71259C138.231 9.25006 137.846 9.84512 137.596 10.517C137.289 11.2656 137.154 12.0526 137.154 12.8588V12.878Z" fill="#FDBD3F"/>
<path d="M169.375 1.49514C169.471 4.0673 169.548 6.1212 169.587 7.69521C169.625 9.25003 169.664 10.4593 169.683 11.2847C169.683 12.1293 169.702 12.686 169.702 12.9547V13.3578C169.722 14.3368 169.645 15.3349 169.471 16.2947C169.318 17.1969 169.01 18.0607 168.548 18.8477C168.086 19.6155 167.471 20.2873 166.74 20.8056C165.97 21.3431 165.028 21.727 163.874 21.9573C162.123 22.2836 160.623 22.322 159.353 22.0533C158.084 21.7845 157.045 21.2855 156.237 20.5368C155.41 19.769 154.794 18.8093 154.467 17.7343C154.082 16.525 153.909 15.2581 153.967 13.9913V13.7417C153.967 13.569 153.967 13.2234 153.986 12.686C153.986 12.1485 154.025 11.3999 154.044 10.4209C154.063 9.44198 154.102 8.1559 154.14 6.5243C154.198 4.8927 154.255 2.91559 154.313 0.592957L161.527 1.85984L160.873 13.6841C160.796 14.068 160.815 14.4711 160.873 14.855C160.911 15.1046 161.007 15.3541 161.104 15.5845C161.142 15.6804 161.2 15.7572 161.258 15.834C161.411 16.0068 161.623 16.1219 161.835 16.1603C162.046 16.1987 162.296 15.9876 162.566 15.5653C162.623 15.4693 162.662 15.3541 162.72 15.2581C162.835 14.9318 162.931 14.5863 162.97 14.2408C163.066 13.6457 163.085 13.0507 163.047 12.4556L162.527 2.78122L169.356 1.53353L169.375 1.49514Z" fill="#FDBD3F"/>
<path d="M181.186 0.688965L180.147 21.0552L173.511 21.8038L173.761 1.57195L181.167 0.688965H181.186Z" fill="#FDBD3F"/>
<path d="M185.264 22.1492L191.401 7.3305L184.033 7.81038L185.437 1.2264L204.174 0.631348L195.633 14.7975L205.116 13.6265L203.847 20.9591L185.264 22.1684V22.1492Z" fill="#FDBD3F"/>
</svg>
